<?xml version="1.0" encoding="utf-8"?>
<!-- Generator: Adobe Illustrator 15.1.0, SVG Export Plug-In . SVG Version: 6.00 Build 0)  -->
<!DOCTYPE svg PUBLIC "-//W3C//DTD SVG 1.1//EN" "http://www.w3.org/Graphics/SVG/1.1/DTD/svg11.dtd">
<svg version="1.1" id="Our_story_-_responsible_-_screen_2"
	 xmlns="http://www.w3.org/2000/svg" xmlns:xlink="http://www.w3.org/1999/xlink" x="0px" y="0px" width="190px" height="392px"
	 viewBox="0 0 190 392" enable-background="new 0 0 190 392" xml:space="preserve">
<g>
	<g>
		<g>
			<rect x="0.082" y="174.267" fill="#C9CBE5" width="189.836" height="217.733"/>
		</g>
	</g>
	<g>
		<path fill="#002C5F" d="M32.692,267.201h-0.66c-0.12,0-0.216-0.106-0.216-0.237v-8.443c0-0.119,0.084-0.229,0.216-0.229h0.66
			c0.12,0,0.216,0.097,0.216,0.229v8.443C32.908,267.082,32.824,267.201,32.692,267.201z"/>
		<path fill="#002C5F" d="M39.591,267.201h-0.576c-0.132,0-0.239-0.106-0.239-0.237v-3.947c0-1.211-0.408-1.582-1.319-1.582
			c-0.504,0-1.066,0.19-1.618,0.469v5.062c0,0.12-0.107,0.239-0.239,0.239H35.01c-0.12,0-0.229-0.106-0.229-0.239v-6.115
			c0-0.133,0.096-0.24,0.229-0.24h0.601c0.132,0,0.229,0.107,0.229,0.24v0.229c0.659-0.373,1.198-0.553,1.906-0.553
			c1.439,0,2.087,0.898,2.087,2.494v3.945C39.83,267.095,39.723,267.201,39.591,267.201z"/>
		<path fill="#002C5F" d="M44.512,267.228c-0.239,0.035-0.552,0.061-0.778,0.061c-1.104,0-1.631-0.287-1.631-1.606v-4.187
			l-1.163-0.131c-0.133-0.014-0.229-0.084-0.229-0.219v-0.322c0-0.133,0.097-0.217,0.229-0.217h1.163v-1.176
			c0-0.119,0.084-0.215,0.216-0.24l0.624-0.096c0.012,0,0.023,0,0.036,0c0.096,0,0.18,0.084,0.18,0.205v1.307h1.295
			c0.133,0,0.24,0.107,0.24,0.24v0.408c0,0.131-0.107,0.237-0.24,0.237h-1.295v4.188c0,0.658,0.168,0.754,0.646,0.754h0.673
			c0.168,0,0.251,0.049,0.251,0.168v0.42C44.728,267.132,44.667,267.201,44.512,267.228z"/>
		<path fill="#002C5F" d="M50.702,264.24h-4.019v0.168c0,1.426,0.562,1.955,1.667,1.955c0.695,0,1.583-0.049,2.136-0.133
			c0.023,0,0.036,0,0.061,0c0.096,0,0.191,0.049,0.191,0.168v0.406c0,0.156-0.048,0.24-0.24,0.276
			c-0.685,0.132-1.343,0.203-2.146,0.203c-1.379,0-2.723-0.646-2.723-2.879v-1.078c0-1.715,0.947-2.809,2.662-2.809
			c1.752,0,2.64,1.104,2.64,2.809v0.646C50.931,264.132,50.847,264.24,50.702,264.24z M49.863,263.328
			c0-1.354-0.517-1.883-1.571-1.883c-1.03,0-1.605,0.588-1.605,1.883v0.107h3.178L49.863,263.328L49.863,263.328z"/>
		<path fill="#002C5F" d="M55.083,261.435c-0.552,0-1.055,0.145-1.654,0.504v5.025c0,0.118-0.107,0.237-0.239,0.237h-0.589
			c-0.119,0-0.229-0.106-0.229-0.237v-6.117c0-0.133,0.097-0.238,0.229-0.238h0.562c0.133,0,0.229,0.105,0.229,0.238v0.252
			c0.601-0.42,1.15-0.574,1.69-0.574c0.169,0,0.253,0.07,0.253,0.215v0.492C55.335,261.361,55.251,261.435,55.083,261.435z"/>
		<path fill="#002C5F" d="M61.286,267.201H60.71c-0.132,0-0.239-0.106-0.239-0.237v-3.947c0-1.211-0.407-1.582-1.318-1.582
			c-0.504,0-1.066,0.19-1.619,0.469v5.062c0,0.12-0.107,0.239-0.24,0.239h-0.587c-0.119,0-0.228-0.106-0.228-0.239v-6.115
			c0-0.133,0.096-0.24,0.228-0.24h0.602c0.132,0,0.228,0.107,0.228,0.24v0.229c0.66-0.373,1.199-0.553,1.907-0.553
			c1.438,0,2.087,0.898,2.087,2.494v3.945C61.526,267.095,61.419,267.201,61.286,267.201z"/>
		<path fill="#002C5F" d="M67.515,267.201h-0.551c-0.133,0-0.24-0.106-0.24-0.237v-0.267c-0.575,0.336-1.175,0.588-1.848,0.588
			c-1.02,0-1.954-0.442-1.954-1.94v-0.146c0-1.295,0.755-1.942,2.892-1.942H66.7v-0.479c0-1.008-0.348-1.354-1.282-1.354
			c-0.78,0-1.354,0.049-1.836,0.096c-0.022,0-0.035,0-0.06,0c-0.108,0-0.217-0.035-0.217-0.191v-0.418
			c0-0.133,0.084-0.205,0.252-0.229c0.492-0.084,1.044-0.156,1.859-0.156c1.666,0,2.339,0.84,2.339,2.254v4.188
			C67.755,267.095,67.647,267.201,67.515,267.201z M66.699,264.013h-0.888c-1.45,0-1.835,0.323-1.835,1.176v0.145
			c0,0.863,0.408,1.093,1.104,1.093c0.553,0,1.043-0.168,1.619-0.479V264.013z"/>
		<path fill="#002C5F" d="M70.349,267.201h-0.624c-0.119,0-0.216-0.106-0.216-0.237v-8.554c0-0.119,0.084-0.229,0.216-0.229h0.624
			c0.12,0,0.217,0.098,0.217,0.229v8.554C70.564,267.082,70.48,267.201,70.349,267.201z"/>
		<path fill="#002C5F" d="M79.118,267.154c-0.396,0.07-0.937,0.131-1.499,0.131c-1.631,0-2.555-1.149-2.555-2.914v-0.936
			c0-1.764,0.911-2.914,2.555-2.914c0.553,0,1.104,0.061,1.499,0.133c0.191,0.035,0.24,0.096,0.24,0.264v0.433
			c0,0.119-0.097,0.182-0.204,0.182c-0.023,0-0.036,0-0.048,0c-0.528-0.062-0.898-0.084-1.487-0.084
			c-0.959,0-1.499,0.635-1.499,1.988v0.938c0,1.345,0.527,1.99,1.499,1.99c0.589,0,0.959-0.022,1.487-0.084c0.012,0,0.023,0,0.048,0
			c0.107,0,0.204,0.062,0.204,0.18v0.433C79.358,267.048,79.31,267.117,79.118,267.154z"/>
		<path fill="#002C5F" d="M82.718,267.285c-1.764,0-2.663-1.162-2.663-2.926v-0.912c0-1.764,0.898-2.926,2.663-2.926
			s2.674,1.162,2.674,2.926v0.912C85.394,266.123,84.48,267.285,82.718,267.285z M84.337,263.447c0-1.223-0.492-2.002-1.619-2.002
			c-1.115,0-1.606,0.768-1.606,2.002v0.912c0,1.223,0.479,2.004,1.606,2.004c1.114,0,1.619-0.77,1.619-2.004V263.447z"/>
		<path fill="#002C5F" d="M94.511,267.201h-0.576c-0.132,0-0.239-0.106-0.239-0.237v-4.246c0-1.009-0.468-1.283-1.091-1.283
			c-0.433,0-0.938,0.145-1.403,0.324c0.072,0.264,0.107,0.573,0.107,0.936v4.271c0,0.12-0.084,0.239-0.216,0.239h-0.637
			c-0.119,0-0.203-0.106-0.203-0.239v-4.271c0-1.045-0.301-1.26-0.925-1.26c-0.433,0-0.959,0.215-1.463,0.469v5.062
			c0,0.12-0.084,0.239-0.216,0.239h-0.637c-0.12,0-0.204-0.106-0.204-0.239v-6.115c0-0.133,0.097-0.24,0.229-0.24h0.601
			c0.133,0,0.229,0.107,0.229,0.24v0.229c0.479-0.301,1.091-0.563,1.751-0.563c0.517,0,0.898,0.145,1.199,0.491
			c0.659-0.312,1.366-0.491,1.99-0.491c1.079,0,1.942,0.539,1.942,2.207v4.245C94.751,267.095,94.644,267.201,94.511,267.201z"/>
		<path fill="#002C5F" d="M104.086,267.201h-0.576c-0.131,0-0.239-0.106-0.239-0.237v-4.246c0-1.009-0.468-1.283-1.091-1.283
			c-0.434,0-0.938,0.145-1.403,0.324c0.071,0.264,0.108,0.573,0.108,0.936v4.271c0,0.12-0.084,0.239-0.217,0.239h-0.637
			c-0.119,0-0.203-0.106-0.203-0.239v-4.271c0-1.045-0.301-1.26-0.924-1.26c-0.433,0-0.959,0.215-1.463,0.469v5.062
			c0,0.12-0.084,0.239-0.218,0.239h-0.635c-0.121,0-0.205-0.106-0.205-0.239v-6.115c0-0.133,0.097-0.24,0.229-0.24h0.6
			c0.133,0,0.229,0.107,0.229,0.24v0.229c0.479-0.301,1.09-0.563,1.75-0.563c0.516,0,0.899,0.145,1.198,0.491
			c0.66-0.312,1.367-0.491,1.992-0.491c1.08,0,1.941,0.539,1.941,2.207v4.245C104.327,267.095,104.219,267.201,104.086,267.201z"/>
		<path fill="#002C5F" d="M110.784,267.201h-0.6c-0.134,0-0.229-0.106-0.229-0.237v-0.229c-0.66,0.371-1.199,0.551-1.906,0.551
			c-1.438,0-2.088-0.897-2.088-2.494v-3.944c0-0.133,0.107-0.24,0.24-0.24h0.574c0.133,0,0.239,0.107,0.239,0.24v3.944
			c0,1.211,0.408,1.584,1.318,1.584c0.504,0,1.068-0.192,1.619-0.469v-5.061c0-0.121,0.109-0.24,0.24-0.24h0.588
			c0.119,0,0.229,0.107,0.229,0.24v6.115C111.012,267.095,110.916,267.201,110.784,267.201z"/>
		<path fill="#002C5F" d="M117.456,267.201h-0.575c-0.133,0-0.24-0.106-0.24-0.237v-3.947c0-1.211-0.407-1.582-1.319-1.582
			c-0.504,0-1.066,0.19-1.619,0.469v5.062c0,0.12-0.107,0.239-0.238,0.239h-0.59c-0.119,0-0.227-0.106-0.227-0.239v-6.115
			c0-0.133,0.096-0.24,0.227-0.24h0.602c0.132,0,0.228,0.107,0.228,0.24v0.229c0.66-0.373,1.199-0.553,1.908-0.553
			c1.438,0,2.086,0.898,2.086,2.494v3.945C117.696,267.095,117.588,267.201,117.456,267.201z"/>
		<path fill="#002C5F" d="M120.303,259.552h-0.612c-0.131,0-0.24-0.107-0.24-0.24v-0.959c0-0.133,0.109-0.238,0.24-0.238h0.612
			c0.131,0,0.238,0.105,0.238,0.238v0.959C120.541,259.443,120.435,259.552,120.303,259.552z M120.278,267.201h-0.576
			c-0.131,0-0.238-0.106-0.238-0.237v-6.117c0-0.133,0.107-0.24,0.238-0.24h0.576c0.133,0,0.24,0.107,0.24,0.24v6.117
			C120.519,267.095,120.411,267.201,120.278,267.201z"/>
		<path fill="#002C5F" d="M126.133,267.154c-0.396,0.07-0.938,0.131-1.5,0.131c-1.631,0-2.555-1.149-2.555-2.914v-0.936
			c0-1.764,0.912-2.914,2.555-2.914c0.554,0,1.104,0.061,1.5,0.133c0.191,0.035,0.238,0.096,0.238,0.264v0.433
			c0,0.119-0.096,0.182-0.203,0.182c-0.022,0-0.035,0-0.049,0c-0.527-0.062-0.898-0.084-1.486-0.084
			c-0.959,0-1.498,0.635-1.498,1.988v0.938c0,1.345,0.525,1.99,1.498,1.99c0.588,0,0.959-0.022,1.486-0.084c0.014,0,0.024,0,0.049,0
			c0.107,0,0.203,0.062,0.203,0.18v0.433C126.372,267.048,126.325,267.117,126.133,267.154z"/>
		<path fill="#002C5F" d="M132.071,267.201h-0.551c-0.132,0-0.24-0.106-0.24-0.237v-0.267c-0.576,0.336-1.174,0.588-1.847,0.588
			c-1.021,0-1.954-0.442-1.954-1.94v-0.146c0-1.295,0.754-1.942,2.891-1.942h0.887v-0.479c0-1.008-0.348-1.354-1.283-1.354
			c-0.778,0-1.354,0.049-1.834,0.096c-0.024,0-0.037,0-0.061,0c-0.107,0-0.217-0.035-0.217-0.191v-0.418
			c0-0.133,0.084-0.205,0.252-0.229c0.492-0.084,1.043-0.156,1.858-0.156c1.669,0,2.341,0.84,2.341,2.254v4.188
			C132.313,267.095,132.204,267.201,132.071,267.201z M131.256,264.013h-0.887c-1.453,0-1.836,0.323-1.836,1.176v0.145
			c0,0.863,0.408,1.093,1.104,1.093c0.552,0,1.043-0.168,1.619-0.479L131.256,264.013L131.256,264.013z"/>
		<path fill="#002C5F" d="M136.942,267.228c-0.24,0.035-0.552,0.061-0.779,0.061c-1.104,0-1.631-0.287-1.631-1.606v-4.187
			l-1.162-0.131c-0.133-0.014-0.229-0.084-0.229-0.219v-0.322c0-0.133,0.096-0.217,0.229-0.217h1.162v-1.176
			c0-0.119,0.084-0.215,0.217-0.24l0.623-0.096c0.014,0,0.025,0,0.037,0c0.096,0,0.18,0.084,0.18,0.205v1.307h1.295
			c0.133,0,0.24,0.107,0.24,0.24v0.408c0,0.131-0.107,0.237-0.24,0.237h-1.295v4.188c0,0.658,0.168,0.754,0.646,0.754h0.672
			c0.168,0,0.252,0.049,0.252,0.168v0.42C137.159,267.132,137.098,267.201,136.942,267.228z"/>
		<path fill="#002C5F" d="M139.248,259.552h-0.611c-0.133,0-0.239-0.107-0.239-0.24v-0.959c0-0.133,0.106-0.238,0.239-0.238h0.611
			c0.133,0,0.24,0.105,0.24,0.238v0.959C139.487,259.443,139.379,259.552,139.248,259.552z M139.225,267.201h-0.575
			c-0.134,0-0.24-0.106-0.24-0.237v-6.117c0-0.133,0.106-0.24,0.24-0.24h0.575c0.132,0,0.24,0.107,0.24,0.24v6.117
			C139.463,267.095,139.356,267.201,139.225,267.201z"/>
		<path fill="#002C5F" d="M143.688,267.285c-1.765,0-2.664-1.162-2.664-2.926v-0.912c0-1.764,0.899-2.926,2.664-2.926
			c1.764,0,2.674,1.162,2.674,2.926v0.912C146.362,266.123,145.45,267.285,143.688,267.285z M145.307,263.447
			c0-1.223-0.491-2.002-1.618-2.002c-1.115,0-1.607,0.768-1.607,2.002v0.912c0,1.223,0.479,2.004,1.607,2.004
			c1.114,0,1.618-0.77,1.618-2.004V263.447z"/>
		<path fill="#002C5F" d="M152.59,267.201h-0.576c-0.133,0-0.239-0.106-0.239-0.237v-3.947c0-1.211-0.408-1.582-1.32-1.582
			c-0.504,0-1.066,0.19-1.617,0.469v5.062c0,0.12-0.109,0.239-0.24,0.239h-0.588c-0.121,0-0.229-0.106-0.229-0.239v-6.115
			c0-0.133,0.096-0.24,0.229-0.24h0.601c0.131,0,0.229,0.107,0.229,0.24v0.229c0.658-0.373,1.197-0.553,1.906-0.553
			c1.438,0,2.086,0.898,2.086,2.494v3.945C152.829,267.095,152.721,267.201,152.59,267.201z"/>
		<path fill="#002C5F" d="M156.396,267.285c-0.443,0-1.308-0.035-1.896-0.18c-0.156-0.035-0.252-0.107-0.252-0.24v-0.418
			c0-0.109,0.096-0.182,0.217-0.182c0.023,0,0.035,0,0.047,0c0.576,0.072,1.453,0.133,1.884,0.133c0.778,0,1.188-0.203,1.188-0.852
			c0-0.361-0.217-0.589-0.898-0.996l-1.211-0.72c-0.731-0.444-1.225-0.961-1.225-1.717c0-1.246,0.936-1.596,2.17-1.596
			c0.672,0,1.309,0.061,1.871,0.156c0.156,0.022,0.229,0.106,0.229,0.239v0.396c0,0.146-0.084,0.205-0.202,0.205
			c-0.013,0-0.025,0-0.037,0c-0.42-0.037-1.188-0.097-1.859-0.097s-1.113,0.084-1.113,0.695c0,0.359,0.275,0.588,0.826,0.91
			l1.188,0.709c0.996,0.588,1.319,1.104,1.319,1.811C158.639,266.771,157.739,267.285,156.396,267.285z"/>
		<path fill="#002C5F" d="M44.499,281.652c-0.384,0-0.888-0.037-1.199-0.061v3.369c0,0.12-0.083,0.239-0.217,0.239h-0.646
			c-0.12,0-0.217-0.106-0.217-0.239v-8.359c0-0.168,0.107-0.275,0.288-0.299c0.517-0.062,1.295-0.097,1.99-0.097
			c1.943,0,3.358,0.673,3.358,2.603v0.156C47.856,280.97,46.441,281.652,44.499,281.652z M46.766,278.81
			c0-1.211-0.72-1.678-2.268-1.678c-0.372,0-0.911,0.022-1.199,0.047v3.516c0.275,0.012,0.889,0.049,1.199,0.049
			c1.644,0,2.268-0.526,2.268-1.774V278.81z"/>
		<path fill="#002C5F" d="M53.856,282.24h-4.019v0.168c0,1.426,0.562,1.955,1.667,1.955c0.694,0,1.583-0.049,2.135-0.133
			c0.023,0,0.036,0,0.061,0c0.097,0,0.191,0.049,0.191,0.168v0.406c0,0.156-0.048,0.24-0.239,0.276
			c-0.685,0.132-1.345,0.203-2.146,0.203c-1.38,0-2.724-0.646-2.724-2.879v-1.078c0-1.715,0.948-2.809,2.663-2.809
			c1.751,0,2.64,1.104,2.64,2.809v0.646C54.085,282.132,54.001,282.24,53.856,282.24z M53.019,281.328
			c0-1.354-0.518-1.883-1.571-1.883c-1.031,0-1.606,0.588-1.606,1.883v0.107h3.178V281.328L53.019,281.328z"/>
		<path fill="#002C5F" d="M57.974,285.285c-1.764,0-2.662-1.162-2.662-2.926v-0.912c0-1.764,0.898-2.926,2.662-2.926
			c1.765,0,2.675,1.162,2.675,2.926v0.912C60.647,284.123,59.736,285.285,57.974,285.285z M59.593,281.447
			c0-1.223-0.492-2.002-1.619-2.002c-1.114,0-1.606,0.768-1.606,2.002v0.912c0,1.223,0.479,2.004,1.606,2.004
			c1.115,0,1.619-0.77,1.619-2.004V281.447z"/>
		<path fill="#002C5F" d="M64.525,285.285c-0.372,0-0.937-0.047-1.403-0.131v2.17c0,0.121-0.096,0.229-0.229,0.229h-0.611
			c-0.12,0-0.216-0.097-0.216-0.229v-8.25c0-0.156,0.035-0.229,0.252-0.276c0.636-0.156,1.476-0.275,2.207-0.275
			c1.786,0,2.613,1.164,2.613,2.965v0.861C67.141,284.231,66.276,285.285,64.525,285.285z M66.085,281.484
			c0-1.26-0.372-2.076-1.56-2.076c-0.504,0-1.067,0.062-1.403,0.121v4.75c0.396,0.07,1.021,0.119,1.403,0.119
			c1.175,0,1.56-0.768,1.56-2.051V281.484z"/>
		<path fill="#002C5F" d="M69.519,285.201h-0.623c-0.12,0-0.217-0.106-0.217-0.237v-8.554c0-0.119,0.084-0.229,0.217-0.229h0.623
			c0.12,0,0.217,0.098,0.217,0.229v8.554C69.733,285.082,69.649,285.201,69.519,285.201z"/>
		<path fill="#002C5F" d="M76.344,282.24h-4.019v0.168c0,1.426,0.562,1.955,1.667,1.955c0.695,0,1.583-0.049,2.136-0.133
			c0.023,0,0.035,0,0.061,0c0.096,0,0.191,0.049,0.191,0.168v0.406c0,0.156-0.049,0.24-0.24,0.276
			c-0.685,0.132-1.344,0.203-2.146,0.203c-1.379,0-2.723-0.646-2.723-2.879v-1.078c0-1.715,0.947-2.809,2.662-2.809
			c1.752,0,2.64,1.104,2.64,2.809v0.646C76.571,282.132,76.487,282.24,76.344,282.24z M75.505,281.328
			c0-1.354-0.517-1.883-1.57-1.883c-1.031,0-1.607,0.588-1.607,1.883v0.107h3.179L75.505,281.328L75.505,281.328z"/>
		<path fill="#002C5F" d="M85.583,285.082c-0.743,0.146-1.475,0.203-2.207,0.203c-1.786,0-2.614-1.162-2.614-2.961v-0.863
			c0-1.885,0.864-2.938,2.614-2.938c0.372,0,0.938,0.033,1.403,0.117v-2.229c0-0.119,0.097-0.229,0.229-0.229h0.611
			c0.12,0,0.217,0.096,0.217,0.229v8.396C85.835,284.963,85.8,285.048,85.583,285.082z M84.78,279.529
			c-0.396-0.072-1.021-0.084-1.402-0.084c-1.176,0-1.56,0.73-1.56,2.016v0.863c0,1.308,0.372,2.039,1.56,2.039
			c0.407,0,0.994-0.037,1.402-0.072V279.529z"/>
		<path fill="#002C5F" d="M92.327,282.24h-4.019v0.168c0,1.426,0.562,1.955,1.667,1.955c0.695,0,1.583-0.049,2.136-0.133
			c0.023,0,0.036,0,0.061,0c0.096,0,0.191,0.049,0.191,0.168v0.406c0,0.156-0.048,0.24-0.24,0.276
			c-0.685,0.132-1.344,0.203-2.146,0.203c-1.379,0-2.723-0.646-2.723-2.879v-1.078c0-1.715,0.947-2.809,2.663-2.809
			c1.75,0,2.639,1.104,2.639,2.809v0.646C92.556,282.132,92.472,282.24,92.327,282.24z M91.487,281.328
			c0-1.354-0.517-1.883-1.57-1.883c-1.031,0-1.607,0.588-1.607,1.883v0.107h3.179L91.487,281.328L91.487,281.328z"/>
		<path fill="#002C5F" d="M98.819,278.894l-1.619,5.709c-0.156,0.541-0.564,0.686-1.08,0.686s-0.923-0.145-1.081-0.686l-1.618-5.709
			c-0.013-0.033-0.013-0.06-0.013-0.084c0-0.119,0.072-0.203,0.191-0.203h0.66c0.097,0,0.181,0.072,0.229,0.229l1.379,5.229
			c0.072,0.287,0.131,0.35,0.252,0.35c0.106,0,0.18-0.062,0.252-0.35l1.379-5.229c0.049-0.154,0.133-0.229,0.229-0.229h0.659
			c0.119,0,0.191,0.084,0.191,0.203C98.831,278.834,98.831,278.859,98.819,278.894z"/>
		<path fill="#002C5F" d="M104.735,282.24h-4.019v0.168c0,1.426,0.562,1.955,1.666,1.955c0.695,0,1.584-0.049,2.136-0.133
			c0.022,0,0.036,0,0.061,0c0.096,0,0.191,0.049,0.191,0.168v0.406c0,0.156-0.048,0.24-0.24,0.276
			c-0.685,0.132-1.344,0.203-2.146,0.203c-1.379,0-2.723-0.646-2.723-2.879v-1.078c0-1.715,0.947-2.809,2.662-2.809
			c1.752,0,2.641,1.104,2.641,2.809v0.646C104.963,282.132,104.879,282.24,104.735,282.24z M103.896,281.328
			c0-1.354-0.517-1.883-1.57-1.883c-1.031,0-1.607,0.588-1.607,1.883v0.107h3.179L103.896,281.328L103.896,281.328z"/>
		<path fill="#002C5F" d="M107.364,285.201h-0.623c-0.121,0-0.217-0.106-0.217-0.237v-8.554c0-0.119,0.084-0.229,0.217-0.229h0.623
			c0.121,0,0.217,0.098,0.217,0.229v8.554C107.581,285.082,107.497,285.201,107.364,285.201z"/>
		<path fill="#002C5F" d="M111.78,285.285c-1.765,0-2.664-1.162-2.664-2.926v-0.912c0-1.764,0.899-2.926,2.664-2.926
			c1.764,0,2.674,1.162,2.674,2.926v0.912C114.454,284.123,113.541,285.285,111.78,285.285z M113.399,281.447
			c0-1.223-0.492-2.002-1.619-2.002c-1.115,0-1.607,0.768-1.607,2.002v0.912c0,1.223,0.479,2.004,1.607,2.004
			c1.115,0,1.619-0.77,1.619-2.004V281.447z"/>
		<path fill="#002C5F" d="M118.331,285.285c-0.371,0-0.936-0.047-1.402-0.131v2.17c0,0.121-0.096,0.229-0.229,0.229h-0.611
			c-0.119,0-0.217-0.097-0.217-0.229v-8.25c0-0.156,0.037-0.229,0.252-0.276c0.637-0.156,1.477-0.275,2.207-0.275
			c1.787,0,2.615,1.164,2.615,2.965v0.861C120.946,284.231,120.082,285.285,118.331,285.285z M119.891,281.484
			c0-1.26-0.372-2.076-1.561-2.076c-0.504,0-1.066,0.062-1.402,0.121v4.75c0.396,0.07,1.021,0.119,1.402,0.119
			c1.176,0,1.561-0.768,1.561-2.051V281.484z"/>
		<path fill="#002C5F" d="M130.065,285.201h-0.576c-0.133,0-0.24-0.106-0.24-0.237v-4.246c0-1.009-0.469-1.283-1.092-1.283
			c-0.432,0-0.937,0.145-1.402,0.324c0.072,0.264,0.107,0.573,0.107,0.936v4.271c0,0.12-0.084,0.239-0.215,0.239h-0.638
			c-0.119,0-0.203-0.106-0.203-0.239v-4.271c0-1.045-0.301-1.26-0.924-1.26c-0.434,0-0.959,0.215-1.465,0.469v5.062
			c0,0.12-0.084,0.239-0.215,0.239h-0.637c-0.119,0-0.203-0.106-0.203-0.239v-6.115c0-0.133,0.096-0.24,0.229-0.24h0.601
			c0.131,0,0.229,0.107,0.229,0.24v0.229c0.479-0.301,1.09-0.563,1.75-0.563c0.516,0,0.898,0.145,1.199,0.491
			c0.66-0.312,1.367-0.491,1.99-0.491c1.08,0,1.942,0.539,1.942,2.207v4.245C130.305,285.095,130.196,285.201,130.065,285.201z"/>
		<path fill="#002C5F" d="M136.797,282.24h-4.018v0.168c0,1.426,0.562,1.955,1.666,1.955c0.694,0,1.584-0.049,2.135-0.133
			c0.025,0,0.037,0,0.061,0c0.097,0,0.191,0.049,0.191,0.168v0.406c0,0.156-0.047,0.24-0.238,0.276
			c-0.686,0.132-1.344,0.203-2.146,0.203c-1.379,0-2.724-0.646-2.724-2.879v-1.078c0-1.715,0.947-2.809,2.662-2.809
			c1.752,0,2.64,1.104,2.64,2.809v0.646C137.026,282.132,136.942,282.24,136.797,282.24z M135.957,281.328
			c0-1.354-0.516-1.883-1.57-1.883c-1.03,0-1.606,0.588-1.606,1.883v0.107h3.178L135.957,281.328L135.957,281.328z"/>
		<path fill="#002C5F" d="M143.278,285.201h-0.576c-0.133,0-0.24-0.106-0.24-0.237v-3.947c0-1.211-0.408-1.582-1.317-1.582
			c-0.505,0-1.068,0.19-1.619,0.469v5.062c0,0.12-0.109,0.239-0.24,0.239h-0.588c-0.121,0-0.229-0.106-0.229-0.239v-6.115
			c0-0.133,0.097-0.24,0.229-0.24h0.6c0.133,0,0.229,0.107,0.229,0.24v0.229c0.66-0.373,1.198-0.553,1.905-0.553
			c1.439,0,2.089,0.898,2.089,2.494v3.945C143.519,285.095,143.409,285.201,143.278,285.201z"/>
		<path fill="#002C5F" d="M148.198,285.228c-0.24,0.035-0.553,0.061-0.779,0.061c-1.104,0-1.631-0.287-1.631-1.606v-4.187
			l-1.164-0.131c-0.131-0.014-0.227-0.084-0.227-0.219v-0.322c0-0.133,0.096-0.217,0.227-0.217h1.164v-1.176
			c0-0.119,0.084-0.215,0.217-0.24l0.623-0.096c0.012,0,0.023,0,0.035,0c0.098,0,0.182,0.084,0.182,0.205v1.307h1.295
			c0.131,0,0.24,0.107,0.24,0.24v0.408c0,0.131-0.109,0.237-0.24,0.237h-1.295v4.188c0,0.658,0.168,0.754,0.646,0.754h0.672
			c0.168,0,0.25,0.049,0.25,0.168v0.42C148.413,285.132,148.354,285.201,148.198,285.228z"/>
		<path fill="#002C5F" d="M55.219,303.201h-0.61c-0.133,0-0.24-0.106-0.24-0.237v-3.982h-4.103v3.982
			c0,0.131-0.107,0.237-0.239,0.237h-0.612c-0.132,0-0.239-0.106-0.239-0.237v-8.433c0-0.133,0.107-0.24,0.239-0.24h0.612
			c0.132,0,0.239,0.107,0.239,0.24v3.478h4.103v-3.478c0-0.133,0.107-0.24,0.24-0.24h0.61c0.132,0,0.239,0.107,0.239,0.24v8.433
			C55.46,303.095,55.353,303.201,55.219,303.201z"/>
		<path fill="#002C5F" d="M62.071,300.24h-4.019v0.168c0,1.426,0.562,1.955,1.667,1.955c0.694,0,1.583-0.049,2.136-0.133
			c0.023,0,0.035,0,0.06,0c0.097,0,0.192,0.049,0.192,0.168v0.406c0,0.156-0.048,0.24-0.24,0.276
			c-0.685,0.132-1.343,0.203-2.146,0.203c-1.379,0-2.724-0.646-2.724-2.879v-1.078c0-1.715,0.948-2.809,2.663-2.809
			c1.751,0,2.64,1.104,2.64,2.809v0.646C62.3,300.132,62.216,300.24,62.071,300.24z M61.232,299.328
			c0-1.354-0.517-1.883-1.571-1.883c-1.03,0-1.606,0.588-1.606,1.883v0.107h3.179L61.232,299.328L61.232,299.328z"/>
		<path fill="#002C5F" d="M68.096,303.201h-0.552c-0.132,0-0.239-0.106-0.239-0.237v-0.267c-0.575,0.336-1.175,0.588-1.847,0.588
			c-1.021,0-1.955-0.442-1.955-1.94v-0.146c0-1.295,0.755-1.942,2.891-1.942h0.888v-0.479c0-1.008-0.349-1.354-1.283-1.354
			c-0.779,0-1.354,0.049-1.835,0.096c-0.023,0-0.036,0-0.061,0c-0.107,0-0.216-0.035-0.216-0.191v-0.418
			c0-0.133,0.084-0.205,0.252-0.229c0.492-0.084,1.043-0.156,1.858-0.156c1.668,0,2.34,0.84,2.34,2.254v4.188
			C68.335,303.095,68.228,303.201,68.096,303.201z M67.28,300.013h-0.888c-1.45,0-1.835,0.323-1.835,1.176v0.145
			c0,0.863,0.408,1.093,1.104,1.093c0.553,0,1.043-0.168,1.619-0.479V300.013z"/>
		<path fill="#002C5F" d="M70.93,303.201h-0.624c-0.119,0-0.216-0.106-0.216-0.237v-8.554c0-0.119,0.084-0.229,0.216-0.229h0.624
			c0.12,0,0.217,0.098,0.217,0.229v8.554C71.146,303.082,71.062,303.201,70.93,303.201z"/>
		<path fill="#002C5F" d="M76.185,303.228c-0.239,0.035-0.552,0.061-0.778,0.061c-1.104,0-1.631-0.287-1.631-1.606v-4.187
			l-1.163-0.131c-0.132-0.014-0.229-0.084-0.229-0.219v-0.322c0-0.133,0.097-0.217,0.229-0.217h1.163v-1.176
			c0-0.119,0.084-0.215,0.216-0.24l0.624-0.096c0.013,0,0.023,0,0.036,0c0.096,0,0.18,0.084,0.18,0.205v1.307h1.296
			c0.132,0,0.239,0.107,0.239,0.24v0.408c0,0.131-0.107,0.237-0.239,0.237h-1.296v4.188c0,0.658,0.169,0.754,0.647,0.754h0.672
			c0.168,0,0.251,0.049,0.251,0.168v0.42C76.399,303.132,76.341,303.201,76.185,303.228z"/>
		<path fill="#002C5F" d="M82.327,303.201h-0.576c-0.132,0-0.239-0.106-0.239-0.237v-3.947c0-1.197-0.504-1.568-1.284-1.568
			c-0.371,0-1.127,0.097-1.654,0.336v5.181c0,0.12-0.107,0.239-0.24,0.239h-0.587c-0.119,0-0.229-0.106-0.229-0.239v-8.539
			c0-0.131,0.097-0.24,0.229-0.24h0.601c0.133,0,0.229,0.109,0.229,0.24v2.471c0.576-0.252,1.318-0.371,1.835-0.371
			c1.271,0,2.159,0.73,2.159,2.494v3.945C82.567,303.095,82.46,303.201,82.327,303.201z"/>
		<path fill="#002C5F" d="M91.519,303.201h-0.551c-0.132,0-0.24-0.106-0.24-0.237v-0.267c-0.575,0.336-1.175,0.588-1.847,0.588
			c-1.021,0-1.955-0.442-1.955-1.94v-0.146c0-1.295,0.755-1.942,2.892-1.942h0.887v-0.479c0-1.008-0.348-1.354-1.282-1.354
			c-0.78,0-1.354,0.049-1.835,0.096c-0.023,0-0.036,0-0.061,0c-0.107,0-0.217-0.035-0.217-0.191v-0.418
			c0-0.133,0.084-0.205,0.253-0.229c0.491-0.084,1.043-0.156,1.858-0.156c1.667,0,2.339,0.84,2.339,2.254v4.188
			C91.76,303.095,91.651,303.201,91.519,303.201z M90.704,300.013h-0.887c-1.451,0-1.835,0.323-1.835,1.176v0.145
			c0,0.863,0.407,1.093,1.103,1.093c0.553,0,1.044-0.168,1.619-0.479V300.013z"/>
		<path fill="#002C5F" d="M98.204,303.201h-0.576c-0.133,0-0.24-0.106-0.24-0.237v-3.947c0-1.211-0.407-1.582-1.317-1.582
			c-0.504,0-1.067,0.19-1.62,0.469v5.062c0,0.12-0.107,0.239-0.239,0.239h-0.588c-0.119,0-0.228-0.106-0.228-0.239v-6.115
			c0-0.133,0.096-0.24,0.228-0.24h0.601c0.133,0,0.229,0.107,0.229,0.24v0.229c0.66-0.373,1.199-0.553,1.908-0.553
			c1.438,0,2.086,0.898,2.086,2.494v3.945C98.444,303.095,98.334,303.201,98.204,303.201z"/>
		<path fill="#002C5F" d="M104.685,303.082c-0.744,0.146-1.478,0.203-2.207,0.203c-1.787,0-2.615-1.162-2.615-2.961v-0.863
			c0-1.885,0.863-2.938,2.615-2.938c0.37,0,0.936,0.033,1.401,0.117v-2.229c0-0.119,0.097-0.229,0.229-0.229h0.61
			c0.121,0,0.218,0.096,0.218,0.229v8.396C104.937,302.963,104.899,303.048,104.685,303.082z M103.881,297.529
			c-0.396-0.072-1.021-0.084-1.403-0.084c-1.175,0-1.56,0.73-1.56,2.016v0.863c0,1.308,0.371,2.039,1.56,2.039
			c0.407,0,0.995-0.037,1.403-0.072V297.529z"/>
		<path fill="#002C5F" d="M111.465,303.285c-0.444,0-1.309-0.035-1.896-0.18c-0.156-0.035-0.252-0.107-0.252-0.24v-0.418
			c0-0.109,0.096-0.182,0.217-0.182c0.022,0,0.035,0,0.047,0c0.576,0.072,1.453,0.133,1.885,0.133c0.777,0,1.187-0.203,1.187-0.852
			c0-0.361-0.216-0.589-0.898-0.996l-1.211-0.72c-0.732-0.444-1.225-0.961-1.225-1.717c0-1.246,0.936-1.596,2.172-1.596
			c0.67,0,1.307,0.061,1.871,0.156c0.155,0.022,0.229,0.106,0.229,0.239v0.396c0,0.146-0.084,0.205-0.205,0.205
			c-0.012,0-0.022,0-0.035,0c-0.42-0.037-1.188-0.097-1.858-0.097c-0.672,0-1.115,0.084-1.115,0.695c0,0.359,0.275,0.588,0.826,0.91
			l1.188,0.709c0.996,0.588,1.318,1.104,1.318,1.811C113.707,302.771,112.81,303.285,111.465,303.285z"/>
		<path fill="#002C5F" d="M119.479,303.201h-0.552c-0.133,0-0.239-0.106-0.239-0.237v-0.267c-0.576,0.336-1.175,0.588-1.847,0.588
			c-1.021,0-1.955-0.442-1.955-1.94v-0.146c0-1.295,0.754-1.942,2.892-1.942h0.887v-0.479c0-1.008-0.348-1.354-1.283-1.354
			c-0.779,0-1.354,0.049-1.836,0.096c-0.022,0-0.035,0-0.059,0c-0.109,0-0.217-0.035-0.217-0.191v-0.418
			c0-0.133,0.084-0.205,0.252-0.229c0.491-0.084,1.043-0.156,1.858-0.156c1.668,0,2.34,0.84,2.34,2.254v4.188
			C119.719,303.095,119.612,303.201,119.479,303.201z M118.663,300.013h-0.887c-1.451,0-1.834,0.323-1.834,1.176v0.145
			c0,0.863,0.407,1.093,1.104,1.093c0.553,0,1.043-0.168,1.619-0.479v-1.934H118.663z"/>
		<path fill="#002C5F" d="M124.353,294.914h-0.576c-0.562,0-0.732,0.168-0.732,0.828v0.863h1.26c0.134,0,0.229,0.096,0.229,0.217
			v0.467c0,0.119-0.096,0.203-0.229,0.203h-1.26v5.471c0,0.119-0.106,0.238-0.227,0.238h-0.588c-0.132,0-0.24-0.119-0.24-0.238
			v-5.471l-1.162-0.131c-0.133-0.014-0.229-0.096-0.229-0.217v-0.322c0-0.121,0.097-0.217,0.229-0.217h1.162v-0.863
			c0-1.283,0.625-1.668,1.68-1.668c0.324,0,0.516,0.037,0.672,0.072c0.133,0.035,0.229,0.084,0.229,0.191v0.396
			C124.567,294.867,124.483,294.914,124.353,294.914z"/>
		<path fill="#002C5F" d="M130.241,300.24h-4.019v0.168c0,1.426,0.562,1.955,1.666,1.955c0.695,0,1.584-0.049,2.136-0.133
			c0.024,0,0.037,0,0.061,0c0.096,0,0.191,0.049,0.191,0.168v0.406c0,0.156-0.047,0.24-0.24,0.276
			c-0.685,0.132-1.342,0.203-2.146,0.203c-1.379,0-2.725-0.646-2.725-2.879v-1.078c0-1.715,0.949-2.809,2.664-2.809
			c1.75,0,2.639,1.104,2.639,2.809v0.646C130.469,300.132,130.385,300.24,130.241,300.24z M129.401,299.328
			c0-1.354-0.517-1.883-1.57-1.883c-1.031,0-1.607,0.588-1.607,1.883v0.107h3.179L129.401,299.328L129.401,299.328z"/>
		<path fill="#002C5F" d="M134.836,303.228c-0.24,0.035-0.551,0.061-0.779,0.061c-1.104,0-1.631-0.287-1.631-1.606v-4.187
			l-1.162-0.131c-0.133-0.014-0.229-0.084-0.229-0.219v-0.322c0-0.133,0.096-0.217,0.229-0.217h1.162v-1.176
			c0-0.119,0.084-0.215,0.218-0.24l0.622-0.096c0.013,0,0.023,0,0.037,0c0.097,0,0.181,0.084,0.181,0.205v1.307h1.295
			c0.131,0,0.239,0.107,0.239,0.24v0.408c0,0.131-0.108,0.237-0.239,0.237h-1.295v4.188c0,0.658,0.168,0.754,0.646,0.754h0.672
			c0.168,0,0.252,0.049,0.252,0.168v0.42C135.053,303.132,134.993,303.201,134.836,303.228z"/>
		<path fill="#002C5F" d="M141.28,296.894l-1.979,6.908c-0.371,1.297-0.813,1.774-2.194,1.774c-0.336,0-0.755-0.047-1.007-0.106
			c-0.145-0.035-0.252-0.072-0.252-0.191v-0.442c0-0.132,0.097-0.191,0.228-0.191c0.014,0,0.024,0,0.037,0
			c0.264,0.023,0.803,0.072,1.065,0.072c0.685,0,0.984-0.181,1.188-1.021l0.121-0.492h-0.168c-0.361,0-0.673-0.084-0.89-0.827
			l-1.596-5.48c-0.012-0.023-0.012-0.061-0.012-0.084c0-0.119,0.071-0.203,0.217-0.203h0.66c0.096,0,0.18,0.096,0.202,0.191
			l1.416,5.205c0.06,0.239,0.144,0.264,0.228,0.264h0.193l1.463-5.48c0.022-0.096,0.119-0.18,0.229-0.18h0.67
			c0.121,0,0.191,0.084,0.191,0.203C141.291,296.834,141.291,296.869,141.28,296.894z"/>
		<path fill="#002C5F" d="M61.557,321.179c-0.312,0.049-1.211,0.106-2.338,0.106c-1.284,0-2.556-0.252-2.556-2.229v-6.523
			c0-0.131,0.107-0.237,0.24-0.237h0.611c0.133,0,0.24,0.106,0.24,0.237v6.523c0,0.912,0.204,1.248,1.475,1.248h2.315
			c0.084,0,0.132,0.061,0.132,0.145v0.562C61.677,321.082,61.628,321.166,61.557,321.179z"/>
		<path fill="#002C5F" d="M64.855,321.285c-1.764,0-2.663-1.162-2.663-2.926v-0.912c0-1.764,0.898-2.926,2.663-2.926
			c1.764,0,2.674,1.162,2.674,2.926v0.912C67.53,320.123,66.619,321.285,64.855,321.285z M66.476,317.447
			c0-1.223-0.491-2.002-1.618-2.002c-1.115,0-1.607,0.768-1.607,2.002v0.912c0,1.223,0.479,2.004,1.607,2.004
			c1.114,0,1.618-0.77,1.618-2.004V317.447z"/>
		<path fill="#002C5F" d="M72.787,321.154c-0.396,0.07-0.937,0.131-1.499,0.131c-1.631,0-2.555-1.149-2.555-2.914v-0.936
			c0-1.764,0.912-2.914,2.555-2.914c0.553,0,1.104,0.061,1.499,0.133c0.192,0.035,0.24,0.096,0.24,0.264v0.433
			c0,0.119-0.097,0.182-0.204,0.182c-0.023,0-0.036,0-0.048,0c-0.528-0.062-0.899-0.084-1.487-0.084
			c-0.959,0-1.499,0.635-1.499,1.988v0.938c0,1.345,0.527,1.99,1.499,1.99c0.588,0,0.959-0.022,1.487-0.084c0.012,0,0.023,0,0.048,0
			c0.107,0,0.204,0.062,0.204,0.18v0.433C73.026,321.048,72.979,321.117,72.787,321.154z"/>
		<path fill="#002C5F" d="M78.728,321.201h-0.552c-0.133,0-0.239-0.106-0.239-0.237v-0.267c-0.576,0.336-1.176,0.588-1.848,0.588
			c-1.021,0-1.955-0.442-1.955-1.94v-0.146c0-1.295,0.755-1.942,2.892-1.942h0.887v-0.479c0-1.008-0.348-1.354-1.283-1.354
			c-0.779,0-1.354,0.049-1.835,0.096c-0.023,0-0.035,0-0.06,0c-0.108,0-0.217-0.035-0.217-0.191v-0.418
			c0-0.133,0.084-0.205,0.253-0.229c0.491-0.084,1.043-0.156,1.857-0.156c1.668,0,2.34,0.84,2.34,2.254v4.188
			C78.967,321.095,78.858,321.201,78.728,321.201z M77.911,318.013h-0.887c-1.451,0-1.835,0.323-1.835,1.176v0.145
			c0,0.863,0.407,1.093,1.103,1.093c0.553,0,1.043-0.168,1.619-0.479V318.013z"/>
		<path fill="#002C5F" d="M81.56,321.201h-0.623c-0.12,0-0.217-0.106-0.217-0.237v-8.554c0-0.119,0.084-0.229,0.217-0.229h0.623
			c0.12,0,0.217,0.098,0.217,0.229v8.554C81.776,321.082,81.692,321.201,81.56,321.201z"/>
		<path fill="#002C5F" d="M91.351,318.24h-4.019v0.168c0,1.426,0.563,1.955,1.667,1.955c0.695,0,1.583-0.049,2.136-0.133
			c0.023,0,0.036,0,0.061,0c0.096,0,0.191,0.049,0.191,0.168v0.406c0,0.156-0.048,0.24-0.239,0.276
			c-0.685,0.132-1.344,0.203-2.146,0.203c-1.38,0-2.724-0.646-2.724-2.879v-1.078c0-1.715,0.948-2.809,2.663-2.809
			c1.751,0,2.639,1.104,2.639,2.809v0.646C91.578,318.132,91.494,318.24,91.351,318.24z M90.511,317.328
			c0-1.354-0.517-1.883-1.57-1.883c-1.031,0-1.607,0.588-1.607,1.883v0.107h3.179L90.511,317.328L90.511,317.328z"/>
		<path fill="#002C5F" d="M100.721,321.201h-0.575c-0.134,0-0.24-0.106-0.24-0.237v-4.246c0-1.009-0.469-1.283-1.092-1.283
			c-0.433,0-0.937,0.145-1.402,0.324c0.072,0.264,0.107,0.573,0.107,0.936v4.271c0,0.12-0.084,0.239-0.216,0.239h-0.637
			c-0.119,0-0.203-0.106-0.203-0.239v-4.271c0-1.045-0.301-1.26-0.926-1.26c-0.431,0-0.958,0.215-1.462,0.469v5.062
			c0,0.12-0.084,0.239-0.216,0.239h-0.637c-0.119,0-0.203-0.106-0.203-0.239v-6.115c0-0.133,0.096-0.24,0.228-0.24h0.602
			c0.132,0,0.228,0.107,0.228,0.24v0.229c0.479-0.301,1.092-0.563,1.751-0.563c0.516,0,0.898,0.145,1.199,0.491
			c0.66-0.312,1.367-0.491,1.99-0.491c1.079,0,1.942,0.539,1.942,2.207v4.245C100.959,321.095,100.853,321.201,100.721,321.201z"/>
		<path fill="#002C5F" d="M105.055,321.285c-0.37,0-0.936-0.047-1.401-0.131v2.17c0,0.121-0.097,0.229-0.229,0.229h-0.61
			c-0.121,0-0.218-0.097-0.218-0.229v-8.25c0-0.156,0.037-0.229,0.252-0.276c0.638-0.156,1.476-0.275,2.207-0.275
			c1.787,0,2.613,1.164,2.613,2.965v0.861C107.668,320.231,106.807,321.285,105.055,321.285z M106.614,317.484
			c0-1.26-0.371-2.076-1.56-2.076c-0.504,0-1.065,0.062-1.401,0.121v4.75c0.396,0.07,1.02,0.119,1.401,0.119
			c1.177,0,1.56-0.768,1.56-2.051V317.484z"/>
		<path fill="#002C5F" d="M110.047,321.201h-0.623c-0.121,0-0.217-0.106-0.217-0.237v-8.554c0-0.119,0.084-0.229,0.217-0.229h0.623
			c0.119,0,0.217,0.098,0.217,0.229v8.554C110.264,321.082,110.18,321.201,110.047,321.201z"/>
		<path fill="#002C5F" d="M114.463,321.285c-1.764,0-2.664-1.162-2.664-2.926v-0.912c0-1.764,0.898-2.926,2.664-2.926
			c1.765,0,2.674,1.162,2.674,2.926v0.912C117.137,320.123,116.225,321.285,114.463,321.285z M116.081,317.447
			c0-1.223-0.49-2.002-1.617-2.002c-1.115,0-1.606,0.768-1.606,2.002v0.912c0,1.223,0.479,2.004,1.606,2.004
			c1.113,0,1.617-0.77,1.617-2.004V317.447z"/>
		<path fill="#002C5F" d="M123.399,314.894l-1.98,6.908c-0.371,1.297-0.813,1.774-2.193,1.774c-0.336,0-0.756-0.047-1.008-0.106
			c-0.145-0.035-0.252-0.072-0.252-0.191v-0.442c0-0.132,0.097-0.191,0.229-0.191c0.012,0,0.022,0,0.035,0
			c0.264,0.023,0.805,0.072,1.067,0.072c0.685,0,0.982-0.181,1.188-1.021l0.119-0.492h-0.169c-0.358,0-0.672-0.084-0.887-0.827
			l-1.596-5.48c-0.012-0.023-0.012-0.061-0.012-0.084c0-0.119,0.071-0.203,0.215-0.203h0.66c0.096,0,0.18,0.096,0.205,0.191
			l1.413,5.205c0.062,0.239,0.146,0.264,0.229,0.264h0.191l1.463-5.48c0.024-0.096,0.121-0.18,0.229-0.18h0.672
			c0.119,0,0.191,0.084,0.191,0.203C123.411,314.834,123.411,314.869,123.399,314.894z"/>
		<path fill="#002C5F" d="M129.315,318.24h-4.019v0.168c0,1.426,0.562,1.955,1.666,1.955c0.695,0,1.584-0.049,2.135-0.133
			c0.023,0,0.037,0,0.062,0c0.096,0,0.19,0.049,0.19,0.168v0.406c0,0.156-0.047,0.24-0.239,0.276
			c-0.685,0.132-1.342,0.203-2.146,0.203c-1.381,0-2.725-0.646-2.725-2.879v-1.078c0-1.715,0.949-2.809,2.664-2.809
			c1.75,0,2.639,1.104,2.639,2.809v0.646C129.541,318.132,129.457,318.24,129.315,318.24z M128.475,317.328
			c0-1.354-0.518-1.883-1.571-1.883c-1.031,0-1.605,0.588-1.605,1.883v0.107h3.178L128.475,317.328L128.475,317.328z"/>
		<path fill="#002C5F" d="M133.694,315.435c-0.552,0-1.056,0.145-1.654,0.504v5.025c0,0.118-0.107,0.237-0.24,0.237h-0.588
			c-0.119,0-0.229-0.106-0.229-0.237v-6.117c0-0.133,0.096-0.238,0.229-0.238h0.562c0.133,0,0.229,0.105,0.229,0.238v0.252
			c0.6-0.42,1.15-0.574,1.691-0.574c0.168,0,0.252,0.07,0.252,0.215v0.492C133.946,315.361,133.862,315.435,133.694,315.435z"/>
	</g>
</g>
</svg>
