<?xml version="1.0" encoding="utf-8"?>
<!-- Generator: Adobe Illustrator 15.1.0, SVG Export Plug-In . SVG Version: 6.00 Build 0)  -->
<!DOCTYPE svg PUBLIC "-//W3C//DTD SVG 1.1//EN" "http://www.w3.org/Graphics/SVG/1.1/DTD/svg11.dtd">
<svg version="1.1" id="Our_story_-_responsible_-_screen_2"
	 xmlns="http://www.w3.org/2000/svg" xmlns:xlink="http://www.w3.org/1999/xlink" x="0px" y="0px" width="190px" height="392px"
	 viewBox="0 0 190 392" enable-background="new 0 0 190 392" xml:space="preserve">
<symbol  id="New_Symbol_44" viewBox="-7.5 -7.999 15 15.999">
	<path fill="#FFFFFF" d="M2.5,3V-7.999h5V3H2.5z M4.5-5.999h-1v1h1V-5.999z M4.5-3.999h-1v1h1V-3.999z M4.5-1.999h-1V-1h1V-1.999z
		 M4.5,0h-1v1h1V0z M6.5-5.999h-1v1h1V-5.999z M6.5-3.999h-1v1h1V-3.999z M6.5-1.999h-1V-1h1V-1.999z M6.5,0h-1v1h1V0z"/>
	<path fill="#FFFFFF" d="M0.5,1h-1v3l-1,2h-1v2h-1V6h-1.001L-5.5,4V1h-1l-1-1v-7.999h9V0L0.5,1z M-2.5,4h1V3h-1V4z M-4.5,4h1V3h-1V4
		z M-4.5-5.999h-1v1h1V-5.999z M-4.5-3.999h-1v1h1V-3.999z M-4.5-1.999h-1V-1h1V-1.999z M-4.5,2h1V1h-1V2z M-2.5-5.999h-1v1h1
		V-5.999z M-2.5-3.999h-1v1h1V-3.999z M-2.5-1.999h-1V-1h1V-1.999z M-2.5,2h1V1h-1V2z M-0.5-5.999h-1v1h1V-5.999z M-0.5-3.999h-1v1
		h1V-3.999z M-0.5-1.999h-1V-1h1V-1.999z"/>
</symbol>
<g>
	
		<linearGradient id="SVGID_1_" gradientUnits="userSpaceOnUse" x1="-86.9995" y1="-267.0322" x2="-86.9995" y2="-456.8682" gradientTransform="matrix(1 0 0 1 182 456.8682)">
		<stop  offset="0" style="stop-color:#5B4F84"/>
		<stop  offset="0.0363" style="stop-color:#645A8F"/>
		<stop  offset="0.1293" style="stop-color:#7570A5"/>
		<stop  offset="0.2379" style="stop-color:#8282B6"/>
		<stop  offset="0.37" style="stop-color:#8C8EC2"/>
		<stop  offset="0.5505" style="stop-color:#9195C9"/>
		<stop  offset="1" style="stop-color:#9397CB"/>
	</linearGradient>
	<path fill="url(#SVGID_1_)" d="M189.919,172.83c0,9.394-7.615,17.006-17.009,17.006H17.09c-9.394,0-17.009-7.612-17.009-17.006
		V17.009C0.081,7.615,7.696,0,17.09,0h155.82c9.394,0,17.009,7.615,17.009,17.009V172.83z"/>
	<g>
		<path fill="#FFFFFF" d="M54.969,118.31l-1.793,12.633c-0.153,1.119-0.752,1.466-1.773,1.466h-1.101
			c-0.85,0-1.522-0.328-1.773-1.312l-1.522-5.768c-0.039-0.153-0.077-0.153-0.175-0.153c-0.097,0-0.115,0-0.153,0.153l-1.522,5.768
			c-0.251,0.982-0.926,1.312-1.773,1.312h-1.101c-1.021,0-1.62-0.347-1.773-1.466l-1.794-12.633c0-0.021,0-0.038,0-0.038
			c0-0.193,0.153-0.251,0.31-0.251h2.623c0.153,0,0.29,0.153,0.309,0.365l1.101,10.339c0.021,0.174,0.039,0.251,0.116,0.251
			c0.059,0,0.097-0.077,0.136-0.251l1.389-5.306c0.191-0.731,0.675-0.926,1.195-0.926h1.909c0.521,0,1.003,0.192,1.195,0.926
			l1.39,5.306c0.039,0.174,0.077,0.251,0.136,0.251c0.077,0,0.097-0.077,0.115-0.251l1.1-10.339c0.02-0.212,0.153-0.365,0.31-0.365
			h2.622c0.154,0,0.311,0.058,0.311,0.251C54.969,118.271,54.969,118.289,54.969,118.31z"/>
		<path fill="#FFFFFF" d="M61.835,132.524c-3.183,0-5.709-1.717-5.709-6.191v-2.295c0-4.475,2.526-6.19,5.709-6.19
			c3.184,0,5.709,1.718,5.709,6.19v2.295C67.544,130.808,65.019,132.524,61.835,132.524z M64.228,124.037
			c0-2.312-0.771-3.298-2.393-3.298s-2.372,0.983-2.372,3.298v2.295c0,2.314,0.752,3.299,2.372,3.299
			c1.619,0,2.393-0.982,2.393-3.299V124.037z"/>
		<path fill="#FFFFFF" d="M80.7,132.351h-2.951c-0.212,0-0.288-0.192-0.386-0.387l-2.584-4.881l-0.212,0.021
			c-0.405,0-1.003-0.038-1.369-0.038v4.897c0,0.212-0.174,0.387-0.386,0.387h-2.508c-0.212,0-0.386-0.175-0.386-0.387v-12.94
			c0-0.656,0.271-0.83,0.867-0.926c0.889-0.137,2.527-0.252,3.916-0.252c3.279,0,5.806,1.101,5.806,4.514v0.251
			c0,2.045-1.08,3.298-2.487,3.856l2.913,5.438c0.038,0.077,0.058,0.154,0.058,0.212C80.989,132.254,80.912,132.351,80.7,132.351z
			 M77.228,122.358c0-1.176-0.906-1.716-2.526-1.716c-0.271,0-1.272,0.038-1.504,0.058v3.703c0.212,0.021,1.157,0.039,1.369,0.039
			c2.024,0,2.661-0.521,2.661-1.833V122.358z"/>
		<path fill="#FFFFFF" d="M94.163,118.501l-4.591,6.521l4.609,6.924c0.059,0.077,0.077,0.154,0.077,0.213
			c0,0.115-0.097,0.192-0.271,0.192h-3.316c-0.23,0-0.328-0.116-0.425-0.271l-3.916-6.363v6.249c0,0.212-0.173,0.387-0.386,0.387
			h-2.526c-0.212,0-0.386-0.175-0.386-0.387v-13.579c0-0.212,0.174-0.365,0.386-0.365h2.526c0.212,0,0.386,0.153,0.386,0.365v6.134
			l4.243-6.27c0.097-0.152,0.212-0.229,0.425-0.229h2.951c0.212,0,0.31,0.097,0.31,0.212
			C94.259,118.31,94.22,118.405,94.163,118.501z"/>
		<path fill="#FFFFFF" d="M100.933,127.335c-0.463,0-1.08-0.038-1.562-0.058v4.688c0,0.212-0.174,0.387-0.386,0.387h-2.488
			c-0.212,0-0.386-0.154-0.386-0.366v-12.961c0-0.656,0.271-0.83,0.868-0.927c0.982-0.153,2.525-0.251,3.914-0.251
			c2.912,0,5.786,1.021,5.786,4.647v0.173C106.68,126.274,103.806,127.335,100.933,127.335z M103.401,122.494
			c0-1.37-0.85-1.909-2.47-1.909c-0.271,0-1.331,0.038-1.562,0.06v3.935c0.212,0.021,1.351,0.038,1.562,0.038
			c1.717,0,2.47-0.636,2.47-1.948V122.494z"/>
		<path fill="#FFFFFF" d="M116.517,132.273c-0.636,0.135-2.12,0.251-3.145,0.251c-2.487,0-4.705-0.638-4.705-4.147v-9.971
			c0-0.213,0.174-0.386,0.386-0.386h2.525c0.212,0,0.387,0.173,0.387,0.386v9.971c0,1.005,0.327,1.312,1.233,1.312h3.316
			c0.212,0,0.387,0.173,0.387,0.385v1.794C116.903,132.118,116.788,132.216,116.517,132.273z"/>
		<path fill="#FFFFFF" d="M129.537,132.351h-2.699c-0.191,0-0.348-0.154-0.387-0.349l-0.693-3.163h-3.954l-0.693,3.163
			c-0.039,0.192-0.193,0.349-0.387,0.349h-2.699c-0.193,0-0.328-0.116-0.328-0.311c0-0.02,0.02-0.058,0.02-0.097l2.874-11.958
			c0.443-1.853,1.87-2.142,3.202-2.142c1.33,0,2.737,0.289,3.183,2.142l2.874,11.958c0,0.039,0.02,0.077,0.02,0.097
			C129.865,132.233,129.73,132.351,129.537,132.351z M124.039,120.874c-0.038-0.191-0.076-0.289-0.25-0.289
			s-0.229,0.098-0.271,0.289l-1.177,5.323h2.874L124.039,120.874z"/>
		<path fill="#FFFFFF" d="M139.451,132.195c-0.404,0.135-1.522,0.328-2.874,0.328c-2.932,0-5.709-1.543-5.709-6.134v-2.432
			c0-4.591,2.777-6.113,5.709-6.113c1.352,0,2.47,0.191,2.874,0.328c0.271,0.076,0.424,0.153,0.424,0.425v1.87
			c0,0.23-0.115,0.387-0.366,0.387c-0.02,0-0.038,0-0.059,0c-0.732-0.06-1.794-0.154-2.854-0.154c-1.331,0-2.393,0.694-2.393,3.26
			v2.432c0,2.563,1.062,3.26,2.393,3.26c1.062,0,2.122-0.097,2.854-0.154c0.021,0,0.039,0,0.059,0c0.251,0,0.366,0.154,0.366,0.387
			v1.87C139.874,132.022,139.721,132.118,139.451,132.195z"/>
		<path fill="#FFFFFF" d="M150.387,132.273c-0.675,0.097-1.658,0.251-3.741,0.251c-2.488,0-4.688-0.638-4.688-4.147v-6.4
			c0-3.512,2.219-4.128,4.706-4.128c2.083,0,3.047,0.152,3.723,0.251c0.271,0.037,0.387,0.135,0.387,0.386v1.794
			c0,0.212-0.174,0.385-0.387,0.385h-3.916c-0.905,0-1.233,0.311-1.233,1.312v1.755h4.996c0.212,0,0.386,0.173,0.386,0.386v1.832
			c0,0.212-0.173,0.386-0.386,0.386h-4.996v2.045c0,1.004,0.328,1.312,1.233,1.312h3.916c0.212,0,0.387,0.173,0.387,0.385v1.794
			C150.773,132.118,150.657,132.233,150.387,132.273z"/>
		<path fill="#002C5F" d="M28.938,139.106l-0.535,2.733c-0.043,0.201-0.146,0.273-0.289,0.273h-0.854
			c-0.102,0-0.158-0.058-0.158-0.158c0-0.028,0-0.072,0.015-0.115l0.882-2.733c0.059-0.202,0.13-0.274,0.275-0.274h0.55
			c0.102,0,0.13,0.06,0.13,0.146C28.952,139.021,28.952,139.063,28.938,139.106z"/>
		<path fill="#002C5F" d="M33.335,149.811c-0.955,0-1.809-0.043-2.357-0.131c-0.333-0.043-0.479-0.174-0.479-0.535v-9.633
			c0-0.332,0.159-0.508,0.464-0.535c0.478-0.06,1.358-0.115,2.3-0.115c2.301,0,4.238,0.607,4.238,2.791v0.23
			c0,1.07-0.564,1.896-1.549,2.271c0.998,0.346,1.605,1.229,1.605,2.344v0.244C37.56,149.174,35.591,149.811,33.335,149.811z
			 M36.185,141.651c0-1.389-1.157-1.678-2.923-1.678c-0.491,0-1.026,0.027-1.433,0.044v3.587h2.229c1.679,0,2.127-0.812,2.127-1.723
			V141.651z M36.242,146.498c0-0.955-0.479-1.838-2.185-1.838h-2.229v3.98c0.479,0.014,0.998,0.057,1.504,0.057
			c1.795,0,2.908-0.391,2.908-1.953L36.242,146.498L36.242,146.498z"/>
		<path fill="#002C5F" d="M45.313,149.738c-0.551,0.06-1.968,0.072-2.821,0.072c-2.024,0-3.081-0.769-3.081-2.689v-5.568
			c0-1.926,1.057-2.69,3.081-2.69c0.854,0,2.213,0.028,2.821,0.086c0.086,0.016,0.145,0.116,0.145,0.203v0.723
			c0,0.104-0.058,0.175-0.158,0.175h-2.792c-1.534,0-1.778,0.404-1.778,1.506v2.011h4.438c0.159,0,0.291,0.129,0.291,0.289v0.549
			c0,0.16-0.131,0.289-0.291,0.289h-4.438v2.432c0,1.101,0.245,1.505,1.778,1.505H45.3c0.102,0,0.158,0.071,0.158,0.174v0.735
			C45.456,149.623,45.399,149.725,45.313,149.738z"/>
		<path fill="#002C5F" d="M48.581,149.709h-0.796c-0.146,0-0.26-0.129-0.26-0.289v-10.184c0-0.146,0.101-0.275,0.26-0.275h0.796
			c0.146,0,0.261,0.116,0.261,0.275v10.184C48.842,149.564,48.741,149.709,48.581,149.709z"/>
		<path fill="#002C5F" d="M58.404,149.709h-0.896c-0.23,0-0.391-0.086-0.463-0.229l-4.471-8.491
			c-0.015-0.029-0.029-0.043-0.043-0.043c-0.015,0-0.015,0.014-0.015,0.043v8.448c0,0.145-0.115,0.272-0.26,0.272h-0.752
			c-0.146,0-0.261-0.026-0.261-0.174v-10.169c0-0.23,0.188-0.405,0.419-0.405h0.795c0.405,0,0.479,0.072,0.594,0.29l4.44,8.448
			l0.028,0.043c0.016,0,0.016-0.028,0.016-0.043v-8.462c0-0.146,0.116-0.274,0.261-0.274h0.768c0.158,0,0.26,0.131,0.26,0.274
			v10.052C58.823,149.521,58.635,149.709,58.404,149.709z"/>
		<path fill="#002C5F" d="M67.417,149.594c-0.71,0.114-1.52,0.219-2.88,0.219c-1.808,0-3.747-1.188-3.747-4.5v-1.938
			c0-3.515,2.025-4.513,3.877-4.513c1.346,0,2.199,0.115,2.75,0.202c0.13,0.015,0.245,0.072,0.245,0.217v0.725
			c0,0.103-0.058,0.146-0.188,0.146c-0.015,0-0.043,0-0.058,0c-0.854-0.072-1.52-0.103-2.75-0.103c-1.345,0-2.561,0.725-2.561,3.327
			v1.938c0,2.387,1.085,3.328,2.43,3.328c0.883,0,1.477-0.06,1.823-0.088v-4.138c0-0.159,0.101-0.291,0.26-0.291h0.781
			c0.146,0,0.274,0.132,0.274,0.291v4.859C67.677,149.436,67.575,149.564,67.417,149.594z"/>
		<path fill="#002C5F" d="M80.87,149.709h-0.854c-0.13,0-0.217-0.102-0.245-0.217l-0.94-3.326h-3.747l-0.926,3.326
			c-0.028,0.115-0.146,0.217-0.26,0.217h-0.854c-0.145,0-0.245-0.102-0.245-0.229c0-0.029,0-0.072,0.016-0.103l2.676-9.417
			c0.246-0.882,0.926-1.099,1.477-1.099c0.534,0,1.215,0.202,1.461,1.085l2.677,9.431c0.014,0.029,0.014,0.072,0.014,0.103
			C81.116,149.607,81.029,149.709,80.87,149.709z M77.239,140.264c-0.043-0.158-0.13-0.262-0.274-0.262
			c-0.159,0-0.246,0.104-0.289,0.262l-1.315,4.76h3.197L77.239,140.264z"/>
		<path fill="#002C5F" d="M89.825,149.709h-0.896c-0.23,0-0.391-0.086-0.463-0.229l-4.471-8.491
			c-0.014-0.029-0.028-0.043-0.043-0.043c-0.014,0-0.014,0.014-0.014,0.043v8.448c0,0.145-0.116,0.272-0.261,0.272h-0.752
			c-0.146,0-0.261-0.026-0.261-0.174v-10.169c0-0.23,0.188-0.405,0.42-0.405h0.795c0.404,0,0.479,0.072,0.593,0.29l4.44,8.448
			l0.029,0.043c0.015,0,0.015-0.028,0.015-0.043v-8.462c0-0.146,0.116-0.274,0.261-0.274h0.768c0.158,0,0.26,0.131,0.26,0.274
			v10.052C90.244,149.521,90.056,149.709,89.825,149.709z"/>
		<path fill="#002C5F" d="M101.978,149.738c-0.551,0.06-1.968,0.072-2.821,0.072c-2.024,0-3.081-0.769-3.081-2.689v-5.568
			c0-1.926,1.057-2.69,3.081-2.69c0.854,0,2.213,0.028,2.821,0.086c0.086,0.016,0.145,0.116,0.145,0.203v0.723
			c0,0.104-0.058,0.175-0.158,0.175h-2.792c-1.534,0-1.778,0.404-1.778,1.506v2.011h4.438c0.159,0,0.29,0.129,0.29,0.289v0.549
			c0,0.16-0.13,0.289-0.29,0.289h-4.438v2.432c0,1.101,0.245,1.505,1.778,1.505h2.792c0.102,0,0.158,0.071,0.158,0.174v0.735
			C102.121,149.623,102.063,149.725,101.978,149.738z"/>
		<path fill="#002C5F" d="M112.522,149.709h-0.709c-0.159,0-0.289-0.129-0.289-0.289v-8.577c0-0.028,0-0.044-0.016-0.044
			c-0.015,0-0.015,0-0.028,0.028l-2.068,4.282c-0.146,0.289-0.29,0.42-0.65,0.42h-0.666c-0.361,0-0.506-0.131-0.65-0.42
			l-2.069-4.282c-0.014-0.028-0.014-0.028-0.028-0.028c-0.016,0-0.016,0.016-0.016,0.044v8.577c0,0.16-0.13,0.289-0.288,0.289
			h-0.709c-0.159,0-0.289-0.129-0.289-0.289v-10.038c0-0.23,0.188-0.421,0.419-0.421h0.939c0.261,0,0.376,0.061,0.463,0.246
			l2.388,4.962c0.059,0.13,0.102,0.158,0.173,0.158s0.116-0.028,0.175-0.158l2.387-4.962c0.087-0.188,0.202-0.246,0.463-0.246h0.939
			c0.23,0,0.42,0.188,0.42,0.421v10.038C112.812,149.58,112.681,149.709,112.522,149.709z"/>
		<path fill="#002C5F" d="M117.802,145.428c-0.463,0-1.069-0.043-1.445-0.072v4.063c0,0.146-0.102,0.289-0.261,0.289h-0.78
			c-0.146,0-0.261-0.129-0.261-0.289v-10.083c0-0.201,0.13-0.332,0.348-0.359c0.622-0.072,1.562-0.115,2.4-0.115
			c2.345,0,4.052,0.811,4.052,3.139v0.188C121.853,144.604,120.146,145.428,117.802,145.428z M120.537,141.999
			c0-1.461-0.867-2.023-2.733-2.023c-0.447,0-1.1,0.028-1.445,0.058v4.239c0.333,0.014,1.069,0.059,1.445,0.059
			c1.981,0,2.733-0.637,2.733-2.142V141.999z"/>
		<path fill="#002C5F" d="M129.534,149.68c-0.376,0.059-1.461,0.131-2.82,0.131c-1.549,0-3.081-0.305-3.081-2.689v-7.87
			c0-0.158,0.13-0.29,0.289-0.29h0.737c0.159,0,0.29,0.132,0.29,0.29v7.87c0,1.099,0.246,1.504,1.778,1.504h2.793
			c0.101,0,0.158,0.072,0.158,0.175v0.68C129.679,149.564,129.621,149.666,129.534,149.68z"/>
		<path fill="#002C5F" d="M134.074,149.811c-2.271,0-3.92-1.33-3.92-4.541v-1.867c0-3.211,1.648-4.542,3.92-4.542
			c2.271,0,3.906,1.33,3.906,4.542v1.867C137.98,148.48,136.345,149.811,134.074,149.811z M136.649,143.402
			c0-2.43-0.983-3.355-2.575-3.355c-1.577,0-2.589,0.927-2.589,3.355v1.867c0,2.43,0.998,3.354,2.589,3.354
			c1.577,0,2.575-0.926,2.575-3.354V143.402z"/>
		<path fill="#002C5F" d="M146.181,139.323l-2.241,5.034c-0.261,0.578-0.521,0.84-0.781,0.955v4.106
			c0,0.146-0.116,0.289-0.261,0.289h-0.795c-0.146,0-0.261-0.145-0.261-0.289v-4.106c-0.261-0.104-0.521-0.377-0.78-0.955
			l-2.229-5.034c-0.028-0.059-0.043-0.116-0.043-0.159c0-0.115,0.102-0.203,0.246-0.203h0.882c0.102,0,0.218,0.104,0.261,0.203
			l1.996,4.688c0.146,0.334,0.245,0.377,0.333,0.377c0.102,0,0.188-0.043,0.333-0.377l2.011-4.688
			c0.043-0.102,0.131-0.203,0.246-0.203h0.883c0.146,0,0.246,0.088,0.246,0.203C146.225,139.207,146.21,139.266,146.181,139.323z"/>
		<path fill="#002C5F" d="M153.341,149.738c-0.551,0.06-1.968,0.072-2.82,0.072c-2.025,0-3.081-0.769-3.081-2.689v-5.568
			c0-1.926,1.056-2.69,3.081-2.69c0.854,0,2.213,0.028,2.82,0.086c0.086,0.016,0.146,0.116,0.146,0.203v0.723
			c0,0.104-0.059,0.175-0.159,0.175h-2.792c-1.533,0-1.778,0.404-1.778,1.506v2.011h4.439c0.159,0,0.29,0.129,0.29,0.289v0.549
			c0,0.16-0.13,0.289-0.29,0.289h-4.439v2.432c0,1.101,0.245,1.505,1.778,1.505h2.792c0.102,0,0.159,0.071,0.159,0.174v0.735
			C153.485,149.623,153.427,149.725,153.341,149.738z"/>
		<path fill="#002C5F" d="M162.57,149.709h-0.927c-0.173,0-0.26,0-0.375-0.188l-2.59-4.312c-0.043,0-0.087,0-0.13,0
			c-0.086,0-0.159,0-0.246,0c-0.479,0-0.824-0.014-1.591-0.043v4.253c0,0.146-0.102,0.288-0.261,0.288h-0.78
			c-0.146,0-0.261-0.129-0.261-0.288v-10.125c0-0.202,0.087-0.289,0.348-0.317c0.622-0.072,1.707-0.115,2.546-0.115
			c2.286,0,4.051,0.768,4.051,3.109v0.102c0,1.621-0.955,2.576-2.271,2.921l2.633,4.398c0.028,0.043,0.043,0.086,0.043,0.129
			C162.758,149.623,162.687,149.709,162.57,149.709z M161.051,141.971c0-1.445-0.939-1.924-2.749-1.924
			c-0.449,0-1.244,0-1.592,0.044v3.964c0.638,0.014,1.259,0.026,1.592,0.026c1.778,0,2.749-0.446,2.749-2.01V141.971z"/>
		<path fill="#002C5F" d="M64.391,167.17c-2.271,0-3.92-1.329-3.92-4.54v-1.865c0-3.213,1.648-4.543,3.92-4.543
			s3.906,1.33,3.906,4.543v1.865C68.297,165.84,66.662,167.17,64.391,167.17z M66.966,160.764c0-2.433-0.982-3.357-2.575-3.357
			c-1.576,0-2.589,0.926-2.589,3.357v1.864c0,2.431,0.998,3.355,2.589,3.355c1.577,0,2.575-0.926,2.575-3.355V160.764z"/>
		<path fill="#002C5F" d="M76.05,162.049H71.61v4.729c0,0.16-0.13,0.289-0.29,0.289h-0.739c-0.158,0-0.289-0.129-0.289-0.289v-7.869
			c0-1.924,1.057-2.688,3.081-2.688c0.854,0,2.214,0.026,2.821,0.086c0.086,0.016,0.146,0.115,0.146,0.203v0.723
			c0,0.102-0.059,0.174-0.159,0.174h-2.792c-1.533,0-1.778,0.406-1.778,1.506v2.011h4.439c0.158,0,0.29,0.131,0.29,0.289v0.551
			C76.34,161.92,76.21,162.049,76.05,162.049z"/>
		<path fill="#002C5F" d="M87.797,166.982c-0.606,0.115-1.172,0.188-2.4,0.188c-1.779,0-3.819-0.954-3.819-4.471v-2.01
			c0-3.545,2.04-4.471,3.819-4.471c0.91,0,1.793,0.131,2.43,0.229c0.13,0.014,0.23,0.06,0.23,0.189v0.735
			c0,0.088-0.028,0.16-0.173,0.16c-0.016,0-0.028,0-0.043,0c-0.521-0.045-1.592-0.131-2.431-0.131c-1.417,0-2.518,0.824-2.518,3.283
			v2.012c0,2.43,1.101,3.283,2.518,3.283c0.825,0,1.866-0.072,2.388-0.115c0.016,0,0.043,0,0.059,0c0.158,0,0.23,0.072,0.23,0.23
			v0.594C88.085,166.867,87.956,166.953,87.797,166.982z"/>
		<path fill="#002C5F" d="M97.012,167.068h-0.737c-0.159,0-0.29-0.129-0.29-0.289v-4.803h-4.947v4.803c0,0.16-0.13,0.289-0.29,0.289
			H90.01c-0.158,0-0.289-0.129-0.289-0.289v-10.168c0-0.16,0.131-0.291,0.289-0.291h0.737c0.159,0,0.29,0.131,0.29,0.291v4.193
			h4.947v-4.193c0-0.16,0.13-0.291,0.29-0.291h0.737c0.159,0,0.289,0.131,0.289,0.291v10.168
			C97.301,166.939,97.171,167.068,97.012,167.068z"/>
		<path fill="#002C5F" d="M103.218,167.17c-2.271,0-3.92-1.329-3.92-4.54v-1.865c0-3.213,1.648-4.543,3.92-4.543
			s3.905,1.33,3.905,4.543v1.865C107.123,165.84,105.489,167.17,103.218,167.17z M105.792,160.764c0-2.433-0.982-3.357-2.574-3.357
			c-1.577,0-2.589,0.926-2.589,3.357v1.864c0,2.431,0.997,3.355,2.589,3.355c1.577,0,2.574-0.926,2.574-3.355V160.764z"/>
		<path fill="#002C5F" d="M110.321,167.068h-0.796c-0.146,0-0.261-0.129-0.261-0.289v-10.184c0-0.146,0.102-0.275,0.261-0.275h0.796
			c0.146,0,0.26,0.117,0.26,0.275v10.184C110.581,166.924,110.48,167.068,110.321,167.068z"/>
		<path fill="#002C5F" d="M118.942,166.982c-0.606,0.115-1.171,0.188-2.401,0.188c-1.778,0-3.818-0.954-3.818-4.471v-2.01
			c0-3.545,2.04-4.471,3.818-4.471c0.911,0,1.793,0.131,2.431,0.229c0.131,0.014,0.23,0.06,0.23,0.189v0.735
			c0,0.088-0.028,0.16-0.173,0.16c-0.016,0-0.029,0-0.043,0c-0.521-0.045-1.591-0.131-2.431-0.131c-1.417,0-2.518,0.824-2.518,3.283
			v2.012c0,2.43,1.101,3.283,2.518,3.283c0.825,0,1.866-0.072,2.388-0.115c0.016,0,0.043,0,0.059,0c0.158,0,0.23,0.072,0.23,0.23
			v0.594C119.232,166.867,119.103,166.953,118.942,166.982z"/>
		<path fill="#002C5F" d="M126.769,167.098c-0.55,0.059-1.967,0.071-2.82,0.071c-2.024,0-3.081-0.768-3.081-2.688v-5.57
			c0-1.924,1.057-2.688,3.081-2.688c0.854,0,2.213,0.026,2.82,0.086c0.088,0.016,0.146,0.115,0.146,0.203v0.723
			c0,0.102-0.058,0.174-0.158,0.174h-2.792c-1.533,0-1.779,0.406-1.779,1.506v2.011h4.44c0.159,0,0.289,0.131,0.289,0.289v0.551
			c0,0.158-0.13,0.289-0.289,0.289h-4.44v2.432c0,1.098,0.246,1.504,1.779,1.504h2.792c0.103,0,0.158,0.072,0.158,0.174v0.736
			C126.914,166.982,126.856,167.084,126.769,167.098z"/>
		<path fill="#002C5F" d="M129.966,156.465l-0.884,2.733c-0.058,0.203-0.13,0.275-0.272,0.275h-0.551c-0.103,0-0.13-0.06-0.13-0.146
			c0-0.043,0-0.086,0.016-0.129l0.534-2.733c0.043-0.203,0.146-0.273,0.289-0.273h0.854c0.103,0,0.159,0.057,0.159,0.158
			C129.981,156.379,129.981,156.422,129.966,156.465z"/>
	</g>
	
		<use xlink:href="#New_Symbol_44"  width="15" height="15.999" id="XMLID_16_" x="-7.5" y="-7.999" transform="matrix(5.0146 0 0 -5.0146 95.001 61.876)" overflow="visible"/>
</g>
</svg>
