<?xml version="1.0" encoding="utf-8"?>
<!-- Generator: Adobe Illustrator 15.1.0, SVG Export Plug-In . SVG Version: 6.00 Build 0)  -->
<!DOCTYPE svg PUBLIC "-//W3C//DTD SVG 1.1//EN" "http://www.w3.org/Graphics/SVG/1.1/DTD/svg11.dtd">
<svg version="1.1" id="Layer_1" xmlns="http://www.w3.org/2000/svg" xmlns:xlink="http://www.w3.org/1999/xlink" x="0px" y="0px"
	 width="1024px" height="724px" viewBox="0 0 1024 724" enable-background="new 0 0 1024 724" xml:space="preserve">
<g>
	<path fill="#003D79" d="M91.358,663.268v16.185H45.263c-8.938,0-16.183-7.245-16.183-16.185v-29.91v-16.186h46.095
		c8.938,0,16.183,7.246,16.183,16.186V663.268L91.358,663.268z"/>
	<path fill="#FFFFFF" d="M76.148,623.354c0.967,0.221,1.69,1.088,1.69,2.119l0.001,0.062v1.249c0,0.366-0.212,0.578-0.516,0.578
		h-0.092c-0.882-0.121-3.5-0.396-5.051-0.396c-1.189,0-1.614,0.187-1.614,0.884c0,0.457,0.336,0.701,0.945,1.064l3.774,2.162
		c2.525,1.46,3.074,3.043,3.074,4.688c0,2.861-2.072,5.113-6.515,5.113c-1.24,0-2.833-0.134-4.206-0.376l-0.095-0.021
		c-1.033-0.168-1.818-1.062-1.818-2.146v-0.153v-1.14c0-0.307,0.213-0.58,0.579-0.58h0.122c1.642,0.213,4.2,0.428,5.175,0.428
		c1.459,0,1.794-0.396,1.794-1.188c0-0.455-0.273-0.79-1.124-1.275l-3.957-2.284c-1.708-0.975-2.711-2.526-2.711-4.505
		c0-3.073,2.04-4.721,6.242-4.721c1.795,0,3.064,0.171,4.236,0.421L76.148,623.354L76.148,623.354z"/>
	<path fill="#FFFFFF" d="M36.667,627.348c-1.198,0-2.173-0.974-2.173-2.174v-0.115v-0.619c0-0.336,0.212-0.578,0.576-0.672
		c1.128-0.273,3.26-0.641,5.269-0.641c4.383,0,7.125,1.768,7.125,6.21v10.867c0,0.336-0.283,0.61-0.608,0.61h-3.411
		c-0.338,0-0.611-0.274-0.611-0.61v-0.487c-1.188,0.854-2.404,1.371-4.226,1.371c-2.653,0-5.209-1.275-5.209-5.236v-0.272
		c0-3.562,2.282-5.144,7.488-5.144h1.644v-1.099c0-1.731-0.852-2.1-2.283-2.1C39.031,627.237,36.667,627.348,36.667,627.348
		L36.667,627.348z M42.621,633.357h-1.734c-2.132,0-2.679,0.729-2.679,2.22v0.272c0,1.278,0.64,1.522,1.918,1.522
		c0.913,0,1.767-0.306,2.496-0.67L42.621,633.357L42.621,633.357z"/>
	<path fill="#FFFFFF" d="M51.6,646.607c-1.202,0-2.177-0.976-2.177-2.176v-0.146v-19.626c0-0.486,0.122-0.698,0.945-0.882
		c1.736-0.428,4.141-0.792,6.485-0.792c4.931,0,7.642,2.86,7.642,7.793v2.374c0,4.778-2.501,7.794-7.642,7.794
		c-0.609,0-1.615-0.093-2.5-0.213v5.266c0,0.335-0.273,0.606-0.608,0.606h-2.03L51.6,646.607L51.6,646.607z M59.561,630.778
		c0-2.162-0.55-3.714-2.708-3.714c-1.007,0-1.919,0.061-2.5,0.149v9.499c0.733,0.092,1.764,0.186,2.5,0.186
		c2.157,0,2.708-1.613,2.708-3.746V630.778L59.561,630.778z"/>
	<path fill="#FFFFFF" d="M64.298,651.641c-0.58,0.116-1.333,0.196-2.528,0.196c-1.253,0-3.108-0.821-3.108-3.56v-1.67
		c0-2.748,1.763-3.571,3.143-3.571c1.113,0,2.111,0.139,2.494,0.208c0.151,0.035,0.22,0.093,0.22,0.244v0.774
		c0,0.163-0.046,0.243-0.232,0.243h-0.034c-0.534-0.046-1.334-0.092-2.448-0.092c-0.777,0-1.519,0.545-1.519,2.191v1.67
		c0,1.646,0.8,2.181,1.484,2.181c0.429,0,0.788-0.012,1.148-0.035v-2.958c0-0.127,0.093-0.229,0.221-0.229h1.148
		c0.127,0,0.232,0.104,0.232,0.229v3.897C64.518,651.513,64.449,651.605,64.298,651.641L64.298,651.641z"/>
	<path fill="#FFFFFF" d="M68.948,646.422c-0.626,0-1.113,0.162-1.601,0.418v4.661c0,0.128-0.104,0.243-0.231,0.243h-1.067
		c-0.128,0-0.232-0.115-0.232-0.243v-6.063c0-0.127,0.104-0.231,0.232-0.231h1.009c0.128,0,0.232,0.104,0.232,0.231v0.243
		c0.568-0.439,1.194-0.558,1.658-0.558c0.127,0,0.232,0.104,0.232,0.232v0.835C69.18,646.317,69.075,646.422,68.948,646.422
		L68.948,646.422z"/>
	<path fill="#FFFFFF" d="M72.112,651.837c-1.821,0-2.771-1.228-2.771-2.887v-0.939c0-1.658,0.951-2.888,2.771-2.888
		c1.82,0,2.771,1.229,2.771,2.888v0.939C74.883,650.609,73.933,651.837,72.112,651.837L72.112,651.837z M73.354,648.011
		c0-0.95-0.43-1.563-1.241-1.563c-0.812,0-1.241,0.613-1.241,1.563v0.939c0,0.951,0.429,1.564,1.241,1.564
		c0.812,0,1.241-0.613,1.241-1.564V648.011L73.354,648.011z"/>
	<path fill="#FFFFFF" d="M80.995,651.744h-1.067c-0.128,0-0.231-0.104-0.231-0.231v-0.267c-0.604,0.395-1.08,0.58-1.821,0.58
		c-0.58,0-1.09-0.151-1.426-0.487c-0.43-0.429-0.58-1.146-0.58-2.11v-3.778c0-0.128,0.104-0.244,0.232-0.244h1.067
		c0.127,0,0.232,0.116,0.232,0.244v3.778c0,0.582,0.046,0.918,0.267,1.113c0.163,0.141,0.359,0.209,0.719,0.209
		c0.429,0,0.986-0.291,1.312-0.464v-4.639c0-0.128,0.104-0.244,0.231-0.244h1.067c0.127,0,0.232,0.116,0.232,0.244v6.062
		C81.227,651.641,81.122,651.744,80.995,651.744L80.995,651.744z"/>
	<path fill="#FFFFFF" d="M85.054,651.837c-0.279,0-0.685-0.021-1.114-0.08v2.053c0,0.128-0.104,0.231-0.232,0.231h-1.067
		c-0.128,0-0.232-0.104-0.232-0.231v-8.069c0-0.176,0.047-0.244,0.313-0.314c0.719-0.185,1.589-0.301,2.331-0.301
		c1.867,0,2.771,1.102,2.771,2.911v0.893C87.825,650.736,86.921,651.837,85.054,651.837L85.054,651.837z M86.294,648.034
		c0-0.951-0.243-1.658-1.241-1.658c-0.417,0-0.893,0.034-1.114,0.081v4.047c0.325,0.047,0.835,0.081,1.114,0.081
		c0.998,0,1.241-0.707,1.241-1.658V648.034L86.294,648.034z"/>
	<path fill="#F99D31" d="M57.914,79.093v-0.792c0-0.66-0.33-0.792-0.858-0.792c-0.132,0-0.264,0-0.396,0
		c-2.376,0.264-7.326,0.594-11.418,0.594c-7.392,0-13.266-4.751-13.266-17.754v-8.712c0-13.002,5.874-17.754,13.266-17.754
		c4.092,0,9.042,0.33,11.418,0.594c0.132,0,0.264,0,0.396,0c0.528,0,0.858-0.132,0.858-0.792v-0.792c0-0.66-0.66-1.056-1.254-1.122
		c-1.716-0.198-5.346-0.66-11.418-0.66c-8.25,0-16.17,4.752-16.17,20.525v8.712c0,15.774,7.92,20.526,16.17,20.526
		c6.072,0,9.702-0.462,11.418-0.66C57.253,80.149,57.914,79.753,57.914,79.093L57.914,79.093z M85.606,79.159V56.851
		c0-7.128-2.31-12.144-11.22-12.144c-4.355,0-6.6,0.264-9.372,0.594c-0.99,0.132-1.518,0.462-1.518,1.188v0.396
		c0,0.727,0.66,0.99,1.254,0.99c0.132,0,0.198,0,0.264,0c3.102-0.33,5.016-0.594,9.372-0.594c6.402,0,8.316,2.706,8.316,9.57v2.376
		H77.62c-12.012,0-16.302,3.366-16.302,10.164v0.858c0,8.25,5.148,10.626,10.098,10.626c4.092,0,7.986-1.584,11.22-3.366v1.65
		c0,0.726,0.594,1.32,1.32,1.32h0.33C85.012,80.479,85.606,79.885,85.606,79.159L85.606,79.159z M82.702,74.935
		c-4.422,2.376-7.59,3.366-11.286,3.366c-3.96,0-7.194-1.914-7.194-8.052v-0.858c0-5.61,3.432-7.59,13.398-7.59h5.082V74.935
		L82.702,74.935z M113.009,71.701c0-4.356-2.904-6.534-8.382-9.57l-4.422-2.442c-4.026-2.244-6.402-3.96-6.402-6.864
		c0-4.687,3.234-5.544,7.458-5.544c3.63,0,7.458,0.528,9.174,0.726h0.198c0.66,0,1.188-0.264,1.188-1.056v-0.528
		c0-0.594-0.462-0.99-1.386-1.122c-2.244-0.264-4.686-0.594-9.438-0.594c-5.214,0-10.098,1.979-10.098,8.118
		c0,4.488,3.036,6.666,7.986,9.372l4.224,2.31c5.544,3.036,6.996,4.488,6.996,7.194c0,5.346-3.63,6.6-8.382,6.6
		c-2.706,0-6.534-0.528-9.702-1.056c-0.132,0-0.264,0-0.396,0c-0.594,0-1.056,0.264-1.056,0.924v0.726
		c0,0.594,0.528,0.858,1.452,1.056c2.376,0.462,6.6,0.924,9.57,0.924C107.729,80.875,113.009,78.763,113.009,71.701L113.009,71.701z
		 M143.771,62.197v-1.782c0-9.372-4.026-15.708-13.134-15.708c-8.712,0-13.332,6.666-13.332,15.774v4.356
		c0,12.474,6.666,16.038,14.851,16.038c2.97,0,6.731-0.462,9.899-1.122c0.99-0.198,1.254-0.528,1.254-1.254v-0.462
		c0-0.66-0.462-0.924-0.99-0.924c-0.132,0-0.264,0.065-0.396,0.065c-3.234,0.66-6.864,1.122-9.768,1.122
		c-6.601,0-11.946-2.376-11.946-13.464v-1.386h22.308C143.177,63.451,143.771,62.923,143.771,62.197L143.771,62.197z
		 M140.867,60.811h-20.658v-0.33c0-7.854,3.102-13.2,10.428-13.2c7.458,0,10.23,4.818,10.23,13.134V60.811L140.867,60.811z
		 M190.299,68.269c0-6.072-4.29-9.306-11.616-13.728l-4.224-2.574c-5.874-3.563-8.91-6.006-8.91-10.098
		c0-5.478,3.696-7.986,12.408-7.986c3.366,0,8.316,0.66,9.768,0.66c0.726,0,1.254-0.264,1.254-0.924v-0.858
		c0-0.594-0.461-0.924-1.122-0.99c-2.838-0.264-6.336-0.66-9.834-0.66c-7.722,0-15.444,2.046-15.444,10.691
		c0,5.874,4.356,9.042,10.362,12.738l4.158,2.574c7.326,4.554,10.164,6.27,10.164,11.154c0,5.412-2.31,9.834-12.276,9.834
		c-3.63,0-6.468-0.462-9.9-0.726h-0.264c-0.66,0-1.254,0.198-1.254,0.858v0.857c0,0.66,0.594,0.99,1.188,1.056
		c2.64,0.264,5.94,0.726,10.23,0.726C187.725,80.875,190.299,74.275,190.299,68.269L190.299,68.269z M210.198,79.621v-0.396
		c0-0.594-0.396-0.924-1.386-0.924h-3.168c-2.904,0-4.554-0.594-4.554-4.554V47.743h7.854c0.726,0,1.254-0.396,1.254-1.056v-0.66
		c0-0.66-0.528-0.99-1.254-0.99h-7.854v-6.798c0-0.66-0.396-1.254-1.056-1.254h-0.726c-0.726,0-1.122,0.594-1.122,1.254v6.798
		h-6.534c-0.726,0-1.254,0.33-1.254,0.99v0.66c0,0.66,0.528,1.056,1.254,1.056h6.534v26.004c0,5.676,2.772,7.128,7.458,7.128
		c1.122,0,2.442-0.066,3.432-0.198C210,80.545,210.198,80.149,210.198,79.621L210.198,79.621z M240.01,79.159V46.291
		c0-0.66-0.594-1.254-1.254-1.254h-0.396c-0.66,0-1.254,0.594-1.254,1.254v29.238c-3.3,1.518-7.062,2.706-10.428,2.706h-0.132
		c-4.884,0-8.778-2.574-8.778-10.032V46.291c0-0.66-0.528-1.254-1.188-1.254h-0.462c-0.726,0-1.254,0.594-1.254,1.254v21.912
		c0,9.108,5.28,12.606,11.616,12.606c3.432,0,7.194-1.056,10.626-2.706v1.056c0,0.726,0.462,1.32,1.188,1.32h0.528
		C239.548,80.479,240.01,79.885,240.01,79.159L240.01,79.159z M270.7,78.367V32.695c0-0.66-0.462-1.254-1.122-1.254h-0.66
		c-0.66,0-1.122,0.594-1.122,1.254v13.002c-2.64-0.594-6.6-0.99-9.174-0.99c-8.58,0-12.936,5.346-12.936,15.774v4.356
		c0,9.504,3.828,16.038,12.936,16.038c3.762,0,8.184-0.66,11.088-1.254C270.502,79.423,270.7,79.159,270.7,78.367L270.7,78.367z
		 M267.796,77.443c-2.376,0.396-6.006,0.857-9.174,0.857c-7.392,0-10.032-4.95-10.032-13.464v-4.356c0-8.712,2.772-13.2,10.032-13.2
		c2.574,0,6.666,0.33,9.174,0.857V77.443L267.796,77.443z M302.083,46.159c0-0.66-0.33-1.122-0.99-1.122h-0.594
		c-0.528,0-1.056,0.396-1.188,0.858l-9.042,31.878h-1.518c-0.528,0-1.122-0.066-1.518-1.452l-8.91-30.36
		c-0.132-0.462-0.595-0.924-1.056-0.924h-0.594c-0.726,0-1.122,0.462-1.122,1.122c0,0.132,0,0.33,0.065,0.462l8.911,30.162
		c0.924,3.168,1.979,3.696,4.025,3.696h0.924l-0.858,3.103c-1.584,5.742-3.102,7.194-7.854,7.194c-1.056,0-3.3-0.264-4.29-0.396
		c-0.132,0-0.264,0-0.396,0c-0.594,0-0.99,0.264-0.99,0.924v0.727c0,0.594,0.527,0.792,1.32,0.924
		c1.188,0.198,2.574,0.396,4.092,0.396c6.138,0,8.646-2.112,10.692-9.174l10.824-37.488
		C302.083,46.489,302.083,46.291,302.083,46.159L302.083,46.159z"/>
	<path fill="#003D79" d="M43.71,451.516c0-0.162-0.109-0.31-0.272-0.31h-2.199c-0.218,0-0.345,0.037-0.381,0.31l-1.072,6.904
		c-0.018,0.146-0.073,0.236-0.109,0.236c-0.055,0-0.109-0.073-0.146-0.236l-1.217-4.798c-0.164-0.635-0.436-0.816-1.018-0.816h-1.49
		c-0.582,0-0.854,0.184-1.018,0.816l-1.217,4.798c-0.037,0.163-0.091,0.236-0.146,0.236c-0.036,0-0.091-0.092-0.109-0.236
		l-1.072-6.904c-0.036-0.271-0.164-0.31-0.381-0.31h-2.199c-0.164,0-0.272,0.146-0.272,0.31v0.072l1.617,8.756
		c0.2,1.035,0.836,1.271,1.599,1.271h1.108c0.873,0,1.345-0.474,1.526-1.162l1.217-4.743c0.019-0.091,0.037-0.091,0.091-0.091
		c0.055,0,0.073,0,0.091,0.091l1.217,4.743c0.182,0.688,0.654,1.162,1.526,1.162h1.108c0.763,0,1.399-0.236,1.599-1.271l1.617-8.756
		v-0.072H43.71z M59.063,451.516c0-0.162-0.109-0.31-0.272-0.31h-2.199c-0.218,0-0.345,0.037-0.381,0.31l-1.072,6.904
		c-0.018,0.146-0.072,0.236-0.109,0.236c-0.054,0-0.109-0.073-0.146-0.236l-1.217-4.798c-0.164-0.635-0.436-0.816-1.017-0.816h-1.49
		c-0.582,0-0.854,0.184-1.018,0.816l-1.217,4.798c-0.036,0.163-0.091,0.236-0.146,0.236c-0.036,0-0.091-0.092-0.109-0.236
		l-1.072-6.904c-0.037-0.271-0.164-0.31-0.382-0.31h-2.198c-0.164,0-0.273,0.146-0.273,0.31v0.072l1.617,8.756
		c0.2,1.035,0.836,1.271,1.599,1.271h1.108c0.872,0,1.344-0.474,1.526-1.162l1.217-4.743c0.018-0.091,0.036-0.091,0.091-0.091
		c0.054,0,0.073,0,0.091,0.091l1.217,4.743c0.182,0.688,0.654,1.162,1.526,1.162h1.107c0.763,0,1.399-0.236,1.599-1.271l1.617-8.756
		v-0.072H59.063z M74.417,451.516c0-0.162-0.109-0.31-0.273-0.31h-2.198c-0.218,0-0.345,0.037-0.382,0.31l-1.072,6.904
		c-0.018,0.146-0.073,0.236-0.109,0.236c-0.055,0-0.109-0.073-0.146-0.236l-1.217-4.798c-0.164-0.635-0.436-0.816-1.018-0.816h-1.49
		c-0.581,0-0.854,0.184-1.017,0.816l-1.218,4.798c-0.036,0.163-0.091,0.236-0.145,0.236c-0.037,0-0.091-0.092-0.109-0.236
		l-1.072-6.904c-0.036-0.271-0.164-0.31-0.382-0.31h-2.198c-0.164,0-0.272,0.146-0.272,0.31v0.072l1.617,8.756
		c0.2,1.035,0.835,1.271,1.599,1.271h1.108c0.872,0,1.345-0.474,1.526-1.162l1.217-4.743c0.018-0.091,0.037-0.091,0.091-0.091
		c0.055,0,0.073,0,0.091,0.091l1.217,4.743c0.182,0.688,0.654,1.162,1.526,1.162H71.2c0.763,0,1.399-0.236,1.599-1.271l1.617-8.756
		L74.417,451.516L74.417,451.516z M78.139,461.252v-2.287c0-0.199-0.164-0.345-0.363-0.345h-2.124c-0.2,0-0.381,0.146-0.381,0.345
		v2.287c0,0.2,0.182,0.363,0.381,0.363h2.124C77.976,461.615,78.139,461.452,78.139,461.252L78.139,461.252z M88.314,461.253v-6.485
		c0-2.651-1.634-3.705-4.251-3.705c-1.2,0-2.471,0.219-3.143,0.382c-0.218,0.055-0.345,0.198-0.345,0.397v1.473
		c0,0.233,0.146,0.325,0.327,0.325h0.091c0.563-0.056,1.852-0.127,3.016-0.127c0.854,0,1.364,0.22,1.364,1.255v0.654h-0.982
		c-3.107,0-4.469,0.943-4.469,3.069v0.164c0,2.36,1.525,3.124,3.105,3.124c1.091,0,1.819-0.312,2.528-0.817v0.291
		c0,0.199,0.163,0.362,0.363,0.362h2.034C88.15,461.615,88.314,461.452,88.314,461.253L88.314,461.253L88.314,461.253z
		 M85.427,459.162c-0.436,0.221-0.945,0.402-1.491,0.402c-0.764,0-1.146-0.146-1.146-0.909v-0.164c0-0.893,0.328-1.327,1.601-1.327
		h1.036V459.162L85.427,459.162z M99.488,457.129v-1.418c0-2.943-1.616-4.648-4.561-4.648c-1.4,0-2.834,0.219-3.87,0.473
		c-0.49,0.107-0.562,0.234-0.562,0.524v12.735c0,0.2,0.181,0.363,0.381,0.363h2.197c0.2,0,0.363-0.163,0.363-0.363v-3.143
		c0.527,0.07,1.127,0.127,1.491,0.127C98,461.779,99.488,459.982,99.488,457.129L99.488,457.129z M96.547,457.129
		c0,1.272-0.327,2.236-1.618,2.236c-0.437,0-1.055-0.057-1.491-0.109v-5.672c0.346-0.054,0.891-0.091,1.491-0.091
		c1.291,0,1.618,0.928,1.618,2.218V457.129L96.547,457.129z M108.627,458.729c0-0.979-0.327-1.927-1.834-2.8l-2.253-1.289
		c-0.364-0.219-0.564-0.362-0.564-0.638c0-0.418,0.254-0.525,0.964-0.525c0.927,0,2.489,0.163,3.015,0.235h0.055
		c0.181,0,0.309-0.128,0.309-0.346v-1.47c0-0.221-0.128-0.363-0.345-0.418c-0.926-0.235-1.798-0.418-3.234-0.418
		c-2.507,0-3.724,0.979-3.724,2.812c0,1.183,0.599,2.109,1.616,2.689l2.363,1.362c0.509,0.29,0.673,0.49,0.673,0.765
		c0,0.474-0.2,0.71-1.074,0.71c-0.582,0-2.107-0.128-3.087-0.257h-0.073c-0.218,0-0.345,0.164-0.345,0.348v1.47
		c0,0.219,0.127,0.363,0.345,0.418c0.926,0.254,2.306,0.399,3.306,0.399C107.393,461.779,108.627,460.438,108.627,458.729
		L108.627,458.729z M119.874,452.713v-1.035c0-0.254-0.2-0.472-0.454-0.472h-4.523c-3.18,0-4.542,1.38-4.542,3.434v0.146
		c0,0.728,0.255,1.653,0.836,2.162c-0.454,0.362-0.799,0.871-0.799,1.543c0,0.6,0.272,1.327,0.925,1.688
		c-0.78,0.603-1.089,1.291-1.089,2.036v0.146c0,1.905,1.598,2.96,4.614,2.96c3.198,0,4.76-0.962,4.76-2.96v-0.146
		c0-1.744-1.09-2.233-4.251-2.927l-2.054-0.454c-0.436-0.091-0.545-0.218-0.545-0.509c0-0.164,0.054-0.291,0.254-0.418
		c0.364,0.145,1.036,0.271,1.891,0.271c2.834,0,4.486-1.032,4.486-3.396v-0.146c0-0.437-0.181-1.019-0.399-1.346l0.563-0.182
		C119.765,453.04,119.874,452.967,119.874,452.713L119.874,452.713z M116.515,454.785c0,0.782-0.345,1.271-1.618,1.271
		c-1.382,0-1.655-0.653-1.655-1.271v-0.146c0-0.744,0.364-1.31,1.655-1.31s1.618,0.562,1.618,1.31V454.785L116.515,454.785z
		 M116.606,462.362c0,0.546-0.273,0.927-1.764,0.927c-1.4,0-1.818-0.309-1.818-0.927v-0.146c0-0.636,0.146-0.927,0.364-1.233
		l1.345,0.291c1.636,0.36,1.873,0.599,1.873,0.942V462.362L116.606,462.362z M127.069,453.148v-1.727
		c0-0.199-0.163-0.361-0.363-0.361c-0.872,0-1.781,0.31-2.453,0.87v-0.36c0-0.2-0.163-0.364-0.363-0.364h-2.161
		c-0.199,0-0.363,0.164-0.363,0.364v9.664c0,0.198,0.182,0.381,0.382,0.381h2.196c0.2,0,0.363-0.183,0.363-0.381v-7.104
		c0.673-0.364,1.454-0.638,2.344-0.638h0.146C126.96,453.493,127.069,453.312,127.069,453.148L127.069,453.148z M137.025,457.057
		v-1.271c0-2.892-1.597-4.724-4.541-4.724c-2.943,0-4.559,1.832-4.559,4.724v1.271c0,2.891,1.616,4.725,4.559,4.725
		C135.428,461.779,137.025,459.945,137.025,457.057L137.025,457.057z M134.102,457.057c0,1.474-0.563,2.235-1.618,2.235
		c-1.054,0-1.636-0.764-1.636-2.235v-1.271c0-1.474,0.582-2.218,1.636-2.218c1.055,0,1.618,0.744,1.618,2.218V457.057
		L134.102,457.057z M147.854,461.252v-9.664c0-0.2-0.181-0.382-0.381-0.382h-2.197c-0.199,0-0.363,0.182-0.363,0.382v7.159
		c-0.618,0.327-1.182,0.581-1.709,0.581c-1.109,0-1.346-0.418-1.346-1.69v-6.05c0-0.2-0.163-0.382-0.363-0.382h-2.197
		c-0.199,0-0.381,0.182-0.381,0.382v6.05c0,2.289,0.581,4.123,3.214,4.123c1.164,0,1.964-0.233,2.964-0.941v0.435
		c0,0.2,0.163,0.363,0.363,0.363h2.033C147.691,461.615,147.854,461.452,147.854,461.252L147.854,461.252L147.854,461.252z
		 M159.029,457.129v-1.418c0-2.943-1.616-4.648-4.561-4.648c-1.4,0-2.834,0.219-3.869,0.473c-0.49,0.107-0.563,0.234-0.563,0.524
		v12.735c0,0.2,0.182,0.363,0.381,0.363h2.197c0.2,0,0.363-0.163,0.363-0.363v-3.143c0.528,0.07,1.128,0.127,1.491,0.127
		C157.54,461.779,159.029,459.982,159.029,457.129L159.029,457.129z M156.088,457.129c0,1.272-0.328,2.236-1.619,2.236
		c-0.436,0-1.054-0.057-1.491-0.109v-5.672c0.346-0.054,0.891-0.091,1.491-0.091c1.291,0,1.619,0.928,1.619,2.218V457.129
		L156.088,457.129z M163.716,461.252v-2.287c0-0.199-0.163-0.345-0.363-0.345h-2.124c-0.2,0-0.381,0.146-0.381,0.345v2.287
		c0,0.2,0.181,0.363,0.381,0.363h2.124C163.553,461.615,163.716,461.452,163.716,461.252L163.716,461.252z M172.619,461.089v-1.615
		c0-0.182-0.163-0.309-0.345-0.309h-0.036c-0.673,0.072-1.181,0.127-2.217,0.127c-0.818,0-1.49-0.491-1.49-2.108v-1.524
		c0-1.618,0.672-2.109,1.49-2.109c1.036,0,1.544,0.058,2.217,0.127h0.036c0.182,0,0.345-0.127,0.345-0.309v-1.615
		c0-0.271-0.109-0.345-0.381-0.418c-0.509-0.127-1.327-0.271-2.417-0.271c-2.562,0-4.231,1.634-4.231,4.596v1.525
		c0,2.963,1.67,4.597,4.231,4.597c1.09,0,1.908-0.146,2.417-0.272C172.51,461.436,172.619,461.361,172.619,461.089L172.619,461.089z
		 M182.682,457.057v-1.271c0-2.892-1.598-4.724-4.542-4.724c-2.943,0-4.559,1.832-4.559,4.724v1.271
		c0,2.891,1.616,4.725,4.559,4.725C181.084,461.779,182.682,459.945,182.682,457.057L182.682,457.057z M179.759,457.057
		c0,1.474-0.563,2.235-1.619,2.235c-1.054,0-1.636-0.764-1.636-2.235v-1.271c0-1.474,0.582-2.218,1.636-2.218
		c1.055,0,1.619,0.744,1.619,2.218V457.057L179.759,457.057z M187.406,461.252v-2.287c0-0.199-0.164-0.345-0.364-0.345h-2.124
		c-0.199,0-0.381,0.146-0.381,0.345v2.287c0,0.2,0.182,0.363,0.381,0.363h2.124C187.242,461.615,187.406,461.452,187.406,461.252
		L187.406,461.252z M198.489,461.252v-9.664c0-0.2-0.182-0.382-0.381-0.382h-2.197c-0.2,0-0.363,0.182-0.363,0.382v7.159
		c-0.619,0.327-1.182,0.581-1.71,0.581c-1.109,0-1.345-0.418-1.345-1.69v-6.05c0-0.2-0.164-0.382-0.363-0.382h-2.197
		c-0.2,0-0.381,0.182-0.381,0.382v6.05c0,2.289,0.581,4.123,3.214,4.123c1.163,0,1.963-0.233,2.963-0.941v0.435
		c0,0.2,0.164,0.363,0.363,0.363h2.034C198.325,461.615,198.489,461.452,198.489,461.252L198.489,461.252L198.489,461.252z
		 M209.718,451.406c0-0.109-0.109-0.2-0.272-0.2h-2.598c-0.145,0-0.327,0.055-0.472,0.272l-2.762,4.159v-7.595
		c0-0.2-0.164-0.363-0.363-0.363h-2.197c-0.2,0-0.381,0.163-0.381,0.363v13.189c0,0.198,0.181,0.381,0.381,0.381h2.197
		c0.199,0,0.363-0.183,0.363-0.381v-4.145l2.616,4.271c0.146,0.218,0.255,0.254,0.454,0.254h2.744c0.146,0,0.236-0.109,0.236-0.236
		l-0.036-0.145l-3.361-5.052l3.379-4.597L209.718,451.406L209.718,451.406z"/>
	<path fill="#003D79" d="M37.717,425.38v-0.766c0-0.224-0.182-0.403-0.403-0.403h-6.189v-2.802c0-1.532,0.343-2.097,2.48-2.097
		h3.891c0.141,0,0.222-0.103,0.222-0.242v-1.008c0-0.121-0.081-0.265-0.202-0.282c-0.847-0.08-2.742-0.121-3.931-0.121
		c-2.822,0-4.293,1.067-4.293,3.75v10.966c0,0.223,0.181,0.403,0.403,0.403h1.028c0.222,0,0.403-0.183,0.403-0.403v-6.592h6.189
		C37.535,425.783,37.717,425.604,37.717,425.38L37.717,425.38z M48.478,428.001v-1.532c0-2.964-1.532-4.919-4.496-4.919
		c-2.964,0-4.475,1.955-4.475,4.919v1.532c0,2.963,1.512,4.919,4.475,4.919S48.478,430.964,48.478,428.001L48.478,428.001z
		 M46.704,428.001c0,2.076-0.847,3.366-2.722,3.366c-1.895,0-2.701-1.312-2.701-3.366v-1.532c0-2.076,0.827-3.365,2.701-3.365
		c1.895,0,2.722,1.311,2.722,3.365V428.001L46.704,428.001z M52.344,432.375v-14.373c0-0.222-0.161-0.383-0.363-0.383h-1.048
		c-0.222,0-0.363,0.181-0.363,0.383v14.373c0,0.223,0.161,0.403,0.363,0.403h1.048C52.203,432.778,52.344,432.577,52.344,432.375
		L52.344,432.375z M56.64,432.375v-14.373c0-0.222-0.162-0.383-0.363-0.383h-1.048c-0.222,0-0.363,0.181-0.363,0.383v14.373
		c0,0.223,0.162,0.403,0.363,0.403h1.048C56.498,432.778,56.64,432.577,56.64,432.375L56.64,432.375z M67.682,428.001v-1.532
		c0-2.964-1.532-4.919-4.496-4.919c-2.963,0-4.475,1.955-4.475,4.919v1.532c0,2.963,1.512,4.919,4.475,4.919
		C66.15,432.92,67.682,430.964,67.682,428.001L67.682,428.001z M65.908,428.001c0,2.076-0.847,3.366-2.722,3.366
		c-1.895,0-2.701-1.312-2.701-3.366v-1.532c0-2.076,0.827-3.365,2.701-3.365c1.895,0,2.722,1.311,2.722,3.365V428.001
		L65.908,428.001z M83.205,422.094c0-0.199-0.162-0.4-0.383-0.4h-1.088c-0.182,0-0.323,0.16-0.343,0.321l-1.673,9.191
		c-0.04,0.242-0.101,0.242-0.161,0.242s-0.121-0.062-0.161-0.242l-1.976-7.741c-0.121-0.441-0.383-0.604-0.807-0.604h-1.129
		c-0.423,0-0.685,0.162-0.806,0.604l-1.976,7.741c-0.041,0.182-0.101,0.242-0.161,0.242c-0.061,0-0.121,0-0.162-0.242l-1.673-9.191
		c-0.021-0.161-0.162-0.321-0.343-0.321h-1.089c-0.222,0-0.383,0.201-0.383,0.4v0.081l1.956,9.354
		c0.262,1.249,0.483,1.391,1.693,1.391c1.048,0,1.351-0.282,1.653-1.452l1.754-6.854c0.04-0.143,0.04-0.143,0.101-0.143
		c0.061,0,0.061,0,0.101,0.143l1.754,6.854c0.322,1.271,0.604,1.452,1.653,1.452c1.209,0,1.431-0.121,1.693-1.391l1.956-9.354
		V422.094L83.205,422.094z M98.202,432.375v-10.281c0-0.222-0.181-0.4-0.383-0.4h-0.988c-0.222,0-0.403,0.201-0.403,0.4v8.508
		c-0.927,0.466-1.875,0.786-2.721,0.786c-1.532,0-2.218-0.625-2.218-2.661v-6.633c0-0.222-0.181-0.4-0.403-0.4h-0.968
		c-0.222,0-0.403,0.181-0.403,0.4v6.633c0,2.684,1.089,4.193,3.508,4.193c1.189,0,2.097-0.303,3.205-0.928v0.383
		c0,0.223,0.162,0.403,0.383,0.403h1.008C98.041,432.778,98.202,432.598,98.202,432.375L98.202,432.375z M107.415,429.996
		c0-1.188-0.545-2.057-2.218-3.043l-1.996-1.19c-0.927-0.544-1.39-0.927-1.39-1.529c0-1.028,0.745-1.171,1.874-1.171
		s2.419,0.103,3.125,0.161h0.06c0.202,0,0.343-0.102,0.343-0.344v-0.665c0-0.222-0.121-0.361-0.383-0.402
		c-0.947-0.159-2.016-0.263-3.145-0.263c-2.076,0-3.648,0.585-3.648,2.684c0,1.27,0.826,2.137,2.056,2.883l2.036,1.209
		c1.149,0.686,1.512,1.067,1.512,1.673c0,1.089-0.686,1.432-1.996,1.432c-0.726,0-2.197-0.101-3.165-0.222h-0.081
		c-0.201,0-0.362,0.121-0.362,0.302v0.706c0,0.225,0.161,0.345,0.423,0.403c0.988,0.242,2.439,0.303,3.185,0.303
		C105.903,432.92,107.415,432.053,107.415,429.996L107.415,429.996z M122.775,428.001v-1.532c0-2.964-1.532-4.919-4.495-4.919
		c-2.963,0-4.475,1.955-4.475,4.919v1.532c0,2.963,1.512,4.919,4.475,4.919C121.243,432.92,122.775,430.964,122.775,428.001
		L122.775,428.001z M121.001,428.001c0,2.076-0.846,3.366-2.721,3.366c-1.896,0-2.701-1.312-2.701-3.366v-1.532
		c0-2.076,0.826-3.365,2.701-3.365c1.895,0,2.721,1.311,2.721,3.365V428.001L121.001,428.001z M133.256,432.375v-6.632
		c0-2.681-1.089-4.193-3.508-4.193c-1.189,0-2.096,0.304-3.205,0.929v-0.385c0-0.222-0.161-0.4-0.383-0.4h-1.008
		c-0.222,0-0.383,0.181-0.383,0.4v10.281c0,0.223,0.181,0.403,0.383,0.403h0.988c0.222,0,0.403-0.201,0.403-0.403v-8.507
		c0.927-0.463,1.875-0.786,2.721-0.786c1.532,0,2.218,0.625,2.218,2.661v6.632c0,0.223,0.181,0.403,0.403,0.403h0.968
		C133.074,432.778,133.256,432.598,133.256,432.375L133.256,432.375z"/>
	<path fill="#003D79" d="M86.16,142.045v-1.58c0-0.22-0.18-0.38-0.4-0.38h-9.78c-0.22,0-0.4,0.16-0.4,0.38v1.58
		c0,0.22,0.18,0.36,0.4,0.36h3.5v12.14c0,0.22,0.18,0.4,0.4,0.4h1.98c0.22,0,0.4-0.181,0.4-0.4v-12.14h3.5
		C85.98,142.405,86.16,142.265,86.16,142.045L86.16,142.045z M97.272,154.525v-6.58c0-2.46-0.82-4.42-3.58-4.42
		c-1.42,0-2.26,0.28-3.02,0.74v-4.14c0-0.22-0.18-0.4-0.4-0.4h-1.84c-0.22,0-0.4,0.18-0.4,0.4v14.4c0,0.22,0.18,0.42,0.4,0.42h1.84
		c0.22,0,0.4-0.2,0.4-0.42v-8.08c0.84-0.44,1.64-0.681,2.32-0.681c1.34,0,1.64,0.44,1.64,2.181v6.58c0,0.22,0.18,0.42,0.4,0.42h1.84
		C97.092,154.945,97.272,154.745,97.272,154.525L97.272,154.525z M108.996,149.725v-1.12c0-2.98-1.68-5.08-4.76-5.08
		c-3.06,0-4.8,1.96-4.8,5.08v1.479c0,3.94,2.84,5.021,4.84,5.021c1.8,0,2.58-0.1,3.88-0.34c0.36-0.06,0.42-0.2,0.42-0.52v-1.32
		c0-0.2-0.16-0.3-0.36-0.3h-0.06c-0.84,0.08-2.22,0.2-3.68,0.2c-1.92,0-2.4-1.38-2.4-2.54v-0.06h6.52
		C108.876,150.225,108.996,150.045,108.996,149.725L108.996,149.725z M106.336,148.345h-4.24v-0.08c0-1.58,0.9-2.46,2.14-2.46
		c1.24,0,2.1,0.9,2.1,2.46V148.345L106.336,148.345z M125.596,150.085v-1.54c0-3.12-1.56-5.02-4.78-5.02
		c-0.48,0-1.18,0.04-1.92,0.14v-3.54c0-0.22-0.18-0.4-0.4-0.4h-1.84c-0.22,0-0.4,0.18-0.4,0.4v13.92c0,0.3,0.08,0.42,0.54,0.54
		c1.24,0.32,2.74,0.521,4.02,0.521C124.036,155.105,125.596,153.205,125.596,150.085L125.596,150.085z M122.956,150.085
		c0,1.64-0.42,2.86-2.14,2.86c-0.72,0-1.54-0.061-1.92-0.141v-6.979c0.56-0.08,1.44-0.14,1.92-0.14c1.72,0,2.14,1.22,2.14,2.86
		V150.085L122.956,150.085z M133.584,145.365v-1.44c0-0.22-0.18-0.4-0.4-0.4c-0.8,0-1.88,0.2-2.86,0.96v-0.42
		c0-0.22-0.18-0.4-0.4-0.4h-1.74c-0.22,0-0.4,0.18-0.4,0.4v10.46c0,0.22,0.18,0.42,0.4,0.42h1.84c0.22,0,0.4-0.2,0.4-0.42v-8.04
		c0.84-0.44,1.68-0.72,2.76-0.72C133.404,145.765,133.584,145.585,133.584,145.365L133.584,145.365z M138.062,141.765v-1.76
		c0-0.22-0.18-0.4-0.4-0.4h-1.94c-0.22,0-0.42,0.18-0.42,0.4v1.76c0,0.221,0.2,0.4,0.42,0.4h1.94
		C137.882,142.165,138.062,141.985,138.062,141.765L138.062,141.765z M138.002,154.525v-10.46c0-0.22-0.18-0.4-0.4-0.4h-1.84
		c-0.22,0-0.399,0.18-0.399,0.4v10.46c0,0.22,0.18,0.42,0.399,0.42h1.84C137.822,154.945,138.002,154.745,138.002,154.525
		L138.002,154.525z M149.735,149.725v-1.12c0-2.98-1.68-5.08-4.76-5.08c-3.06,0-4.8,1.96-4.8,5.08v1.479
		c0,3.94,2.84,5.021,4.84,5.021c1.8,0,2.58-0.1,3.88-0.34c0.36-0.06,0.42-0.2,0.42-0.52v-1.32c0-0.2-0.16-0.3-0.36-0.3h-0.06
		c-0.84,0.08-2.22,0.2-3.68,0.2c-1.92,0-2.4-1.38-2.4-2.54v-0.06h6.52C149.615,150.225,149.735,150.045,149.735,149.725
		L149.735,149.725z M147.075,148.345h-4.24v-0.08c0-1.58,0.9-2.46,2.14-2.46c1.24,0,2.1,0.9,2.1,2.46V148.345L147.075,148.345z
		 M158.061,141.145v-1.18c0-0.18-0.2-0.28-0.36-0.32c-0.38-0.08-0.72-0.16-1.2-0.16c-2.08,0-3.46,0.62-3.46,3.2v0.98h-1.78
		c-0.22,0-0.4,0.18-0.4,0.4v0.92c0,0.22,0.18,0.34,0.4,0.38l1.78,0.28v8.88c0,0.22,0.2,0.42,0.42,0.42h1.82c0.22,0,0.4-0.2,0.4-0.42
		v-8.88h1.92c0.22,0,0.4-0.16,0.4-0.38v-1.2c0-0.22-0.18-0.4-0.4-0.4h-1.92v-0.98c0-0.98,0.22-1.2,1.18-1.2h0.9
		C157.901,141.485,158.061,141.385,158.061,141.145L158.061,141.145z"/>
	<path fill="#003D79" d="M86.16,202.045v-1.58c0-0.22-0.18-0.38-0.4-0.38h-9.78c-0.22,0-0.4,0.16-0.4,0.38v1.58
		c0,0.22,0.18,0.36,0.4,0.36h3.5v12.14c0,0.22,0.18,0.4,0.4,0.4h1.98c0.22,0,0.4-0.181,0.4-0.4v-12.14h3.5
		C85.98,202.405,86.16,202.265,86.16,202.045L86.16,202.045z M97.272,214.525v-6.58c0-2.46-0.82-4.42-3.58-4.42
		c-1.42,0-2.26,0.28-3.02,0.74v-4.14c0-0.22-0.18-0.4-0.4-0.4h-1.84c-0.22,0-0.4,0.18-0.4,0.4v14.4c0,0.22,0.18,0.42,0.4,0.42h1.84
		c0.22,0,0.4-0.2,0.4-0.42v-8.08c0.84-0.44,1.64-0.681,2.32-0.681c1.34,0,1.64,0.44,1.64,2.181v6.58c0,0.22,0.18,0.42,0.4,0.42h1.84
		C97.092,214.945,97.272,214.745,97.272,214.525L97.272,214.525z M108.996,209.725v-1.12c0-2.98-1.68-5.08-4.76-5.08
		c-3.06,0-4.8,1.96-4.8,5.08v1.48c0,3.94,2.84,5.021,4.84,5.021c1.8,0,2.58-0.1,3.88-0.34c0.36-0.06,0.42-0.2,0.42-0.52v-1.32
		c0-0.2-0.16-0.3-0.36-0.3h-0.06c-0.84,0.08-2.22,0.2-3.68,0.2c-1.92,0-2.4-1.38-2.4-2.54v-0.06h6.52
		C108.876,210.225,108.996,210.045,108.996,209.725L108.996,209.725z M106.336,208.345h-4.24v-0.08c0-1.58,0.9-2.46,2.14-2.46
		c1.24,0,2.1,0.9,2.1,2.46V208.345L106.336,208.345z M122.056,205.365v-1.44c0-0.22-0.18-0.4-0.4-0.4c-0.8,0-1.88,0.2-2.86,0.96
		v-0.42c0-0.22-0.18-0.4-0.4-0.4h-1.74c-0.22,0-0.4,0.18-0.4,0.4v10.46c0,0.22,0.18,0.42,0.4,0.42h1.84c0.22,0,0.4-0.2,0.4-0.42
		v-8.04c0.84-0.44,1.68-0.72,2.76-0.72C121.876,205.765,122.056,205.585,122.056,205.365L122.056,205.365z M132.892,209.725v-1.12
		c0-2.98-1.68-5.08-4.76-5.08c-3.06,0-4.8,1.96-4.8,5.08v1.48c0,3.94,2.84,5.021,4.84,5.021c1.8,0,2.58-0.1,3.88-0.34
		c0.36-0.06,0.42-0.2,0.42-0.52v-1.32c0-0.2-0.16-0.3-0.36-0.3h-0.061c-0.84,0.08-2.22,0.2-3.68,0.2c-1.92,0-2.4-1.38-2.4-2.54
		v-0.06h6.52C132.772,210.225,132.892,210.045,132.892,209.725L132.892,209.725z M130.232,208.345h-4.24v-0.08
		c0-1.58,0.9-2.46,2.14-2.46c1.24,0,2.1,0.9,2.1,2.46V208.345L130.232,208.345z M142.639,211.985c0-1.021-0.24-2.021-1.92-3.04
		l-2.62-1.601c-0.5-0.3-0.8-0.5-0.8-0.82c0-0.62,0.42-0.84,1.38-0.84c1.14,0,2.74,0.16,3.3,0.24h0.08c0.2,0,0.32-0.14,0.32-0.38
		v-1.16c0-0.24-0.12-0.399-0.36-0.46c-1.02-0.22-1.94-0.4-3.56-0.4c-2.54,0-3.8,1-3.8,3c0,1.16,0.7,2.16,1.68,2.76l2.74,1.68
		c0.64,0.4,0.88,0.64,0.88,1.02c0,0.54-0.18,0.96-1.42,0.96c-0.6,0-2.4-0.101-3.36-0.22h-0.08c-0.2,0-0.34,0.16-0.34,0.32v1.2
		c0,0.24,0.14,0.4,0.38,0.46c1.12,0.3,2.8,0.4,3.58,0.4C141.339,215.105,142.639,213.725,142.639,211.985L142.639,211.985z
		 M153.985,210.085v-1.54c0-3.12-1.56-5.02-4.78-5.02c-1.28,0-2.78,0.2-4.02,0.52c-0.46,0.12-0.54,0.24-0.54,0.54v13.92
		c0,0.22,0.18,0.4,0.4,0.4h1.84c0.22,0,0.4-0.18,0.4-0.4v-3.54c0.74,0.1,1.44,0.14,1.92,0.14
		C152.425,215.105,153.985,213.205,153.985,210.085L153.985,210.085z M151.345,210.085c0,1.64-0.42,2.86-2.14,2.86
		c-0.48,0-1.36-0.061-1.92-0.141v-6.979c0.38-0.08,1.2-0.14,1.92-0.14c1.72,0,2.14,1.22,2.14,2.86V210.085L151.345,210.085z
		 M165.383,210.125v-1.62c0-2.86-1.64-4.98-4.78-4.98s-4.78,2.12-4.78,4.98v1.62c0,2.86,1.64,4.98,4.78,4.98
		S165.383,212.985,165.383,210.125L165.383,210.125z M162.743,210.125c0,1.64-0.74,2.7-2.14,2.7s-2.14-1.061-2.14-2.7v-1.62
		c0-1.64,0.74-2.7,2.14-2.7s2.14,1.061,2.14,2.7V210.125L162.743,210.125z M176.815,214.525v-6.52c0-2.54-0.58-4.48-3.46-4.48
		c-1.32,0-2.08,0.22-3.24,0.96v-0.42c0-0.22-0.18-0.4-0.4-0.4h-1.74c-0.22,0-0.4,0.18-0.4,0.4v10.46c0,0.22,0.18,0.42,0.4,0.42h1.84
		c0.22,0,0.4-0.2,0.4-0.42v-8.04c0.84-0.44,1.58-0.72,2.26-0.72c1.54,0,1.7,0.5,1.7,2.24v6.52c0,0.22,0.18,0.42,0.4,0.42h1.84
		C176.635,214.945,176.815,214.745,176.815,214.525L176.815,214.525z M186.837,211.985c0-1.021-0.24-2.021-1.92-3.04l-2.62-1.601
		c-0.5-0.3-0.8-0.5-0.8-0.82c0-0.62,0.42-0.84,1.38-0.84c1.14,0,2.74,0.16,3.3,0.24h0.08c0.2,0,0.32-0.14,0.32-0.38v-1.16
		c0-0.24-0.12-0.399-0.36-0.46c-1.02-0.22-1.94-0.4-3.56-0.4c-2.54,0-3.8,1-3.8,3c0,1.16,0.7,2.16,1.68,2.76l2.74,1.68
		c0.64,0.4,0.88,0.64,0.88,1.02c0,0.54-0.18,0.96-1.42,0.96c-0.601,0-2.4-0.101-3.36-0.22h-0.08c-0.2,0-0.34,0.16-0.34,0.32v1.2
		c0,0.24,0.14,0.4,0.38,0.46c1.12,0.3,2.8,0.4,3.58,0.4C185.537,215.105,186.837,213.725,186.837,211.985L186.837,211.985z
		 M191.573,201.765v-1.76c0-0.22-0.18-0.4-0.4-0.4h-1.94c-0.22,0-0.42,0.18-0.42,0.4v1.76c0,0.221,0.2,0.4,0.42,0.4h1.94
		C191.393,202.165,191.573,201.985,191.573,201.765L191.573,201.765z M191.513,214.525v-10.46c0-0.22-0.18-0.4-0.399-0.4h-1.84
		c-0.22,0-0.4,0.18-0.4,0.4v10.46c0,0.22,0.18,0.42,0.4,0.42h1.84C191.333,214.945,191.513,214.745,191.513,214.525L191.513,214.525
		z M203.387,210.085v-1.54c0-3.12-1.56-5.02-4.78-5.02c-0.48,0-1.18,0.04-1.92,0.14v-3.54c0-0.22-0.18-0.4-0.4-0.4h-1.84
		c-0.22,0-0.4,0.18-0.4,0.4v13.92c0,0.3,0.08,0.42,0.54,0.54c1.24,0.32,2.74,0.521,4.02,0.521
		C201.827,215.105,203.387,213.205,203.387,210.085L203.387,210.085z M200.747,210.085c0,1.64-0.42,2.86-2.14,2.86
		c-0.72,0-1.54-0.061-1.92-0.141v-6.979c0.56-0.08,1.44-0.14,1.92-0.14c1.72,0,2.14,1.22,2.14,2.86V210.085L200.747,210.085z
		 M208.263,214.525v-14.4c0-0.22-0.16-0.4-0.38-0.4h-1.86c-0.22,0-0.4,0.18-0.4,0.4v14.4c0,0.22,0.18,0.42,0.4,0.42h1.86
		C208.103,214.945,208.263,214.745,208.263,214.525L208.263,214.525z M220.044,209.725v-1.12c0-2.98-1.68-5.08-4.76-5.08
		c-3.06,0-4.8,1.96-4.8,5.08v1.48c0,3.94,2.84,5.021,4.84,5.021c1.8,0,2.58-0.1,3.88-0.34c0.36-0.06,0.42-0.2,0.42-0.52v-1.32
		c0-0.2-0.16-0.3-0.36-0.3h-0.06c-0.84,0.08-2.22,0.2-3.68,0.2c-1.92,0-2.4-1.38-2.4-2.54v-0.06h6.52
		C219.924,210.225,220.044,210.045,220.044,209.725L220.044,209.725z M217.384,208.345h-4.24v-0.08c0-1.58,0.9-2.46,2.14-2.46
		c1.24,0,2.1,0.9,2.1,2.46V208.345L217.384,208.345z M234.884,211.985c0-1.021-0.24-2.021-1.92-3.04l-2.62-1.601
		c-0.5-0.3-0.8-0.5-0.8-0.82c0-0.62,0.42-0.84,1.38-0.84c1.14,0,2.74,0.16,3.3,0.24h0.08c0.2,0,0.32-0.14,0.32-0.38v-1.16
		c0-0.24-0.12-0.399-0.36-0.46c-1.02-0.22-1.94-0.4-3.56-0.4c-2.54,0-3.8,1-3.8,3c0,1.16,0.7,2.16,1.68,2.76l2.74,1.68
		c0.64,0.4,0.88,0.64,0.88,1.02c0,0.54-0.18,0.96-1.42,0.96c-0.6,0-2.4-0.101-3.36-0.22h-0.08c-0.2,0-0.34,0.16-0.34,0.32v1.2
		c0,0.24,0.14,0.4,0.38,0.46c1.12,0.3,2.8,0.4,3.58,0.4C233.584,215.105,234.884,213.725,234.884,211.985L234.884,211.985z
		 M246.242,210.125v-1.62c0-2.86-1.64-4.98-4.78-4.98c-3.14,0-4.78,2.12-4.78,4.98v1.62c0,2.86,1.64,4.98,4.78,4.98
		C244.602,215.105,246.242,212.985,246.242,210.125L246.242,210.125z M243.602,210.125c0,1.64-0.74,2.7-2.14,2.7
		c-1.4,0-2.14-1.061-2.14-2.7v-1.62c0-1.64,0.74-2.7,2.14-2.7c1.4,0,2.14,1.061,2.14,2.7V210.125L243.602,210.125z M251.124,214.525
		v-14.4c0-0.22-0.16-0.4-0.38-0.4h-1.86c-0.22,0-0.4,0.18-0.4,0.4v14.4c0,0.22,0.18,0.42,0.4,0.42h1.86
		C250.964,214.945,251.124,214.745,251.124,214.525L251.124,214.525z M262.908,214.545v-10.46c0-0.22-0.18-0.42-0.4-0.42h-1.84
		c-0.22,0-0.4,0.2-0.4,0.42v8c-0.56,0.3-1.52,0.8-2.26,0.8c-0.62,0-0.96-0.12-1.24-0.36c-0.38-0.34-0.46-0.92-0.46-1.92v-6.521
		c0-0.22-0.18-0.42-0.4-0.42h-1.84c-0.22,0-0.4,0.2-0.4,0.42v6.521c0,1.66,0.26,2.9,1,3.64c0.58,0.58,1.46,0.84,2.46,0.84
		c1.28,0,2.1-0.32,3.14-1v0.46c0,0.22,0.18,0.4,0.4,0.4h1.84C262.728,214.945,262.908,214.765,262.908,214.545L262.908,214.545z
		 M271.866,214.605v-1.26c0-0.2-0.16-0.3-0.42-0.3h-1.061c-0.72,0-0.78-0.12-0.78-1.12v-6.28h1.8c0.22,0,0.399-0.18,0.399-0.4v-1.18
		c0-0.22-0.18-0.4-0.399-0.4h-1.8v-2.06c0-0.2-0.14-0.3-0.32-0.3h-0.08l-1.86,0.32c-0.22,0.04-0.399,0.18-0.399,0.4v1.64h-1.88
		c-0.22,0-0.4,0.18-0.4,0.4v0.9c0,0.22,0.18,0.36,0.4,0.4l1.88,0.28v6.28c0,2.68,0.92,3.18,3.18,3.18c0.44,0,0.88-0.061,1.36-0.14
		C271.746,214.925,271.866,214.805,271.866,214.605L271.866,214.605z M276.394,201.765v-1.76c0-0.22-0.18-0.4-0.4-0.4h-1.94
		c-0.22,0-0.42,0.18-0.42,0.4v1.76c0,0.221,0.2,0.4,0.42,0.4h1.94C276.214,202.165,276.394,201.985,276.394,201.765L276.394,201.765
		z M276.334,214.525v-10.46c0-0.22-0.18-0.4-0.4-0.4h-1.84c-0.22,0-0.399,0.18-0.399,0.4v10.46c0,0.22,0.18,0.42,0.399,0.42h1.84
		C276.154,214.945,276.334,214.745,276.334,214.525L276.334,214.525z M288.067,210.125v-1.62c0-2.86-1.64-4.98-4.78-4.98
		c-3.14,0-4.78,2.12-4.78,4.98v1.62c0,2.86,1.64,4.98,4.78,4.98C286.427,215.105,288.067,212.985,288.067,210.125L288.067,210.125z
		 M285.427,210.125c0,1.64-0.74,2.7-2.14,2.7c-1.4,0-2.14-1.061-2.14-2.7v-1.62c0-1.64,0.74-2.7,2.14-2.7c1.4,0,2.14,1.061,2.14,2.7
		V210.125L285.427,210.125z M299.499,214.525v-6.52c0-2.54-0.58-4.48-3.46-4.48c-1.32,0-2.08,0.22-3.24,0.96v-0.42
		c0-0.22-0.18-0.4-0.4-0.4h-1.74c-0.22,0-0.4,0.18-0.4,0.4v10.46c0,0.22,0.18,0.42,0.4,0.42h1.84c0.22,0,0.4-0.2,0.4-0.42v-8.04
		c0.84-0.44,1.58-0.72,2.26-0.72c1.54,0,1.7,0.5,1.7,2.24v6.52c0,0.22,0.18,0.42,0.4,0.42h1.84
		C299.319,214.945,299.499,214.745,299.499,214.525L299.499,214.525z"/>
	<path fill="#003D79" d="M86.16,262.045v-1.58c0-0.22-0.18-0.38-0.4-0.38h-9.78c-0.22,0-0.4,0.16-0.4,0.38v1.58
		c0,0.22,0.18,0.36,0.4,0.36h3.5v12.14c0,0.22,0.18,0.4,0.4,0.4h1.98c0.22,0,0.4-0.18,0.4-0.4v-12.14h3.5
		C85.98,262.405,86.16,262.265,86.16,262.045L86.16,262.045z M97.272,274.525v-6.58c0-2.46-0.82-4.42-3.58-4.42
		c-1.42,0-2.26,0.28-3.02,0.74v-4.14c0-0.22-0.18-0.4-0.4-0.4h-1.84c-0.22,0-0.4,0.18-0.4,0.4v14.4c0,0.22,0.18,0.42,0.4,0.42h1.84
		c0.22,0,0.4-0.2,0.4-0.42v-8.08c0.84-0.44,1.64-0.681,2.32-0.681c1.34,0,1.64,0.44,1.64,2.181v6.58c0,0.22,0.18,0.42,0.4,0.42h1.84
		C97.092,274.945,97.272,274.745,97.272,274.525L97.272,274.525z M108.996,269.725v-1.12c0-2.98-1.68-5.08-4.76-5.08
		c-3.06,0-4.8,1.96-4.8,5.08v1.48c0,3.94,2.84,5.02,4.84,5.02c1.8,0,2.58-0.1,3.88-0.34c0.36-0.06,0.42-0.2,0.42-0.52v-1.32
		c0-0.2-0.16-0.3-0.36-0.3h-0.06c-0.84,0.08-2.22,0.2-3.68,0.2c-1.92,0-2.4-1.38-2.4-2.54v-0.06h6.52
		C108.876,270.225,108.996,270.045,108.996,269.725L108.996,269.725z M106.336,268.345h-4.24v-0.08c0-1.58,0.9-2.46,2.14-2.46
		c1.24,0,2.1,0.9,2.1,2.46V268.345L106.336,268.345z M125.596,270.085v-1.54c0-3.12-1.56-5.02-4.78-5.02
		c-0.48,0-1.18,0.04-1.92,0.14v-3.54c0-0.22-0.18-0.4-0.4-0.4h-1.84c-0.22,0-0.4,0.18-0.4,0.4v13.92c0,0.3,0.08,0.42,0.54,0.54
		c1.24,0.32,2.74,0.52,4.02,0.52C124.036,275.105,125.596,273.205,125.596,270.085L125.596,270.085z M122.956,270.085
		c0,1.64-0.42,2.86-2.14,2.86c-0.72,0-1.54-0.061-1.92-0.141v-6.979c0.56-0.08,1.44-0.14,1.92-0.14c1.72,0,2.14,1.22,2.14,2.86
		V270.085L122.956,270.085z M136.994,269.725v-1.12c0-2.98-1.68-5.08-4.76-5.08c-3.06,0-4.8,1.96-4.8,5.08v1.48
		c0,3.94,2.84,5.02,4.84,5.02c1.8,0,2.58-0.1,3.88-0.34c0.36-0.06,0.42-0.2,0.42-0.52v-1.32c0-0.2-0.16-0.3-0.36-0.3h-0.06
		c-0.84,0.08-2.22,0.2-3.68,0.2c-1.92,0-2.4-1.38-2.4-2.54v-0.06h6.52C136.874,270.225,136.994,270.045,136.994,269.725
		L136.994,269.725z M134.334,268.345h-4.24v-0.08c0-1.58,0.9-2.46,2.14-2.46c1.24,0,2.1,0.9,2.1,2.46V268.345L134.334,268.345z
		 M148.397,274.525v-6.52c0-2.54-0.58-4.48-3.46-4.48c-1.32,0-2.08,0.22-3.24,0.96v-0.42c0-0.22-0.18-0.4-0.4-0.4h-1.74
		c-0.22,0-0.4,0.18-0.4,0.4v10.46c0,0.22,0.18,0.42,0.4,0.42h1.84c0.22,0,0.4-0.2,0.4-0.42v-8.04c0.84-0.44,1.58-0.72,2.26-0.72
		c1.54,0,1.7,0.5,1.7,2.24v6.52c0,0.22,0.18,0.42,0.4,0.42h1.84C148.217,274.945,148.397,274.745,148.397,274.525L148.397,274.525z
		 M160.121,269.725v-1.12c0-2.98-1.68-5.08-4.76-5.08c-3.06,0-4.8,1.96-4.8,5.08v1.48c0,3.94,2.84,5.02,4.84,5.02
		c1.8,0,2.58-0.1,3.88-0.34c0.36-0.06,0.42-0.2,0.42-0.52v-1.32c0-0.2-0.16-0.3-0.36-0.3h-0.06c-0.84,0.08-2.22,0.2-3.68,0.2
		c-1.92,0-2.4-1.38-2.4-2.54v-0.06h6.52C160.001,270.225,160.121,270.045,160.121,269.725L160.121,269.725z M157.461,268.345h-4.24
		v-0.08c0-1.58,0.9-2.46,2.14-2.46c1.24,0,2.1,0.9,2.1,2.46V268.345L157.461,268.345z M172.851,261.765v-1.76
		c0-0.22-0.18-0.4-0.4-0.4h-1.94c-0.22,0-0.42,0.18-0.42,0.4v1.76c0,0.22,0.2,0.4,0.42,0.4h1.94
		C172.671,262.165,172.851,261.985,172.851,261.765L172.851,261.765z M172.791,274.525v-10.46c0-0.22-0.18-0.4-0.4-0.4h-1.84
		c-0.22,0-0.4,0.18-0.4,0.4v10.46c0,0.22,0.18,0.42,0.4,0.42h1.84C172.611,274.945,172.791,274.745,172.791,274.525L172.791,274.525
		z M168.511,261.145v-1.18c0-0.18-0.2-0.28-0.36-0.32c-0.38-0.08-0.72-0.16-1.2-0.16c-2.08,0-3.46,0.62-3.46,3.2v0.98h-1.78
		c-0.22,0-0.4,0.18-0.4,0.4v0.92c0,0.22,0.18,0.34,0.4,0.38l1.78,0.28v8.88c0,0.22,0.2,0.42,0.42,0.42h1.82c0.22,0,0.4-0.2,0.4-0.42
		v-8.88h1.92c0.22,0,0.4-0.16,0.4-0.38v-1.2c0-0.22-0.18-0.4-0.4-0.4h-1.92v-0.98c0-0.98,0.22-1.2,1.18-1.2h0.9
		C168.351,261.485,168.511,261.385,168.511,261.145L168.511,261.145z M181.853,274.605v-1.26c0-0.2-0.16-0.3-0.42-0.3h-1.06
		c-0.72,0-0.78-0.12-0.78-1.12v-6.28h1.8c0.22,0,0.4-0.18,0.4-0.4v-1.18c0-0.22-0.18-0.4-0.4-0.4h-1.8v-2.06
		c0-0.2-0.14-0.3-0.32-0.3h-0.08l-1.86,0.32c-0.22,0.04-0.4,0.18-0.4,0.4v1.64h-1.88c-0.22,0-0.4,0.18-0.4,0.4v0.9
		c0,0.22,0.18,0.36,0.4,0.4l1.88,0.28v6.28c0,2.68,0.92,3.18,3.18,3.18c0.439,0,0.88-0.06,1.36-0.14
		C181.733,274.925,181.853,274.805,181.853,274.605L181.853,274.605z M191.383,271.985c0-1.02-0.24-2.02-1.92-3.04l-2.62-1.601
		c-0.5-0.3-0.8-0.5-0.8-0.82c0-0.62,0.42-0.84,1.38-0.84c1.14,0,2.74,0.16,3.3,0.24h0.08c0.2,0,0.32-0.14,0.32-0.38v-1.16
		c0-0.24-0.12-0.4-0.36-0.46c-1.02-0.22-1.94-0.4-3.56-0.4c-2.54,0-3.8,1-3.8,3c0,1.16,0.7,2.16,1.68,2.76l2.74,1.68
		c0.64,0.4,0.88,0.64,0.88,1.02c0,0.54-0.18,0.96-1.42,0.96c-0.6,0-2.4-0.1-3.36-0.22h-0.08c-0.2,0-0.34,0.16-0.34,0.32v1.2
		c0,0.24,0.14,0.4,0.38,0.46c1.12,0.3,2.8,0.4,3.58,0.4C190.083,275.105,191.383,273.725,191.383,271.985L191.383,271.985z"/>
	<path fill="#003D79" d="M86.16,322.045v-1.58c0-0.22-0.18-0.38-0.4-0.38h-9.78c-0.22,0-0.4,0.16-0.4,0.38v1.58
		c0,0.22,0.18,0.36,0.4,0.36h3.5v12.14c0,0.22,0.18,0.4,0.4,0.4h1.98c0.22,0,0.4-0.182,0.4-0.4v-12.14h3.5
		C85.98,322.405,86.16,322.265,86.16,322.045L86.16,322.045z M97.272,334.525v-6.58c0-2.46-0.82-4.42-3.58-4.42
		c-1.42,0-2.26,0.279-3.02,0.739v-4.14c0-0.22-0.18-0.4-0.4-0.4h-1.84c-0.22,0-0.4,0.181-0.4,0.4v14.4c0,0.22,0.18,0.42,0.4,0.42
		h1.84c0.22,0,0.4-0.2,0.4-0.42v-8.08c0.84-0.44,1.64-0.682,2.32-0.682c1.34,0,1.64,0.44,1.64,2.182v6.58c0,0.22,0.18,0.42,0.4,0.42
		h1.84C97.092,334.945,97.272,334.745,97.272,334.525L97.272,334.525z M108.996,329.725v-1.119c0-2.98-1.68-5.08-4.76-5.08
		c-3.06,0-4.8,1.96-4.8,5.08v1.479c0,3.94,2.84,5.021,4.84,5.021c1.8,0,2.58-0.101,3.88-0.341c0.36-0.06,0.42-0.199,0.42-0.52v-1.32
		c0-0.2-0.16-0.3-0.36-0.3h-0.06c-0.84,0.08-2.22,0.2-3.68,0.2c-1.92,0-2.4-1.38-2.4-2.54v-0.061h6.52
		C108.876,330.225,108.996,330.045,108.996,329.725L108.996,329.725z M106.336,328.345h-4.24v-0.08c0-1.58,0.9-2.46,2.14-2.46
		c1.24,0,2.1,0.9,2.1,2.46V328.345L106.336,328.345z M123.416,334.325v-1.3c0-0.2-0.16-0.301-0.36-0.301h-0.06
		c-0.8,0.101-1.28,0.141-2.58,0.141c-0.94,0-1.92-0.54-1.92-2.62v-1.86c0-2.08,0.98-2.62,1.92-2.62c1.3,0,1.78,0.04,2.58,0.141h0.06
		c0.2,0,0.36-0.102,0.36-0.3v-1.301c0-0.319-0.08-0.439-0.42-0.52c-0.46-0.12-1.36-0.26-2.58-0.26c-2.6,0-4.56,1.6-4.56,4.858v1.86
		c0,3.26,1.96,4.86,4.56,4.86c1.22,0,2.12-0.141,2.58-0.261C123.336,334.765,123.416,334.645,123.416,334.325L123.416,334.325z
		 M134.559,330.125v-1.62c0-2.86-1.64-4.979-4.78-4.979c-3.14,0-4.78,2.119-4.78,4.979v1.62c0,2.86,1.64,4.98,4.78,4.98
		C132.919,335.105,134.559,332.985,134.559,330.125L134.559,330.125z M131.919,330.125c0,1.64-0.74,2.7-2.14,2.7
		c-1.4,0-2.14-1.062-2.14-2.7v-1.62c0-1.64,0.74-2.7,2.14-2.7c1.399,0,2.14,1.062,2.14,2.7V330.125L131.919,330.125z
		 M145.991,334.525v-6.521c0-2.54-0.58-4.479-3.46-4.479c-1.32,0-2.08,0.22-3.24,0.96v-0.42c0-0.221-0.18-0.4-0.4-0.4h-1.74
		c-0.22,0-0.4,0.18-0.4,0.4v10.46c0,0.22,0.18,0.42,0.4,0.42h1.84c0.22,0,0.4-0.2,0.4-0.42v-8.04c0.84-0.44,1.58-0.721,2.26-0.721
		c1.54,0,1.7,0.5,1.7,2.24v6.521c0,0.22,0.18,0.42,0.4,0.42h1.84C145.811,334.945,145.991,334.745,145.991,334.525L145.991,334.525z
		 M155.715,334.325v-1.3c0-0.2-0.16-0.301-0.36-0.301h-0.06c-0.8,0.101-1.28,0.141-2.58,0.141c-0.94,0-1.92-0.54-1.92-2.62v-1.86
		c0-2.08,0.98-2.62,1.92-2.62c1.3,0,1.78,0.04,2.58,0.141h0.06c0.2,0,0.36-0.102,0.36-0.3v-1.301c0-0.319-0.08-0.439-0.42-0.52
		c-0.46-0.12-1.36-0.26-2.58-0.26c-2.6,0-4.56,1.6-4.56,4.858v1.86c0,3.26,1.96,4.86,4.56,4.86c1.22,0,2.12-0.141,2.58-0.261
		C155.635,334.765,155.715,334.645,155.715,334.325L155.715,334.325z M160.399,334.525v-14.4c0-0.22-0.16-0.4-0.38-0.4h-1.86
		c-0.22,0-0.4,0.181-0.4,0.4v14.4c0,0.22,0.18,0.42,0.4,0.42h1.86C160.239,334.945,160.399,334.745,160.399,334.525L160.399,334.525
		z M172.183,334.545v-10.46c0-0.22-0.18-0.42-0.4-0.42h-1.84c-0.22,0-0.4,0.2-0.4,0.42v8c-0.56,0.3-1.52,0.8-2.26,0.8
		c-0.62,0-0.96-0.12-1.24-0.359c-0.38-0.341-0.46-0.92-0.46-1.92v-6.521c0-0.22-0.18-0.42-0.4-0.42h-1.84c-0.22,0-0.4,0.2-0.4,0.42
		v6.521c0,1.659,0.26,2.899,1,3.64c0.58,0.58,1.46,0.84,2.46,0.84c1.28,0,2.1-0.32,3.14-1v0.46c0,0.22,0.18,0.4,0.4,0.4h1.84
		C172.003,334.945,172.183,334.765,172.183,334.545L172.183,334.545z M182.268,331.985c0-1.021-0.24-2.021-1.92-3.04l-2.62-1.602
		c-0.5-0.3-0.8-0.5-0.8-0.819c0-0.62,0.42-0.841,1.38-0.841c1.14,0,2.74,0.16,3.3,0.24h0.08c0.2,0,0.32-0.14,0.32-0.38v-1.16
		c0-0.24-0.12-0.399-0.36-0.46c-1.02-0.22-1.94-0.399-3.56-0.399c-2.54,0-3.8,1-3.8,3c0,1.159,0.7,2.159,1.68,2.76l2.74,1.68
		c0.64,0.4,0.88,0.641,0.88,1.021c0,0.54-0.18,0.96-1.42,0.96c-0.6,0-2.4-0.102-3.36-0.222h-0.08c-0.2,0-0.34,0.16-0.34,0.32v1.2
		c0,0.24,0.14,0.399,0.38,0.46c1.12,0.3,2.8,0.399,3.58,0.399C180.968,335.105,182.268,333.725,182.268,331.985L182.268,331.985z
		 M187.004,321.765v-1.76c0-0.22-0.18-0.399-0.4-0.399h-1.94c-0.22,0-0.42,0.18-0.42,0.399v1.76c0,0.221,0.2,0.4,0.42,0.4h1.94
		C186.824,322.165,187.004,321.985,187.004,321.765L187.004,321.765z M186.944,334.525v-10.46c0-0.221-0.18-0.4-0.4-0.4h-1.84
		c-0.22,0-0.4,0.18-0.4,0.4v10.46c0,0.22,0.18,0.42,0.4,0.42h1.84C186.764,334.945,186.944,334.745,186.944,334.525L186.944,334.525
		z M198.678,330.125v-1.62c0-2.86-1.64-4.979-4.78-4.979s-4.78,2.119-4.78,4.979v1.62c0,2.86,1.64,4.98,4.78,4.98
		S198.678,332.985,198.678,330.125L198.678,330.125z M196.038,330.125c0,1.64-0.74,2.7-2.14,2.7s-2.14-1.062-2.14-2.7v-1.62
		c0-1.64,0.74-2.7,2.14-2.7s2.14,1.062,2.14,2.7V330.125L196.038,330.125z M210.11,334.525v-6.521c0-2.54-0.58-4.479-3.46-4.479
		c-1.32,0-2.08,0.22-3.24,0.96v-0.42c0-0.221-0.18-0.4-0.4-0.4h-1.74c-0.22,0-0.4,0.18-0.4,0.4v10.46c0,0.22,0.18,0.42,0.4,0.42
		h1.84c0.22,0,0.4-0.2,0.4-0.42v-8.04c0.84-0.44,1.58-0.721,2.26-0.721c1.54,0,1.7,0.5,1.7,2.24v6.521c0,0.22,0.18,0.42,0.4,0.42
		h1.84C209.93,334.945,210.11,334.745,210.11,334.525L210.11,334.525z"/>
	<g>
		<g>
			<g>
				<defs>
					<rect id="SVGID_1_" x="-0.8" y="0.45" width="1023.88" height="724"/>
				</defs>
				<clipPath id="SVGID_2_">
					<use xlink:href="#SVGID_1_"  overflow="visible"/>
				</clipPath>
				
					<line clip-path="url(#SVGID_2_)" fill="none" stroke="#003D79" stroke-width="2" stroke-linecap="round" stroke-linejoin="round" stroke-dasharray="0,4" x1="3.08" y1="177.222" x2="317.08" y2="177.222"/>
			</g>
		</g>
		<g>
			<g>
				<defs>
					<rect id="SVGID_3_" x="-0.8" y="0.45" width="1023.88" height="724"/>
				</defs>
				<clipPath id="SVGID_4_">
					<use xlink:href="#SVGID_3_"  overflow="visible"/>
				</clipPath>
				
					<path clip-path="url(#SVGID_4_)" fill="none" stroke="#003D79" stroke-width="2" stroke-linecap="round" stroke-linejoin="round" d="
					M-0.92,177.222L-0.92,177.222 M319.08,177.222L319.08,177.222"/>
			</g>
		</g>
		<g>
			<g>
				<defs>
					<rect id="SVGID_5_" x="-0.8" y="0.45" width="1023.88" height="724"/>
				</defs>
				<clipPath id="SVGID_6_">
					<use xlink:href="#SVGID_5_"  overflow="visible"/>
				</clipPath>
				
					<line clip-path="url(#SVGID_6_)" fill="none" stroke="#003D79" stroke-width="2" stroke-linecap="round" stroke-linejoin="round" stroke-dasharray="0,4" x1="3.08" y1="117.222" x2="317.08" y2="117.222"/>
			</g>
		</g>
		<g>
			<g>
				<defs>
					<rect id="SVGID_7_" x="-0.8" y="0.45" width="1023.88" height="724"/>
				</defs>
				<clipPath id="SVGID_8_">
					<use xlink:href="#SVGID_7_"  overflow="visible"/>
				</clipPath>
				
					<path clip-path="url(#SVGID_8_)" fill="none" stroke="#003D79" stroke-width="2" stroke-linecap="round" stroke-linejoin="round" d="
					M-0.92,117.222L-0.92,117.222 M319.08,117.222L319.08,117.222"/>
			</g>
		</g>
		<g>
			<g>
				<defs>
					<rect id="SVGID_9_" x="-0.8" y="0.45" width="1023.88" height="724"/>
				</defs>
				<clipPath id="SVGID_10_">
					<use xlink:href="#SVGID_9_"  overflow="visible"/>
				</clipPath>
				
					<line clip-path="url(#SVGID_10_)" fill="none" stroke="#003D79" stroke-width="2" stroke-linecap="round" stroke-linejoin="round" stroke-dasharray="0,4" x1="3.08" y1="237.222" x2="317.08" y2="237.222"/>
			</g>
		</g>
		<g>
			<g>
				<defs>
					<rect id="SVGID_11_" x="-0.8" y="0.45" width="1023.88" height="724"/>
				</defs>
				<clipPath id="SVGID_12_">
					<use xlink:href="#SVGID_11_"  overflow="visible"/>
				</clipPath>
				
					<path clip-path="url(#SVGID_12_)" fill="none" stroke="#003D79" stroke-width="2" stroke-linecap="round" stroke-linejoin="round" d="
					M-0.92,237.222L-0.92,237.222 M319.08,237.222L319.08,237.222"/>
			</g>
		</g>
		<g>
			<g>
				<defs>
					<rect id="SVGID_13_" x="-0.8" y="0.45" width="1023.88" height="724"/>
				</defs>
				<clipPath id="SVGID_14_">
					<use xlink:href="#SVGID_13_"  overflow="visible"/>
				</clipPath>
				
					<line clip-path="url(#SVGID_14_)" fill="none" stroke="#003D79" stroke-width="2" stroke-linecap="round" stroke-linejoin="round" stroke-dasharray="0,4" x1="3.08" y1="297.222" x2="317.08" y2="297.222"/>
			</g>
		</g>
		<g>
			<g>
				<defs>
					<rect id="SVGID_15_" x="-0.8" y="0.45" width="1023.88" height="724"/>
				</defs>
				<clipPath id="SVGID_16_">
					<use xlink:href="#SVGID_15_"  overflow="visible"/>
				</clipPath>
				
					<path clip-path="url(#SVGID_16_)" fill="none" stroke="#003D79" stroke-width="2" stroke-linecap="round" stroke-linejoin="round" d="
					M-0.92,297.222L-0.92,297.222 M319.08,297.222L319.08,297.222"/>
			</g>
		</g>
		<g>
			<g>
				<defs>
					<rect id="SVGID_17_" x="-0.8" y="0.45" width="1023.88" height="724"/>
				</defs>
				<clipPath id="SVGID_18_">
					<use xlink:href="#SVGID_17_"  overflow="visible"/>
				</clipPath>
				
					<line clip-path="url(#SVGID_18_)" fill="none" stroke="#003D79" stroke-width="2" stroke-linecap="round" stroke-linejoin="round" stroke-dasharray="0,4" x1="3.08" y1="357.222" x2="317.08" y2="357.222"/>
			</g>
		</g>
		<g>
			<g>
				<defs>
					<rect id="SVGID_19_" x="-0.8" y="0.45" width="1023.88" height="724"/>
				</defs>
				<clipPath id="SVGID_20_">
					<use xlink:href="#SVGID_19_"  overflow="visible"/>
				</clipPath>
				
					<path clip-path="url(#SVGID_20_)" fill="none" stroke="#003D79" stroke-width="2" stroke-linecap="round" stroke-linejoin="round" d="
					M-0.92,357.222L-0.92,357.222 M319.08,357.222L319.08,357.222"/>
			</g>
		</g>
	</g>
</g>
<g>
	<path fill="#CBCBC6" d="M954.701,36.845L954.701,36.845L954.701,36.845c6.902,0,13.039,2.812,17.516,7.287
		c4.604,4.475,7.285,10.739,7.285,17.643l0,0l0,0l0,0l0,0c0,6.775-2.684,13.04-7.285,17.514c-4.477,4.475-10.613,7.287-17.516,7.287
		l0,0l0,0l0,0l0,0c-6.902,0-13.041-2.812-17.645-7.287c-4.475-4.474-7.285-10.738-7.285-17.514l0,0l0,0l0,0l0,0
		c0-6.904,2.812-13.168,7.285-17.643C941.66,39.657,947.799,36.845,954.701,36.845L954.701,36.845L954.701,36.845L954.701,36.845z
		 M954.701,37.229L954.701,37.229L954.701,37.229L954.701,37.229L954.701,37.229c-6.775,0-12.912,2.812-17.258,7.159
		c-4.479,4.476-7.289,10.611-7.289,17.387l0,0l0,0l0,0l0,0c0,6.775,2.812,12.912,7.289,17.258c4.346,4.474,10.48,7.16,17.258,7.16
		l0,0l0,0l0,0l0,0c6.775,0,12.912-2.687,17.258-7.16c4.475-4.346,7.16-10.483,7.16-17.258l0,0l0,0l0,0l0,0
		c0-6.775-2.688-12.912-7.16-17.387C967.613,40.041,961.477,37.229,954.701,37.229z"/>
	
		<radialGradient id="SVGID_21_" cx="-648.6846" cy="1674.875" r="44.6648" gradientTransform="matrix(1.7756 0 0 1.7756 2079.3699 -2919.7495)" gradientUnits="userSpaceOnUse">
		<stop  offset="0" style="stop-color:#FFFFFF"/>
		<stop  offset="0.0402" style="stop-color:#FDFDFC"/>
		<stop  offset="0.2247" style="stop-color:#FCFCFA"/>
		<stop  offset="0.3691" style="stop-color:#BDBDBB"/>
		<stop  offset="0.4957" style="stop-color:#8E8E8A"/>
		<stop  offset="0.5917" style="stop-color:#70706C"/>
		<stop  offset="0.6461" style="stop-color:#656561"/>
		<stop  offset="0.7169" style="stop-color:#5B5B57"/>
		<stop  offset="0.8389" style="stop-color:#40403B"/>
		<stop  offset="0.9965" style="stop-color:#15150E"/>
		<stop  offset="1" style="stop-color:#14140D"/>
	</radialGradient>
	<path fill="url(#SVGID_21_)" d="M954.701,23.677c8.689,0,16.748,2.94,23.141,7.798l4.217-4.219l7.416,7.415l-4.219,4.347
		c4.73,6.393,7.414,14.19,7.414,22.627c0,20.966-17.004,38.097-37.969,38.097s-37.969-17.131-37.969-38.097
		C916.732,40.681,933.736,23.677,954.701,23.677L954.701,23.677z M954.701,32.626c-15.98,0-29.021,13.04-29.021,29.02
		c0,16.109,13.041,29.021,29.021,29.021c15.979,0,29.02-12.912,29.02-29.021C983.721,45.666,970.682,32.626,954.701,32.626z"/>
	
		<linearGradient id="SVGID_22_" gradientUnits="userSpaceOnUse" x1="-853.7861" y1="1688.1006" x2="-825.3499" y2="1697.892" gradientTransform="matrix(1 0 0 1 1793.5 -1631.5)">
		<stop  offset="0" style="stop-color:#E6E6E0"/>
		<stop  offset="1" style="stop-color:#FFFFFF"/>
	</linearGradient>
	<path fill="url(#SVGID_22_)" d="M954.701,32.498L954.701,32.498L954.701,32.498c8.055,0,15.34,3.196,20.711,8.565
		c5.242,5.242,8.564,12.529,8.564,20.711l0,0l0,0l0,0l0,0c0,8.054-3.322,15.34-8.564,20.71c-5.371,5.241-12.656,8.565-20.711,8.565
		l0,0l0,0l0,0l0,0c-8.055,0-15.469-3.324-20.711-8.565c-5.242-5.37-8.566-12.656-8.566-20.71l0,0l0,0l0,0l0,0
		c0-8.182,3.324-15.469,8.566-20.711l0,0C939.232,35.694,946.646,32.498,954.701,32.498L954.701,32.498L954.701,32.498
		L954.701,32.498z M954.701,32.882L954.701,32.882L954.701,32.882L954.701,32.882L954.701,32.882
		c-7.926,0-15.213,3.196-20.455,8.438l0,0c-5.24,5.241-8.438,12.4-8.438,20.455l0,0l0,0l0,0l0,0c0,7.926,3.196,15.213,8.438,20.455
		c5.242,5.113,12.529,8.438,20.455,8.438l0,0l0,0l0,0l0,0c7.926,0,15.213-3.324,20.455-8.438c5.24-5.242,8.438-12.529,8.438-20.455
		l0,0l0,0l0,0l0,0c0-8.054-3.197-15.214-8.438-20.455C969.914,36.078,962.627,32.882,954.701,32.882z"/>
	
		<radialGradient id="SVGID_23_" cx="-620.6846" cy="1692.874" r="49.0185" gradientTransform="matrix(1.7756 0 0 1.7756 2079.3699 -2919.7495)" gradientUnits="userSpaceOnUse">
		<stop  offset="0" style="stop-color:#CBCBC7"/>
		<stop  offset="1" style="stop-color:#8E8E87"/>
	</radialGradient>
	<path fill="url(#SVGID_23_)" d="M954.701,23.421L954.701,23.421L954.701,23.421c8.689,0,16.875,2.94,23.268,7.926l-0.127,0.128
		c-6.393-4.858-14.449-7.798-23.141-7.798c-20.965,0-37.969,17.003-37.969,37.969s17.004,38.097,37.969,38.097
		s37.969-17.131,37.969-38.097c0-8.438-2.684-16.235-7.414-22.627l0.127-0.128c4.73,6.392,7.543,14.191,7.543,22.756l0,0l0,0l0,0
		l0,0c0,10.611-4.346,20.199-11.25,27.103s-16.365,11.123-26.975,11.123l0,0l0,0l0,0l0,0c-10.484,0-20.07-4.219-26.975-11.123
		c-6.904-7.031-11.25-16.492-11.25-27.103l0,0l0,0l0,0l0,0c0-10.483,4.346-20.071,11.25-26.975
		C934.63,27.768,944.092,23.421,954.701,23.421L954.701,23.421L954.701,23.421z"/>
	
		<radialGradient id="SVGID_24_" cx="-625.6836" cy="1686.875" r="34.4234" gradientTransform="matrix(1.7756 0 0 1.7756 2079.3699 -2919.7495)" gradientUnits="userSpaceOnUse">
		<stop  offset="0" style="stop-color:#FFFFFF"/>
		<stop  offset="0.2249" style="stop-color:#F2F2F2"/>
		<stop  offset="0.2978" style="stop-color:#EDEDED"/>
		<stop  offset="0.3693" style="stop-color:#C8C8C7"/>
		<stop  offset="0.441" style="stop-color:#ABABA9"/>
		<stop  offset="0.5113" style="stop-color:#969693"/>
		<stop  offset="0.5788" style="stop-color:#898985"/>
		<stop  offset="0.6404" style="stop-color:#858581"/>
		<stop  offset="0.6702" style="stop-color:#777773"/>
		<stop  offset="0.774" style="stop-color:#4D4D48"/>
		<stop  offset="0.8672" style="stop-color:#2E2E28"/>
		<stop  offset="0.9457" style="stop-color:#1B1B15"/>
		<stop  offset="1" style="stop-color:#14140E"/>
	</radialGradient>
	<path fill="url(#SVGID_24_)" d="M954.701,32.754c15.979,0,29.02,12.912,29.02,29.021c0,15.98-13.039,29.02-29.02,29.02
		c-15.981,0-29.021-13.039-29.021-29.02C925.68,45.666,938.721,32.754,954.701,32.754L954.701,32.754z M954.701,36.845
		c-13.68,0-24.801,11.123-24.801,24.93c0,13.679,11.121,24.801,24.801,24.801s24.801-11.122,24.801-24.801
		C979.502,47.968,968.381,36.845,954.701,36.845z"/>
	<g>
		
			<linearGradient id="SVGID_25_" gradientUnits="userSpaceOnUse" x1="-873.3491" y1="1702.5225" x2="-873.3491" y2="1702.3076" gradientTransform="matrix(1 0 0 1 1793.5 -1631.5)">
			<stop  offset="0" style="stop-color:#FFFFFF"/>
			<stop  offset="0.17" style="stop-color:#FCFCFA"/>
			<stop  offset="0.427" style="stop-color:#C2C2BD"/>
			<stop  offset="0.4431" style="stop-color:#B9B9B4"/>
			<stop  offset="0.541" style="stop-color:#8A8A85"/>
			<stop  offset="0.6386" style="stop-color:#63635E"/>
			<stop  offset="0.7344" style="stop-color:#45453F"/>
			<stop  offset="0.8277" style="stop-color:#2F2F2A"/>
			<stop  offset="0.9175" style="stop-color:#22221C"/>
			<stop  offset="1" style="stop-color:#1E1E18"/>
		</linearGradient>
		<path opacity="0.67" fill="url(#SVGID_25_)" enable-background="new    " d="M920.01,70.86c0,0.036,0.008,0.068,0.025,0.099
			c0.016,0.031,0.043,0.045,0.082,0.045c0.025,0,0.055-0.007,0.084-0.021c0.025-0.014,0.059-0.035,0.09-0.063v-0.281
			c-0.107,0.017-0.182,0.043-0.221,0.081C920.031,70.757,920.01,70.804,920.01,70.86z"/>
		
			<linearGradient id="SVGID_26_" gradientUnits="userSpaceOnUse" x1="-867.9878" y1="1701.71" x2="-867.9878" y2="1701.6218" gradientTransform="matrix(1 0 0 1 1793.5 -1631.5)">
			<stop  offset="0" style="stop-color:#FFFFFF"/>
			<stop  offset="0.17" style="stop-color:#FCFCFA"/>
			<stop  offset="0.427" style="stop-color:#C2C2BD"/>
			<stop  offset="0.4431" style="stop-color:#B9B9B4"/>
			<stop  offset="0.541" style="stop-color:#8A8A85"/>
			<stop  offset="0.6386" style="stop-color:#63635E"/>
			<stop  offset="0.7344" style="stop-color:#45453F"/>
			<stop  offset="0.8277" style="stop-color:#2F2F2A"/>
			<stop  offset="0.9175" style="stop-color:#22221C"/>
			<stop  offset="1" style="stop-color:#1E1E18"/>
		</linearGradient>
		<rect x="925.424" y="70.053" opacity="0.67" fill="url(#SVGID_26_)" enable-background="new    " width="0.176" height="0.15"/>
		
			<linearGradient id="SVGID_27_" gradientUnits="userSpaceOnUse" x1="-867.9878" y1="1701.8945" x2="-867.9878" y2="1701.8033" gradientTransform="matrix(1 0 0 1 1793.5 -1631.5)">
			<stop  offset="0" style="stop-color:#FFFFFF"/>
			<stop  offset="0.17" style="stop-color:#FCFCFA"/>
			<stop  offset="0.427" style="stop-color:#C2C2BD"/>
			<stop  offset="0.4431" style="stop-color:#B9B9B4"/>
			<stop  offset="0.541" style="stop-color:#8A8A85"/>
			<stop  offset="0.6386" style="stop-color:#63635E"/>
			<stop  offset="0.7344" style="stop-color:#45453F"/>
			<stop  offset="0.8277" style="stop-color:#2F2F2A"/>
			<stop  offset="0.9175" style="stop-color:#22221C"/>
			<stop  offset="1" style="stop-color:#1E1E18"/>
		</linearGradient>
		<rect x="925.424" y="70.232" opacity="0.67" fill="url(#SVGID_27_)" enable-background="new    " width="0.176" height="0.155"/>
		
			<linearGradient id="SVGID_28_" gradientUnits="userSpaceOnUse" x1="-871.5522" y1="1702.5225" x2="-871.5522" y2="1702.3076" gradientTransform="matrix(1 0 0 1 1793.5 -1631.5)">
			<stop  offset="0" style="stop-color:#FFFFFF"/>
			<stop  offset="0.17" style="stop-color:#FCFCFA"/>
			<stop  offset="0.427" style="stop-color:#C2C2BD"/>
			<stop  offset="0.4431" style="stop-color:#B9B9B4"/>
			<stop  offset="0.541" style="stop-color:#8A8A85"/>
			<stop  offset="0.6386" style="stop-color:#63635E"/>
			<stop  offset="0.7344" style="stop-color:#45453F"/>
			<stop  offset="0.8277" style="stop-color:#2F2F2A"/>
			<stop  offset="0.9175" style="stop-color:#22221C"/>
			<stop  offset="1" style="stop-color:#1E1E18"/>
		</linearGradient>
		<path opacity="0.67" fill="url(#SVGID_28_)" enable-background="new    " d="M921.809,70.86c0,0.036,0.01,0.068,0.025,0.099
			c0.018,0.031,0.045,0.045,0.082,0.045c0.027,0,0.055-0.007,0.084-0.021c0.027-0.014,0.055-0.035,0.086-0.063v-0.281
			c-0.104,0.017-0.176,0.043-0.217,0.081C921.826,70.757,921.809,70.804,921.809,70.86z"/>
		
			<linearGradient id="SVGID_29_" gradientUnits="userSpaceOnUse" x1="-867.0542" y1="1702.0605" x2="-867.0542" y2="1701.9238" gradientTransform="matrix(1 0 0 1 1793.5 -1631.5)">
			<stop  offset="0" style="stop-color:#FFFFFF"/>
			<stop  offset="0.17" style="stop-color:#FCFCFA"/>
			<stop  offset="0.427" style="stop-color:#C2C2BD"/>
			<stop  offset="0.4431" style="stop-color:#B9B9B4"/>
			<stop  offset="0.541" style="stop-color:#8A8A85"/>
			<stop  offset="0.6386" style="stop-color:#63635E"/>
			<stop  offset="0.7344" style="stop-color:#45453F"/>
			<stop  offset="0.8277" style="stop-color:#2F2F2A"/>
			<stop  offset="0.9175" style="stop-color:#22221C"/>
			<stop  offset="1" style="stop-color:#1E1E18"/>
		</linearGradient>
		<rect x="926.199" y="70.317" opacity="0.67" fill="url(#SVGID_29_)" enable-background="new    " width="0.492" height="0.233"/>
		
			<linearGradient id="SVGID_30_" gradientUnits="userSpaceOnUse" x1="-868.0962" y1="1705.8945" x2="-868.0962" y2="1703.1577" gradientTransform="matrix(1 0 0 1 1793.5 -1631.5)">
			<stop  offset="0" style="stop-color:#FFFFFF"/>
			<stop  offset="0.17" style="stop-color:#FCFCFA"/>
			<stop  offset="0.427" style="stop-color:#C2C2BD"/>
			<stop  offset="0.4431" style="stop-color:#B9B9B4"/>
			<stop  offset="0.541" style="stop-color:#8A8A85"/>
			<stop  offset="0.6386" style="stop-color:#63635E"/>
			<stop  offset="0.7344" style="stop-color:#45453F"/>
			<stop  offset="0.8277" style="stop-color:#2F2F2A"/>
			<stop  offset="0.9175" style="stop-color:#22221C"/>
			<stop  offset="1" style="stop-color:#1E1E18"/>
		</linearGradient>
		<path opacity="0.67" fill="url(#SVGID_30_)" enable-background="new    " d="M931.152,69.512h-13.596
			c0.334,1.597,0.801,3.145,1.328,4.661h14.365C932.4,72.705,931.689,71.149,931.152,69.512z M925.357,69.808l0.102,0.066
			l-0.035,0.042v0.107h0.166l0.037-0.06l0.07,0.083l-0.037,0.043v0.113h0.02l0.055-0.066l0.07,0.095h-0.145
			c0,0.096,0.002,0.164,0.006,0.204l-0.066,0.042v-0.06h-0.176v0.174h0.135l0.045-0.072l0.07,0.103h-0.25v0.161h0.217l0.055-0.084
			l0.08,0.113h-0.352c0,0.068,0,0.14,0.008,0.216l-0.072,0.036c0.004-0.092,0.004-0.175,0.004-0.251h-0.188
			c-0.026,0-0.053,0.006-0.069,0.019l-0.041-0.048h0.3v-0.161h-0.138c-0.022,0-0.043,0.005-0.056,0.017l-0.039-0.047h0.23v-0.174
			h-0.138c-0.022,0-0.043,0.006-0.056,0.019l-0.039-0.049h0.23v-0.155h-0.201c-0.025,0-0.045,0.006-0.058,0.019l-0.037-0.048h0.296
			v-0.15h-0.125c-0.027,0-0.046,0.006-0.061,0.019l-0.034-0.048h0.22C925.361,69.939,925.361,69.868,925.357,69.808z M919.764,71.04
			h-0.367v-0.036h0.107c0.018,0,0.027-0.004,0.033-0.012c0.006-0.008,0.01-0.021,0.01-0.036V70.1c0-0.016-0.004-0.028-0.01-0.036
			s-0.02-0.012-0.033-0.012h-0.107v-0.036h0.055c0.027,0,0.057-0.004,0.082-0.012c0.021-0.008,0.049-0.02,0.07-0.036h0.012v0.987
			c0,0.016,0.004,0.028,0.012,0.036c0.006,0.008,0.018,0.012,0.031,0.012h0.105V71.04z M920.43,71.007
			c-0.014,0.021-0.035,0.033-0.059,0.033c-0.024,0-0.041-0.006-0.053-0.019c-0.016-0.011-0.023-0.031-0.027-0.06
			c-0.031,0.028-0.061,0.049-0.088,0.063s-0.061,0.021-0.096,0.021c-0.059,0-0.102-0.018-0.133-0.051
			c-0.029-0.033-0.047-0.073-0.047-0.116c0-0.072,0.023-0.131,0.072-0.177s0.146-0.079,0.289-0.099V70.53
			c0-0.04-0.008-0.073-0.021-0.1c-0.014-0.025-0.048-0.039-0.099-0.039s-0.09,0.011-0.11,0.033
			c-0.021,0.023-0.028,0.045-0.022,0.069c0.008,0.016,0.008,0.032,0,0.048c-0.006,0.017-0.021,0.024-0.037,0.024
			c-0.014,0-0.021-0.005-0.031-0.015c-0.008-0.011-0.012-0.025-0.012-0.045c0-0.037,0.021-0.07,0.062-0.103
			c0.041-0.032,0.092-0.048,0.151-0.048s0.106,0.015,0.139,0.045c0.031,0.03,0.048,0.073,0.048,0.128v0.396
			c0,0.032,0.002,0.051,0.008,0.057c0.005,0.006,0.013,0.009,0.022,0.009c0.019,0,0.029-0.009,0.033-0.027
			c0.006-0.018,0.01-0.042,0.01-0.075h0.023C920.453,70.946,920.447,70.985,920.43,71.007z M921.039,71.04h-0.197v-0.036h0.023
			c0.016,0,0.025-0.004,0.031-0.012c0.008-0.008,0.012-0.021,0.012-0.036v-0.401c0-0.048-0.008-0.085-0.025-0.11
			c-0.014-0.026-0.037-0.039-0.066-0.039c-0.027,0-0.059,0.012-0.09,0.036c-0.025,0.024-0.055,0.058-0.076,0.102v0.414
			c0,0.016,0.002,0.028,0.01,0.036s0.018,0.012,0.031,0.012h0.021v0.036h-0.197v-0.036h0.023c0.016,0,0.025-0.004,0.033-0.012
			c0.006-0.008,0.01-0.021,0.01-0.036v-0.516c0-0.011-0.004-0.021-0.008-0.027c-0.002-0.006-0.01-0.009-0.02-0.009h-0.041V70.37
			h0.033c0.018,0,0.033-0.001,0.047-0.006c0.016-0.005,0.027-0.012,0.041-0.024h0.014v0.138c0.025-0.04,0.055-0.069,0.082-0.089
			c0.025-0.021,0.057-0.03,0.088-0.03c0.055,0,0.094,0.019,0.117,0.054c0.023,0.037,0.035,0.09,0.035,0.162v0.383
			c0,0.016,0.006,0.028,0.016,0.036c0.008,0.008,0.018,0.012,0.027,0.012h0.023L921.039,71.04L921.039,71.04z M921.539,70.992
			c-0.027,0.036-0.062,0.054-0.105,0.054c-0.047,0-0.082-0.018-0.104-0.054c-0.023-0.036-0.035-0.092-0.035-0.168v-0.419h-0.141
			V70.37h0.037c0.035,0,0.066-0.015,0.092-0.045c0.021-0.03,0.039-0.077,0.047-0.141l0.002-0.047h0.029v0.233h0.186v0.036h-0.186
			v0.443c0,0.056,0.006,0.094,0.021,0.114c0.016,0.021,0.039,0.03,0.07,0.03c0.029,0,0.055-0.013,0.076-0.039
			c0.016-0.026,0.031-0.063,0.035-0.111l0.021,0.012C921.582,70.91,921.566,70.956,921.539,70.992z M922.229,71.007
			c-0.018,0.021-0.033,0.033-0.062,0.033c-0.021,0-0.037-0.006-0.051-0.019c-0.013-0.011-0.021-0.031-0.029-0.06
			c-0.031,0.028-0.06,0.049-0.086,0.063c-0.022,0.014-0.058,0.021-0.094,0.021c-0.058,0-0.102-0.018-0.132-0.051
			s-0.047-0.073-0.047-0.116c0-0.072,0.022-0.131,0.071-0.177c0.048-0.046,0.146-0.079,0.285-0.099V70.53
			c0-0.04-0.006-0.073-0.021-0.1c-0.015-0.025-0.045-0.039-0.097-0.039c-0.055,0-0.09,0.011-0.112,0.033
			c-0.021,0.023-0.026,0.045-0.021,0.069c0.004,0.016,0.004,0.032,0,0.048c-0.006,0.017-0.021,0.024-0.037,0.024
			c-0.014,0-0.021-0.005-0.03-0.015c-0.007-0.011-0.013-0.025-0.013-0.045c0-0.037,0.021-0.07,0.062-0.103
			c0.041-0.033,0.091-0.048,0.147-0.048c0.062,0,0.111,0.015,0.144,0.045c0.03,0.03,0.045,0.073,0.045,0.128v0.396
			c0,0.032,0.005,0.051,0.009,0.057c0.004,0.006,0.014,0.009,0.026,0.009c0.014,0,0.022-0.009,0.03-0.027
			c0.006-0.018,0.011-0.042,0.011-0.075h0.022C922.252,70.946,922.242,70.985,922.229,71.007z M922.812,70.495
			c-0.01,0.012-0.021,0.018-0.035,0.018c-0.017,0-0.027-0.006-0.035-0.018c-0.008-0.011-0.01-0.028-0.008-0.048
			c0-0.012-0.002-0.021-0.004-0.029c-0.006-0.008-0.014-0.012-0.029-0.012c-0.025,0-0.055,0.02-0.09,0.06s-0.068,0.097-0.098,0.168
			v0.323c0,0.016,0.002,0.028,0.014,0.036c0.006,0.008,0.018,0.012,0.027,0.012h0.104v0.036h-0.346v-0.036h0.094
			c0.018,0,0.025-0.004,0.035-0.012c0.004-0.008,0.008-0.021,0.008-0.036v-0.498c0-0.016-0.004-0.029-0.008-0.039
			c-0.01-0.01-0.021-0.015-0.035-0.015h-0.094V70.37h0.035c0.025,0,0.053-0.002,0.08-0.009c0.031-0.005,0.059-0.014,0.07-0.021
			h0.016v0.216c0.031-0.063,0.064-0.112,0.102-0.146c0.037-0.034,0.074-0.051,0.107-0.051c0.031,0,0.059,0.009,0.072,0.027
			c0.02,0.019,0.027,0.039,0.027,0.062C922.824,70.467,922.818,70.483,922.812,70.495z M924.133,70.812v0.239
			c0,0.084-0.033,0.142-0.102,0.174c-0.002-0.06-0.051-0.104-0.146-0.132V71.07c0.062,0.008,0.107,0.013,0.137,0.015
			c0.026,0.002,0.043-0.022,0.043-0.075v-0.198h-0.381c-0.033,0-0.064,0.006-0.094,0.019l-0.037-0.048h0.512
			c0-0.052-0.002-0.11-0.006-0.173l0.061,0.036l0.129-0.138h-0.389l-0.043,0.019l-0.037-0.048h0.461l0.053-0.06l0.084,0.12
			c-0.043-0.008-0.125,0.034-0.244,0.125l0.049,0.03l-0.049,0.036v0.054h0.316l0.062-0.084l0.095,0.113H924.133z M924.611,70.454
			c-0.047,0-0.082,0.024-0.104,0.072c-0.192-0.103-0.317-0.255-0.375-0.455h-0.026c0,0.188,0.005,0.299,0.005,0.335l-0.078,0.023
			c0.002-0.087,0.004-0.198,0.004-0.329c-0.104,0.216-0.267,0.378-0.492,0.491l-0.004-0.024c0.197-0.127,0.34-0.293,0.433-0.496
			h-0.291c-0.033,0-0.063,0.006-0.095,0.019l-0.037-0.049h0.486c0-0.036-0.002-0.107-0.004-0.215l0.123,0.066l-0.05,0.042v0.107
			h0.347l0.065-0.083l0.084,0.113h-0.444c0.078,0.195,0.229,0.313,0.455,0.358L924.611,70.454L924.611,70.454z M925.82,71.1
			c-0.062,0.024-0.092,0.054-0.086,0.09c-0.086,0.003-0.188,0.003-0.295,0c-0.107-0.004-0.203-0.024-0.281-0.06
			c-0.08-0.036-0.146-0.082-0.195-0.138c-0.039,0.076-0.113,0.153-0.219,0.233l-0.016-0.018c0.078-0.068,0.148-0.158,0.199-0.27
			c-0.049-0.092-0.086-0.193-0.109-0.305l0.018-0.011c0.031,0.095,0.07,0.179,0.111,0.25c0.031-0.103,0.057-0.239,0.064-0.407
			h-0.135l-0.039,0.066l-0.062-0.084l0.059-0.03c0.055-0.115,0.107-0.233,0.156-0.353h-0.15l-0.055,0.018l-0.039-0.048h0.25
			l0.041-0.065l0.064,0.096l-0.051,0.029c-0.053,0.108-0.107,0.222-0.17,0.342h0.127l0.039-0.054l0.068,0.083l-0.041,0.042
			c-0.021,0.168-0.049,0.308-0.086,0.418c0.037,0.048,0.094,0.086,0.168,0.114c0.07,0.028,0.158,0.045,0.25,0.051
			c0.094,0.006,0.229,0.001,0.412-0.015L925.82,71.1L925.82,71.1z M926.977,71.088c-0.057,0.011-0.09,0.043-0.1,0.095
			c-0.092-0.035-0.168-0.075-0.232-0.12c-0.062-0.044-0.121-0.105-0.174-0.182c-0.053-0.078-0.094-0.178-0.121-0.302H926.2v0.479
			l0.252-0.138l0.008,0.019c-0.16,0.112-0.258,0.195-0.287,0.251l-0.057-0.102c0.012-0.017,0.02-0.04,0.021-0.072v-0.862
			c0-0.063,0-0.12-0.002-0.167l0.064,0.06h0.238c-0.008-0.067-0.033-0.137-0.08-0.208l0.01-0.019
			c0.078,0.044,0.123,0.084,0.135,0.12c0.01,0.036,0,0.072-0.031,0.107h0.211l0.037-0.06l0.074,0.084l-0.041,0.036v0.341
			c0,0.044,0,0.096,0.002,0.156l-0.062,0.03V70.58h-0.313c0.031,0.104,0.072,0.191,0.127,0.263c0.138-0.084,0.234-0.164,0.289-0.239
			l0.067,0.12h-0.056c-0.094,0.043-0.188,0.092-0.284,0.143c0.062,0.072,0.138,0.124,0.218,0.153
			c0.084,0.03,0.161,0.045,0.237,0.045V71.088L926.977,71.088z"/>
		
			<linearGradient id="SVGID_31_" gradientUnits="userSpaceOnUse" x1="-867.0542" y1="1701.7959" x2="-867.0542" y2="1701.6736" gradientTransform="matrix(1 0 0 1 1793.5 -1631.5)">
			<stop  offset="0" style="stop-color:#FFFFFF"/>
			<stop  offset="0.17" style="stop-color:#FCFCFA"/>
			<stop  offset="0.427" style="stop-color:#C2C2BD"/>
			<stop  offset="0.4431" style="stop-color:#B9B9B4"/>
			<stop  offset="0.541" style="stop-color:#8A8A85"/>
			<stop  offset="0.6386" style="stop-color:#63635E"/>
			<stop  offset="0.7344" style="stop-color:#45453F"/>
			<stop  offset="0.8277" style="stop-color:#2F2F2A"/>
			<stop  offset="0.9175" style="stop-color:#22221C"/>
			<stop  offset="1" style="stop-color:#1E1E18"/>
		</linearGradient>
		<rect x="926.199" y="70.078" opacity="0.67" fill="url(#SVGID_31_)" enable-background="new    " width="0.492" height="0.208"/>
		
			<linearGradient id="SVGID_32_" gradientUnits="userSpaceOnUse" x1="-1270.9409" y1="1705.8945" x2="-1270.9409" y2="1703.1577" gradientTransform="matrix(-1 0 0 1 -286.9238 -1631.5)">
			<stop  offset="0" style="stop-color:#FFFFFF"/>
			<stop  offset="0.17" style="stop-color:#FCFCFA"/>
			<stop  offset="0.427" style="stop-color:#C2C2BD"/>
			<stop  offset="0.4431" style="stop-color:#B9B9B4"/>
			<stop  offset="0.541" style="stop-color:#8A8A85"/>
			<stop  offset="0.6386" style="stop-color:#63635E"/>
			<stop  offset="0.7344" style="stop-color:#45453F"/>
			<stop  offset="0.8277" style="stop-color:#2F2F2A"/>
			<stop  offset="0.9175" style="stop-color:#22221C"/>
			<stop  offset="1" style="stop-color:#1E1E18"/>
		</linearGradient>
		<path opacity="0.86" fill="url(#SVGID_32_)" enable-background="new    " d="M978.27,69.512h13.596
			c-0.334,1.597-0.801,3.145-1.33,4.661H976.17C977.02,72.705,977.73,71.149,978.27,69.512z"/>
	</g>
	<path fill="#141412" d="M992.541,52.058L992.541,52.058c0.895,3.068,1.281,6.264,1.281,9.588c0,3.453-0.512,6.776-1.281,9.972
		h-75.555V71.49h75.428c0.896-3.196,1.279-6.521,1.279-9.971C993.693,58.194,993.311,54.999,992.541,52.058z"/>
	
		<radialGradient id="SVGID_33_" cx="-653.4346" cy="1674.874" r="27.7892" gradientTransform="matrix(1.7756 0 0 1.7756 2079.3699 -2919.7495)" gradientUnits="userSpaceOnUse">
		<stop  offset="0" style="stop-color:#0049AA"/>
		<stop  offset="0.0016" style="stop-color:#0049AA"/>
		<stop  offset="0.1275" style="stop-color:#00409D"/>
		<stop  offset="0.2416" style="stop-color:#003D98"/>
		<stop  offset="0.4963" style="stop-color:#003287"/>
		<stop  offset="0.8371" style="stop-color:#00206B"/>
		<stop  offset="0.9535" style="stop-color:#001E6A"/>
		<stop  offset="0.9953" style="stop-color:#001767"/>
		<stop  offset="1" style="stop-color:#001666"/>
	</radialGradient>
	<path fill="url(#SVGID_33_)" d="M916.861,51.931h75.68c0.77,3.068,1.152,6.265,1.152,9.588c0,3.452-0.383,6.775-1.279,9.971
		h-75.428c-0.896-3.196-1.406-6.521-1.406-9.971C915.58,58.194,916.092,54.999,916.861,51.931z"/>
	
		<linearGradient id="SVGID_34_" gradientUnits="userSpaceOnUse" x1="-802.2173" y1="1675.2051" x2="-821.4449" y2="1655.9775" gradientTransform="matrix(1 0 0 1 1793.5 -1631.5)">
		<stop  offset="0.0056" style="stop-color:#181902"/>
		<stop  offset="0.6461" style="stop-color:#41413C"/>
		<stop  offset="0.6508" style="stop-color:#454540"/>
		<stop  offset="0.6558" style="stop-color:#51514D"/>
		<stop  offset="0.6608" style="stop-color:#666661"/>
		<stop  offset="0.6658" style="stop-color:#83837E"/>
		<stop  offset="0.6709" style="stop-color:#A8A8A4"/>
		<stop  offset="0.676" style="stop-color:#D4D4D1"/>
		<stop  offset="0.68" style="stop-color:#FDFDFA"/>
		<stop  offset="0.6826" style="stop-color:#FAFAF7"/>
		<stop  offset="0.6843" style="stop-color:#F2F2EF"/>
		<stop  offset="0.6857" style="stop-color:#E4E4E0"/>
		<stop  offset="0.6869" style="stop-color:#CFCFCB"/>
		<stop  offset="0.6881" style="stop-color:#B5B5B0"/>
		<stop  offset="0.6891" style="stop-color:#95958F"/>
		<stop  offset="0.69" style="stop-color:#76766F"/>
		<stop  offset="0.698" style="stop-color:#6A6A64"/>
		<stop  offset="0.7197" style="stop-color:#4F4F4A"/>
		<stop  offset="0.7446" style="stop-color:#393935"/>
		<stop  offset="0.7736" style="stop-color:#282825"/>
		<stop  offset="0.8096" style="stop-color:#1D1D1A"/>
		<stop  offset="0.86" style="stop-color:#161614"/>
		<stop  offset="1" style="stop-color:#141412"/>
	</linearGradient>
	<polygon fill="url(#SVGID_34_)" points="983.594,24.7 992.031,33.138 985.768,39.402 986.15,39.913 981.676,43.493 980.268,44.005 
		989.475,34.671 982.059,27.257 972.854,36.462 973.238,35.183 	"/>
	
		<radialGradient id="SVGID_35_" cx="-613.6836" cy="1658.876" r="11.6132" gradientTransform="matrix(1.7756 0 0 1.7756 2079.3699 -2919.7495)" gradientUnits="userSpaceOnUse">
		<stop  offset="0" style="stop-color:#5A5A54"/>
		<stop  offset="1" style="stop-color:#54544E"/>
	</radialGradient>
	<path fill="url(#SVGID_35_)" d="M975.156,23.805c7.414,3.963,13.424,10.101,17.514,17.387V23.805H975.156z"/>
	<path fill="none" stroke="#B8B8AF" stroke-width="0.3402" stroke-linecap="round" d="M975.156,23.805
		c7.414,3.963,13.424,10.101,17.514,17.387"/>
	<path fill="none" stroke="#D0D0C9" stroke-width="0.2361" stroke-linecap="round" d="M975.156,23.805
		c7.287,3.963,13.424,10.101,17.385,17.387"/>
	<path fill="none" stroke="#E9E9E4" stroke-width="0.1324" stroke-linecap="round" d="M975.029,23.805
		c7.414,3.963,13.422,10.101,17.512,17.516"/>
	<path fill="none" stroke="#FFFFFF" stroke-width="0.0283" stroke-linecap="round" d="M975.029,23.805
		c7.285,4.091,13.422,10.101,17.385,17.516"/>
	
		<linearGradient id="SVGID_36_" gradientUnits="userSpaceOnUse" x1="-818.5996" y1="1655.1123" x2="-800.5742" y2="1655.1123" gradientTransform="matrix(1 0 0 1 1793.5 -1631.5)">
		<stop  offset="0" style="stop-color:#626262"/>
		<stop  offset="0.1415" style="stop-color:#4A4A48"/>
		<stop  offset="0.3038" style="stop-color:#373733"/>
		<stop  offset="0.4835" style="stop-color:#292924"/>
		<stop  offset="0.6926" style="stop-color:#21211B"/>
		<stop  offset="1" style="stop-color:#1E1E18"/>
	</linearGradient>
	<path fill="url(#SVGID_36_)" d="M992.67,23.421c0.129,0,0.256,0.127,0.256,0.383l0,0h-17.77H974.9c0-0.256,0.129-0.383,0.256-0.383
		H992.67z"/>
	
		<linearGradient id="SVGID_37_" gradientUnits="userSpaceOnUse" x1="-800.7661" y1="1673.0752" x2="-800.7661" y2="1654.9209" gradientTransform="matrix(1 0 0 1 1793.5 -1631.5)">
		<stop  offset="0" style="stop-color:#626262"/>
		<stop  offset="0.1939" style="stop-color:#4F4F4D"/>
		<stop  offset="0.517" style="stop-color:#343430"/>
		<stop  offset="0.7969" style="stop-color:#24241E"/>
		<stop  offset="1" style="stop-color:#1E1E18"/>
	</linearGradient>
	<path fill="url(#SVGID_37_)" d="M992.926,41.191c0,0.256-0.127,0.384-0.256,0.384l-0.129-0.256V23.421c0,0,0,0,0.129,0
		s0.256,0.127,0.256,0.383V41.191z"/>
	<g>
		<path fill="#FFFFFF" d="M982.059,66.406c-3.397,0-6.164-2.078-6.164-4.632c0-2.555,2.767-4.633,6.164-4.633
			c3.474,0,6.297,2.078,6.297,4.633C988.354,64.329,985.53,66.406,982.059,66.406z M982.059,58.48c-1.239,0-2.142,1.386-2.142,3.294
			c0,1.805,0.921,3.166,2.142,3.166c1.162,0,2.146-1.45,2.146-3.166C984.202,59.958,983.24,58.48,982.059,58.48z M943.195,66.406
			c-3.4,0-6.167-2.078-6.167-4.632c0-2.442,2.823-4.504,6.167-4.504c3.471,0,6.294,2.021,6.294,4.504
			C949.489,64.329,946.666,66.406,943.195,66.406z M943.195,58.607c-1.225,0-2.146,1.362-2.146,3.167s0.921,3.166,2.146,3.166
			c1.162,0,2.144-1.45,2.144-3.166C945.339,60.058,944.357,58.607,943.195,58.607z M965.951,66.15l-3.989-7.43l-2.019,0.017
			l-0.03-1.181l8.724-0.03l0.03,1.18l-2.204,0.03l3.096,5.197l2.633-5.24l-1.51,0.043l-0.029-1.181l6.037-0.03l0.03,1.18
			l-2.077,0.03l-3.941,7.415L965.951,66.15L965.951,66.15z M949.971,66.15l-0.029-1.436l2.074-0.03l-0.028-5.979l-2.017,0.03
			l-0.029-1.181l8.084-0.03l0.031,1.18l-2.078,0.03l0.03,5.979l2.146-0.03c0.692,0,2.521-0.455,2.651-2.529l1.31-0.028l0.03,4.022
			L949.971,66.15L949.971,66.15z M927.088,66.15l-3.991-7.43l-2.019,0.017l-0.03-1.181l8.724-0.03l0.03,1.18l-2.204,0.03
			l3.097,5.197l2.76-5.241l-1.634,0.044l-0.03-1.181l6.038-0.03l0.03,1.18l-2.077,0.03l-3.943,7.415L927.088,66.15L927.088,66.15z"
			/>
		<path fill="#31312F" d="M982.059,57.171c3.453,0,6.268,2.046,6.268,4.603s-2.812,4.602-6.268,4.602
			c-3.32,0-6.135-2.045-6.135-4.602S978.736,57.171,982.059,57.171 M982.059,64.97c1.15,0,2.176-1.406,2.176-3.196
			c0-1.918-1.023-3.324-2.176-3.324c-1.275,0-2.172,1.406-2.172,3.324C979.887,63.564,980.781,64.97,982.059,64.97 M943.195,57.3
			c3.451,0,6.264,2.045,6.264,4.475c0,2.557-2.812,4.602-6.264,4.602c-3.324,0-6.139-2.045-6.139-4.602
			C937.059,59.345,939.871,57.3,943.195,57.3 M943.195,64.97c1.148,0,2.174-1.406,2.174-3.196s-1.023-3.197-2.174-3.197
			c-1.279,0-2.174,1.407-2.174,3.197S941.916,64.97,943.195,64.97 M976.689,57.556v1.15h-2.047l-3.963,7.415h-4.729l-3.963-7.415
			h-2.045v-1.15h8.691v1.15h-2.174l3.068,5.242l2.686-5.242h-1.535v-1.15H976.689 M958.025,57.556v1.15h-2.047v6.008
			c0,0,1.404,0,2.176,0c0.766,0,2.555-0.511,2.684-2.557c1.023,0,1.277,0,1.277,0v3.963h-10.1h-2.047v-1.406h2.047v-6.008h-2.047
			v-1.15H958.025 M937.826,57.556v1.15h-2.047l-3.961,7.415h-4.73l-3.965-7.415h-2.045v-1.15h8.693v1.15h-2.176l3.068,5.242
			l2.812-5.242h-1.66v-1.15H937.826 M982.059,57.111c-3.416,0-6.192,2.092-6.192,4.663s2.776,4.662,6.192,4.662
			c3.488,0,6.325-2.091,6.325-4.662S985.547,57.111,982.059,57.111L982.059,57.111z M982.059,64.91c-1.203,0-2.11-1.348-2.11-3.136
			c0-1.892,0.889-3.264,2.11-3.264c1.166,0,2.114,1.464,2.114,3.264C984.173,63.474,983.204,64.91,982.059,64.91L982.059,64.91z
			 M943.195,57.24c-3.359,0-6.196,2.077-6.196,4.535c0,2.571,2.779,4.662,6.196,4.662c3.486,0,6.322-2.091,6.322-4.662
			C949.52,59.274,946.684,57.24,943.195,57.24L943.195,57.24z M943.195,64.91c-1.205,0-2.114-1.348-2.114-3.136
			c0-1.788,0.909-3.137,2.114-3.137c1.146,0,2.113,1.438,2.113,3.137C945.311,63.474,944.341,64.91,943.195,64.91L943.195,64.91z
			 M976.749,57.496h-0.06h-6.01h-0.06v0.06v1.15v0.06h0.06h1.438l-2.592,5.057l-2.96-5.057h2.067h0.062v-0.06v-1.15v-0.06h-0.062
			h-8.692h-0.061v0.06v1.15v0.06h0.061h2.01l3.945,7.383l0.018,0.032h0.036h4.729h0.036l0.018-0.032l3.943-7.383h2.012h0.061v-0.06
			v-1.15L976.749,57.496L976.749,57.496z M958.085,57.496h-0.06h-8.057h-0.06v0.06v1.15v0.06h0.06h1.985v5.888h-1.985h-0.06v0.06
			v1.406v0.06h0.06h2.045h10.102h0.06v-0.06v-3.963v-0.061h-0.06h-1.277h-0.057l-0.003,0.057c-0.13,2.051-1.938,2.5-2.624,2.5
			h-2.116v-5.889h1.987h0.06v-0.06v-1.15V57.496L958.085,57.496z M937.886,57.496h-0.06h-6.008h-0.062v0.06v1.15v0.06h0.062h1.56
			l-2.714,5.059l-2.962-5.059h2.069h0.06v-0.06v-1.15v-0.06h-0.06h-8.693h-0.061v0.06v1.15v0.06h0.061h2.009l3.948,7.383
			l0.017,0.032h0.036h4.73h0.035l0.018-0.032l3.943-7.383h2.012h0.06v-0.06v-1.15V57.496L937.886,57.496z"/>
	</g>
	
		<linearGradient id="SVGID_38_" gradientUnits="userSpaceOnUse" x1="-867.4663" y1="1677.4512" x2="-855.9233" y2="1693.0636" gradientTransform="matrix(1 0 0 1 1793.5 -1631.5)">
		<stop  offset="0" style="stop-color:#FFFFFF"/>
		<stop  offset="0.2567" style="stop-color:#B4CBE6"/>
		<stop  offset="0.489" style="stop-color:#78A1D2"/>
		<stop  offset="0.685" style="stop-color:#4D83C3"/>
		<stop  offset="0.8372" style="stop-color:#3271BA"/>
		<stop  offset="0.927" style="stop-color:#286AB7"/>
		<stop  offset="0.9467" style="stop-color:#4878BE"/>
		<stop  offset="0.9666" style="stop-color:#6083C4"/>
		<stop  offset="0.9849" style="stop-color:#6F8AC8"/>
		<stop  offset="1" style="stop-color:#748CC9"/>
	</linearGradient>
	<path fill="url(#SVGID_38_)" d="M916.998,52.078c-0.771,3.068-1.279,6.264-1.279,9.588c0,0.275,0.094,1.904,0.104,2.177
		l0.223,2.469c-0.004-0.199-0.102-4.224-0.102-4.424c0-3.324,0.555-6.407,1.32-9.475l26.781-0.113l11.561-0.222H916.998
		L916.998,52.078z"/>
</g>
</svg>
