<?xml version="1.0" encoding="utf-8"?>
<!-- Generator: Adobe Illustrator 15.1.0, SVG Export Plug-In . SVG Version: 6.00 Build 0)  -->
<!DOCTYPE svg PUBLIC "-//W3C//DTD SVG 1.1//EN" "http://www.w3.org/Graphics/SVG/1.1/DTD/svg11.dtd">
<svg version="1.1" id="Layer_1" xmlns="http://www.w3.org/2000/svg" xmlns:xlink="http://www.w3.org/1999/xlink" x="0px" y="0px"
	 width="45px" height="45px" viewBox="20.5 125.5 45 45" enable-background="new 20.5 125.5 45 45" xml:space="preserve">
<g>
	<path fill="#00B6DD" d="M43,162.5c8.008,0,14.5-6.492,14.5-14.5c0-8.008-6.492-14.5-14.5-14.5c-8.008,0-14.5,6.492-14.5,14.5
		C28.5,156.007,34.992,162.5,43,162.5L43,162.5z"/>
	<path fill="#FFFFFF" d="M41.581,146.558h-5.985c-0.385,0-0.7,0.175-0.7,0.56v1.4c0,0.385,0.315,0.561,0.7,0.561h5.985h2.52h6.02
		c0.385,0,0.7-0.175,0.7-0.561l0,0v-1.4c0-0.385-0.315-0.56-0.7-0.56h-6.02"/>
</g>
</svg>
