<?xml version="1.0" encoding="utf-8"?>
<!-- Generator: Adobe Illustrator 15.1.0, SVG Export Plug-In . SVG Version: 6.00 Build 0)  -->
<!DOCTYPE svg PUBLIC "-//W3C//DTD SVG 1.1//EN" "http://www.w3.org/Graphics/SVG/1.1/DTD/svg11.dtd">
<svg version="1.1" id="Layer_1" xmlns="http://www.w3.org/2000/svg" xmlns:xlink="http://www.w3.org/1999/xlink" x="0px" y="0px"
	 width="45px" height="45px" viewBox="20 124.5 45 45" enable-background="new 20 124.5 45 45" xml:space="preserve">
<g>
	<path fill="#00B6DD" d="M42.5,161.5c8.008,0,14.5-6.492,14.5-14.5c0-8.008-6.492-14.5-14.5-14.5c-8.008,0-14.5,6.492-14.5,14.5
		C28,155.007,34.492,161.5,42.5,161.5L42.5,161.5z"/>
	<path fill="#FFFFFF" d="M50.321,147.518v-1.4c0-0.385-0.315-0.56-0.7-0.56h-6.02v-6.02c0-0.385-0.175-0.7-0.56-0.7h-1.4
		c-0.385,0-0.56,0.315-0.56,0.7v6.02h-5.985c-0.385,0-0.7,0.175-0.7,0.56v1.4c0,0.385,0.315,0.56,0.7,0.56h5.985v5.985
		c0,0.385,0.175,0.7,0.56,0.7h1.4c0.385,0,0.56-0.315,0.56-0.7v-5.985h6.02C50.006,148.078,50.321,147.902,50.321,147.518
		L50.321,147.518z"/>
</g>
</svg>
