<?xml version="1.0" encoding="utf-8"?>
<!-- Generator: Adobe Illustrator 15.1.0, SVG Export Plug-In . SVG Version: 6.00 Build 0)  -->
<!DOCTYPE svg PUBLIC "-//W3C//DTD SVG 1.1//EN" "http://www.w3.org/Graphics/SVG/1.1/DTD/svg11.dtd">
<svg version="1.1" id="Our_story_-_responsible_-_screen_2"
	 xmlns="http://www.w3.org/2000/svg" xmlns:xlink="http://www.w3.org/1999/xlink" x="0px" y="0px" width="190px" height="392px"
	 viewBox="0 0 190 392" enable-background="new 0 0 190 392" xml:space="preserve">
<symbol  id="New_Symbol_2" viewBox="-8 -5.959 15.141 11.918">
	<g>
		<path fill="#FFFFFF" d="M6.943-2.977C6.647-2.514,6.651-2.226,5.665-1.813c-0.986,0.41-1.221,0.553-1.221,0.553L4.437-0.315
			c0,0,0.369,0.284,0.484,1.174c0.23-0.066,0.473,0.345,0.486,0.562c0.012,0.208-0.032,0.788-0.314,0.73
			c0.057,0.437,0.1,0.828,0.08,1.036C5.099,3.947,4.351,4.748,3.2,4.748S1.302,3.947,1.228,3.187c-0.02-0.208,0.021-0.6,0.08-1.036
			C1.024,2.208,0.979,1.628,0.993,1.42c0.014-0.217,0.256-0.628,0.486-0.562c0.115-0.89,0.485-1.174,0.485-1.174L0.991-1.137
			C1.45-1.389,2.605-1.543,3-2.105c0.25-0.356,0.762-0.688,0.476-3.854H7.13C7.13-5.959,7.21-3.39,6.943-2.977z"/>
	</g>
	<g>
		<path fill="#FFFFFF" d="M2.78-2.638C2.451-2.124,1.342-1.804,0.244-1.346c-1.098,0.457-1.357,0.617-1.357,0.617l-0.012,1.051
			c0,0,0.412,0.317,0.541,1.308c0.256-0.074,0.526,0.383,0.541,0.625c0.014,0.231-0.036,0.877-0.35,0.812
			c0.063,0.485,0.109,0.923,0.088,1.153C-0.386,5.067-1.219,5.959-2.5,5.959c-1.279,0-2.113-0.892-2.195-1.738
			c-0.021-0.23,0.024-0.668,0.089-1.153c-0.314,0.064-0.364-0.581-0.35-0.812c0.015-0.242,0.284-0.699,0.542-0.625
			c0.127-0.99,0.539-1.308,0.539-1.308l-0.011-1.051c0,0-0.261-0.16-1.356-0.617c-1.1-0.458-2.208-0.778-2.537-1.292
			c-0.297-0.461-0.208-3.321-0.208-3.321H-2.5h5.324C2.824-5.959,3.076-3.099,2.78-2.638z"/>
	</g>
</symbol>
<g>
	<linearGradient id="SVGID_1_" gradientUnits="userSpaceOnUse" x1="95" y1="189.8359" x2="95" y2="1.989520e-13">
		<stop  offset="0" style="stop-color:#C6413C"/>
		<stop  offset="0.0569" style="stop-color:#CD4E3A"/>
		<stop  offset="0.2044" style="stop-color:#DD6B37"/>
		<stop  offset="0.3624" style="stop-color:#E98134"/>
		<stop  offset="0.5341" style="stop-color:#F29132"/>
		<stop  offset="0.7295" style="stop-color:#F79A31"/>
		<stop  offset="1" style="stop-color:#F99D31"/>
	</linearGradient>
	<path fill="url(#SVGID_1_)" d="M189.918,172.829c0,9.393-7.613,17.007-17.008,17.007H17.089c-9.393,0-17.008-7.614-17.008-17.007
		V17.008C0.082,7.615,7.697,0,17.089,0H172.91c9.395,0,17.008,7.615,17.008,17.008V172.829z"/>
	<g>
		<path fill="#FFFFFF" d="M48.139,132.195c-0.405,0.135-1.523,0.328-2.874,0.328c-2.932,0-5.709-1.543-5.709-6.134v-2.43
			c0-4.591,2.777-6.114,5.709-6.114c1.351,0,2.469,0.192,2.874,0.328c0.271,0.077,0.425,0.154,0.425,0.424v1.871
			c0,0.231-0.116,0.386-0.367,0.386c-0.02,0-0.038,0-0.058,0c-0.733-0.058-1.794-0.154-2.854-0.154c-1.331,0-2.392,0.694-2.392,3.26
			v2.43c0,2.565,1.061,3.26,2.392,3.26c1.061,0,2.121-0.097,2.854-0.154c0.02,0,0.038,0,0.058,0c0.251,0,0.367,0.154,0.367,0.386
			v1.871C48.564,132.021,48.41,132.118,48.139,132.195z"/>
		<path fill="#FFFFFF" d="M55.681,132.523c-3.183,0-5.709-1.717-5.709-6.191v-2.295c0-4.475,2.526-6.191,5.709-6.191
			s5.709,1.717,5.709,6.191v2.295C61.39,130.807,58.864,132.523,55.681,132.523z M58.073,124.037c0-2.314-0.771-3.298-2.392-3.298
			s-2.372,0.983-2.372,3.298v2.295c0,2.314,0.752,3.298,2.372,3.298s2.392-0.983,2.392-3.298V124.037z"/>
		<path fill="#FFFFFF" d="M76.473,132.35h-2.546c-0.174,0-0.309-0.174-0.309-0.386v-8.043c0-0.135-0.058-0.154-0.097-0.154
			c-0.058,0-0.097,0.039-0.154,0.135l-1.736,3.183c-0.135,0.231-0.327,0.328-0.578,0.328H69.51c-0.251,0-0.443-0.097-0.578-0.328
			l-1.736-3.183c-0.058-0.096-0.097-0.135-0.154-0.135c-0.039,0-0.097,0.02-0.097,0.154v8.043c0,0.212-0.135,0.386-0.309,0.386
			H64.09c-0.154,0-0.328-0.058-0.328-0.271v-13.404c0-0.404,0.29-0.655,0.695-0.655h1.812c0.405,0,0.675,0.192,0.849,0.521
			l2.951,5.497c0.077,0.154,0.135,0.251,0.212,0.251s0.135-0.097,0.212-0.251l2.951-5.497c0.174-0.328,0.443-0.521,0.849-0.521
			h1.812c0.405,0,0.695,0.27,0.695,0.675v13.385C76.801,132.292,76.627,132.35,76.473,132.35z"/>
		<path fill="#FFFFFF" d="M92.212,132.35h-2.546c-0.174,0-0.309-0.174-0.309-0.386v-8.043c0-0.135-0.059-0.154-0.097-0.154
			c-0.058,0-0.097,0.039-0.154,0.135l-1.735,3.183c-0.136,0.231-0.328,0.328-0.579,0.328H85.25c-0.251,0-0.443-0.097-0.579-0.328
			l-1.735-3.183c-0.058-0.096-0.097-0.135-0.154-0.135c-0.038,0-0.097,0.02-0.097,0.154v8.043c0,0.212-0.135,0.386-0.309,0.386
			H79.83c-0.154,0-0.327-0.058-0.327-0.271v-13.404c0-0.404,0.289-0.655,0.693-0.655h1.813c0.405,0,0.675,0.192,0.849,0.521
			l2.951,5.497c0.077,0.154,0.135,0.251,0.212,0.251s0.135-0.097,0.212-0.251l2.951-5.497c0.174-0.328,0.443-0.521,0.849-0.521
			h1.813c0.404,0,0.693,0.27,0.693,0.675v13.385C92.54,132.292,92.367,132.35,92.212,132.35z"/>
		<path fill="#FFFFFF" d="M100.738,132.523c-3.066,0-5.555-1.157-5.555-5.555v-8.583c0-0.212,0.174-0.366,0.385-0.366h2.527
			c0.213,0,0.385,0.154,0.385,0.366v8.583c0,1.967,0.521,2.796,2.258,2.796s2.275-0.829,2.275-2.796v-8.583
			c0-0.212,0.174-0.366,0.387-0.366h2.506c0.213,0,0.406,0.154,0.406,0.366v8.583C106.312,131.366,103.805,132.523,100.738,132.523z
			"/>
		<path fill="#FFFFFF" d="M119.562,132.35h-1.891c-0.404,0-0.693-0.077-1.002-0.598l-4.398-7.6
			c-0.076-0.115-0.115-0.154-0.172-0.154c-0.059,0-0.098,0.039-0.098,0.154v7.812c0,0.212-0.174,0.386-0.385,0.386h-2.277
			c-0.211,0-0.385-0.174-0.385-0.386v-13.212c0-0.405,0.328-0.732,0.732-0.732h1.949c0.385,0,0.578,0.192,0.809,0.598l4.572,7.946
			c0.076,0.115,0.096,0.154,0.154,0.154c0.037,0,0.096-0.039,0.096-0.174v-8.158c0-0.212,0.174-0.366,0.387-0.366h2.275
			c0.211,0,0.385,0.154,0.385,0.366v13.23C120.314,132.021,119.969,132.35,119.562,132.35z"/>
		<path fill="#FFFFFF" d="M125.947,132.35h-2.584c-0.213,0-0.348-0.174-0.348-0.386v-13.578c0-0.212,0.135-0.366,0.348-0.366h2.584
			c0.213,0,0.367,0.154,0.367,0.366v13.578C126.314,132.176,126.16,132.35,125.947,132.35z"/>
		<path fill="#FFFFFF" d="M138.098,120.739h-3.125v11.225c0,0.212-0.174,0.386-0.385,0.386h-2.527c-0.211,0-0.385-0.174-0.385-0.386
			v-11.225h-3.145c-0.213,0-0.385-0.154-0.385-0.367v-1.986c0-0.212,0.172-0.366,0.385-0.366h9.566c0.213,0,0.404,0.154,0.404,0.366
			v1.986C138.502,120.585,138.311,120.739,138.098,120.739z"/>
		<path fill="#FFFFFF" d="M151.041,118.443l-2.914,6.674c-0.385,0.887-0.789,1.292-1.252,1.485v5.361
			c0,0.212-0.174,0.386-0.387,0.386h-2.527c-0.211,0-0.385-0.174-0.385-0.386v-5.361c-0.463-0.193-0.887-0.599-1.273-1.485
			l-2.912-6.674c-0.02-0.038-0.02-0.097-0.02-0.135c0-0.154,0.115-0.289,0.309-0.289h2.777c0.193,0,0.328,0.154,0.387,0.327
			l2.082,5.439c0.098,0.251,0.154,0.289,0.289,0.289s0.193-0.038,0.289-0.289l2.084-5.439c0.059-0.173,0.193-0.327,0.385-0.327
			h2.777c0.193,0,0.309,0.135,0.309,0.289C151.059,118.347,151.059,118.405,151.041,118.443z"/>
		<path fill="#1A377A" d="M49.417,139.105l-0.535,2.734c-0.043,0.202-0.145,0.274-0.289,0.274H47.74
			c-0.102,0-0.159-0.058-0.159-0.158c0-0.029,0-0.073,0.015-0.116l0.883-2.734c0.057-0.202,0.13-0.274,0.274-0.274h0.55
			c0.102,0,0.13,0.058,0.13,0.145C49.432,139.02,49.432,139.062,49.417,139.105z"/>
		<path fill="#1A377A" d="M53.815,149.811c-0.955,0-1.808-0.044-2.357-0.131c-0.333-0.043-0.478-0.173-0.478-0.535v-9.634
			c0-0.332,0.159-0.506,0.463-0.535c0.478-0.058,1.359-0.115,2.3-0.115c2.3,0,4.238,0.607,4.238,2.791v0.231
			c0,1.071-0.564,1.896-1.548,2.271c0.998,0.347,1.605,1.229,1.605,2.344v0.245C58.039,149.174,56.072,149.811,53.815,149.811z
			 M56.665,141.651c0-1.389-1.157-1.678-2.922-1.678c-0.492,0-1.027,0.029-1.432,0.044v3.587h2.228c1.678,0,2.126-0.81,2.126-1.722
			V141.651z M56.722,146.498c0-0.955-0.477-1.838-2.184-1.838h-2.228v3.979c0.477,0.015,0.998,0.058,1.504,0.058
			c1.794,0,2.907-0.391,2.907-1.953V146.498z"/>
		<path fill="#1A377A" d="M65.793,149.738c-0.55,0.058-1.968,0.072-2.821,0.072c-2.024,0-3.081-0.767-3.081-2.69v-5.569
			c0-1.924,1.057-2.69,3.081-2.69c0.854,0,2.214,0.028,2.821,0.086c0.087,0.015,0.145,0.116,0.145,0.203v0.723
			c0,0.102-0.058,0.174-0.159,0.174h-2.792c-1.533,0-1.779,0.405-1.779,1.505v2.011h4.441c0.159,0,0.289,0.13,0.289,0.289v0.55
			c0,0.159-0.13,0.289-0.289,0.289h-4.441v2.431c0,1.099,0.246,1.504,1.779,1.504h2.792c0.102,0,0.159,0.072,0.159,0.174v0.737
			C65.938,149.622,65.88,149.724,65.793,149.738z"/>
		<path fill="#1A377A" d="M69.063,149.709h-0.796c-0.145,0-0.261-0.13-0.261-0.289v-10.184c0-0.145,0.102-0.275,0.261-0.275h0.796
			c0.145,0,0.26,0.116,0.26,0.275v10.184C69.323,149.564,69.222,149.709,69.063,149.709z"/>
		<path fill="#1A377A" d="M78.885,149.709h-0.897c-0.231,0-0.391-0.087-0.463-0.231l-4.47-8.491
			c-0.015-0.029-0.029-0.043-0.043-0.043c-0.015,0-0.015,0.014-0.015,0.043v8.448c0,0.145-0.116,0.274-0.261,0.274h-0.752
			c-0.145,0-0.261-0.029-0.261-0.174v-10.169c0-0.231,0.188-0.405,0.42-0.405h0.796c0.404,0,0.477,0.072,0.593,0.29l4.44,8.447
			l0.029,0.043c0.015,0,0.015-0.028,0.015-0.043v-8.462c0-0.145,0.115-0.275,0.26-0.275h0.767c0.159,0,0.261,0.131,0.261,0.275
			v10.053C79.304,149.521,79.117,149.709,78.885,149.709z"/>
		<path fill="#1A377A" d="M87.897,149.593c-0.709,0.116-1.519,0.218-2.878,0.218c-1.809,0-3.747-1.187-3.747-4.499v-1.938
			c0-3.515,2.025-4.513,3.877-4.513c1.345,0,2.198,0.115,2.748,0.202c0.131,0.015,0.246,0.072,0.246,0.217v0.724
			c0,0.102-0.058,0.145-0.188,0.145c-0.015,0-0.044,0-0.059,0c-0.854-0.072-1.519-0.102-2.748-0.102
			c-1.346,0-2.561,0.724-2.561,3.327v1.938c0,2.387,1.085,3.327,2.431,3.327c0.882,0,1.475-0.058,1.822-0.087v-4.137
			c0-0.159,0.102-0.29,0.261-0.29h0.78c0.146,0,0.275,0.131,0.275,0.29v4.86C88.158,149.435,88.056,149.564,87.897,149.593z"/>
		<path fill="#1A377A" d="M101.352,149.709h-0.854c-0.131,0-0.217-0.102-0.246-0.217l-0.941-3.327h-3.746l-0.925,3.327
			c-0.029,0.115-0.145,0.217-0.261,0.217h-0.854c-0.145,0-0.245-0.102-0.245-0.231c0-0.029,0-0.072,0.014-0.102l2.677-9.417
			c0.244-0.882,0.926-1.099,1.475-1.099c0.535,0,1.215,0.202,1.461,1.085l2.676,9.431c0.016,0.029,0.016,0.072,0.016,0.102
			C101.598,149.607,101.51,149.709,101.352,149.709z M97.721,140.263c-0.043-0.158-0.131-0.26-0.275-0.26
			c-0.158,0-0.246,0.102-0.289,0.26l-1.316,4.76h3.197L97.721,140.263z"/>
		<path fill="#1A377A" d="M113.055,149.593c-0.709,0.116-1.52,0.218-2.879,0.218c-1.809,0-3.746-1.187-3.746-4.499v-1.938
			c0-3.515,2.025-4.513,3.877-4.513c1.344,0,2.197,0.115,2.748,0.202c0.131,0.015,0.246,0.072,0.246,0.217v0.724
			c0,0.102-0.059,0.145-0.189,0.145c-0.014,0-0.043,0-0.057,0c-0.854-0.072-1.52-0.102-2.748-0.102
			c-1.346,0-2.561,0.724-2.561,3.327v1.938c0,2.387,1.084,3.327,2.43,3.327c0.883,0,1.475-0.058,1.822-0.087v-4.137
			c0-0.159,0.102-0.29,0.262-0.29h0.779c0.146,0,0.275,0.131,0.275,0.29v4.86C113.314,149.435,113.213,149.564,113.055,149.593z"/>
		<path fill="#1A377A" d="M119.232,149.811c-2.271,0-3.92-1.331-3.92-4.542v-1.866c0-3.212,1.648-4.542,3.92-4.542
			c2.27,0,3.904,1.33,3.904,4.542v1.866C123.137,148.479,121.502,149.811,119.232,149.811z M121.807,143.402
			c0-2.431-0.984-3.356-2.574-3.356c-1.578,0-2.59,0.926-2.59,3.356v1.866c0,2.43,0.998,3.355,2.59,3.355
			c1.576,0,2.574-0.926,2.574-3.355V143.402z"/>
		<path fill="#1A377A" d="M128.795,149.811c-2.271,0-3.92-1.331-3.92-4.542v-1.866c0-3.212,1.648-4.542,3.92-4.542
			c2.27,0,3.904,1.33,3.904,4.542v1.866C132.699,148.479,131.064,149.811,128.795,149.811z M131.369,143.402
			c0-2.431-0.984-3.356-2.574-3.356c-1.578,0-2.59,0.926-2.59,3.356v1.866c0,2.43,0.998,3.355,2.59,3.355
			c1.576,0,2.574-0.926,2.574-3.355V143.402z"/>
		<path fill="#1A377A" d="M137.633,149.811c-1.098,0-2.213-0.072-2.633-0.145c-0.188-0.029-0.303-0.146-0.303-0.362v-9.938
			c0-0.202,0.115-0.333,0.303-0.361c0.42-0.072,1.535-0.145,2.633-0.145c2.678,0,4.383,1.374,4.383,4.498v1.953
			C142.016,148.407,140.311,149.811,137.633,149.811z M140.701,143.358c0-2.618-1.332-3.37-3.068-3.37
			c-0.68,0-1.127,0.015-1.605,0.043v8.622c0.463,0.028,0.926,0.028,1.605,0.028c1.736,0,3.068-0.767,3.068-3.37V143.358z"/>
		<path fill="#1A377A" d="M63.218,167.068h-0.897c-0.231,0-0.391-0.087-0.463-0.231l-4.47-8.491
			c-0.015-0.029-0.028-0.043-0.043-0.043s-0.015,0.014-0.015,0.043v8.448c0,0.145-0.116,0.274-0.261,0.274h-0.752
			c-0.145,0-0.261-0.029-0.261-0.174v-10.169c0-0.231,0.188-0.405,0.42-0.405h0.796c0.404,0,0.477,0.072,0.593,0.29l4.44,8.447
			l0.029,0.043c0.015,0,0.015-0.028,0.015-0.043v-8.462c0-0.145,0.115-0.275,0.26-0.275h0.768c0.158,0,0.26,0.131,0.26,0.275v10.053
			C63.637,166.88,63.45,167.068,63.218,167.068z"/>
		<path fill="#1A377A" d="M71.796,167.098c-0.55,0.058-1.968,0.072-2.821,0.072c-2.024,0-3.081-0.767-3.081-2.69v-5.569
			c0-1.924,1.057-2.69,3.081-2.69c0.854,0,2.214,0.028,2.821,0.086c0.087,0.015,0.145,0.116,0.145,0.203v0.723
			c0,0.102-0.058,0.174-0.159,0.174H68.99c-1.533,0-1.779,0.405-1.779,1.505v2.011h4.441c0.159,0,0.289,0.13,0.289,0.289v0.55
			c0,0.159-0.13,0.289-0.289,0.289H67.21v2.431c0,1.099,0.246,1.504,1.779,1.504h2.792c0.102,0,0.159,0.072,0.159,0.174v0.737
			C71.941,166.981,71.883,167.083,71.796,167.098z"/>
		<path fill="#1A377A" d="M75.066,167.068H74.27c-0.145,0-0.26-0.13-0.26-0.289v-10.184c0-0.145,0.101-0.275,0.26-0.275h0.796
			c0.145,0,0.26,0.116,0.26,0.275v10.184C75.326,166.924,75.225,167.068,75.066,167.068z"/>
		<path fill="#1A377A" d="M84.063,166.952c-0.709,0.116-1.519,0.218-2.878,0.218c-1.809,0-3.747-1.187-3.747-4.499v-1.938
			c0-3.515,2.025-4.513,3.877-4.513c1.345,0,2.198,0.115,2.748,0.202c0.131,0.015,0.246,0.072,0.246,0.217v0.724
			c0,0.102-0.058,0.145-0.188,0.145c-0.015,0-0.044,0-0.059,0c-0.854-0.072-1.519-0.102-2.748-0.102
			c-1.346,0-2.561,0.724-2.561,3.327v1.938c0,2.387,1.085,3.327,2.431,3.327c0.882,0,1.475-0.058,1.822-0.087v-4.137
			c0-0.159,0.102-0.29,0.261-0.29h0.78c0.146,0,0.275,0.131,0.275,0.29v4.86C84.324,166.794,84.222,166.924,84.063,166.952z"/>
		<path fill="#1A377A" d="M93.872,167.068h-0.738c-0.158,0-0.289-0.13-0.289-0.289v-4.803h-4.947v4.803
			c0,0.159-0.13,0.289-0.289,0.289h-0.737c-0.159,0-0.29-0.13-0.29-0.289V156.61c0-0.159,0.131-0.29,0.29-0.29h0.737
			c0.159,0,0.289,0.131,0.289,0.29v4.194h4.947v-4.194c0-0.159,0.131-0.29,0.289-0.29h0.738c0.159,0,0.289,0.131,0.289,0.29v10.169
			C94.161,166.938,94.031,167.068,93.872,167.068z"/>
		<path fill="#1A377A" d="M99.254,167.17c-0.955,0-1.809-0.044-2.359-0.131c-0.332-0.043-0.477-0.173-0.477-0.535v-9.634
			c0-0.332,0.158-0.506,0.463-0.535c0.477-0.058,1.359-0.115,2.301-0.115c2.299,0,4.238,0.607,4.238,2.791v0.231
			c0,1.071-0.564,1.896-1.549,2.271c0.998,0.347,1.605,1.229,1.605,2.344v0.245C103.477,166.533,101.51,167.17,99.254,167.17z
			 M102.104,159.011c0-1.389-1.158-1.678-2.922-1.678c-0.492,0-1.027,0.029-1.434,0.044v3.587h2.229c1.678,0,2.127-0.81,2.127-1.722
			V159.011z M102.16,163.857c0-0.955-0.477-1.838-2.184-1.838h-2.229v3.979c0.479,0.015,0.998,0.058,1.506,0.058
			c1.793,0,2.906-0.391,2.906-1.953V163.857z"/>
		<path fill="#1A377A" d="M108.988,167.17c-2.271,0-3.92-1.331-3.92-4.542v-1.866c0-3.212,1.648-4.542,3.92-4.542
			s3.906,1.33,3.906,4.542v1.866C112.895,165.839,111.26,167.17,108.988,167.17z M111.564,160.762c0-2.431-0.984-3.356-2.576-3.356
			c-1.576,0-2.59,0.926-2.59,3.356v1.866c0,2.43,1,3.355,2.59,3.355c1.576,0,2.576-0.926,2.576-3.355V160.762z"/>
		<path fill="#1A377A" d="M118.551,167.17c-2.344,0-3.703-1.244-3.703-4.007v-6.567c0-0.145,0.115-0.275,0.275-0.275h0.781
			c0.145,0,0.275,0.116,0.275,0.275v6.567c0,1.865,0.578,2.878,2.371,2.878c1.795,0,2.373-0.998,2.373-2.878v-6.567
			c0-0.145,0.115-0.275,0.275-0.275h0.779c0.146,0,0.275,0.116,0.275,0.275v6.567C122.254,165.926,120.895,167.17,118.551,167.17z"
			/>
		<path fill="#1A377A" d="M131.629,167.068h-0.926c-0.174,0-0.262,0-0.377-0.188l-2.59-4.311c-0.043,0-0.086,0-0.129,0
			c-0.088,0-0.16,0-0.246,0c-0.479,0-0.824-0.014-1.592-0.043v4.253c0,0.145-0.102,0.289-0.26,0.289h-0.781
			c-0.145,0-0.262-0.13-0.262-0.289v-10.126c0-0.202,0.088-0.289,0.348-0.318c0.623-0.072,1.707-0.115,2.547-0.115
			c2.285,0,4.049,0.767,4.049,3.109v0.102c0,1.62-0.953,2.575-2.27,2.922l2.633,4.397c0.027,0.044,0.043,0.087,0.043,0.13
			C131.816,166.981,131.744,167.068,131.629,167.068z M130.109,159.329c0-1.446-0.941-1.924-2.748-1.924
			c-0.449,0-1.244,0-1.592,0.044v3.963c0.637,0.015,1.258,0.029,1.592,0.029c1.779,0,2.748-0.448,2.748-2.011V159.329z"/>
		<path fill="#1A377A" d="M134.637,156.465l-0.883,2.734c-0.057,0.202-0.129,0.274-0.273,0.274h-0.551
			c-0.102,0-0.129-0.058-0.129-0.145c0-0.043,0-0.087,0.014-0.13l0.535-2.734c0.043-0.202,0.145-0.274,0.289-0.274h0.854
			c0.102,0,0.16,0.058,0.16,0.159C134.652,156.379,134.652,156.422,134.637,156.465z"/>
	</g>
	
		<use xlink:href="#New_Symbol_2"  width="15.141" height="11.918" id="XMLID_14_" x="-8" y="-5.959" transform="matrix(6.7067 0 0 -6.7067 96 61.5576)" overflow="visible"/>
</g>
</svg>
