<?xml version="1.0" encoding="utf-8"?>
<!-- Generator: Adobe Illustrator 15.1.0, SVG Export Plug-In . SVG Version: 6.00 Build 0)  -->
<!DOCTYPE svg PUBLIC "-//W3C//DTD SVG 1.1//EN" "http://www.w3.org/Graphics/SVG/1.1/DTD/svg11.dtd">
<svg version="1.1" id="Our_story_-_responsible_-_screen_2"
	 xmlns="http://www.w3.org/2000/svg" xmlns:xlink="http://www.w3.org/1999/xlink" x="0px" y="0px" width="190px" height="392px"
	 viewBox="0 0 190 392" enable-background="new 0 0 190 392" xml:space="preserve">
<g>
	<g>
		<g>
			<rect x="0.082" y="174.267" fill="#FFCC80" width="189.836" height="217.733"/>
		</g>
	</g>
	<g>
		<path fill="#002C5F" d="M40.381,259.283c-0.455,0.049-1.631,0.062-2.338,0.062c-1.68,0-2.557-0.638-2.557-2.23v-4.617
			c0-1.594,0.877-2.229,2.557-2.229c0.707,0,1.836,0.022,2.338,0.072c0.072,0.012,0.121,0.096,0.121,0.168v0.6
			c0,0.084-0.049,0.145-0.133,0.145h-2.314c-1.271,0-1.475,0.337-1.475,1.248v1.666h3.682c0.134,0,0.24,0.107,0.24,0.24v0.455
			c0,0.133-0.106,0.24-0.24,0.24h-3.681v2.016c0,0.91,0.203,1.246,1.475,1.246h2.314c0.084,0,0.133,0.062,0.133,0.146v0.61
			C40.502,259.188,40.454,259.272,40.381,259.283z"/>
		<path fill="#002C5F" d="M49.68,259.261h-0.575c-0.132,0-0.238-0.107-0.238-0.24v-4.244c0-1.01-0.469-1.283-1.092-1.283
			c-0.433,0-0.937,0.146-1.404,0.322c0.072,0.266,0.109,0.576,0.109,0.938v4.271c0,0.119-0.084,0.24-0.218,0.24h-0.635
			c-0.121,0-0.205-0.107-0.205-0.24v-4.271c0-1.043-0.299-1.26-0.924-1.26c-0.432,0-0.961,0.217-1.463,0.467v5.062
			c0,0.119-0.084,0.24-0.217,0.24h-0.636c-0.12,0-0.204-0.107-0.204-0.24v-6.117c0-0.131,0.096-0.238,0.229-0.238h0.6
			c0.132,0,0.228,0.107,0.228,0.238v0.229c0.479-0.3,1.092-0.562,1.752-0.562c0.516,0,0.897,0.146,1.199,0.49
			c0.659-0.312,1.366-0.49,1.989-0.49c1.08,0,1.943,0.539,1.943,2.205v4.246C49.92,259.152,49.813,259.261,49.68,259.261z"/>
		<path fill="#002C5F" d="M54.016,259.345c-0.372,0-0.936-0.05-1.403-0.134v2.173c0,0.118-0.097,0.229-0.229,0.229h-0.61
			c-0.119,0-0.216-0.098-0.216-0.229v-8.252c0-0.156,0.035-0.229,0.252-0.275c0.636-0.154,1.476-0.275,2.207-0.275
			c1.785,0,2.613,1.164,2.613,2.963v0.863C56.629,258.287,55.766,259.345,54.016,259.345z M55.575,255.541
			c0-1.258-0.373-2.073-1.56-2.073c-0.504,0-1.067,0.061-1.403,0.118v4.75c0.396,0.072,1.02,0.119,1.403,0.119
			c1.175,0,1.56-0.768,1.56-2.051V255.541z"/>
		<path fill="#002C5F" d="M59.008,259.261h-0.625c-0.119,0-0.215-0.107-0.215-0.24v-8.551c0-0.121,0.084-0.229,0.215-0.229h0.625
			c0.119,0,0.215,0.096,0.215,0.229v8.551C59.223,259.14,59.139,259.261,59.008,259.261z"/>
		<path fill="#002C5F" d="M63.422,259.345c-1.764,0-2.662-1.164-2.662-2.927v-0.911c0-1.765,0.898-2.927,2.662-2.927
			c1.765,0,2.674,1.162,2.674,2.927v0.911C66.096,258.181,65.187,259.345,63.422,259.345z M65.041,255.507
			c0-1.224-0.492-2.005-1.619-2.005c-1.115,0-1.606,0.769-1.606,2.005v0.911c0,1.224,0.479,2.002,1.606,2.002
			c1.113,0,1.619-0.768,1.619-2.002V255.507z"/>
		<path fill="#002C5F" d="M72.358,252.951l-1.979,6.908c-0.371,1.295-0.813,1.773-2.192,1.773c-0.337,0-0.757-0.047-1.009-0.107
			c-0.145-0.035-0.252-0.07-0.252-0.191v-0.442c0-0.133,0.097-0.191,0.229-0.191c0.012,0,0.022,0,0.035,0
			c0.266,0.023,0.803,0.072,1.065,0.072c0.687,0,0.984-0.182,1.188-1.02l0.121-0.492h-0.169c-0.358,0-0.672-0.084-0.889-0.828
			l-1.594-5.479c-0.014-0.024-0.014-0.062-0.014-0.084c0-0.121,0.071-0.205,0.217-0.205h0.66c0.096,0,0.18,0.097,0.202,0.193
			l1.416,5.205c0.062,0.238,0.146,0.264,0.229,0.264h0.19l1.464-5.481c0.022-0.097,0.118-0.181,0.229-0.181h0.67
			c0.121,0,0.193,0.084,0.193,0.205C72.37,252.892,72.37,252.929,72.358,252.951z"/>
		<path fill="#002C5F" d="M78.274,256.298h-4.019v0.168c0,1.428,0.562,1.955,1.668,1.955c0.693,0,1.582-0.05,2.136-0.134
			c0.022,0,0.034,0,0.059,0c0.098,0,0.193,0.05,0.193,0.168v0.408c0,0.156-0.05,0.24-0.24,0.275
			c-0.685,0.133-1.344,0.205-2.146,0.205c-1.379,0-2.723-0.648-2.723-2.879v-1.08c0-1.715,0.947-2.808,2.662-2.808
			c1.75,0,2.639,1.104,2.639,2.808v0.647C78.502,256.19,78.418,256.298,78.274,256.298z M77.435,255.386
			c0-1.354-0.517-1.884-1.57-1.884c-1.031,0-1.607,0.589-1.607,1.884v0.108h3.181v-0.108H77.435z"/>
		<path fill="#002C5F" d="M84.801,256.298h-4.018v0.168c0,1.428,0.562,1.955,1.666,1.955c0.694,0,1.584-0.05,2.137-0.134
			c0.021,0,0.035,0,0.062,0c0.096,0,0.19,0.05,0.19,0.168v0.408c0,0.156-0.051,0.24-0.24,0.275
			c-0.686,0.133-1.344,0.205-2.146,0.205c-1.379,0-2.723-0.648-2.723-2.879v-1.08c0-1.715,0.946-2.808,2.661-2.808
			c1.752,0,2.64,1.104,2.64,2.808v0.647C85.03,256.19,84.946,256.298,84.801,256.298z M83.963,255.386
			c0-1.354-0.518-1.884-1.572-1.884c-1.03,0-1.606,0.589-1.606,1.884v0.108h3.18L83.963,255.386L83.963,255.386z"/>
		<path fill="#002C5F" d="M94.498,252.951l-1.619,5.709c-0.156,0.539-0.563,0.685-1.08,0.685c-0.518,0-0.924-0.146-1.08-0.685
			l-1.619-5.709c-0.012-0.037-0.012-0.061-0.012-0.084c0-0.119,0.07-0.203,0.191-0.203h0.657c0.097,0,0.181,0.07,0.23,0.228
			l1.379,5.229c0.07,0.287,0.131,0.349,0.252,0.349c0.105,0,0.18-0.062,0.252-0.349l1.379-5.229
			c0.049-0.154,0.133-0.228,0.229-0.228h0.658c0.12,0,0.192,0.084,0.192,0.203C94.51,252.892,94.51,252.914,94.498,252.951z"/>
		<path fill="#002C5F" d="M97.978,259.345c-1.765,0-2.664-1.164-2.664-2.927v-0.911c0-1.765,0.899-2.927,2.664-2.927
			c1.762,0,2.674,1.162,2.674,2.927v0.911C100.651,258.181,99.739,259.345,97.978,259.345z M99.596,255.507
			c0-1.224-0.491-2.005-1.618-2.005c-1.115,0-1.607,0.769-1.607,2.005v0.911c0,1.224,0.479,2.002,1.607,2.002
			c1.114,0,1.618-0.768,1.618-2.002V255.507z"/>
		<path fill="#002C5F" d="M103.03,259.261h-0.625c-0.119,0-0.215-0.107-0.215-0.24v-8.551c0-0.121,0.084-0.229,0.215-0.229h0.625
			c0.119,0,0.215,0.096,0.215,0.229v8.551C103.243,259.14,103.161,259.261,103.03,259.261z"/>
		<path fill="#002C5F" d="M109.819,259.261h-0.601c-0.133,0-0.229-0.107-0.229-0.24v-0.229c-0.658,0.373-1.199,0.554-1.906,0.554
			c-1.438,0-2.088-0.898-2.088-2.494v-3.945c0-0.133,0.106-0.24,0.238-0.24h0.575c0.134,0,0.24,0.107,0.24,0.24v3.945
			c0,1.211,0.408,1.582,1.32,1.582c0.502,0,1.065-0.189,1.617-0.468v-5.062c0-0.119,0.108-0.238,0.239-0.238h0.589
			c0.118,0,0.229,0.107,0.229,0.238v6.117C110.047,259.152,109.952,259.261,109.819,259.261z"/>
		<path fill="#002C5F" d="M116.491,259.261h-0.574c-0.133,0-0.24-0.107-0.24-0.24v-3.943c0-1.213-0.408-1.584-1.319-1.584
			c-0.505,0-1.064,0.189-1.619,0.467v5.062c0,0.119-0.105,0.24-0.238,0.24h-0.588c-0.119,0-0.229-0.107-0.229-0.24v-6.117
			c0-0.131,0.097-0.238,0.229-0.238h0.6c0.134,0,0.229,0.107,0.229,0.238v0.229c0.66-0.371,1.199-0.552,1.906-0.552
			c1.438,0,2.088,0.898,2.088,2.494v3.945C116.731,259.152,116.623,259.261,116.491,259.261z"/>
		<path fill="#002C5F" d="M121.411,259.283c-0.238,0.037-0.553,0.062-0.779,0.062c-1.104,0-1.631-0.289-1.631-1.605v-4.188
			l-1.162-0.134c-0.133-0.012-0.229-0.084-0.229-0.215v-0.324c0-0.131,0.098-0.215,0.229-0.215h1.162v-1.176
			c0-0.121,0.084-0.217,0.217-0.24l0.623-0.096c0.013,0,0.023,0,0.035,0c0.098,0,0.182,0.084,0.182,0.203v1.309h1.295
			c0.132,0,0.24,0.107,0.24,0.238v0.408c0,0.133-0.108,0.24-0.24,0.24h-1.295v4.186c0,0.658,0.168,0.756,0.646,0.756h0.674
			c0.168,0,0.252,0.047,0.252,0.168v0.42C121.627,259.188,121.567,259.261,121.411,259.283z"/>
		<path fill="#002C5F" d="M127.603,256.298h-4.019v0.168c0,1.428,0.562,1.955,1.668,1.955c0.693,0,1.582-0.05,2.135-0.134
			c0.021,0,0.035,0,0.062,0c0.096,0,0.19,0.05,0.19,0.168v0.408c0,0.156-0.049,0.24-0.239,0.275
			c-0.685,0.133-1.345,0.205-2.146,0.205c-1.379,0-2.723-0.648-2.723-2.879v-1.08c0-1.715,0.947-2.808,2.662-2.808
			c1.752,0,2.639,1.104,2.639,2.808v0.647C127.831,256.19,127.747,256.298,127.603,256.298z M126.764,255.386
			c0-1.354-0.516-1.884-1.571-1.884c-1.031,0-1.605,0.589-1.605,1.884v0.108h3.178L126.764,255.386L126.764,255.386z"/>
		<path fill="#002C5F" d="M134.131,256.298h-4.02v0.168c0,1.428,0.562,1.955,1.666,1.955c0.694,0,1.584-0.05,2.137-0.134
			c0.023,0,0.035,0,0.061,0c0.097,0,0.191,0.05,0.191,0.168v0.408c0,0.156-0.049,0.24-0.24,0.275
			c-0.686,0.133-1.342,0.205-2.146,0.205c-1.379,0-2.724-0.648-2.724-2.879v-1.08c0-1.715,0.947-2.808,2.662-2.808
			c1.752,0,2.64,1.104,2.64,2.808v0.647C134.358,256.19,134.274,256.298,134.131,256.298z M133.291,255.386
			c0-1.354-0.518-1.884-1.572-1.884c-1.03,0-1.604,0.589-1.604,1.884v0.108h3.178L133.291,255.386L133.291,255.386z"/>
		<path fill="#002C5F" d="M138.512,253.49c-0.553,0-1.057,0.146-1.655,0.504v5.025c0,0.119-0.107,0.24-0.238,0.24h-0.588
			c-0.121,0-0.229-0.107-0.229-0.24v-6.117c0-0.131,0.097-0.238,0.229-0.238h0.562c0.134,0,0.229,0.107,0.229,0.238v0.252
			c0.6-0.42,1.149-0.574,1.69-0.574c0.168,0,0.252,0.07,0.252,0.216v0.491C138.764,253.418,138.68,253.49,138.512,253.49z"/>
		<path fill="#002C5F" d="M140.877,251.609h-0.613c-0.131,0-0.237-0.107-0.237-0.24v-0.959c0-0.133,0.106-0.239,0.237-0.239h0.613
			c0.131,0,0.238,0.106,0.238,0.239v0.959C141.116,251.5,141.008,251.609,140.877,251.609z M140.853,259.261h-0.574
			c-0.133,0-0.24-0.107-0.24-0.24v-6.115c0-0.133,0.107-0.24,0.24-0.24h0.574c0.133,0,0.239,0.107,0.239,0.24v6.115
			C141.092,259.152,140.985,259.261,140.853,259.261z"/>
		<path fill="#002C5F" d="M147.678,259.261h-0.575c-0.132,0-0.238-0.107-0.238-0.24v-3.943c0-1.213-0.408-1.584-1.32-1.584
			c-0.504,0-1.065,0.189-1.619,0.467v5.062c0,0.119-0.106,0.24-0.24,0.24h-0.586c-0.12,0-0.229-0.107-0.229-0.24v-6.117
			c0-0.131,0.096-0.238,0.229-0.238h0.601c0.133,0,0.229,0.107,0.229,0.238v0.229c0.66-0.371,1.199-0.552,1.906-0.552
			c1.439,0,2.088,0.898,2.088,2.494v3.945C147.918,259.152,147.812,259.261,147.678,259.261z"/>
		<path fill="#002C5F" d="M154.793,253.468l-0.432,0.084c0.215,0.229,0.405,0.588,0.405,1.233v0.099
			c0,1.317-0.813,2.051-2.661,2.051c-0.636,0-1.044-0.099-1.392-0.238c-0.205,0.097-0.301,0.228-0.301,0.406
			c0,0.203,0.096,0.312,0.371,0.385l1.787,0.453c1.176,0.303,2.305,0.639,2.305,1.766v0.097c0,1.149-0.77,1.858-2.734,1.858
			c-1.896,0-2.76-0.731-2.76-1.907v-0.107c0-0.672,0.359-1.223,0.756-1.521l-0.084-0.036c-0.383-0.168-0.551-0.564-0.551-0.937
			v-0.012c0-0.324,0.154-0.672,0.49-0.863c-0.371-0.348-0.551-0.779-0.551-1.393v-0.097c0-1.065,0.6-2.122,2.661-2.122h2.627
			c0.146,0,0.275,0.12,0.275,0.264v0.312C155.01,253.396,154.926,253.443,154.793,253.468z M153.823,259.703
			c0-0.467-0.383-0.66-1.463-0.936l-1.355-0.348c-0.348,0.299-0.588,0.6-0.588,1.223v0.106c0,0.673,0.396,1.093,1.729,1.093
			c1.366,0,1.678-0.384,1.678-1.043L153.823,259.703L153.823,259.703z M153.728,254.785c0-0.719-0.324-1.283-1.619-1.283
			c-1.345,0-1.619,0.613-1.619,1.283v0.099c0,0.526,0.24,1.223,1.619,1.223c1.295,0,1.619-0.504,1.619-1.223V254.785z"/>
		<path fill="#002C5F" d="M43.565,277.261h-0.588c-0.134,0-0.24-0.107-0.24-0.24v-7.111c0-0.022,0-0.035-0.013-0.035
			c-0.012,0-0.012,0-0.022,0.023l-1.715,3.551c-0.121,0.238-0.24,0.349-0.541,0.349h-0.552c-0.301,0-0.42-0.107-0.541-0.349
			l-1.715-3.551c-0.012-0.023-0.012-0.023-0.022-0.023c-0.012,0-0.013,0.013-0.013,0.035v7.111c0,0.133-0.106,0.24-0.239,0.24
			h-0.588c-0.132,0-0.24-0.107-0.24-0.24v-8.322c0-0.19,0.156-0.35,0.35-0.35h0.779c0.215,0,0.311,0.049,0.383,0.205l1.979,4.112
			c0.05,0.107,0.084,0.134,0.146,0.134s0.096-0.023,0.146-0.134l1.979-4.112c0.07-0.156,0.168-0.205,0.383-0.205h0.779
			c0.19,0,0.35,0.155,0.35,0.35v8.322C43.805,277.152,43.696,277.261,43.565,277.261z"/>
		<path fill="#002C5F" d="M50.405,274.298h-4.019v0.168c0,1.428,0.562,1.955,1.668,1.955c0.695,0,1.582-0.05,2.136-0.134
			c0.022,0,0.034,0,0.061,0c0.096,0,0.191,0.05,0.191,0.168v0.408c0,0.156-0.05,0.24-0.24,0.275
			c-0.685,0.133-1.344,0.205-2.146,0.205c-1.379,0-2.723-0.648-2.723-2.879v-1.08c0-1.715,0.947-2.808,2.662-2.808
			c1.752,0,2.639,1.104,2.639,2.808v0.647C50.633,274.19,50.549,274.298,50.405,274.298z M49.567,273.386
			c0-1.354-0.517-1.884-1.572-1.884c-1.031,0-1.605,0.589-1.605,1.884v0.108h3.179L49.567,273.386L49.567,273.386z"/>
		<path fill="#002C5F" d="M59.776,277.261H59.2c-0.131,0-0.238-0.107-0.238-0.24v-4.244c0-1.01-0.469-1.283-1.092-1.283
			c-0.432,0-0.936,0.146-1.404,0.322c0.072,0.266,0.107,0.576,0.107,0.938v4.271c0,0.119-0.084,0.24-0.215,0.24h-0.638
			c-0.118,0-0.202-0.107-0.202-0.24v-4.271c0-1.043-0.3-1.26-0.925-1.26c-0.434,0-0.959,0.217-1.463,0.467v5.062
			c0,0.119-0.084,0.24-0.215,0.24h-0.639c-0.119,0-0.203-0.107-0.203-0.24v-6.117c0-0.131,0.098-0.238,0.229-0.238h0.601
			c0.133,0,0.229,0.107,0.229,0.238v0.229c0.48-0.3,1.092-0.562,1.752-0.562c0.517,0,0.898,0.146,1.199,0.49
			c0.658-0.312,1.367-0.49,1.99-0.49c1.08,0,1.942,0.539,1.942,2.205v4.246C60.016,277.152,59.909,277.261,59.776,277.261z"/>
		<path fill="#002C5F" d="M64.11,277.345c-0.72,0-1.463-0.062-2.207-0.205c-0.215-0.035-0.252-0.105-0.252-0.273v-8.396
			c0-0.121,0.084-0.229,0.217-0.229h0.611c0.12,0,0.229,0.097,0.229,0.229v2.229c0.455-0.084,1.021-0.119,1.402-0.119
			c1.739,0,2.614,1.056,2.614,2.938v0.863C66.725,276.181,65.909,277.345,64.11,277.345z M65.67,273.519
			c0-1.281-0.387-2.017-1.561-2.017c-0.373,0-1.009,0.015-1.402,0.084v4.763c0.406,0.037,0.994,0.072,1.402,0.072
			c1.188,0,1.561-0.732,1.561-2.039V273.519z"/>
		<path fill="#002C5F" d="M73,274.298h-4.02v0.168c0,1.428,0.563,1.955,1.668,1.955c0.694,0,1.582-0.05,2.135-0.134
			c0.022,0,0.035,0,0.061,0c0.097,0,0.193,0.05,0.193,0.168v0.408c0,0.156-0.051,0.24-0.24,0.275
			c-0.686,0.133-1.344,0.205-2.146,0.205c-1.381,0-2.724-0.648-2.724-2.879v-1.08c0-1.715,0.947-2.808,2.662-2.808
			c1.75,0,2.64,1.104,2.64,2.808v0.647C73.229,274.19,73.146,274.298,73,274.298z M72.161,273.386c0-1.354-0.518-1.884-1.57-1.884
			c-1.031,0-1.606,0.589-1.606,1.884v0.108h3.18v-0.108H72.161z"/>
		<path fill="#002C5F" d="M77.381,271.49c-0.551,0-1.057,0.146-1.653,0.504v5.025c0,0.119-0.107,0.24-0.24,0.24h-0.588
			c-0.119,0-0.229-0.107-0.229-0.24v-6.117c0-0.131,0.099-0.238,0.229-0.238h0.563c0.131,0,0.228,0.107,0.228,0.238v0.252
			c0.602-0.42,1.151-0.574,1.69-0.574c0.168,0,0.252,0.07,0.252,0.216v0.491C77.633,271.418,77.549,271.49,77.381,271.49z"/>
		<path fill="#002C5F" d="M84.187,277.345c-1.765,0-2.662-1.164-2.662-2.927v-0.911c0-1.765,0.897-2.927,2.662-2.927
			c1.764,0,2.674,1.162,2.674,2.927v0.911C86.86,276.181,85.95,277.345,84.187,277.345z M85.805,273.507
			c0-1.224-0.491-2.005-1.618-2.005c-1.115,0-1.607,0.769-1.607,2.005v0.911c0,1.224,0.479,2.002,1.607,2.002
			c1.114,0,1.618-0.768,1.618-2.002V273.507z"/>
		<path fill="#002C5F" d="M91.278,268.974h-0.576c-0.562,0-0.73,0.168-0.73,0.826v0.864h1.259c0.133,0,0.229,0.097,0.229,0.215v0.47
			c0,0.119-0.098,0.203-0.229,0.203h-1.259v5.469c0,0.119-0.108,0.24-0.229,0.24h-0.588c-0.133,0-0.24-0.121-0.24-0.24v-5.469
			l-1.162-0.134c-0.133-0.012-0.229-0.096-0.229-0.215v-0.324c0-0.118,0.096-0.215,0.229-0.215h1.162V269.8
			c0-1.283,0.625-1.666,1.68-1.666c0.324,0,0.517,0.034,0.672,0.071c0.132,0.035,0.228,0.084,0.228,0.191v0.396
			C91.493,268.925,91.409,268.974,91.278,268.974z"/>
		<path fill="#002C5F" d="M98.045,277.345c-0.791,0-1.5-0.037-1.955-0.107c-0.274-0.035-0.396-0.145-0.396-0.442v-7.988
			c0-0.273,0.131-0.418,0.383-0.441c0.396-0.049,1.129-0.098,1.906-0.098c1.907,0,3.516,0.504,3.516,2.313v0.193
			c0,0.887-0.469,1.568-1.283,1.883c0.828,0.287,1.332,1.021,1.332,1.941v0.203C101.547,276.816,99.916,277.345,98.045,277.345z
			 M100.409,270.58c0-1.151-0.961-1.393-2.424-1.393c-0.408,0-0.853,0.022-1.188,0.035v2.977h1.849c1.391,0,1.764-0.672,1.764-1.428
			V270.58L100.409,270.58z M100.456,274.599c0-0.793-0.396-1.521-1.812-1.521h-1.846v3.297c0.396,0.013,0.826,0.05,1.246,0.05
			c1.486,0,2.41-0.324,2.41-1.619V274.6L100.456,274.599L100.456,274.599z"/>
		<path fill="#002C5F" d="M107.786,277.261h-0.6c-0.132,0-0.228-0.107-0.228-0.24v-0.229c-0.66,0.373-1.199,0.554-1.908,0.554
			c-1.438,0-2.086-0.898-2.086-2.494v-3.945c0-0.133,0.107-0.24,0.24-0.24h0.574c0.133,0,0.239,0.107,0.239,0.24v3.945
			c0,1.211,0.408,1.582,1.32,1.582c0.502,0,1.064-0.189,1.619-0.468v-5.062c0-0.119,0.105-0.238,0.238-0.238h0.586
			c0.121,0,0.229,0.107,0.229,0.238v6.117C108.016,277.152,107.92,277.261,107.786,277.261z"/>
		<path fill="#002C5F" d="M111.582,277.345c-0.445,0-1.311-0.037-1.896-0.181c-0.156-0.037-0.253-0.108-0.253-0.239v-0.42
			c0-0.107,0.097-0.181,0.216-0.181c0.022,0,0.037,0,0.049,0c0.574,0.07,1.451,0.131,1.885,0.131c0.777,0,1.188-0.203,1.188-0.852
			c0-0.359-0.218-0.588-0.9-0.994l-1.211-0.721c-0.732-0.443-1.226-0.959-1.226-1.715c0-1.248,0.937-1.597,2.173-1.597
			c0.672,0,1.307,0.062,1.87,0.154c0.156,0.025,0.229,0.109,0.229,0.24v0.396c0,0.146-0.084,0.203-0.205,0.203
			c-0.012,0-0.022,0-0.035,0c-0.42-0.035-1.188-0.096-1.858-0.096c-0.67,0-1.115,0.084-1.115,0.694c0,0.359,0.275,0.589,0.828,0.912
			l1.188,0.707c0.996,0.588,1.318,1.104,1.318,1.812C113.825,276.828,112.924,277.345,111.582,277.345z"/>
		<path fill="#002C5F" d="M116.213,269.609h-0.61c-0.132,0-0.24-0.107-0.24-0.24v-0.959c0-0.133,0.108-0.239,0.24-0.239h0.61
			c0.133,0,0.238,0.106,0.238,0.239v0.959C116.452,269.5,116.346,269.609,116.213,269.609z M116.19,277.261h-0.576
			c-0.131,0-0.238-0.107-0.238-0.24v-6.115c0-0.133,0.107-0.24,0.238-0.24h0.576c0.133,0,0.239,0.107,0.239,0.24v6.115
			C116.43,277.152,116.323,277.261,116.19,277.261z"/>
		<path fill="#002C5F" d="M123.016,277.261h-0.575c-0.131,0-0.24-0.107-0.24-0.24v-3.943c0-1.213-0.406-1.584-1.318-1.584
			c-0.504,0-1.065,0.189-1.619,0.467v5.062c0,0.119-0.106,0.24-0.239,0.24h-0.589c-0.118,0-0.227-0.107-0.227-0.24v-6.117
			c0-0.131,0.096-0.238,0.227-0.238h0.601c0.135,0,0.229,0.107,0.229,0.238v0.229c0.66-0.371,1.199-0.552,1.906-0.552
			c1.438,0,2.088,0.898,2.088,2.494v3.945C123.256,277.152,123.147,277.261,123.016,277.261z"/>
		<path fill="#002C5F" d="M129.748,274.298h-4.021v0.168c0,1.428,0.562,1.955,1.666,1.955c0.695,0,1.584-0.05,2.136-0.134
			c0.024,0,0.037,0,0.062,0c0.097,0,0.189,0.05,0.189,0.168v0.408c0,0.156-0.047,0.24-0.238,0.275
			c-0.686,0.133-1.344,0.205-2.146,0.205c-1.38,0-2.724-0.648-2.724-2.879v-1.08c0-1.715,0.947-2.808,2.662-2.808
			c1.752,0,2.639,1.104,2.639,2.808v0.647C129.975,274.19,129.891,274.298,129.748,274.298z M128.909,273.386
			c0-1.354-0.516-1.884-1.57-1.884c-1.031,0-1.606,0.589-1.606,1.884v0.108h3.178L128.909,273.386L128.909,273.386z"/>
		<path fill="#002C5F" d="M133.35,277.345c-0.444,0-1.309-0.037-1.896-0.181c-0.154-0.037-0.252-0.108-0.252-0.239v-0.42
			c0-0.107,0.098-0.181,0.217-0.181c0.021,0,0.035,0,0.049,0c0.574,0.07,1.451,0.131,1.883,0.131c0.779,0,1.188-0.203,1.188-0.852
			c0-0.359-0.217-0.588-0.9-0.994l-1.211-0.721c-0.731-0.443-1.225-0.959-1.225-1.715c0-1.248,0.938-1.597,2.172-1.597
			c0.672,0,1.307,0.062,1.871,0.154c0.156,0.025,0.229,0.109,0.229,0.24v0.396c0,0.146-0.084,0.203-0.205,0.203
			c-0.012,0-0.021,0-0.034,0c-0.42-0.035-1.188-0.096-1.857-0.096c-0.672,0-1.115,0.084-1.115,0.694
			c0,0.359,0.275,0.589,0.826,0.912l1.188,0.707c0.995,0.588,1.319,1.104,1.319,1.812
			C135.592,276.828,134.692,277.345,133.35,277.345z"/>
		<path fill="#002C5F" d="M138.942,277.345c-0.443,0-1.31-0.037-1.896-0.181c-0.154-0.037-0.252-0.108-0.252-0.239v-0.42
			c0-0.107,0.098-0.181,0.217-0.181c0.021,0,0.035,0,0.049,0c0.574,0.07,1.451,0.131,1.884,0.131c0.778,0,1.188-0.203,1.188-0.852
			c0-0.359-0.217-0.588-0.899-0.994l-1.211-0.721c-0.732-0.443-1.224-0.959-1.224-1.715c0-1.248,0.937-1.597,2.17-1.597
			c0.672,0,1.308,0.062,1.871,0.154c0.156,0.025,0.229,0.109,0.229,0.24v0.396c0,0.146-0.084,0.203-0.205,0.203
			c-0.013,0-0.021,0-0.035,0c-0.42-0.035-1.188-0.096-1.857-0.096c-0.672,0-1.115,0.084-1.115,0.694
			c0,0.359,0.275,0.589,0.826,0.912l1.188,0.707c0.996,0.588,1.319,1.104,1.319,1.812
			C141.185,276.828,140.284,277.345,138.942,277.345z"/>
		<path fill="#002C5F" d="M146.536,269.609h-0.609c-0.133,0-0.239-0.107-0.239-0.24v-0.959c0-0.133,0.106-0.239,0.239-0.239h0.609
			c0.133,0,0.24,0.106,0.24,0.239v0.959C146.778,269.5,146.668,269.609,146.536,269.609z M146.514,277.261h-0.575
			c-0.134,0-0.24-0.107-0.24-0.24v-6.115c0-0.133,0.106-0.24,0.24-0.24h0.575c0.132,0,0.238,0.107,0.238,0.24v6.115
			C146.752,277.152,146.646,277.261,146.514,277.261z"/>
		<path fill="#002C5F" d="M153.338,277.261h-0.574c-0.133,0-0.239-0.107-0.239-0.24v-3.943c0-1.213-0.408-1.584-1.318-1.584
			c-0.506,0-1.068,0.189-1.619,0.467v5.062c0,0.119-0.108,0.24-0.24,0.24h-0.588c-0.121,0-0.229-0.107-0.229-0.24v-6.117
			c0-0.131,0.096-0.238,0.229-0.238h0.601c0.131,0,0.229,0.107,0.229,0.238v0.229c0.658-0.371,1.199-0.552,1.906-0.552
			c1.438,0,2.086,0.898,2.086,2.494v3.945C153.577,277.152,153.471,277.261,153.338,277.261z"/>
		<path fill="#002C5F" d="M58.967,291.685c-0.237,0.035-0.551,0.061-0.778,0.061c-1.104,0-1.632-0.287-1.632-1.604v-4.188
			l-1.161-0.131c-0.134-0.014-0.229-0.084-0.229-0.217v-0.322c0-0.135,0.096-0.219,0.229-0.219h1.161v-1.174
			c0-0.121,0.084-0.217,0.218-0.24l0.623-0.096c0.012,0,0.022,0,0.034,0c0.099,0,0.183,0.084,0.183,0.203v1.307h1.295
			c0.133,0,0.24,0.109,0.24,0.24v0.407c0,0.132-0.107,0.24-0.24,0.24h-1.295v4.187c0,0.659,0.168,0.756,0.646,0.756h0.672
			c0.168,0,0.252,0.047,0.252,0.168v0.42C59.185,291.588,59.123,291.66,58.967,291.685z"/>
		<path fill="#002C5F" d="M65.112,291.66h-0.576c-0.131,0-0.238-0.108-0.238-0.24v-3.944c0-1.201-0.504-1.57-1.285-1.57
			c-0.37,0-1.127,0.096-1.653,0.336v5.183c0,0.118-0.105,0.237-0.24,0.237h-0.588c-0.119,0-0.228-0.106-0.228-0.237v-8.541
			c0-0.132,0.097-0.238,0.228-0.238h0.602c0.134,0,0.229,0.106,0.229,0.238v2.471c0.576-0.252,1.317-0.371,1.834-0.371
			c1.271,0,2.16,0.732,2.16,2.494v3.947C65.353,291.552,65.243,291.66,65.112,291.66z"/>
		<path fill="#002C5F" d="M71.844,288.697h-4.02v0.168c0,1.428,0.562,1.955,1.666,1.955c0.694,0,1.584-0.049,2.137-0.133
			c0.023,0,0.037,0,0.062,0c0.096,0,0.19,0.049,0.19,0.168v0.408c0,0.156-0.047,0.24-0.24,0.274
			c-0.686,0.134-1.342,0.203-2.146,0.203c-1.379,0-2.723-0.646-2.723-2.877v-1.08c0-1.715,0.946-2.809,2.661-2.809
			c1.752,0,2.64,1.104,2.64,2.809v0.646C72.071,288.591,71.987,288.697,71.844,288.697z M71.004,287.785
			c0-1.354-0.518-1.883-1.572-1.883c-1.03,0-1.604,0.588-1.604,1.883v0.107h3.178L71.004,287.785L71.004,287.785z"/>
		<path fill="#002C5F" d="M81.539,291.588c-0.506,0.097-0.973,0.156-1.992,0.156c-1.477,0-3.166-0.793-3.166-3.707v-1.666
			c0-2.938,1.689-3.707,3.166-3.707c0.756,0,1.486,0.107,2.017,0.191c0.106,0.014,0.19,0.049,0.19,0.156v0.61
			c0,0.072-0.022,0.134-0.145,0.134c-0.013,0-0.023,0-0.037,0c-0.433-0.037-1.316-0.107-2.015-0.107
			c-1.176,0-2.088,0.684-2.088,2.723v1.666c0,2.017,0.912,2.724,2.088,2.724c0.687,0,1.548-0.062,1.98-0.097
			c0.012,0,0.033,0,0.047,0c0.133,0,0.191,0.062,0.191,0.191v0.492C81.78,291.492,81.67,291.565,81.539,291.588z"/>
		<path fill="#002C5F" d="M85.344,291.744c-1.764,0-2.662-1.164-2.662-2.928v-0.91c0-1.764,0.898-2.928,2.662-2.928
			c1.765,0,2.675,1.164,2.675,2.928v0.91C88.019,290.58,87.108,291.744,85.344,291.744z M86.963,287.906
			c0-1.225-0.492-2.004-1.619-2.004c-1.114,0-1.606,0.768-1.606,2.004v0.91c0,1.225,0.479,2.004,1.606,2.004
			c1.115,0,1.619-0.768,1.619-2.004V287.906z"/>
		<path fill="#002C5F" d="M97.137,291.66h-0.575c-0.132,0-0.238-0.108-0.238-0.24v-4.245c0-1.009-0.469-1.283-1.092-1.283
			c-0.433,0-0.937,0.145-1.404,0.324c0.072,0.264,0.109,0.575,0.109,0.936v4.271c0,0.119-0.084,0.238-0.218,0.238h-0.635
			c-0.121,0-0.205-0.106-0.205-0.238v-4.271c0-1.043-0.299-1.26-0.924-1.26c-0.432,0-0.961,0.217-1.463,0.467v5.062
			c0,0.119-0.084,0.24-0.217,0.24H89.64c-0.12,0-0.204-0.108-0.204-0.24v-6.116c0-0.132,0.096-0.24,0.229-0.24h0.6
			c0.132,0,0.228,0.108,0.228,0.24v0.229c0.479-0.303,1.092-0.563,1.752-0.563c0.516,0,0.897,0.145,1.199,0.491
			c0.659-0.312,1.366-0.491,1.989-0.491c1.08,0,1.943,0.538,1.943,2.206v4.246C97.377,291.552,97.271,291.66,97.137,291.66z"/>
		<path fill="#002C5F" d="M106.713,291.66h-0.576c-0.131,0-0.239-0.108-0.239-0.24v-4.245c0-1.009-0.468-1.283-1.091-1.283
			c-0.432,0-0.936,0.145-1.403,0.324c0.072,0.264,0.106,0.575,0.106,0.936v4.271c0,0.119-0.084,0.238-0.215,0.238h-0.637
			c-0.119,0-0.203-0.106-0.203-0.238v-4.271c0-1.043-0.301-1.26-0.926-1.26c-0.433,0-0.959,0.217-1.463,0.467v5.062
			c0,0.119-0.084,0.24-0.216,0.24h-0.637c-0.119,0-0.203-0.108-0.203-0.24v-6.116c0-0.132,0.096-0.24,0.229-0.24h0.6
			c0.133,0,0.229,0.108,0.229,0.24v0.229c0.479-0.303,1.092-0.563,1.752-0.563c0.516,0,0.897,0.145,1.198,0.491
			c0.658-0.312,1.367-0.491,1.99-0.491c1.08,0,1.941,0.538,1.941,2.206v4.246C106.952,291.552,106.846,291.66,106.713,291.66z"/>
		<path fill="#002C5F" d="M113.411,291.66h-0.6c-0.134,0-0.229-0.108-0.229-0.24v-0.229c-0.658,0.371-1.199,0.553-1.906,0.553
			c-1.438,0-2.088-0.899-2.088-2.496v-3.944c0-0.131,0.107-0.24,0.24-0.24h0.574c0.135,0,0.239,0.109,0.239,0.24v3.944
			c0,1.213,0.408,1.584,1.32,1.584c0.502,0,1.066-0.19,1.619-0.469v-5.061c0-0.121,0.107-0.24,0.238-0.24h0.588
			c0.119,0,0.229,0.107,0.229,0.24v6.117C113.639,291.552,113.543,291.66,113.411,291.66z"/>
		<path fill="#002C5F" d="M120.082,291.66h-0.576c-0.131,0-0.237-0.108-0.237-0.24v-3.944c0-1.213-0.408-1.584-1.32-1.584
			c-0.504,0-1.066,0.19-1.619,0.467v5.062c0,0.119-0.107,0.24-0.24,0.24h-0.586c-0.121,0-0.229-0.108-0.229-0.24v-6.116
			c0-0.131,0.096-0.24,0.229-0.24h0.6c0.132,0,0.229,0.109,0.229,0.24v0.229c0.658-0.373,1.197-0.555,1.906-0.555
			c1.438,0,2.086,0.9,2.086,2.496v3.944C120.323,291.552,120.215,291.66,120.082,291.66z"/>
		<path fill="#002C5F" d="M122.928,284.009h-0.61c-0.131,0-0.24-0.107-0.24-0.24v-0.959c0-0.133,0.109-0.238,0.24-0.238h0.61
			c0.134,0,0.24,0.105,0.24,0.238v0.959C123.168,283.9,123.062,284.009,122.928,284.009z M122.905,291.66h-0.574
			c-0.133,0-0.24-0.108-0.24-0.24v-6.116c0-0.131,0.107-0.24,0.24-0.24h0.574c0.133,0,0.24,0.109,0.24,0.24v6.116
			C123.146,291.552,123.036,291.66,122.905,291.66z"/>
		<path fill="#002C5F" d="M128.207,291.685c-0.24,0.035-0.553,0.061-0.779,0.061c-1.104,0-1.631-0.287-1.631-1.604v-4.188
			l-1.164-0.131c-0.131-0.014-0.229-0.084-0.229-0.217v-0.322c0-0.135,0.098-0.219,0.229-0.219h1.164v-1.174
			c0-0.121,0.084-0.217,0.215-0.24l0.625-0.096c0.013,0,0.023,0,0.035,0c0.097,0,0.181,0.084,0.181,0.203v1.307h1.295
			c0.133,0,0.239,0.109,0.239,0.24v0.407c0,0.132-0.106,0.24-0.239,0.24h-1.295v4.187c0,0.659,0.168,0.756,0.647,0.756h0.672
			c0.168,0,0.252,0.047,0.252,0.168v0.42C128.424,291.588,128.364,291.66,128.207,291.685z"/>
		<path fill="#002C5F" d="M134.651,285.353l-1.979,6.908c-0.373,1.295-0.815,1.772-2.194,1.772c-0.337,0-0.757-0.047-1.009-0.106
			c-0.145-0.035-0.252-0.072-0.252-0.189v-0.445c0-0.131,0.097-0.19,0.229-0.19c0.012,0,0.022,0,0.035,0
			c0.264,0.025,0.805,0.072,1.067,0.072c0.685,0,0.982-0.181,1.188-1.021l0.119-0.492h-0.168c-0.359,0-0.673-0.084-0.888-0.825
			l-1.598-5.482c-0.013-0.023-0.013-0.059-0.013-0.084c0-0.119,0.072-0.203,0.218-0.203h0.657c0.097,0,0.181,0.096,0.205,0.191
			l1.414,5.205c0.062,0.239,0.146,0.264,0.229,0.264h0.19l1.464-5.48c0.024-0.096,0.12-0.18,0.229-0.18h0.672
			c0.119,0,0.189,0.084,0.189,0.203C134.661,285.291,134.661,285.326,134.651,285.353z"/>
		<path fill="#002C5F" d="M46.856,309.588c-0.504,0.097-0.974,0.156-1.992,0.156c-1.476,0-3.166-0.793-3.166-3.707v-1.666
			c0-2.938,1.69-3.707,3.166-3.707c0.756,0,1.488,0.107,2.016,0.191c0.107,0.014,0.191,0.049,0.191,0.156v0.61
			c0,0.072-0.023,0.134-0.144,0.134c-0.014,0-0.024,0-0.037,0c-0.432-0.037-1.317-0.107-2.014-0.107
			c-1.178,0-2.088,0.684-2.088,2.723v1.666c0,2.017,0.91,2.724,2.088,2.724c0.685,0,1.547-0.062,1.979-0.097
			c0.012,0,0.034,0,0.047,0c0.133,0,0.192,0.062,0.192,0.191v0.492C47.096,309.492,46.987,309.565,46.856,309.588z"/>
		<path fill="#002C5F" d="M50.661,309.744c-1.764,0-2.662-1.164-2.662-2.928v-0.91c0-1.764,0.898-2.928,2.662-2.928
			s2.676,1.164,2.676,2.928v0.91C53.334,308.58,52.424,309.744,50.661,309.744z M52.28,305.906c0-1.225-0.49-2.004-1.619-2.004
			c-1.115,0-1.605,0.768-1.605,2.004v0.91c0,1.225,0.479,2.004,1.605,2.004c1.115,0,1.619-0.768,1.619-2.004V305.906z"/>
		<path fill="#002C5F" d="M62.452,309.66h-0.574c-0.133,0-0.238-0.108-0.238-0.24v-4.245c0-1.009-0.469-1.283-1.092-1.283
			c-0.434,0-0.938,0.145-1.403,0.324c0.071,0.264,0.108,0.575,0.108,0.936v4.271c0,0.119-0.084,0.238-0.219,0.238h-0.635
			c-0.119,0-0.203-0.106-0.203-0.238v-4.271c0-1.043-0.301-1.26-0.924-1.26c-0.433,0-0.961,0.217-1.463,0.467v5.062
			c0,0.119-0.084,0.24-0.218,0.24h-0.635c-0.121,0-0.205-0.108-0.205-0.24v-6.116c0-0.132,0.096-0.24,0.229-0.24h0.602
			c0.131,0,0.227,0.108,0.227,0.24v0.229c0.48-0.303,1.093-0.563,1.753-0.563c0.516,0,0.897,0.145,1.198,0.491
			c0.66-0.312,1.367-0.491,1.99-0.491c1.078,0,1.941,0.538,1.941,2.206v4.246C62.694,309.552,62.586,309.66,62.452,309.66z"/>
		<path fill="#002C5F" d="M72.03,309.66h-0.576c-0.131,0-0.238-0.108-0.238-0.24v-4.245c0-1.009-0.469-1.283-1.092-1.283
			c-0.432,0-0.936,0.145-1.404,0.324c0.072,0.264,0.107,0.575,0.107,0.936v4.271c0,0.119-0.084,0.238-0.215,0.238h-0.638
			c-0.118,0-0.202-0.106-0.202-0.238v-4.271c0-1.043-0.3-1.26-0.925-1.26c-0.432,0-0.959,0.217-1.463,0.467v5.062
			c0,0.119-0.084,0.24-0.215,0.24h-0.639c-0.119,0-0.203-0.108-0.203-0.24v-6.116c0-0.132,0.098-0.24,0.229-0.24h0.601
			c0.133,0,0.229,0.108,0.229,0.24v0.229c0.48-0.303,1.092-0.563,1.752-0.563c0.517,0,0.898,0.145,1.199,0.491
			c0.658-0.312,1.367-0.491,1.99-0.491c1.08,0,1.942,0.538,1.942,2.206v4.246C72.271,309.552,72.161,309.66,72.03,309.66z"/>
		<path fill="#002C5F" d="M78.728,309.66h-0.601c-0.133,0-0.229-0.108-0.229-0.24v-0.229c-0.66,0.371-1.201,0.553-1.908,0.553
			c-1.438,0-2.086-0.899-2.086-2.496v-3.944c0-0.131,0.106-0.24,0.237-0.24h0.576c0.133,0,0.24,0.109,0.24,0.24v3.944
			c0,1.213,0.408,1.584,1.318,1.584c0.504,0,1.067-0.19,1.619-0.469v-5.061c0-0.121,0.108-0.24,0.239-0.24h0.588
			c0.119,0,0.229,0.107,0.229,0.24v6.117C78.956,309.552,78.86,309.66,78.728,309.66z"/>
		<path fill="#002C5F" d="M85.399,309.66h-0.576c-0.131,0-0.238-0.108-0.238-0.24v-3.944c0-1.213-0.408-1.584-1.32-1.584
			c-0.504,0-1.065,0.19-1.618,0.467v5.062c0,0.119-0.107,0.24-0.24,0.24H80.82c-0.121,0-0.229-0.108-0.229-0.24v-6.116
			c0-0.131,0.097-0.24,0.229-0.24h0.6c0.133,0,0.229,0.109,0.229,0.24v0.229c0.659-0.373,1.198-0.555,1.905-0.555
			c1.439,0,2.089,0.9,2.089,2.496v3.944C85.639,309.552,85.532,309.66,85.399,309.66z"/>
		<path fill="#002C5F" d="M88.245,302.009h-0.611c-0.131,0-0.24-0.107-0.24-0.24v-0.959c0-0.133,0.109-0.238,0.24-0.238h0.611
			c0.133,0,0.238,0.105,0.238,0.238v0.959C88.485,301.9,88.377,302.009,88.245,302.009z M88.221,309.66h-0.575
			c-0.132,0-0.24-0.108-0.24-0.24v-6.116c0-0.131,0.108-0.24,0.24-0.24h0.575c0.134,0,0.24,0.109,0.24,0.24v6.116
			C88.461,309.552,88.354,309.66,88.221,309.66z"/>
		<path fill="#002C5F" d="M93.524,309.685c-0.24,0.035-0.552,0.061-0.779,0.061c-1.104,0-1.631-0.287-1.631-1.604v-4.188
			l-1.164-0.131c-0.131-0.014-0.229-0.084-0.229-0.217v-0.322c0-0.135,0.099-0.219,0.229-0.219h1.164v-1.174
			c0-0.121,0.084-0.217,0.215-0.24l0.625-0.096c0.012,0,0.023,0,0.035,0c0.096,0,0.18,0.084,0.18,0.203v1.307h1.297
			c0.131,0,0.238,0.109,0.238,0.24v0.407c0,0.132-0.107,0.24-0.238,0.24h-1.297v4.187c0,0.659,0.168,0.756,0.648,0.756h0.672
			c0.168,0,0.252,0.047,0.252,0.168v0.42C93.741,309.588,93.68,309.66,93.524,309.685z"/>
		<path fill="#002C5F" d="M99.967,303.353l-1.979,6.908c-0.371,1.295-0.814,1.772-2.193,1.772c-0.336,0-0.756-0.047-1.01-0.106
			c-0.144-0.035-0.252-0.072-0.252-0.189v-0.445c0-0.131,0.098-0.19,0.229-0.19c0.013,0,0.021,0,0.035,0
			c0.264,0.025,0.805,0.072,1.066,0.072c0.686,0,0.983-0.181,1.188-1.021l0.119-0.492h-0.168c-0.359,0-0.672-0.084-0.889-0.825
			l-1.597-5.482c-0.012-0.023-0.012-0.059-0.012-0.084c0-0.119,0.072-0.203,0.217-0.203h0.658c0.096,0,0.18,0.096,0.205,0.191
			L97,308.463c0.061,0.239,0.146,0.264,0.229,0.264h0.19l1.463-5.48c0.023-0.096,0.121-0.18,0.229-0.18h0.672
			c0.119,0,0.19,0.084,0.19,0.203C99.979,303.291,99.979,303.326,99.967,303.353z"/>
		<path fill="#002C5F" d="M106.94,303.892c-0.552,0-1.056,0.145-1.654,0.504v5.025c0,0.118-0.107,0.239-0.24,0.239h-0.588
			c-0.119,0-0.229-0.108-0.229-0.239v-6.117c0-0.131,0.096-0.24,0.229-0.24h0.562c0.133,0,0.229,0.109,0.229,0.24v0.252
			c0.6-0.42,1.152-0.576,1.691-0.576c0.168,0,0.252,0.072,0.252,0.219v0.49C107.192,303.818,107.108,303.892,106.94,303.892z"/>
		<path fill="#002C5F" d="M112.901,306.697h-4.019v0.168c0,1.428,0.562,1.955,1.666,1.955c0.695,0,1.584-0.049,2.136-0.133
			c0.024,0,0.036,0,0.061,0c0.096,0,0.191,0.049,0.191,0.168v0.408c0,0.156-0.048,0.24-0.238,0.274
			c-0.687,0.134-1.344,0.203-2.146,0.203c-1.381,0-2.725-0.646-2.725-2.877v-1.08c0-1.715,0.949-2.809,2.664-2.809
			c1.75,0,2.639,1.104,2.639,2.809v0.646C113.129,306.591,113.045,306.697,112.901,306.697z M112.062,305.785
			c0-1.354-0.517-1.883-1.57-1.883c-1.031,0-1.607,0.588-1.607,1.883v0.107h3.178V305.785L112.062,305.785z"/>
		<path fill="#002C5F" d="M115.53,309.66h-0.623c-0.119,0-0.215-0.108-0.215-0.24v-8.551c0-0.121,0.084-0.229,0.215-0.229h0.623
			c0.121,0,0.217,0.096,0.217,0.229v8.551C115.747,309.539,115.661,309.66,115.53,309.66z"/>
		<path fill="#002C5F" d="M121.853,309.66h-0.552c-0.133,0-0.239-0.108-0.239-0.24v-0.264c-0.576,0.336-1.177,0.588-1.849,0.588
			c-1.02,0-1.955-0.444-1.955-1.942v-0.146c0-1.295,0.756-1.942,2.892-1.942h0.889v-0.479c0-1.008-0.348-1.354-1.283-1.354
			c-0.779,0-1.354,0.047-1.836,0.096c-0.023,0-0.035,0-0.061,0c-0.107,0-0.216-0.037-0.216-0.191v-0.42
			c0-0.133,0.084-0.205,0.252-0.229c0.492-0.084,1.044-0.156,1.859-0.156c1.666,0,2.338,0.84,2.338,2.254v4.188
			C122.092,309.552,121.985,309.66,121.853,309.66z M121.036,306.47h-0.887c-1.453,0-1.836,0.323-1.836,1.176v0.145
			c0,0.865,0.407,1.093,1.104,1.093c0.551,0,1.043-0.168,1.617-0.479L121.036,306.47L121.036,306.47z"/>
		<path fill="#002C5F" d="M126.723,309.685c-0.239,0.035-0.551,0.061-0.778,0.061c-1.104,0-1.631-0.287-1.631-1.604v-4.188
			l-1.164-0.131c-0.131-0.014-0.229-0.084-0.229-0.217v-0.322c0-0.135,0.099-0.219,0.229-0.219h1.164v-1.174
			c0-0.121,0.084-0.217,0.215-0.24l0.625-0.096c0.012,0,0.022,0,0.035,0c0.096,0,0.18,0.084,0.18,0.203v1.307h1.297
			c0.131,0,0.238,0.109,0.238,0.24v0.407c0,0.132-0.107,0.24-0.238,0.24h-1.297v4.187c0,0.659,0.168,0.756,0.648,0.756h0.672
			c0.168,0,0.252,0.047,0.252,0.168v0.42C126.94,309.588,126.879,309.66,126.723,309.685z"/>
		<path fill="#002C5F" d="M129.028,302.009h-0.611c-0.131,0-0.238-0.107-0.238-0.24v-0.959c0-0.133,0.107-0.238,0.238-0.238h0.611
			c0.133,0,0.24,0.105,0.24,0.238v0.959C129.269,301.9,129.161,302.009,129.028,302.009z M129.004,309.66h-0.576
			c-0.131,0-0.239-0.108-0.239-0.24v-6.116c0-0.131,0.108-0.24,0.239-0.24h0.576c0.133,0,0.238,0.109,0.238,0.24v6.116
			C129.243,309.552,129.137,309.66,129.004,309.66z"/>
		<path fill="#002C5F" d="M133.467,309.744c-1.764,0-2.662-1.164-2.662-2.928v-0.91c0-1.764,0.898-2.928,2.662-2.928
			c1.765,0,2.674,1.164,2.674,2.928v0.91C136.141,308.58,135.231,309.744,133.467,309.744z M135.086,305.906
			c0-1.225-0.492-2.004-1.619-2.004c-1.114,0-1.606,0.768-1.606,2.004v0.91c0,1.225,0.479,2.004,1.606,2.004
			c1.115,0,1.619-0.768,1.619-2.004V305.906z"/>
		<path fill="#002C5F" d="M142.37,309.66h-0.574c-0.135,0-0.24-0.108-0.24-0.24v-3.944c0-1.213-0.407-1.584-1.319-1.584
			c-0.504,0-1.066,0.19-1.619,0.467v5.062c0,0.119-0.107,0.24-0.238,0.24h-0.588c-0.121,0-0.229-0.108-0.229-0.24v-6.116
			c0-0.131,0.096-0.24,0.229-0.24h0.6c0.132,0,0.229,0.109,0.229,0.24v0.229c0.658-0.373,1.199-0.555,1.906-0.555
			c1.438,0,2.086,0.9,2.086,2.496v3.944C142.61,309.552,142.502,309.66,142.37,309.66z"/>
		<path fill="#002C5F" d="M146.176,309.744c-0.442,0-1.309-0.037-1.896-0.182c-0.154-0.035-0.252-0.107-0.252-0.238v-0.42
			c0-0.106,0.098-0.182,0.215-0.182c0.025,0,0.037,0,0.051,0c0.574,0.072,1.449,0.133,1.883,0.133c0.779,0,1.188-0.203,1.188-0.852
			c0-0.359-0.217-0.589-0.9-0.996l-1.211-0.72c-0.729-0.442-1.223-0.959-1.223-1.715c0-1.248,0.936-1.598,2.17-1.598
			c0.672,0,1.309,0.062,1.871,0.156c0.155,0.022,0.229,0.106,0.229,0.239v0.396c0,0.145-0.084,0.203-0.203,0.203
			c-0.014,0-0.024,0-0.037,0c-0.42-0.035-1.188-0.097-1.858-0.097c-0.67,0-1.113,0.084-1.113,0.695c0,0.359,0.275,0.588,0.826,0.912
			l1.189,0.707c0.993,0.588,1.317,1.104,1.317,1.811C148.418,309.229,147.521,309.744,146.176,309.744z"/>
		<path fill="#002C5F" d="M60.409,327.744c-0.791,0-1.5-0.037-1.955-0.108c-0.275-0.035-0.396-0.144-0.396-0.441v-7.988
			c0-0.274,0.134-0.42,0.386-0.442c0.396-0.049,1.127-0.097,1.905-0.097c1.908,0,3.515,0.505,3.515,2.314v0.191
			c0,0.887-0.467,1.569-1.283,1.883c0.828,0.287,1.332,1.02,1.332,1.94v0.205C63.911,327.216,62.28,327.744,60.409,327.744z
			 M62.772,320.979c0-1.148-0.961-1.391-2.425-1.391c-0.407,0-0.852,0.022-1.188,0.034v2.976h1.848c1.392,0,1.765-0.672,1.765-1.427
			V320.979L62.772,320.979z M62.819,324.996c0-0.791-0.396-1.521-1.812-1.521H59.16v3.297c0.396,0.014,0.826,0.051,1.246,0.051
			c1.487,0,2.41-0.324,2.41-1.619v-0.207L62.819,324.996L62.819,324.996z"/>
		<path fill="#002C5F" d="M70.151,327.66h-0.601c-0.131,0-0.229-0.108-0.229-0.24v-0.229c-0.658,0.371-1.199,0.553-1.906,0.553
			c-1.438,0-2.086-0.899-2.086-2.496v-3.944c0-0.131,0.104-0.24,0.238-0.24h0.573c0.134,0,0.24,0.109,0.24,0.24v3.944
			c0,1.213,0.408,1.584,1.32,1.584c0.504,0,1.065-0.19,1.619-0.469v-5.061c0-0.121,0.106-0.24,0.237-0.24h0.589
			c0.12,0,0.229,0.107,0.229,0.24v6.117C70.379,327.552,70.284,327.66,70.151,327.66z"/>
		<path fill="#002C5F" d="M73.946,327.744c-0.443,0-1.31-0.037-1.896-0.182c-0.153-0.035-0.252-0.107-0.252-0.238v-0.42
			c0-0.106,0.099-0.182,0.217-0.182c0.023,0,0.035,0,0.05,0c0.573,0.072,1.45,0.133,1.883,0.133c0.778,0,1.188-0.203,1.188-0.852
			c0-0.359-0.217-0.589-0.899-0.996l-1.211-0.72c-0.73-0.442-1.224-0.959-1.224-1.715c0-1.248,0.937-1.598,2.17-1.598
			c0.672,0,1.308,0.062,1.871,0.156c0.156,0.022,0.229,0.106,0.229,0.239v0.396c0,0.145-0.084,0.203-0.205,0.203
			c-0.013,0-0.021,0-0.033,0c-0.42-0.035-1.189-0.097-1.859-0.097c-0.672,0-1.115,0.084-1.115,0.695
			c0,0.359,0.275,0.588,0.826,0.912l1.189,0.707c0.994,0.588,1.318,1.104,1.318,1.811C76.188,327.229,75.288,327.744,73.946,327.744
			z"/>
		<path fill="#002C5F" d="M78.577,320.009h-0.611c-0.131,0-0.238-0.107-0.238-0.24v-0.959c0-0.133,0.107-0.238,0.238-0.238h0.611
			c0.133,0,0.24,0.105,0.24,0.238v0.959C78.817,319.9,78.709,320.009,78.577,320.009z M78.553,327.66h-0.575
			c-0.132,0-0.24-0.108-0.24-0.24v-6.116c0-0.131,0.108-0.24,0.24-0.24h0.575c0.134,0,0.24,0.109,0.24,0.24v6.116
			C78.793,327.552,78.687,327.66,78.553,327.66z"/>
		<path fill="#002C5F" d="M85.379,327.66h-0.576c-0.131,0-0.239-0.108-0.239-0.24v-3.944c0-1.213-0.408-1.584-1.318-1.584
			c-0.504,0-1.066,0.19-1.619,0.467v5.062c0,0.119-0.107,0.24-0.24,0.24h-0.588c-0.119,0-0.229-0.108-0.229-0.24v-6.116
			c0-0.131,0.098-0.24,0.229-0.24h0.601c0.133,0,0.229,0.109,0.229,0.24v0.229c0.658-0.373,1.197-0.555,1.904-0.555
			c1.438,0,2.09,0.9,2.09,2.496v3.944C85.618,327.552,85.51,327.66,85.379,327.66z"/>
		<path fill="#002C5F" d="M92.112,324.697h-4.019v0.168c0,1.428,0.562,1.955,1.666,1.955c0.695,0,1.584-0.049,2.136-0.133
			c0.022,0,0.036,0,0.061,0c0.096,0,0.191,0.049,0.191,0.168v0.408c0,0.156-0.048,0.24-0.24,0.274
			c-0.685,0.134-1.342,0.203-2.146,0.203c-1.379,0-2.723-0.646-2.723-2.877v-1.08c0-1.715,0.947-2.809,2.662-2.809
			c1.752,0,2.641,1.104,2.641,2.809v0.646C92.338,324.591,92.254,324.697,92.112,324.697z M91.272,323.785
			c0-1.354-0.517-1.883-1.572-1.883c-1.029,0-1.605,0.588-1.605,1.883v0.107h3.179L91.272,323.785L91.272,323.785z"/>
		<path fill="#002C5F" d="M95.713,327.744c-0.444,0-1.311-0.037-1.896-0.182c-0.156-0.035-0.252-0.107-0.252-0.238v-0.42
			c0-0.106,0.096-0.182,0.215-0.182c0.022,0,0.037,0,0.051,0c0.572,0.072,1.449,0.133,1.883,0.133c0.777,0,1.188-0.203,1.188-0.852
			c0-0.359-0.217-0.589-0.9-0.996l-1.211-0.72c-0.731-0.442-1.225-0.959-1.225-1.715c0-1.248,0.938-1.598,2.172-1.598
			c0.672,0,1.307,0.062,1.871,0.156c0.155,0.022,0.229,0.106,0.229,0.239v0.396c0,0.145-0.084,0.203-0.205,0.203
			c-0.012,0-0.022,0-0.035,0c-0.42-0.035-1.188-0.097-1.858-0.097c-0.67,0-1.113,0.084-1.113,0.695c0,0.359,0.273,0.588,0.826,0.912
			l1.188,0.707c0.996,0.588,1.32,1.104,1.32,1.811C97.956,327.229,97.055,327.744,95.713,327.744z"/>
		<path fill="#002C5F" d="M101.305,327.744c-0.444,0-1.311-0.037-1.896-0.182c-0.154-0.035-0.252-0.107-0.252-0.238v-0.42
			c0-0.106,0.098-0.182,0.217-0.182c0.021,0,0.035,0,0.049,0c0.572,0.072,1.451,0.133,1.883,0.133c0.779,0,1.188-0.203,1.188-0.852
			c0-0.359-0.217-0.589-0.9-0.996l-1.211-0.72c-0.731-0.442-1.225-0.959-1.225-1.715c0-1.248,0.938-1.598,2.172-1.598
			c0.672,0,1.307,0.062,1.871,0.156c0.156,0.022,0.229,0.106,0.229,0.239v0.396c0,0.145-0.084,0.203-0.205,0.203
			c-0.012,0-0.022,0-0.034,0c-0.42-0.035-1.188-0.097-1.857-0.097c-0.672,0-1.115,0.084-1.115,0.695
			c0,0.359,0.273,0.588,0.826,0.912l1.188,0.707c0.995,0.588,1.319,1.104,1.319,1.811
			C103.547,327.229,102.647,327.744,101.305,327.744z"/>
		<path fill="#002C5F" d="M111.766,327.611c-0.395,0.072-0.936,0.133-1.497,0.133c-1.632,0-2.556-1.151-2.556-2.916v-0.936
			c0-1.762,0.912-2.914,2.556-2.914c0.551,0,1.104,0.061,1.497,0.133c0.193,0.035,0.24,0.096,0.24,0.264v0.433
			c0,0.119-0.098,0.182-0.203,0.182c-0.022,0-0.037,0-0.049,0c-0.526-0.062-0.897-0.084-1.486-0.084c-0.959,0-1.5,0.635-1.5,1.988
			v0.938c0,1.345,0.527,1.992,1.5,1.992c0.589,0,0.959-0.024,1.486-0.084c0.012,0,0.023,0,0.049,0c0.105,0,0.203,0.06,0.203,0.18
			v0.433C112.006,327.504,111.959,327.576,111.766,327.611z"/>
		<path fill="#002C5F" d="M114.313,327.66h-0.625c-0.119,0-0.216-0.108-0.216-0.24v-8.551c0-0.121,0.084-0.229,0.216-0.229h0.625
			c0.118,0,0.215,0.096,0.215,0.229v8.551C114.528,327.539,114.444,327.66,114.313,327.66z"/>
		<path fill="#002C5F" d="M120.633,327.66h-0.551c-0.133,0-0.24-0.108-0.24-0.24v-0.264c-0.576,0.336-1.176,0.588-1.846,0.588
			c-1.021,0-1.955-0.444-1.955-1.942v-0.146c0-1.295,0.754-1.942,2.891-1.942h0.888v-0.479c0-1.008-0.349-1.354-1.283-1.354
			c-0.779,0-1.355,0.047-1.836,0.096c-0.023,0-0.035,0-0.06,0c-0.108,0-0.217-0.037-0.217-0.191v-0.42
			c0-0.133,0.084-0.205,0.252-0.229c0.492-0.084,1.043-0.156,1.857-0.156c1.668,0,2.34,0.84,2.34,2.254v4.188
			C120.873,327.552,120.766,327.66,120.633,327.66z M119.819,324.47h-0.888c-1.45,0-1.836,0.323-1.836,1.176v0.145
			c0,0.865,0.408,1.093,1.104,1.093c0.553,0,1.043-0.168,1.619-0.479V324.47z"/>
		<path fill="#002C5F" d="M124.44,327.744c-0.443,0-1.308-0.037-1.896-0.182c-0.156-0.035-0.252-0.107-0.252-0.238v-0.42
			c0-0.106,0.096-0.182,0.215-0.182c0.023,0,0.037,0,0.049,0c0.576,0.072,1.451,0.133,1.884,0.133c0.778,0,1.188-0.203,1.188-0.852
			c0-0.359-0.217-0.589-0.9-0.996l-1.211-0.72c-0.729-0.442-1.223-0.959-1.223-1.715c0-1.248,0.936-1.598,2.17-1.598
			c0.672,0,1.31,0.062,1.871,0.156c0.156,0.022,0.229,0.106,0.229,0.239v0.396c0,0.145-0.084,0.203-0.202,0.203
			c-0.015,0-0.023,0-0.037,0c-0.42-0.035-1.188-0.097-1.857-0.097c-0.672,0-1.115,0.084-1.115,0.695
			c0,0.359,0.275,0.588,0.828,0.912l1.188,0.707c0.994,0.588,1.317,1.104,1.317,1.811
			C126.682,327.229,125.784,327.744,124.44,327.744z"/>
		<path fill="#002C5F" d="M130.032,327.744c-0.443,0-1.308-0.037-1.896-0.182c-0.155-0.035-0.252-0.107-0.252-0.238v-0.42
			c0-0.106,0.097-0.182,0.215-0.182c0.023,0,0.037,0,0.05,0c0.575,0.072,1.45,0.133,1.883,0.133c0.779,0,1.188-0.203,1.188-0.852
			c0-0.359-0.217-0.589-0.899-0.996l-1.211-0.72c-0.73-0.442-1.224-0.959-1.224-1.715c0-1.248,0.937-1.598,2.17-1.598
			c0.672,0,1.31,0.062,1.871,0.156c0.156,0.022,0.229,0.106,0.229,0.239v0.396c0,0.145-0.084,0.203-0.203,0.203
			c-0.015,0-0.023,0-0.035,0c-0.422-0.035-1.189-0.097-1.859-0.097c-0.672,0-1.114,0.084-1.114,0.695
			c0,0.359,0.274,0.588,0.828,0.912l1.188,0.707c0.994,0.588,1.318,1.104,1.318,1.811
			C132.274,327.229,131.375,327.744,130.032,327.744z"/>
	</g>
</g>
</svg>
