<?xml version="1.0" encoding="utf-8"?>
<!-- Generator: Adobe Illustrator 15.1.0, SVG Export Plug-In . SVG Version: 6.00 Build 0)  -->
<!DOCTYPE svg PUBLIC "-//W3C//DTD SVG 1.1//EN" "http://www.w3.org/Graphics/SVG/1.1/DTD/svg11.dtd">
<svg version="1.1" id="Layer_1" xmlns="http://www.w3.org/2000/svg" xmlns:xlink="http://www.w3.org/1999/xlink" x="0px" y="0px"
	 width="1024px" height="724px" viewBox="0 0 1024 724" enable-background="new 0 0 1024 724" xml:space="preserve">
<g>
	<path fill="#003D79" d="M91.358,663.266v16.184H45.263c-8.938,0-16.183-7.245-16.183-16.184v-29.912v-16.185h46.095
		c8.938,0,16.183,7.246,16.183,16.185V663.266L91.358,663.266z"/>
	<path fill="#FFFFFF" d="M76.148,623.352c0.967,0.22,1.69,1.086,1.69,2.119l0.001,0.062v1.249c0,0.366-0.212,0.578-0.516,0.578
		h-0.092c-0.882-0.121-3.5-0.396-5.051-0.396c-1.189,0-1.614,0.187-1.614,0.886c0,0.456,0.336,0.699,0.945,1.062l3.774,2.162
		c2.525,1.46,3.074,3.043,3.074,4.688c0,2.86-2.072,5.112-6.515,5.112c-1.24,0-2.833-0.134-4.206-0.376l-0.095-0.02
		c-1.033-0.168-1.818-1.062-1.818-2.146v-0.152v-1.141c0-0.307,0.213-0.58,0.579-0.58h0.122c1.642,0.213,4.2,0.429,5.175,0.429
		c1.459,0,1.794-0.396,1.794-1.188c0-0.455-0.273-0.79-1.124-1.275l-3.957-2.283c-1.708-0.976-2.711-2.527-2.711-4.506
		c0-3.072,2.04-4.721,6.242-4.721c1.795,0,3.064,0.171,4.236,0.421L76.148,623.352L76.148,623.352z"/>
	<path fill="#FFFFFF" d="M36.667,627.345c-1.198,0-2.173-0.974-2.173-2.174v-0.114v-0.621c0-0.335,0.212-0.578,0.576-0.67
		c1.128-0.274,3.26-0.642,5.269-0.642c4.383,0,7.125,1.768,7.125,6.21v10.867c0,0.336-0.283,0.609-0.608,0.609h-3.411
		c-0.338,0-0.611-0.273-0.611-0.609v-0.487c-1.188,0.854-2.404,1.371-4.226,1.371c-2.653,0-5.209-1.276-5.209-5.235v-0.273
		c0-3.562,2.282-5.144,7.488-5.144h1.644v-1.099c0-1.732-0.852-2.1-2.283-2.1C39.031,627.235,36.667,627.345,36.667,627.345
		L36.667,627.345z M42.621,633.355h-1.734c-2.132,0-2.679,0.729-2.679,2.22v0.273c0,1.277,0.64,1.521,1.918,1.521
		c0.913,0,1.767-0.306,2.496-0.67L42.621,633.355L42.621,633.355z"/>
	<path fill="#FFFFFF" d="M51.6,646.605c-1.202,0-2.177-0.976-2.177-2.175v-0.147v-19.626c0-0.486,0.122-0.698,0.945-0.882
		c1.736-0.427,4.141-0.792,6.485-0.792c4.931,0,7.642,2.861,7.642,7.793v2.374c0,4.779-2.501,7.794-7.642,7.794
		c-0.609,0-1.615-0.093-2.5-0.213v5.266c0,0.335-0.273,0.606-0.608,0.606h-2.03L51.6,646.605L51.6,646.605z M59.561,630.776
		c0-2.162-0.55-3.714-2.708-3.714c-1.007,0-1.919,0.061-2.5,0.149v9.499c0.733,0.093,1.764,0.186,2.5,0.186
		c2.157,0,2.708-1.613,2.708-3.746V630.776L59.561,630.776z"/>
	<path fill="#FFFFFF" d="M64.298,651.639c-0.58,0.115-1.333,0.195-2.528,0.195c-1.253,0-3.108-0.82-3.108-3.561v-1.668
		c0-2.75,1.763-3.572,3.143-3.572c1.113,0,2.111,0.139,2.494,0.208c0.151,0.034,0.22,0.093,0.22,0.244v0.774
		c0,0.163-0.046,0.243-0.232,0.243h-0.034c-0.534-0.046-1.334-0.092-2.448-0.092c-0.777,0-1.519,0.545-1.519,2.192v1.668
		c0,1.646,0.8,2.182,1.484,2.182c0.429,0,0.788-0.012,1.148-0.035v-2.958c0-0.127,0.093-0.229,0.221-0.229h1.148
		c0.127,0,0.232,0.104,0.232,0.229v3.897C64.518,651.511,64.449,651.604,64.298,651.639L64.298,651.639z"/>
	<path fill="#FFFFFF" d="M68.948,646.42c-0.626,0-1.113,0.162-1.601,0.418v4.661c0,0.128-0.104,0.243-0.231,0.243h-1.067
		c-0.128,0-0.232-0.115-0.232-0.243v-6.063c0-0.127,0.104-0.231,0.232-0.231h1.009c0.128,0,0.232,0.104,0.232,0.231v0.244
		c0.568-0.44,1.194-0.559,1.658-0.559c0.127,0,0.232,0.104,0.232,0.232v0.834C69.179,646.314,69.075,646.42,68.948,646.42
		L68.948,646.42z"/>
	<path fill="#FFFFFF" d="M72.112,651.835c-1.821,0-2.771-1.228-2.771-2.887v-0.939c0-1.657,0.951-2.888,2.771-2.888
		c1.82,0,2.771,1.229,2.771,2.888v0.939C74.883,650.607,73.932,651.835,72.112,651.835L72.112,651.835z M73.353,648.009
		c0-0.948-0.43-1.563-1.241-1.563c-0.812,0-1.241,0.614-1.241,1.563v0.939c0,0.95,0.429,1.565,1.241,1.565
		c0.812,0,1.241-0.615,1.241-1.565V648.009L73.353,648.009z"/>
	<path fill="#FFFFFF" d="M80.995,651.742h-1.067c-0.128,0-0.231-0.104-0.231-0.231v-0.267c-0.604,0.396-1.08,0.58-1.821,0.58
		c-0.58,0-1.09-0.151-1.426-0.487c-0.43-0.429-0.58-1.146-0.58-2.108v-3.78c0-0.128,0.104-0.244,0.232-0.244h1.067
		c0.127,0,0.232,0.116,0.232,0.244v3.78c0,0.58,0.046,0.916,0.267,1.111c0.163,0.141,0.359,0.209,0.719,0.209
		c0.429,0,0.986-0.291,1.312-0.464v-4.639c0-0.128,0.104-0.244,0.231-0.244h1.067c0.127,0,0.232,0.116,0.232,0.244v6.063
		C81.227,651.639,81.122,651.742,80.995,651.742L80.995,651.742z"/>
	<path fill="#FFFFFF" d="M85.054,651.835c-0.279,0-0.685-0.021-1.114-0.08v2.054c0,0.129-0.104,0.23-0.232,0.23h-1.067
		c-0.128,0-0.232-0.104-0.232-0.23v-8.07c0-0.176,0.047-0.244,0.313-0.314c0.719-0.185,1.589-0.301,2.331-0.301
		c1.867,0,2.771,1.104,2.771,2.911v0.893C87.825,650.734,86.921,651.835,85.054,651.835L85.054,651.835z M86.294,648.032
		c0-0.951-0.243-1.658-1.241-1.658c-0.417,0-0.893,0.034-1.114,0.081v4.047c0.325,0.047,0.835,0.081,1.114,0.081
		c0.998,0,1.241-0.707,1.241-1.658V648.032L86.294,648.032z"/>
	<path fill="#C1D82F" d="M57.913,79.093v-0.792c0-0.66-0.33-0.792-0.858-0.792c-0.132,0-0.264,0-0.396,0
		c-2.376,0.264-7.326,0.594-11.418,0.594c-7.392,0-13.266-4.751-13.266-17.754v-8.712c0-13.002,5.874-17.754,13.266-17.754
		c4.092,0,9.042,0.33,11.418,0.594c0.132,0,0.264,0,0.396,0c0.528,0,0.858-0.132,0.858-0.792v-0.792c0-0.66-0.66-1.056-1.254-1.122
		c-1.716-0.198-5.346-0.66-11.418-0.66c-8.25,0-16.17,4.752-16.17,20.525v8.712c0,15.774,7.92,20.526,16.17,20.526
		c6.072,0,9.702-0.462,11.418-0.66C57.253,80.149,57.913,79.753,57.913,79.093L57.913,79.093z M85.606,79.158V56.85
		c0-7.128-2.31-12.144-11.22-12.144c-4.355,0-6.6,0.264-9.372,0.594c-0.99,0.132-1.518,0.462-1.518,1.188v0.396
		c0,0.727,0.66,0.99,1.254,0.99c0.132,0,0.198,0,0.264,0c3.102-0.33,5.016-0.594,9.372-0.594c6.402,0,8.316,2.706,8.316,9.57v2.376
		H77.62c-12.012,0-16.302,3.366-16.302,10.164v0.858c0,8.25,5.148,10.626,10.098,10.626c4.092,0,7.986-1.584,11.22-3.366v1.65
		c0,0.726,0.594,1.32,1.32,1.32h0.33C85.012,80.478,85.606,79.885,85.606,79.158L85.606,79.158z M82.702,74.934
		C78.28,77.31,75.112,78.3,71.416,78.3c-3.96,0-7.194-1.914-7.194-8.052V69.39c0-5.609,3.432-7.59,13.398-7.59h5.082V74.934
		L82.702,74.934z M113.009,71.7c0-4.356-2.904-6.534-8.382-9.57l-4.422-2.442c-4.026-2.244-6.402-3.96-6.402-6.864
		c0-4.687,3.234-5.544,7.458-5.544c3.63,0,7.458,0.528,9.174,0.726h0.198c0.66,0,1.188-0.264,1.188-1.056v-0.528
		c0-0.594-0.462-0.99-1.386-1.122c-2.244-0.264-4.686-0.594-9.438-0.594c-5.214,0-10.098,1.979-10.098,8.118
		c0,4.488,3.036,6.666,7.986,9.372l4.224,2.31c5.544,3.036,6.996,4.488,6.996,7.194c0,5.346-3.63,6.6-8.382,6.6
		c-2.706,0-6.534-0.528-9.702-1.056c-0.132,0-0.264,0-0.396,0c-0.594,0-1.056,0.264-1.056,0.924v0.726
		c0,0.594,0.528,0.858,1.452,1.056c2.376,0.462,6.6,0.924,9.57,0.924C107.729,80.875,113.009,78.762,113.009,71.7L113.009,71.7z
		 M143.771,62.197v-1.782c0-9.372-4.026-15.708-13.134-15.708c-8.712,0-13.332,6.666-13.332,15.774v4.356
		c0,12.474,6.666,16.038,14.851,16.038c2.97,0,6.731-0.462,9.899-1.122c0.99-0.198,1.254-0.528,1.254-1.254v-0.462
		c0-0.66-0.462-0.924-0.99-0.924c-0.132,0-0.264,0.065-0.396,0.065c-3.234,0.66-6.864,1.122-9.768,1.122
		c-6.601,0-11.946-2.376-11.946-13.464V63.45h22.308C143.177,63.45,143.771,62.923,143.771,62.197L143.771,62.197z M140.867,60.81
		h-20.658v-0.33c0-7.854,3.102-13.2,10.428-13.2c7.458,0,10.23,4.817,10.23,13.134V60.81L140.867,60.81z M190.299,68.268
		c0-6.072-4.29-9.306-11.616-13.728l-4.224-2.574c-5.874-3.563-8.91-6.006-8.91-10.098c0-5.479,3.696-7.986,12.408-7.986
		c3.366,0,8.316,0.66,9.768,0.66c0.726,0,1.254-0.264,1.254-0.924V32.76c0-0.594-0.461-0.924-1.122-0.99
		c-2.838-0.264-6.336-0.66-9.834-0.66c-7.722,0-15.444,2.046-15.444,10.691c0,5.874,4.356,9.042,10.362,12.738l4.158,2.574
		c7.326,4.554,10.164,6.27,10.164,11.154c0,5.412-2.31,9.834-12.276,9.834c-3.63,0-6.468-0.462-9.9-0.726h-0.264
		c-0.66,0-1.254,0.198-1.254,0.858v0.858c0,0.66,0.594,0.99,1.188,1.056c2.64,0.264,5.94,0.726,10.23,0.726
		C187.725,80.875,190.299,74.275,190.299,68.268L190.299,68.268z M210.198,79.62v-0.396c0-0.594-0.396-0.924-1.386-0.924h-3.168
		c-2.904,0-4.554-0.594-4.554-4.554V47.742h7.854c0.726,0,1.254-0.396,1.254-1.056v-0.66c0-0.66-0.528-0.99-1.254-0.99h-7.854
		v-6.798c0-0.66-0.396-1.254-1.056-1.254h-0.726c-0.726,0-1.122,0.594-1.122,1.254v6.798h-6.534c-0.726,0-1.254,0.33-1.254,0.99
		v0.66c0,0.66,0.528,1.056,1.254,1.056h6.534v26.004c0,5.676,2.772,7.128,7.458,7.128c1.122,0,2.442-0.066,3.432-0.198
		C210,80.545,210.198,80.149,210.198,79.62L210.198,79.62z M240.01,79.158V46.291c0-0.66-0.594-1.254-1.254-1.254h-0.396
		c-0.66,0-1.254,0.594-1.254,1.254v29.238c-3.3,1.518-7.062,2.706-10.428,2.706h-0.132c-4.884,0-8.778-2.574-8.778-10.032V46.291
		c0-0.66-0.528-1.254-1.188-1.254h-0.462c-0.726,0-1.254,0.594-1.254,1.254v21.912c0,9.108,5.28,12.606,11.616,12.606
		c3.432,0,7.194-1.056,10.626-2.706v1.056c0,0.726,0.462,1.32,1.188,1.32h0.528C239.548,80.478,240.01,79.885,240.01,79.158
		L240.01,79.158z M270.7,78.367V32.695c0-0.66-0.462-1.254-1.122-1.254h-0.66c-0.66,0-1.122,0.594-1.122,1.254v13.002
		c-2.64-0.594-6.6-0.99-9.174-0.99c-8.58,0-12.936,5.346-12.936,15.774v4.356c0,9.504,3.828,16.038,12.936,16.038
		c3.762,0,8.184-0.66,11.088-1.254C270.502,79.423,270.7,79.158,270.7,78.367L270.7,78.367z M267.796,77.443
		c-2.376,0.396-6.006,0.857-9.174,0.857c-7.392,0-10.032-4.95-10.032-13.464v-4.356c0-8.712,2.772-13.2,10.032-13.2
		c2.574,0,6.666,0.33,9.174,0.857V77.443L267.796,77.443z M302.083,46.158c0-0.66-0.33-1.122-0.99-1.122h-0.594
		c-0.528,0-1.056,0.396-1.188,0.858l-9.042,31.878h-1.518c-0.528,0-1.122-0.066-1.518-1.452l-8.91-30.36
		c-0.132-0.462-0.595-0.924-1.056-0.924h-0.594c-0.726,0-1.122,0.462-1.122,1.122c0,0.132,0,0.33,0.065,0.462l8.911,30.162
		c0.924,3.168,1.979,3.696,4.025,3.696h0.924l-0.858,3.103c-1.584,5.742-3.102,7.194-7.854,7.194c-1.056,0-3.3-0.264-4.29-0.396
		c-0.132,0-0.264,0-0.396,0c-0.594,0-0.99,0.264-0.99,0.924v0.727c0,0.594,0.527,0.792,1.32,0.924
		c1.188,0.198,2.574,0.396,4.092,0.396c6.138,0,8.646-2.112,10.692-9.174l10.824-37.488
		C302.083,46.489,302.083,46.291,302.083,46.158L302.083,46.158z"/>
	<path fill="#003D79" d="M43.71,451.514c0-0.162-0.109-0.311-0.272-0.311h-2.199c-0.218,0-0.345,0.037-0.381,0.311l-1.072,6.903
		c-0.018,0.146-0.073,0.236-0.109,0.236c-0.055,0-0.109-0.073-0.146-0.236l-1.217-4.798c-0.164-0.635-0.436-0.815-1.018-0.815h-1.49
		c-0.582,0-0.854,0.183-1.018,0.815l-1.217,4.798c-0.037,0.163-0.091,0.236-0.146,0.236c-0.036,0-0.091-0.091-0.109-0.236
		l-1.072-6.903c-0.036-0.271-0.164-0.311-0.381-0.311h-2.199c-0.164,0-0.272,0.146-0.272,0.311v0.071l1.617,8.756
		c0.2,1.035,0.836,1.271,1.599,1.271h1.108c0.873,0,1.345-0.473,1.526-1.162l1.217-4.743c0.019-0.091,0.037-0.091,0.091-0.091
		c0.055,0,0.073,0,0.091,0.091l1.217,4.743c0.182,0.689,0.654,1.162,1.526,1.162h1.108c0.763,0,1.399-0.236,1.599-1.271l1.617-8.756
		v-0.071H43.71L43.71,451.514z M59.063,451.514c0-0.162-0.109-0.311-0.272-0.311h-2.199c-0.218,0-0.345,0.037-0.381,0.311
		l-1.072,6.903c-0.018,0.146-0.072,0.236-0.109,0.236c-0.054,0-0.109-0.073-0.146-0.236l-1.217-4.798
		c-0.164-0.635-0.436-0.815-1.017-0.815h-1.49c-0.582,0-0.854,0.183-1.018,0.815l-1.217,4.798c-0.036,0.163-0.091,0.236-0.146,0.236
		c-0.036,0-0.091-0.091-0.109-0.236l-1.072-6.903c-0.037-0.271-0.164-0.311-0.382-0.311h-2.198c-0.164,0-0.273,0.146-0.273,0.311
		v0.071l1.617,8.756c0.2,1.035,0.836,1.271,1.599,1.271h1.108c0.872,0,1.344-0.473,1.526-1.162l1.217-4.743
		c0.018-0.091,0.036-0.091,0.091-0.091c0.054,0,0.073,0,0.091,0.091l1.217,4.743c0.182,0.689,0.654,1.162,1.526,1.162h1.107
		c0.763,0,1.399-0.236,1.599-1.271l1.617-8.756v-0.071H59.063L59.063,451.514z M74.416,451.514c0-0.162-0.109-0.311-0.273-0.311
		h-2.198c-0.218,0-0.345,0.037-0.382,0.311l-1.072,6.903c-0.018,0.146-0.073,0.236-0.109,0.236c-0.055,0-0.109-0.073-0.146-0.236
		l-1.217-4.798c-0.164-0.635-0.436-0.815-1.018-0.815h-1.49c-0.581,0-0.854,0.183-1.017,0.815l-1.218,4.798
		c-0.036,0.163-0.091,0.236-0.145,0.236c-0.037,0-0.091-0.091-0.109-0.236l-1.072-6.903c-0.036-0.271-0.164-0.311-0.382-0.311H60.37
		c-0.164,0-0.272,0.146-0.272,0.311v0.071l1.617,8.756c0.2,1.035,0.835,1.271,1.599,1.271h1.108c0.872,0,1.345-0.473,1.526-1.162
		l1.217-4.743c0.018-0.091,0.037-0.091,0.091-0.091c0.055,0,0.073,0,0.091,0.091l1.217,4.743c0.182,0.689,0.654,1.162,1.526,1.162
		h1.11c0.763,0,1.399-0.236,1.599-1.271l1.617-8.756V451.514L74.416,451.514z M78.139,461.25v-2.287
		c0-0.198-0.164-0.345-0.363-0.345h-2.124c-0.2,0-0.381,0.146-0.381,0.345v2.287c0,0.2,0.182,0.363,0.381,0.363h2.124
		C77.975,461.613,78.139,461.45,78.139,461.25L78.139,461.25z M88.314,461.251v-6.484c0-2.652-1.634-3.706-4.251-3.706
		c-1.2,0-2.471,0.219-3.143,0.382c-0.218,0.055-0.345,0.2-0.345,0.397v1.473c0,0.233,0.146,0.326,0.327,0.326h0.091
		c0.563-0.057,1.852-0.127,3.016-0.127c0.854,0,1.364,0.219,1.364,1.255v0.653H84.39c-3.107,0-4.469,0.943-4.469,3.069v0.164
		c0,2.361,1.525,3.124,3.105,3.124c1.091,0,1.819-0.312,2.528-0.817v0.291c0,0.199,0.163,0.362,0.363,0.362h2.034
		C88.15,461.613,88.314,461.45,88.314,461.251L88.314,461.251L88.314,461.251z M85.427,459.16c-0.436,0.221-0.945,0.402-1.491,0.402
		c-0.764,0-1.146-0.146-1.146-0.909v-0.164c0-0.892,0.328-1.327,1.601-1.327h1.036V459.16L85.427,459.16z M99.488,457.127v-1.418
		c0-2.941-1.616-4.648-4.561-4.648c-1.4,0-2.834,0.219-3.87,0.473c-0.49,0.108-0.562,0.236-0.562,0.525v12.734
		c0,0.2,0.181,0.363,0.381,0.363h2.197c0.2,0,0.363-0.163,0.363-0.363v-3.143c0.527,0.071,1.127,0.127,1.491,0.127
		C97.999,461.777,99.488,459.98,99.488,457.127L99.488,457.127z M96.547,457.127c0,1.272-0.327,2.236-1.618,2.236
		c-0.437,0-1.055-0.056-1.491-0.109v-5.672c0.346-0.054,0.891-0.091,1.491-0.091c1.291,0,1.618,0.928,1.618,2.218V457.127
		L96.547,457.127z M108.627,458.727c0-0.98-0.327-1.928-1.834-2.8l-2.253-1.289c-0.364-0.22-0.564-0.364-0.564-0.639
		c0-0.418,0.254-0.525,0.964-0.525c0.927,0,2.489,0.164,3.015,0.235h0.055c0.181,0,0.309-0.128,0.309-0.346v-1.471
		c0-0.22-0.128-0.362-0.345-0.417c-0.926-0.235-1.798-0.418-3.234-0.418c-2.507,0-3.724,0.979-3.724,2.812
		c0,1.184,0.599,2.108,1.616,2.69l2.363,1.361c0.509,0.29,0.673,0.49,0.673,0.766c0,0.473-0.2,0.709-1.074,0.709
		c-0.582,0-2.107-0.127-3.087-0.256h-0.073c-0.218,0-0.345,0.164-0.345,0.347v1.47c0,0.22,0.127,0.363,0.345,0.418
		c0.926,0.254,2.306,0.399,3.306,0.399C107.393,461.777,108.627,460.436,108.627,458.727L108.627,458.727z M119.874,452.711v-1.035
		c0-0.254-0.2-0.472-0.454-0.472h-4.523c-3.18,0-4.542,1.38-4.542,3.435v0.146c0,0.729,0.255,1.654,0.836,2.162
		c-0.454,0.363-0.799,0.871-0.799,1.543c0,0.6,0.272,1.327,0.925,1.689c-0.78,0.602-1.089,1.29-1.089,2.035v0.146
		c0,1.906,1.598,2.96,4.614,2.96c3.198,0,4.76-0.962,4.76-2.96v-0.146c0-1.743-1.09-2.234-4.251-2.927l-2.054-0.454
		c-0.436-0.091-0.545-0.218-0.545-0.509c0-0.164,0.054-0.291,0.254-0.418c0.364,0.145,1.036,0.271,1.891,0.271
		c2.834,0,4.486-1.034,4.486-3.396v-0.146c0-0.438-0.181-1.02-0.399-1.347l0.563-0.182
		C119.765,453.038,119.874,452.965,119.874,452.711L119.874,452.711z M116.515,454.783c0,0.781-0.345,1.272-1.618,1.272
		c-1.382,0-1.655-0.654-1.655-1.272v-0.146c0-0.745,0.364-1.311,1.655-1.311s1.618,0.563,1.618,1.311V454.783L116.515,454.783z
		 M116.606,462.36c0,0.546-0.273,0.927-1.764,0.927c-1.4,0-1.818-0.309-1.818-0.927v-0.146c0-0.636,0.146-0.927,0.364-1.233
		l1.345,0.291c1.636,0.36,1.873,0.599,1.873,0.942V462.36L116.606,462.36z M127.069,453.146v-1.727c0-0.198-0.163-0.361-0.363-0.361
		c-0.872,0-1.781,0.31-2.453,0.871v-0.361c0-0.2-0.163-0.364-0.363-0.364h-2.161c-0.199,0-0.363,0.164-0.363,0.364v9.664
		c0,0.199,0.182,0.381,0.382,0.381h2.196c0.2,0,0.363-0.182,0.363-0.381v-7.104c0.673-0.363,1.454-0.638,2.344-0.638h0.146
		C126.96,453.491,127.069,453.311,127.069,453.146L127.069,453.146z M137.025,457.055v-1.271c0-2.891-1.597-4.723-4.541-4.723
		c-2.943,0-4.559,1.832-4.559,4.723v1.271c0,2.89,1.616,4.724,4.559,4.724C135.428,461.777,137.025,459.943,137.025,457.055
		L137.025,457.055z M134.102,457.055c0,1.473-0.563,2.234-1.618,2.234c-1.054,0-1.636-0.764-1.636-2.234v-1.271
		c0-1.473,0.582-2.219,1.636-2.219c1.055,0,1.618,0.746,1.618,2.219V457.055L134.102,457.055z M147.854,461.25v-9.664
		c0-0.2-0.181-0.382-0.381-0.382h-2.197c-0.199,0-0.363,0.183-0.363,0.382v7.159c-0.618,0.327-1.182,0.581-1.709,0.581
		c-1.109,0-1.346-0.418-1.346-1.69v-6.05c0-0.2-0.163-0.382-0.363-0.382h-2.197c-0.199,0-0.381,0.183-0.381,0.382v6.05
		c0,2.289,0.581,4.123,3.214,4.123c1.164,0,1.964-0.233,2.964-0.941v0.435c0,0.2,0.163,0.363,0.363,0.363h2.033
		C147.691,461.613,147.854,461.45,147.854,461.25L147.854,461.25L147.854,461.25z M159.029,457.127v-1.418
		c0-2.941-1.616-4.648-4.561-4.648c-1.4,0-2.834,0.219-3.869,0.473c-0.49,0.108-0.563,0.236-0.563,0.525v12.734
		c0,0.2,0.182,0.363,0.381,0.363h2.197c0.2,0,0.363-0.163,0.363-0.363v-3.143c0.528,0.071,1.128,0.127,1.491,0.127
		C157.54,461.777,159.029,459.98,159.029,457.127L159.029,457.127z M156.088,457.127c0,1.272-0.328,2.236-1.619,2.236
		c-0.436,0-1.054-0.056-1.491-0.109v-5.672c0.346-0.054,0.891-0.091,1.491-0.091c1.291,0,1.619,0.928,1.619,2.218V457.127
		L156.088,457.127z M163.716,461.25v-2.287c0-0.198-0.163-0.345-0.363-0.345h-2.124c-0.2,0-0.381,0.146-0.381,0.345v2.287
		c0,0.2,0.181,0.363,0.381,0.363h2.124C163.553,461.613,163.716,461.45,163.716,461.25L163.716,461.25z M172.619,461.087v-1.614
		c0-0.183-0.163-0.31-0.345-0.31h-0.036c-0.673,0.072-1.181,0.127-2.217,0.127c-0.818,0-1.49-0.491-1.49-2.107v-1.525
		c0-1.618,0.672-2.109,1.49-2.109c1.036,0,1.544,0.058,2.217,0.127h0.036c0.182,0,0.345-0.127,0.345-0.309v-1.615
		c0-0.271-0.109-0.345-0.381-0.418c-0.509-0.127-1.327-0.271-2.417-0.271c-2.562,0-4.231,1.634-4.231,4.596v1.525
		c0,2.963,1.67,4.597,4.231,4.597c1.09,0,1.908-0.146,2.417-0.272C172.51,461.433,172.619,461.359,172.619,461.087L172.619,461.087z
		 M182.682,457.055v-1.271c0-2.891-1.598-4.723-4.542-4.723c-2.943,0-4.559,1.832-4.559,4.723v1.271c0,2.89,1.616,4.724,4.559,4.724
		C181.084,461.777,182.682,459.943,182.682,457.055L182.682,457.055z M179.759,457.055c0,1.473-0.563,2.234-1.619,2.234
		c-1.054,0-1.636-0.764-1.636-2.234v-1.271c0-1.473,0.582-2.219,1.636-2.219c1.055,0,1.619,0.746,1.619,2.219V457.055
		L179.759,457.055z M187.406,461.25v-2.287c0-0.198-0.164-0.345-0.364-0.345h-2.124c-0.199,0-0.381,0.146-0.381,0.345v2.287
		c0,0.2,0.182,0.363,0.381,0.363h2.124C187.242,461.613,187.406,461.45,187.406,461.25L187.406,461.25z M198.489,461.25v-9.664
		c0-0.2-0.182-0.382-0.381-0.382h-2.197c-0.2,0-0.363,0.183-0.363,0.382v7.159c-0.619,0.327-1.182,0.581-1.71,0.581
		c-1.109,0-1.345-0.418-1.345-1.69v-6.05c0-0.2-0.164-0.382-0.363-0.382h-2.197c-0.2,0-0.381,0.183-0.381,0.382v6.05
		c0,2.289,0.581,4.123,3.214,4.123c1.163,0,1.963-0.233,2.963-0.941v0.435c0,0.2,0.164,0.363,0.363,0.363h2.034
		C198.325,461.613,198.489,461.45,198.489,461.25L198.489,461.25L198.489,461.25z M209.718,451.404c0-0.109-0.109-0.2-0.272-0.2
		h-2.598c-0.145,0-0.327,0.055-0.472,0.272l-2.762,4.16v-7.596c0-0.2-0.164-0.362-0.363-0.362h-2.197
		c-0.2,0-0.381,0.162-0.381,0.362v13.189c0,0.199,0.181,0.381,0.381,0.381h2.197c0.199,0,0.363-0.182,0.363-0.381v-4.145
		l2.616,4.271c0.146,0.218,0.255,0.254,0.454,0.254h2.744c0.146,0,0.236-0.109,0.236-0.236l-0.036-0.145l-3.361-5.051l3.379-4.598
		L209.718,451.404L209.718,451.404z"/>
	<path fill="#003D79" d="M37.717,425.378v-0.766c0-0.223-0.182-0.403-0.403-0.403h-6.189v-2.802c0-1.532,0.343-2.097,2.48-2.097
		h3.891c0.141,0,0.222-0.103,0.222-0.242v-1.008c0-0.121-0.081-0.265-0.202-0.283c-0.847-0.079-2.742-0.12-3.931-0.12
		c-2.822,0-4.293,1.069-4.293,3.75v10.966c0,0.224,0.181,0.403,0.403,0.403h1.028c0.222,0,0.403-0.182,0.403-0.403v-6.592h6.189
		C37.535,425.781,37.717,425.602,37.717,425.378L37.717,425.378z M48.477,427.999v-1.532c0-2.964-1.532-4.919-4.496-4.919
		s-4.475,1.955-4.475,4.919v1.532c0,2.963,1.512,4.919,4.475,4.919S48.477,430.962,48.477,427.999L48.477,427.999z M46.703,427.999
		c0,2.076-0.847,3.366-2.722,3.366c-1.895,0-2.701-1.311-2.701-3.366v-1.532c0-2.075,0.827-3.365,2.701-3.365
		c1.895,0,2.722,1.311,2.722,3.365V427.999L46.703,427.999z M52.344,432.373V418c0-0.222-0.161-0.383-0.363-0.383h-1.048
		c-0.222,0-0.363,0.181-0.363,0.383v14.373c0,0.224,0.161,0.403,0.363,0.403h1.048C52.202,432.776,52.344,432.575,52.344,432.373
		L52.344,432.373z M56.639,432.373V418c0-0.222-0.162-0.383-0.363-0.383h-1.048c-0.222,0-0.363,0.181-0.363,0.383v14.373
		c0,0.224,0.162,0.403,0.363,0.403h1.048C56.498,432.776,56.639,432.575,56.639,432.373L56.639,432.373z M67.682,427.999v-1.532
		c0-2.964-1.532-4.919-4.496-4.919c-2.963,0-4.475,1.955-4.475,4.919v1.532c0,2.963,1.512,4.919,4.475,4.919
		C66.15,432.918,67.682,430.962,67.682,427.999L67.682,427.999z M65.908,427.999c0,2.076-0.847,3.366-2.722,3.366
		c-1.895,0-2.701-1.311-2.701-3.366v-1.532c0-2.075,0.827-3.365,2.701-3.365c1.895,0,2.722,1.311,2.722,3.365V427.999
		L65.908,427.999z M83.204,422.092c0-0.199-0.162-0.4-0.383-0.4h-1.088c-0.182,0-0.323,0.16-0.343,0.322l-1.673,9.19
		c-0.04,0.242-0.101,0.242-0.161,0.242s-0.121-0.062-0.161-0.242l-1.976-7.741c-0.121-0.441-0.383-0.604-0.807-0.604h-1.129
		c-0.423,0-0.685,0.162-0.806,0.604l-1.976,7.741c-0.041,0.183-0.101,0.242-0.161,0.242c-0.061,0-0.121,0-0.162-0.242l-1.673-9.19
		c-0.021-0.162-0.162-0.322-0.343-0.322h-1.089c-0.222,0-0.383,0.201-0.383,0.4v0.081l1.956,9.354
		c0.262,1.249,0.483,1.391,1.693,1.391c1.048,0,1.351-0.282,1.653-1.452l1.754-6.854c0.04-0.142,0.04-0.142,0.101-0.142
		s0.061,0,0.101,0.142l1.754,6.854c0.322,1.271,0.604,1.452,1.653,1.452c1.209,0,1.431-0.121,1.693-1.391l1.956-9.354V422.092
		L83.204,422.092z M98.202,432.373v-10.281c0-0.222-0.181-0.4-0.383-0.4h-0.988c-0.222,0-0.403,0.201-0.403,0.4v8.509
		c-0.927,0.464-1.875,0.785-2.721,0.785c-1.532,0-2.218-0.625-2.218-2.66v-6.634c0-0.222-0.181-0.4-0.403-0.4h-0.968
		c-0.222,0-0.403,0.181-0.403,0.4v6.634c0,2.683,1.089,4.192,3.508,4.192c1.189,0,2.097-0.303,3.205-0.928v0.383
		c0,0.224,0.162,0.403,0.383,0.403h1.008C98.041,432.776,98.202,432.596,98.202,432.373L98.202,432.373z M107.415,429.994
		c0-1.188-0.545-2.057-2.218-3.043l-1.996-1.19c-0.927-0.544-1.39-0.927-1.39-1.53c0-1.027,0.745-1.168,1.874-1.168
		s2.419,0.101,3.125,0.16h0.06c0.202,0,0.343-0.103,0.343-0.345v-0.665c0-0.222-0.121-0.361-0.383-0.4
		c-0.947-0.161-2.016-0.265-3.145-0.265c-2.076,0-3.648,0.585-3.648,2.683c0,1.271,0.826,2.138,2.056,2.884l2.036,1.209
		c1.149,0.686,1.512,1.068,1.512,1.673c0,1.089-0.686,1.432-1.996,1.432c-0.726,0-2.197-0.101-3.165-0.222h-0.081
		c-0.201,0-0.362,0.121-0.362,0.302v0.706c0,0.224,0.161,0.345,0.423,0.403c0.988,0.242,2.439,0.303,3.185,0.303
		C105.903,432.918,107.415,432.051,107.415,429.994L107.415,429.994z M122.775,427.999v-1.532c0-2.964-1.532-4.919-4.495-4.919
		c-2.963,0-4.475,1.955-4.475,4.919v1.532c0,2.963,1.512,4.919,4.475,4.919C121.243,432.918,122.775,430.962,122.775,427.999
		L122.775,427.999z M121.001,427.999c0,2.076-0.846,3.366-2.721,3.366c-1.896,0-2.701-1.311-2.701-3.366v-1.532
		c0-2.075,0.826-3.365,2.701-3.365c1.895,0,2.721,1.311,2.721,3.365V427.999L121.001,427.999z M133.256,432.373v-6.632
		c0-2.681-1.089-4.193-3.508-4.193c-1.189,0-2.096,0.304-3.205,0.929v-0.385c0-0.222-0.161-0.4-0.383-0.4h-1.008
		c-0.222,0-0.383,0.181-0.383,0.4v10.281c0,0.224,0.181,0.403,0.383,0.403h0.988c0.222,0,0.403-0.201,0.403-0.403v-8.507
		c0.927-0.463,1.875-0.786,2.721-0.786c1.532,0,2.218,0.625,2.218,2.661v6.632c0,0.224,0.181,0.403,0.403,0.403h0.968
		C133.074,432.776,133.256,432.596,133.256,432.373L133.256,432.373z"/>
	<path fill="#003D79" d="M86.16,142.045v-1.58c0-0.22-0.18-0.38-0.4-0.38h-9.78c-0.22,0-0.4,0.16-0.4,0.38v1.58
		c0,0.22,0.18,0.36,0.4,0.36h3.5v12.14c0,0.22,0.18,0.4,0.4,0.4h1.98c0.22,0,0.4-0.181,0.4-0.4v-12.14h3.5
		C85.98,142.405,86.16,142.265,86.16,142.045L86.16,142.045z M97.272,154.525v-6.58c0-2.46-0.82-4.42-3.58-4.42
		c-1.42,0-2.26,0.28-3.02,0.74v-4.14c0-0.22-0.18-0.4-0.4-0.4h-1.84c-0.22,0-0.4,0.18-0.4,0.4v14.4c0,0.22,0.18,0.42,0.4,0.42h1.84
		c0.22,0,0.4-0.2,0.4-0.42v-8.08c0.84-0.44,1.64-0.681,2.32-0.681c1.34,0,1.64,0.44,1.64,2.181v6.58c0,0.22,0.18,0.42,0.4,0.42h1.84
		C97.092,154.945,97.272,154.745,97.272,154.525L97.272,154.525z M108.996,149.725v-1.12c0-2.98-1.68-5.08-4.76-5.08
		c-3.06,0-4.8,1.96-4.8,5.08v1.479c0,3.94,2.84,5.021,4.84,5.021c1.8,0,2.58-0.1,3.88-0.34c0.36-0.06,0.42-0.2,0.42-0.52v-1.32
		c0-0.2-0.16-0.3-0.36-0.3h-0.06c-0.84,0.08-2.22,0.2-3.68,0.2c-1.92,0-2.4-1.38-2.4-2.54v-0.06h6.52
		C108.876,150.225,108.996,150.045,108.996,149.725L108.996,149.725z M106.336,148.345h-4.24v-0.08c0-1.58,0.9-2.46,2.14-2.46
		c1.24,0,2.1,0.9,2.1,2.46V148.345L106.336,148.345z M125.596,150.085v-1.54c0-3.12-1.56-5.02-4.78-5.02
		c-0.48,0-1.18,0.04-1.92,0.14v-3.54c0-0.22-0.18-0.4-0.4-0.4h-1.84c-0.22,0-0.4,0.18-0.4,0.4v13.92c0,0.3,0.08,0.42,0.54,0.54
		c1.24,0.32,2.74,0.521,4.02,0.521C124.036,155.105,125.596,153.205,125.596,150.085L125.596,150.085z M122.956,150.085
		c0,1.64-0.42,2.86-2.14,2.86c-0.72,0-1.54-0.061-1.92-0.141v-6.979c0.56-0.08,1.44-0.14,1.92-0.14c1.72,0,2.14,1.22,2.14,2.86
		V150.085L122.956,150.085z M133.584,145.365v-1.44c0-0.22-0.18-0.4-0.4-0.4c-0.8,0-1.88,0.2-2.86,0.96v-0.42
		c0-0.22-0.18-0.4-0.4-0.4h-1.74c-0.22,0-0.4,0.18-0.4,0.4v10.46c0,0.22,0.18,0.42,0.4,0.42h1.84c0.22,0,0.4-0.2,0.4-0.42v-8.04
		c0.84-0.44,1.68-0.72,2.76-0.72C133.404,145.765,133.584,145.585,133.584,145.365L133.584,145.365z M138.062,141.765v-1.76
		c0-0.22-0.18-0.4-0.4-0.4h-1.94c-0.22,0-0.42,0.18-0.42,0.4v1.76c0,0.221,0.2,0.4,0.42,0.4h1.94
		C137.882,142.165,138.062,141.985,138.062,141.765L138.062,141.765z M138.002,154.525v-10.46c0-0.22-0.18-0.4-0.4-0.4h-1.84
		c-0.22,0-0.399,0.18-0.399,0.4v10.46c0,0.22,0.18,0.42,0.399,0.42h1.84C137.822,154.945,138.002,154.745,138.002,154.525
		L138.002,154.525z M149.735,149.725v-1.12c0-2.98-1.68-5.08-4.76-5.08c-3.06,0-4.8,1.96-4.8,5.08v1.479
		c0,3.94,2.84,5.021,4.84,5.021c1.8,0,2.58-0.1,3.88-0.34c0.36-0.06,0.42-0.2,0.42-0.52v-1.32c0-0.2-0.16-0.3-0.36-0.3h-0.06
		c-0.84,0.08-2.22,0.2-3.68,0.2c-1.92,0-2.4-1.38-2.4-2.54v-0.06h6.52C149.615,150.225,149.735,150.045,149.735,149.725
		L149.735,149.725z M147.075,148.345h-4.24v-0.08c0-1.58,0.9-2.46,2.14-2.46c1.24,0,2.1,0.9,2.1,2.46V148.345L147.075,148.345z
		 M158.061,141.145v-1.18c0-0.18-0.2-0.28-0.36-0.32c-0.38-0.08-0.72-0.16-1.2-0.16c-2.08,0-3.46,0.62-3.46,3.2v0.98h-1.78
		c-0.22,0-0.4,0.18-0.4,0.4v0.92c0,0.22,0.18,0.34,0.4,0.38l1.78,0.28v8.88c0,0.22,0.2,0.42,0.42,0.42h1.82c0.22,0,0.4-0.2,0.4-0.42
		v-8.88h1.92c0.22,0,0.4-0.16,0.4-0.38v-1.2c0-0.22-0.18-0.4-0.4-0.4h-1.92v-0.98c0-0.98,0.22-1.2,1.18-1.2h0.9
		C157.901,141.485,158.061,141.385,158.061,141.145L158.061,141.145z"/>
	<path fill="#003D79" d="M86.16,202.045v-1.58c0-0.22-0.18-0.38-0.4-0.38h-9.78c-0.22,0-0.4,0.16-0.4,0.38v1.58
		c0,0.22,0.18,0.36,0.4,0.36h3.5v12.14c0,0.22,0.18,0.4,0.4,0.4h1.98c0.22,0,0.4-0.181,0.4-0.4v-12.14h3.5
		C85.98,202.405,86.16,202.265,86.16,202.045L86.16,202.045z M97.272,214.525v-6.58c0-2.46-0.82-4.42-3.58-4.42
		c-1.42,0-2.26,0.28-3.02,0.74v-4.14c0-0.22-0.18-0.4-0.4-0.4h-1.84c-0.22,0-0.4,0.18-0.4,0.4v14.4c0,0.22,0.18,0.42,0.4,0.42h1.84
		c0.22,0,0.4-0.2,0.4-0.42v-8.08c0.84-0.44,1.64-0.681,2.32-0.681c1.34,0,1.64,0.44,1.64,2.181v6.58c0,0.22,0.18,0.42,0.4,0.42h1.84
		C97.092,214.945,97.272,214.745,97.272,214.525L97.272,214.525z M108.996,209.725v-1.12c0-2.98-1.68-5.08-4.76-5.08
		c-3.06,0-4.8,1.96-4.8,5.08v1.48c0,3.94,2.84,5.02,4.84,5.02c1.8,0,2.58-0.1,3.88-0.34c0.36-0.06,0.42-0.2,0.42-0.52v-1.32
		c0-0.2-0.16-0.3-0.36-0.3h-0.06c-0.84,0.08-2.22,0.2-3.68,0.2c-1.92,0-2.4-1.38-2.4-2.54v-0.06h6.52
		C108.876,210.225,108.996,210.045,108.996,209.725L108.996,209.725z M106.336,208.345h-4.24v-0.08c0-1.58,0.9-2.46,2.14-2.46
		c1.24,0,2.1,0.9,2.1,2.46V208.345L106.336,208.345z M122.056,205.365v-1.44c0-0.22-0.18-0.4-0.4-0.4c-0.8,0-1.88,0.2-2.86,0.96
		v-0.42c0-0.22-0.18-0.4-0.4-0.4h-1.74c-0.22,0-0.4,0.18-0.4,0.4v10.46c0,0.22,0.18,0.42,0.4,0.42h1.84c0.22,0,0.4-0.2,0.4-0.42
		v-8.04c0.84-0.44,1.68-0.72,2.76-0.72C121.876,205.765,122.056,205.585,122.056,205.365L122.056,205.365z M132.892,209.725v-1.12
		c0-2.98-1.68-5.08-4.76-5.08c-3.06,0-4.8,1.96-4.8,5.08v1.48c0,3.94,2.84,5.02,4.84,5.02c1.8,0,2.58-0.1,3.88-0.34
		c0.36-0.06,0.42-0.2,0.42-0.52v-1.32c0-0.2-0.16-0.3-0.36-0.3h-0.061c-0.84,0.08-2.22,0.2-3.68,0.2c-1.92,0-2.4-1.38-2.4-2.54
		v-0.06h6.52C132.772,210.225,132.892,210.045,132.892,209.725L132.892,209.725z M130.232,208.345h-4.24v-0.08
		c0-1.58,0.9-2.46,2.14-2.46c1.24,0,2.1,0.9,2.1,2.46V208.345L130.232,208.345z M142.639,211.985c0-1.021-0.24-2.021-1.92-3.04
		l-2.62-1.601c-0.5-0.3-0.8-0.5-0.8-0.82c0-0.62,0.42-0.84,1.38-0.84c1.14,0,2.74,0.16,3.3,0.24h0.08c0.2,0,0.32-0.14,0.32-0.38
		v-1.16c0-0.24-0.12-0.399-0.36-0.46c-1.02-0.22-1.94-0.4-3.56-0.4c-2.54,0-3.8,1-3.8,3c0,1.16,0.7,2.16,1.68,2.76l2.74,1.68
		c0.64,0.4,0.88,0.64,0.88,1.02c0,0.54-0.18,0.96-1.42,0.96c-0.6,0-2.4-0.101-3.36-0.22h-0.08c-0.2,0-0.34,0.16-0.34,0.32v1.2
		c0,0.24,0.14,0.4,0.38,0.46c1.12,0.3,2.8,0.4,3.58,0.4C141.339,215.105,142.639,213.725,142.639,211.985L142.639,211.985z
		 M153.985,210.085v-1.54c0-3.12-1.56-5.02-4.78-5.02c-1.28,0-2.78,0.2-4.02,0.52c-0.46,0.12-0.54,0.24-0.54,0.54v13.92
		c0,0.22,0.18,0.4,0.4,0.4h1.84c0.22,0,0.4-0.18,0.4-0.4v-3.54c0.74,0.1,1.44,0.14,1.92,0.14
		C152.425,215.105,153.985,213.205,153.985,210.085L153.985,210.085z M151.345,210.085c0,1.64-0.42,2.86-2.14,2.86
		c-0.48,0-1.36-0.061-1.92-0.141v-6.979c0.38-0.08,1.2-0.14,1.92-0.14c1.72,0,2.14,1.22,2.14,2.86V210.085L151.345,210.085z
		 M165.383,210.125v-1.62c0-2.86-1.64-4.98-4.78-4.98s-4.78,2.12-4.78,4.98v1.62c0,2.86,1.64,4.98,4.78,4.98
		S165.383,212.985,165.383,210.125L165.383,210.125z M162.743,210.125c0,1.64-0.74,2.7-2.14,2.7s-2.14-1.061-2.14-2.7v-1.62
		c0-1.64,0.74-2.7,2.14-2.7s2.14,1.061,2.14,2.7V210.125L162.743,210.125z M176.815,214.525v-6.52c0-2.54-0.58-4.48-3.46-4.48
		c-1.32,0-2.08,0.22-3.24,0.96v-0.42c0-0.22-0.18-0.4-0.4-0.4h-1.74c-0.22,0-0.4,0.18-0.4,0.4v10.46c0,0.22,0.18,0.42,0.4,0.42h1.84
		c0.22,0,0.4-0.2,0.4-0.42v-8.04c0.84-0.44,1.58-0.72,2.26-0.72c1.54,0,1.7,0.5,1.7,2.24v6.52c0,0.22,0.18,0.42,0.4,0.42h1.84
		C176.635,214.945,176.815,214.745,176.815,214.525L176.815,214.525z M186.837,211.985c0-1.021-0.24-2.021-1.92-3.04l-2.62-1.601
		c-0.5-0.3-0.8-0.5-0.8-0.82c0-0.62,0.42-0.84,1.38-0.84c1.14,0,2.74,0.16,3.3,0.24h0.08c0.2,0,0.32-0.14,0.32-0.38v-1.16
		c0-0.24-0.12-0.399-0.36-0.46c-1.02-0.22-1.94-0.4-3.56-0.4c-2.54,0-3.8,1-3.8,3c0,1.16,0.7,2.16,1.68,2.76l2.74,1.68
		c0.64,0.4,0.88,0.64,0.88,1.02c0,0.54-0.18,0.96-1.42,0.96c-0.601,0-2.4-0.101-3.36-0.22h-0.08c-0.2,0-0.34,0.16-0.34,0.32v1.2
		c0,0.24,0.14,0.4,0.38,0.46c1.12,0.3,2.8,0.4,3.58,0.4C185.537,215.105,186.837,213.725,186.837,211.985L186.837,211.985z
		 M191.573,201.765v-1.76c0-0.22-0.18-0.4-0.4-0.4h-1.94c-0.22,0-0.42,0.18-0.42,0.4v1.76c0,0.221,0.2,0.4,0.42,0.4h1.94
		C191.393,202.165,191.573,201.985,191.573,201.765L191.573,201.765z M191.513,214.525v-10.46c0-0.22-0.18-0.4-0.399-0.4h-1.84
		c-0.22,0-0.4,0.18-0.4,0.4v10.46c0,0.22,0.18,0.42,0.4,0.42h1.84C191.333,214.945,191.513,214.745,191.513,214.525L191.513,214.525
		z M203.387,210.085v-1.54c0-3.12-1.56-5.02-4.78-5.02c-0.48,0-1.18,0.04-1.92,0.14v-3.54c0-0.22-0.18-0.4-0.4-0.4h-1.84
		c-0.22,0-0.4,0.18-0.4,0.4v13.92c0,0.3,0.08,0.42,0.54,0.54c1.24,0.32,2.74,0.52,4.02,0.52
		C201.827,215.105,203.387,213.205,203.387,210.085L203.387,210.085z M200.747,210.085c0,1.64-0.42,2.86-2.14,2.86
		c-0.72,0-1.54-0.061-1.92-0.141v-6.979c0.56-0.08,1.44-0.14,1.92-0.14c1.72,0,2.14,1.22,2.14,2.86V210.085L200.747,210.085z
		 M208.263,214.525v-14.4c0-0.22-0.16-0.4-0.38-0.4h-1.86c-0.22,0-0.4,0.18-0.4,0.4v14.4c0,0.22,0.18,0.42,0.4,0.42h1.86
		C208.103,214.945,208.263,214.745,208.263,214.525L208.263,214.525z M220.044,209.725v-1.12c0-2.98-1.68-5.08-4.76-5.08
		c-3.06,0-4.8,1.96-4.8,5.08v1.48c0,3.94,2.84,5.02,4.84,5.02c1.8,0,2.58-0.1,3.88-0.34c0.36-0.06,0.42-0.2,0.42-0.52v-1.32
		c0-0.2-0.16-0.3-0.36-0.3h-0.06c-0.84,0.08-2.22,0.2-3.68,0.2c-1.92,0-2.4-1.38-2.4-2.54v-0.06h6.52
		C219.924,210.225,220.044,210.045,220.044,209.725L220.044,209.725z M217.384,208.345h-4.24v-0.08c0-1.58,0.9-2.46,2.14-2.46
		c1.24,0,2.1,0.9,2.1,2.46V208.345L217.384,208.345z M234.884,211.985c0-1.021-0.24-2.021-1.92-3.04l-2.62-1.601
		c-0.5-0.3-0.8-0.5-0.8-0.82c0-0.62,0.42-0.84,1.38-0.84c1.14,0,2.74,0.16,3.3,0.24h0.08c0.2,0,0.32-0.14,0.32-0.38v-1.16
		c0-0.24-0.12-0.399-0.36-0.46c-1.02-0.22-1.94-0.4-3.56-0.4c-2.54,0-3.8,1-3.8,3c0,1.16,0.7,2.16,1.68,2.76l2.74,1.68
		c0.64,0.4,0.88,0.64,0.88,1.02c0,0.54-0.18,0.96-1.42,0.96c-0.6,0-2.4-0.101-3.36-0.22h-0.08c-0.2,0-0.34,0.16-0.34,0.32v1.2
		c0,0.24,0.14,0.4,0.38,0.46c1.12,0.3,2.8,0.4,3.58,0.4C233.584,215.105,234.884,213.725,234.884,211.985L234.884,211.985z
		 M246.242,210.125v-1.62c0-2.86-1.64-4.98-4.78-4.98c-3.14,0-4.78,2.12-4.78,4.98v1.62c0,2.86,1.64,4.98,4.78,4.98
		C244.602,215.105,246.242,212.985,246.242,210.125L246.242,210.125z M243.602,210.125c0,1.64-0.74,2.7-2.14,2.7
		c-1.4,0-2.14-1.061-2.14-2.7v-1.62c0-1.64,0.74-2.7,2.14-2.7c1.4,0,2.14,1.061,2.14,2.7V210.125L243.602,210.125z M251.124,214.525
		v-14.4c0-0.22-0.16-0.4-0.38-0.4h-1.86c-0.22,0-0.4,0.18-0.4,0.4v14.4c0,0.22,0.18,0.42,0.4,0.42h1.86
		C250.964,214.945,251.124,214.745,251.124,214.525L251.124,214.525z M262.908,214.545v-10.46c0-0.22-0.18-0.42-0.4-0.42h-1.84
		c-0.22,0-0.4,0.2-0.4,0.42v8c-0.56,0.3-1.52,0.8-2.26,0.8c-0.62,0-0.96-0.12-1.24-0.36c-0.38-0.34-0.46-0.92-0.46-1.92v-6.521
		c0-0.22-0.18-0.42-0.4-0.42h-1.84c-0.22,0-0.4,0.2-0.4,0.42v6.521c0,1.66,0.26,2.9,1,3.64c0.58,0.58,1.46,0.84,2.46,0.84
		c1.28,0,2.1-0.32,3.14-1v0.46c0,0.22,0.18,0.4,0.4,0.4h1.84C262.728,214.945,262.908,214.765,262.908,214.545L262.908,214.545z
		 M271.866,214.605v-1.26c0-0.2-0.16-0.3-0.42-0.3h-1.061c-0.72,0-0.78-0.12-0.78-1.12v-6.28h1.8c0.22,0,0.399-0.18,0.399-0.4v-1.18
		c0-0.22-0.18-0.4-0.399-0.4h-1.8v-2.06c0-0.2-0.14-0.3-0.32-0.3h-0.08l-1.86,0.32c-0.22,0.04-0.399,0.18-0.399,0.4v1.64h-1.88
		c-0.22,0-0.4,0.18-0.4,0.4v0.9c0,0.22,0.18,0.36,0.4,0.4l1.88,0.28v6.28c0,2.68,0.92,3.18,3.18,3.18c0.44,0,0.88-0.06,1.36-0.14
		C271.746,214.925,271.866,214.805,271.866,214.605L271.866,214.605z M276.394,201.765v-1.76c0-0.22-0.18-0.4-0.4-0.4h-1.94
		c-0.22,0-0.42,0.18-0.42,0.4v1.76c0,0.221,0.2,0.4,0.42,0.4h1.94C276.214,202.165,276.394,201.985,276.394,201.765L276.394,201.765
		z M276.334,214.525v-10.46c0-0.22-0.18-0.4-0.4-0.4h-1.84c-0.22,0-0.399,0.18-0.399,0.4v10.46c0,0.22,0.18,0.42,0.399,0.42h1.84
		C276.154,214.945,276.334,214.745,276.334,214.525L276.334,214.525z M288.067,210.125v-1.62c0-2.86-1.64-4.98-4.78-4.98
		c-3.14,0-4.78,2.12-4.78,4.98v1.62c0,2.86,1.64,4.98,4.78,4.98C286.427,215.105,288.067,212.985,288.067,210.125L288.067,210.125z
		 M285.427,210.125c0,1.64-0.74,2.7-2.14,2.7c-1.4,0-2.14-1.061-2.14-2.7v-1.62c0-1.64,0.74-2.7,2.14-2.7c1.4,0,2.14,1.061,2.14,2.7
		V210.125L285.427,210.125z M299.499,214.525v-6.52c0-2.54-0.58-4.48-3.46-4.48c-1.32,0-2.08,0.22-3.24,0.96v-0.42
		c0-0.22-0.18-0.4-0.4-0.4h-1.74c-0.22,0-0.4,0.18-0.4,0.4v10.46c0,0.22,0.18,0.42,0.4,0.42h1.84c0.22,0,0.4-0.2,0.4-0.42v-8.04
		c0.84-0.44,1.58-0.72,2.26-0.72c1.54,0,1.7,0.5,1.7,2.24v6.52c0,0.22,0.18,0.42,0.4,0.42h1.84
		C299.319,214.945,299.499,214.745,299.499,214.525L299.499,214.525z"/>
	<path fill="#003D79" d="M86.16,262.045v-1.58c0-0.22-0.18-0.38-0.4-0.38h-9.78c-0.22,0-0.4,0.16-0.4,0.38v1.58
		c0,0.22,0.18,0.36,0.4,0.36h3.5v12.14c0,0.22,0.18,0.4,0.4,0.4h1.98c0.22,0,0.4-0.18,0.4-0.4v-12.14h3.5
		C85.98,262.405,86.16,262.265,86.16,262.045L86.16,262.045z M97.272,274.525v-6.58c0-2.46-0.82-4.42-3.58-4.42
		c-1.42,0-2.26,0.28-3.02,0.74v-4.14c0-0.22-0.18-0.4-0.4-0.4h-1.84c-0.22,0-0.4,0.18-0.4,0.4v14.4c0,0.22,0.18,0.42,0.4,0.42h1.84
		c0.22,0,0.4-0.2,0.4-0.42v-8.08c0.84-0.44,1.64-0.681,2.32-0.681c1.34,0,1.64,0.44,1.64,2.181v6.58c0,0.22,0.18,0.42,0.4,0.42h1.84
		C97.092,274.945,97.272,274.745,97.272,274.525L97.272,274.525z M108.996,269.725v-1.12c0-2.98-1.68-5.08-4.76-5.08
		c-3.06,0-4.8,1.96-4.8,5.08v1.48c0,3.94,2.84,5.02,4.84,5.02c1.8,0,2.58-0.1,3.88-0.34c0.36-0.06,0.42-0.2,0.42-0.52v-1.32
		c0-0.2-0.16-0.3-0.36-0.3h-0.06c-0.84,0.08-2.22,0.2-3.68,0.2c-1.92,0-2.4-1.38-2.4-2.54v-0.06h6.52
		C108.876,270.225,108.996,270.045,108.996,269.725L108.996,269.725z M106.336,268.345h-4.24v-0.08c0-1.58,0.9-2.46,2.14-2.46
		c1.24,0,2.1,0.9,2.1,2.46V268.345L106.336,268.345z M125.596,270.085v-1.54c0-3.12-1.56-5.02-4.78-5.02
		c-0.48,0-1.18,0.04-1.92,0.14v-3.54c0-0.22-0.18-0.4-0.4-0.4h-1.84c-0.22,0-0.4,0.18-0.4,0.4v13.92c0,0.3,0.08,0.42,0.54,0.54
		c1.24,0.32,2.74,0.52,4.02,0.52C124.036,275.105,125.596,273.205,125.596,270.085L125.596,270.085z M122.956,270.085
		c0,1.64-0.42,2.86-2.14,2.86c-0.72,0-1.54-0.061-1.92-0.141v-6.979c0.56-0.08,1.44-0.14,1.92-0.14c1.72,0,2.14,1.22,2.14,2.86
		V270.085L122.956,270.085z M136.994,269.725v-1.12c0-2.98-1.68-5.08-4.76-5.08c-3.06,0-4.8,1.96-4.8,5.08v1.48
		c0,3.94,2.84,5.02,4.84,5.02c1.8,0,2.58-0.1,3.88-0.34c0.36-0.06,0.42-0.2,0.42-0.52v-1.32c0-0.2-0.16-0.3-0.36-0.3h-0.06
		c-0.84,0.08-2.22,0.2-3.68,0.2c-1.92,0-2.4-1.38-2.4-2.54v-0.06h6.52C136.874,270.225,136.994,270.045,136.994,269.725
		L136.994,269.725z M134.334,268.345h-4.24v-0.08c0-1.58,0.9-2.46,2.14-2.46c1.24,0,2.1,0.9,2.1,2.46V268.345L134.334,268.345z
		 M148.397,274.525v-6.52c0-2.54-0.58-4.48-3.46-4.48c-1.32,0-2.08,0.22-3.24,0.96v-0.42c0-0.22-0.18-0.4-0.4-0.4h-1.74
		c-0.22,0-0.4,0.18-0.4,0.4v10.46c0,0.22,0.18,0.42,0.4,0.42h1.84c0.22,0,0.4-0.2,0.4-0.42v-8.04c0.84-0.44,1.58-0.72,2.26-0.72
		c1.54,0,1.7,0.5,1.7,2.24v6.52c0,0.22,0.18,0.42,0.4,0.42h1.84C148.217,274.945,148.397,274.745,148.397,274.525L148.397,274.525z
		 M160.121,269.725v-1.12c0-2.98-1.68-5.08-4.76-5.08c-3.06,0-4.8,1.96-4.8,5.08v1.48c0,3.94,2.84,5.02,4.84,5.02
		c1.8,0,2.58-0.1,3.88-0.34c0.36-0.06,0.42-0.2,0.42-0.52v-1.32c0-0.2-0.16-0.3-0.36-0.3h-0.06c-0.84,0.08-2.22,0.2-3.68,0.2
		c-1.92,0-2.4-1.38-2.4-2.54v-0.06h6.52C160.001,270.225,160.121,270.045,160.121,269.725L160.121,269.725z M157.461,268.345h-4.24
		v-0.08c0-1.58,0.9-2.46,2.14-2.46c1.24,0,2.1,0.9,2.1,2.46V268.345L157.461,268.345z M172.851,261.765v-1.76
		c0-0.22-0.18-0.4-0.4-0.4h-1.94c-0.22,0-0.42,0.18-0.42,0.4v1.76c0,0.22,0.2,0.4,0.42,0.4h1.94
		C172.671,262.165,172.851,261.985,172.851,261.765L172.851,261.765z M172.791,274.525v-10.46c0-0.22-0.18-0.4-0.4-0.4h-1.84
		c-0.22,0-0.4,0.18-0.4,0.4v10.46c0,0.22,0.18,0.42,0.4,0.42h1.84C172.611,274.945,172.791,274.745,172.791,274.525L172.791,274.525
		z M168.511,261.145v-1.18c0-0.18-0.2-0.28-0.36-0.32c-0.38-0.08-0.72-0.16-1.2-0.16c-2.08,0-3.46,0.62-3.46,3.2v0.98h-1.78
		c-0.22,0-0.4,0.18-0.4,0.4v0.92c0,0.22,0.18,0.34,0.4,0.38l1.78,0.28v8.88c0,0.22,0.2,0.42,0.42,0.42h1.82c0.22,0,0.4-0.2,0.4-0.42
		v-8.88h1.92c0.22,0,0.4-0.16,0.4-0.38v-1.2c0-0.22-0.18-0.4-0.4-0.4h-1.92v-0.98c0-0.98,0.22-1.2,1.18-1.2h0.9
		C168.351,261.485,168.511,261.385,168.511,261.145L168.511,261.145z M181.853,274.605v-1.26c0-0.2-0.16-0.3-0.42-0.3h-1.06
		c-0.72,0-0.78-0.12-0.78-1.12v-6.28h1.8c0.22,0,0.4-0.18,0.4-0.4v-1.18c0-0.22-0.18-0.4-0.4-0.4h-1.8v-2.06
		c0-0.2-0.14-0.3-0.32-0.3h-0.08l-1.86,0.32c-0.22,0.04-0.4,0.18-0.4,0.4v1.64h-1.88c-0.22,0-0.4,0.18-0.4,0.4v0.9
		c0,0.22,0.18,0.36,0.4,0.4l1.88,0.28v6.28c0,2.68,0.92,3.18,3.18,3.18c0.439,0,0.88-0.06,1.36-0.14
		C181.733,274.925,181.853,274.805,181.853,274.605L181.853,274.605z M191.383,271.985c0-1.02-0.24-2.02-1.92-3.04l-2.62-1.601
		c-0.5-0.3-0.8-0.5-0.8-0.82c0-0.62,0.42-0.84,1.38-0.84c1.14,0,2.74,0.16,3.3,0.24h0.08c0.2,0,0.32-0.14,0.32-0.38v-1.16
		c0-0.24-0.12-0.4-0.36-0.46c-1.02-0.22-1.94-0.4-3.56-0.4c-2.54,0-3.8,1-3.8,3c0,1.16,0.7,2.16,1.68,2.76l2.74,1.68
		c0.64,0.4,0.88,0.64,0.88,1.02c0,0.54-0.18,0.96-1.42,0.96c-0.6,0-2.4-0.1-3.36-0.22h-0.08c-0.2,0-0.34,0.16-0.34,0.32v1.2
		c0,0.24,0.14,0.4,0.38,0.46c1.12,0.3,2.8,0.4,3.58,0.4C190.083,275.105,191.383,273.725,191.383,271.985L191.383,271.985z"/>
	<path fill="#003D79" d="M86.16,322.045v-1.58c0-0.22-0.18-0.38-0.4-0.38h-9.78c-0.22,0-0.4,0.16-0.4,0.38v1.58
		c0,0.221,0.18,0.36,0.4,0.36h3.5v12.14c0,0.221,0.18,0.4,0.4,0.4h1.98c0.22,0,0.4-0.18,0.4-0.4v-12.14h3.5
		C85.98,322.405,86.16,322.266,86.16,322.045L86.16,322.045z M97.272,334.525v-6.58c0-2.46-0.82-4.42-3.58-4.42
		c-1.42,0-2.26,0.28-3.02,0.74v-4.141c0-0.22-0.18-0.399-0.4-0.399h-1.84c-0.22,0-0.4,0.18-0.4,0.399v14.4
		c0,0.22,0.18,0.42,0.4,0.42h1.84c0.22,0,0.4-0.2,0.4-0.42v-8.08c0.84-0.44,1.64-0.681,2.32-0.681c1.34,0,1.64,0.439,1.64,2.181
		v6.58c0,0.22,0.18,0.42,0.4,0.42h1.84C97.092,334.945,97.272,334.745,97.272,334.525L97.272,334.525z M108.996,329.726v-1.12
		c0-2.98-1.68-5.08-4.76-5.08c-3.06,0-4.8,1.96-4.8,5.08v1.479c0,3.94,2.84,5.021,4.84,5.021c1.8,0,2.58-0.101,3.88-0.34
		c0.36-0.061,0.42-0.2,0.42-0.521v-1.32c0-0.199-0.16-0.3-0.36-0.3h-0.06c-0.84,0.08-2.22,0.2-3.68,0.2c-1.92,0-2.4-1.38-2.4-2.54
		v-0.06h6.52C108.876,330.226,108.996,330.045,108.996,329.726L108.996,329.726z M106.336,328.345h-4.24v-0.079
		c0-1.58,0.9-2.46,2.14-2.46c1.24,0,2.1,0.899,2.1,2.46V328.345L106.336,328.345z M123.416,334.325v-1.3c0-0.2-0.16-0.3-0.36-0.3
		h-0.06c-0.8,0.1-1.28,0.14-2.58,0.14c-0.94,0-1.92-0.54-1.92-2.62v-1.859c0-2.08,0.98-2.62,1.92-2.62c1.3,0,1.78,0.04,2.58,0.14
		h0.06c0.2,0,0.36-0.1,0.36-0.3v-1.3c0-0.32-0.08-0.44-0.42-0.521c-0.46-0.12-1.36-0.26-2.58-0.26c-2.6,0-4.56,1.6-4.56,4.859v1.859
		c0,3.26,1.96,4.86,4.56,4.86c1.22,0,2.12-0.141,2.58-0.26C123.336,334.766,123.416,334.646,123.416,334.325L123.416,334.325z
		 M134.559,330.125v-1.62c0-2.859-1.64-4.979-4.78-4.979c-3.14,0-4.78,2.12-4.78,4.979v1.62c0,2.86,1.64,4.98,4.78,4.98
		C132.919,335.105,134.559,332.985,134.559,330.125L134.559,330.125z M131.919,330.125c0,1.641-0.74,2.7-2.14,2.7
		c-1.4,0-2.14-1.06-2.14-2.7v-1.62c0-1.64,0.74-2.699,2.14-2.699c1.399,0,2.14,1.061,2.14,2.699V330.125L131.919,330.125z
		 M145.991,334.525v-6.521c0-2.54-0.58-4.479-3.46-4.479c-1.32,0-2.08,0.22-3.24,0.96v-0.42c0-0.221-0.18-0.4-0.4-0.4h-1.74
		c-0.22,0-0.4,0.18-0.4,0.4v10.46c0,0.22,0.18,0.42,0.4,0.42h1.84c0.22,0,0.4-0.2,0.4-0.42v-8.04c0.84-0.44,1.58-0.72,2.26-0.72
		c1.54,0,1.7,0.5,1.7,2.239v6.521c0,0.22,0.18,0.42,0.4,0.42h1.84C145.811,334.945,145.991,334.745,145.991,334.525L145.991,334.525
		z M155.715,334.325v-1.3c0-0.2-0.16-0.3-0.36-0.3h-0.06c-0.8,0.1-1.28,0.14-2.58,0.14c-0.94,0-1.92-0.54-1.92-2.62v-1.859
		c0-2.08,0.98-2.62,1.92-2.62c1.3,0,1.78,0.04,2.58,0.14h0.06c0.2,0,0.36-0.1,0.36-0.3v-1.3c0-0.32-0.08-0.44-0.42-0.521
		c-0.46-0.12-1.36-0.26-2.58-0.26c-2.6,0-4.56,1.6-4.56,4.859v1.859c0,3.26,1.96,4.86,4.56,4.86c1.22,0,2.12-0.141,2.58-0.26
		C155.635,334.766,155.715,334.646,155.715,334.325L155.715,334.325z M160.399,334.525v-14.4c0-0.22-0.16-0.399-0.38-0.399h-1.86
		c-0.22,0-0.4,0.18-0.4,0.399v14.4c0,0.22,0.18,0.42,0.4,0.42h1.86C160.239,334.945,160.399,334.745,160.399,334.525
		L160.399,334.525z M172.183,334.545v-10.46c0-0.22-0.18-0.42-0.4-0.42h-1.84c-0.22,0-0.4,0.2-0.4,0.42v8
		c-0.56,0.3-1.52,0.8-2.26,0.8c-0.62,0-0.96-0.119-1.24-0.359c-0.38-0.34-0.46-0.92-0.46-1.92v-6.521c0-0.22-0.18-0.42-0.4-0.42
		h-1.84c-0.22,0-0.4,0.2-0.4,0.42v6.521c0,1.66,0.26,2.899,1,3.64c0.58,0.58,1.46,0.84,2.46,0.84c1.28,0,2.1-0.319,3.14-1v0.46
		c0,0.221,0.18,0.4,0.4,0.4h1.84C172.003,334.945,172.183,334.766,172.183,334.545L172.183,334.545z M182.268,331.985
		c0-1.021-0.24-2.021-1.92-3.04l-2.62-1.602c-0.5-0.3-0.8-0.5-0.8-0.819c0-0.62,0.42-0.84,1.38-0.84c1.14,0,2.74,0.159,3.3,0.239
		h0.08c0.2,0,0.32-0.14,0.32-0.38v-1.16c0-0.239-0.12-0.399-0.36-0.46c-1.02-0.22-1.94-0.399-3.56-0.399c-2.54,0-3.8,1-3.8,3
		c0,1.16,0.7,2.16,1.68,2.76l2.74,1.68c0.64,0.4,0.88,0.641,0.88,1.021c0,0.54-0.18,0.96-1.42,0.96c-0.6,0-2.4-0.102-3.36-0.22
		h-0.08c-0.2,0-0.34,0.159-0.34,0.319v1.2c0,0.24,0.14,0.4,0.38,0.46c1.12,0.3,2.8,0.4,3.58,0.4
		C180.968,335.105,182.268,333.726,182.268,331.985L182.268,331.985z M187.004,321.766v-1.761c0-0.22-0.18-0.399-0.4-0.399h-1.94
		c-0.22,0-0.42,0.18-0.42,0.399v1.761c0,0.22,0.2,0.399,0.42,0.399h1.94C186.824,322.165,187.004,321.985,187.004,321.766
		L187.004,321.766z M186.944,334.525v-10.46c0-0.221-0.18-0.4-0.4-0.4h-1.84c-0.22,0-0.4,0.18-0.4,0.4v10.46
		c0,0.22,0.18,0.42,0.4,0.42h1.84C186.764,334.945,186.944,334.745,186.944,334.525L186.944,334.525z M198.678,330.125v-1.62
		c0-2.859-1.64-4.979-4.78-4.979s-4.78,2.12-4.78,4.979v1.62c0,2.86,1.64,4.98,4.78,4.98S198.678,332.985,198.678,330.125
		L198.678,330.125z M196.038,330.125c0,1.641-0.74,2.7-2.14,2.7s-2.14-1.06-2.14-2.7v-1.62c0-1.64,0.74-2.699,2.14-2.699
		s2.14,1.061,2.14,2.699V330.125L196.038,330.125z M210.11,334.525v-6.521c0-2.54-0.58-4.479-3.46-4.479
		c-1.32,0-2.08,0.22-3.24,0.96v-0.42c0-0.221-0.18-0.4-0.4-0.4h-1.74c-0.22,0-0.4,0.18-0.4,0.4v10.46c0,0.22,0.18,0.42,0.4,0.42
		h1.84c0.22,0,0.4-0.2,0.4-0.42v-8.04c0.84-0.44,1.58-0.72,2.26-0.72c1.54,0,1.7,0.5,1.7,2.239v6.521c0,0.22,0.18,0.42,0.4,0.42
		h1.84C209.93,334.945,210.11,334.745,210.11,334.525L210.11,334.525z"/>
	<g>
		<g>
			<g>
				<defs>
					<rect id="SVGID_1_" x="-0.8" y="0.45" width="1023.879" height="723.998"/>
				</defs>
				<clipPath id="SVGID_2_">
					<use xlink:href="#SVGID_1_"  overflow="visible"/>
				</clipPath>
				
					<line clip-path="url(#SVGID_2_)" fill="none" stroke="#003D79" stroke-width="2" stroke-linecap="round" stroke-linejoin="round" stroke-dasharray="0,4" x1="3.08" y1="177.222" x2="317.08" y2="177.222"/>
			</g>
		</g>
		<g>
			<g>
				<defs>
					<rect id="SVGID_3_" x="-0.8" y="0.45" width="1023.879" height="723.998"/>
				</defs>
				<clipPath id="SVGID_4_">
					<use xlink:href="#SVGID_3_"  overflow="visible"/>
				</clipPath>
				
					<path clip-path="url(#SVGID_4_)" fill="none" stroke="#003D79" stroke-width="2" stroke-linecap="round" stroke-linejoin="round" d="
					M-0.92,177.222L-0.92,177.222 M319.08,177.222L319.08,177.222"/>
			</g>
		</g>
		<g>
			<g>
				<defs>
					<rect id="SVGID_5_" x="-0.8" y="0.45" width="1023.879" height="723.998"/>
				</defs>
				<clipPath id="SVGID_6_">
					<use xlink:href="#SVGID_5_"  overflow="visible"/>
				</clipPath>
				
					<line clip-path="url(#SVGID_6_)" fill="none" stroke="#003D79" stroke-width="2" stroke-linecap="round" stroke-linejoin="round" stroke-dasharray="0,4" x1="3.08" y1="117.222" x2="317.08" y2="117.222"/>
			</g>
		</g>
		<g>
			<g>
				<defs>
					<rect id="SVGID_7_" x="-0.8" y="0.45" width="1023.879" height="723.998"/>
				</defs>
				<clipPath id="SVGID_8_">
					<use xlink:href="#SVGID_7_"  overflow="visible"/>
				</clipPath>
				
					<path clip-path="url(#SVGID_8_)" fill="none" stroke="#003D79" stroke-width="2" stroke-linecap="round" stroke-linejoin="round" d="
					M-0.92,117.222L-0.92,117.222 M319.08,117.222L319.08,117.222"/>
			</g>
		</g>
		<g>
			<g>
				<defs>
					<rect id="SVGID_9_" x="-0.8" y="0.45" width="1023.879" height="723.998"/>
				</defs>
				<clipPath id="SVGID_10_">
					<use xlink:href="#SVGID_9_"  overflow="visible"/>
				</clipPath>
				
					<line clip-path="url(#SVGID_10_)" fill="none" stroke="#003D79" stroke-width="2" stroke-linecap="round" stroke-linejoin="round" stroke-dasharray="0,4" x1="3.08" y1="237.222" x2="317.08" y2="237.222"/>
			</g>
		</g>
		<g>
			<g>
				<defs>
					<rect id="SVGID_11_" x="-0.8" y="0.45" width="1023.879" height="723.998"/>
				</defs>
				<clipPath id="SVGID_12_">
					<use xlink:href="#SVGID_11_"  overflow="visible"/>
				</clipPath>
				
					<path clip-path="url(#SVGID_12_)" fill="none" stroke="#003D79" stroke-width="2" stroke-linecap="round" stroke-linejoin="round" d="
					M-0.92,237.222L-0.92,237.222 M319.08,237.222L319.08,237.222"/>
			</g>
		</g>
		<g>
			<g>
				<defs>
					<rect id="SVGID_13_" x="-0.8" y="0.45" width="1023.879" height="723.998"/>
				</defs>
				<clipPath id="SVGID_14_">
					<use xlink:href="#SVGID_13_"  overflow="visible"/>
				</clipPath>
				
					<line clip-path="url(#SVGID_14_)" fill="none" stroke="#003D79" stroke-width="2" stroke-linecap="round" stroke-linejoin="round" stroke-dasharray="0,4" x1="3.08" y1="297.222" x2="317.08" y2="297.222"/>
			</g>
		</g>
		<g>
			<g>
				<defs>
					<rect id="SVGID_15_" x="-0.8" y="0.45" width="1023.879" height="723.998"/>
				</defs>
				<clipPath id="SVGID_16_">
					<use xlink:href="#SVGID_15_"  overflow="visible"/>
				</clipPath>
				
					<path clip-path="url(#SVGID_16_)" fill="none" stroke="#003D79" stroke-width="2" stroke-linecap="round" stroke-linejoin="round" d="
					M-0.92,297.222L-0.92,297.222 M319.08,297.222L319.08,297.222"/>
			</g>
		</g>
		<g>
			<g>
				<defs>
					<rect id="SVGID_17_" x="-0.8" y="0.45" width="1023.879" height="723.998"/>
				</defs>
				<clipPath id="SVGID_18_">
					<use xlink:href="#SVGID_17_"  overflow="visible"/>
				</clipPath>
				
					<line clip-path="url(#SVGID_18_)" fill="none" stroke="#003D79" stroke-width="2" stroke-linecap="round" stroke-linejoin="round" stroke-dasharray="0,4" x1="3.08" y1="357.223" x2="317.08" y2="357.223"/>
			</g>
		</g>
		<g>
			<g>
				<defs>
					<rect id="SVGID_19_" x="-0.8" y="0.45" width="1023.879" height="723.998"/>
				</defs>
				<clipPath id="SVGID_20_">
					<use xlink:href="#SVGID_19_"  overflow="visible"/>
				</clipPath>
				
					<path clip-path="url(#SVGID_20_)" fill="none" stroke="#003D79" stroke-width="2" stroke-linecap="round" stroke-linejoin="round" d="
					M-0.92,357.223L-0.92,357.223 M319.08,357.223L319.08,357.223"/>
			</g>
		</g>
	</g>
	<path d="M920.434,47.703l14.901-8.613l16.716,28.956h-15.58h-4.24L920.434,47.703L920.434,47.703z M902.979,63.003l14.902-8.613
		l7.876,13.656h-19.89L902.979,63.003L902.979,63.003z M958.229,68.046l-20.739-36.039l14.901-8.557l25.782,44.596H958.229
		L958.229,68.046z"/>
	<path d="M936.469,91.053h-4.25v-17.17h4.25V91.053L936.469,91.053z M932.219,72.297v-4.251h4.25v4.251H932.219L932.219,72.297z
		 M985.373,91.45c-4.76,0-7.593-2.438-7.764-5.894h4.477c0,1.076,0.682,2.663,3.571,2.721c1.926,0,2.833-1.133,2.833-1.983
		c-0.113-1.36-1.812-1.473-3.628-1.757c-1.813-0.283-3.343-0.623-4.477-1.189c-1.418-0.735-2.382-2.323-2.382-4.138
		c0-3.06,2.663-5.496,7.083-5.496c4.31,0,7.027,2.267,7.312,5.611h-4.309c-0.057-0.907-0.227-2.325-2.773-2.325
		c-1.701,0-2.834,0.341-2.948,1.531c0,1.757,3.571,1.644,6.348,2.38c2.662,0.68,4.362,2.323,4.362,4.647
		C993.079,89.806,989.623,91.45,985.373,91.45L985.373,91.45z M966.672,91.45c-4.873,0-8.895-4.023-8.895-8.897
		c0-4.93,4.021-8.84,8.895-8.84c1.871,0,3.629,0.51,5.045,1.531v-1.36h4.25v17.17h-4.25V89.92
		C970.301,90.883,968.602,91.45,966.672,91.45L966.672,91.45z M961.913,82.553c0,2.663,2.269,4.875,4.931,4.875
		s4.872-2.211,4.872-4.875c0-2.663-2.21-4.93-4.872-4.93C964.18,77.622,961.913,79.89,961.913,82.553L961.913,82.553z
		 M952.166,68.046h4.193v23.007h-4.193v-1.134c-1.416,0.963-3.174,1.531-5.1,1.531c-4.873,0-8.897-4.023-8.897-8.897
		c0-4.93,4.024-8.84,8.897-8.84c1.926,0,3.625,0.51,5.1,1.531V68.046L952.166,68.046z M942.305,82.553
		c0,2.663,2.27,4.875,4.873,4.875c2.723,0,4.987-2.211,4.987-4.875c0-2.663-2.267-4.93-4.987-4.93
		C944.573,77.622,942.305,79.89,942.305,82.553L942.305,82.553z M920.829,91.45c-4.931,0-8.953-4.023-8.953-8.897
		c0-4.93,4.022-8.84,8.953-8.84c1.87,0,3.569,0.51,5.044,1.531v-7.198h4.249v23.007h-4.249v-1.134
		C924.398,90.883,922.699,91.45,920.829,91.45L920.829,91.45z M915.956,82.553c0,2.663,2.269,4.875,4.987,4.875
		c2.662,0,4.93-2.211,4.93-4.875c0-2.663-2.268-4.93-4.93-4.93C918.223,77.622,915.956,79.89,915.956,82.553L915.956,82.553z
		 M901.109,91.45c-4.873,0-8.897-4.023-8.897-8.897c0-4.93,4.024-8.84,8.897-8.84c1.869,0,3.627,0.51,5.101,1.531v-1.36h4.192v17.17
		h-4.192V89.92C904.793,90.883,903.036,91.45,901.109,91.45L901.109,91.45z M896.293,82.553c0,2.663,2.268,4.875,4.932,4.875
		c2.721,0,4.985-2.211,4.985-4.875c0-2.663-2.267-4.93-4.985-4.93C898.561,77.622,896.293,79.89,896.293,82.553L896.293,82.553z"/>
	<path d="M989.932,69.795h0.517c0.221,0,0.366,0.152,0.366,0.378c0,0.228-0.293,0.304-0.516,0.304h-0.367V69.795L989.932,69.795z
		 M990.814,70.705c0.228-0.076,0.38-0.304,0.38-0.606c0-0.455-0.38-0.682-0.821-0.682h-0.818v2.42h0.379v-0.982h0.516
		c0.294,0,0.367,0.228,0.367,0.68c0,0.152,0,0.227,0.074,0.302h0.386c-0.08-0.15-0.08-0.377-0.08-0.679
		C991.193,70.78,990.967,70.705,990.814,70.705L990.814,70.705z M990.301,68.431c-1.19,0-2.166,0.986-2.166,2.198
		c0,1.208,0.975,2.19,2.166,2.19c1.213,0,2.232-0.982,2.232-2.19C992.533,69.417,991.514,68.431,990.301,68.431L990.301,68.431z
		 M990.299,68.72c1.022,0,1.946,0.875,1.946,1.909c0,1.031-0.924,1.902-1.946,1.902c-1.018,0-1.876-0.871-1.876-1.902
		C988.423,69.596,989.281,68.72,990.299,68.72L990.299,68.72z"/>
</g>
</svg>
