<?xml version="1.0" encoding="utf-8"?>
<!-- Generator: Adobe Illustrator 15.1.0, SVG Export Plug-In . SVG Version: 6.00 Build 0)  -->
<!DOCTYPE svg PUBLIC "-//W3C//DTD SVG 1.1//EN" "http://www.w3.org/Graphics/SVG/1.1/DTD/svg11.dtd">
<svg version="1.1" id="Our_story_-_responsible_-_screen_2"
	 xmlns="http://www.w3.org/2000/svg" xmlns:xlink="http://www.w3.org/1999/xlink" x="0px" y="0px" width="190px" height="392px"
	 viewBox="0 0 190 392" enable-background="new 0 0 190 392" xml:space="preserve">
<symbol  id="New_Symbol_101" viewBox="-7.5 -8 15 16">
	<path fill="#FFFFFF" d="M6.5,4.752V-2h-13v6.752H6.5 M7.5,5.752h-15V-3h15V5.752L7.5,5.752z"/>
	<g>
		<path fill="#FFFFFF" d="M-0.226-1.334l-1.499,2.431l-1.465-2.3l-1.438,2.207l-0.637-1.828C-5.31-0.955-5.452-1.025-5.583-0.977
			c-0.13,0.045-0.199,0.188-0.153,0.313l0.972,2.789l1.569-2.41l1.476,2.317l1.35-2.188l1.038,3.229
			c0.043,0.131,0.186,0.202,0.315,0.161c0.131-0.042,0.203-0.188,0.16-0.314L-0.226-1.334z"/>
	</g>
	<polygon fill="#FFFFFF" points="1.5,-6 -0.5,-6 -0.5,-2 1.5,-2 	"/>
	<polygon fill="#FFFFFF" points="-3.469,-8 -4.456,-8 -0.5,-4.896 -0.5,-5.957 	"/>
	<polygon fill="#FFFFFF" points="4.469,-8 5.456,-8 1.5,-4.896 1.5,-5.957 	"/>
	<polygon fill="#FFFFFF" points="1.5,5 -0.5,5 -0.5,8 1.5,8 	"/>
	<polygon fill="#FFFFFF" points="7.5,5 -7.5,5 -7.5,7 7.5,7 	"/>
	<path fill="#FFFFFF" d="M5.142,2.185c0-0.726-0.589-1.312-1.314-1.312S2.513,1.459,2.513,2.185c0,0.729,0.589,1.315,1.314,1.315
		C4.552,3.5,5.142,2.911,5.142,2.185z"/>
	<polygon fill="#FFFFFF" points="3.5,-1 2.5,-1 2.5,0 3.5,0 	"/>
	<polygon fill="#FFFFFF" points="5.5,-1 4.5,-1 4.5,0 5.5,0 	"/>
</symbol>
<g>
	
		<linearGradient id="SVGID_1_" gradientUnits="userSpaceOnUse" x1="-360" y1="544.0312" x2="-360" y2="733.8672" gradientTransform="matrix(1 0 0 -1 455 733.3672)">
		<stop  offset="0" style="stop-color:#DBA027"/>
		<stop  offset="0.0434" style="stop-color:#E2A920"/>
		<stop  offset="0.1621" style="stop-color:#EFBA12"/>
		<stop  offset="0.3073" style="stop-color:#F8C608"/>
		<stop  offset="0.5057" style="stop-color:#FDCD03"/>
		<stop  offset="1" style="stop-color:#FFCF01"/>
	</linearGradient>
	<path fill="url(#SVGID_1_)" d="M189.918,172.33c0,9.394-7.613,17.006-17.008,17.006H17.09c-9.394,0-17.008-7.612-17.008-17.006
		V16.509C0.082,7.115,7.696-0.5,17.09-0.5h155.82c9.395,0,17.008,7.615,17.008,17.009V172.33z"/>
	<g>
		<path fill="#FFFFFF" d="M42.25,131.851h-2.547c-0.173,0-0.31-0.175-0.31-0.387v-8.044c0-0.135-0.058-0.152-0.096-0.152
			c-0.059,0-0.097,0.039-0.154,0.135l-1.735,3.183c-0.135,0.231-0.327,0.328-0.579,0.328h-1.543c-0.25,0-0.443-0.097-0.578-0.328
			l-1.736-3.183c-0.059-0.096-0.096-0.135-0.153-0.135c-0.039,0-0.097,0.02-0.097,0.152v8.044c0,0.212-0.135,0.387-0.31,0.387
			h-2.546c-0.153,0-0.327-0.06-0.327-0.271v-13.403c0-0.403,0.288-0.654,0.692-0.654h1.813c0.404,0,0.675,0.191,0.849,0.521
			l2.951,5.497c0.077,0.154,0.135,0.251,0.212,0.251c0.077,0,0.136-0.097,0.212-0.251l2.951-5.497
			c0.173-0.327,0.444-0.521,0.85-0.521h1.812c0.404,0,0.693,0.27,0.693,0.675v13.385C42.578,131.792,42.404,131.851,42.25,131.851z"
			/>
		<path fill="#FFFFFF" d="M56.137,131.851h-2.699c-0.192,0-0.348-0.154-0.387-0.349l-0.693-3.163h-3.954l-0.693,3.163
			c-0.039,0.192-0.192,0.349-0.387,0.349h-2.7c-0.192,0-0.327-0.116-0.327-0.311c0-0.02,0.02-0.058,0.02-0.097l2.874-11.958
			c0.443-1.853,1.87-2.142,3.202-2.142c1.33,0,2.737,0.289,3.182,2.142l2.874,11.958c0,0.039,0.021,0.077,0.021,0.097
			C56.466,131.733,56.331,131.851,56.137,131.851z M50.641,120.374c-0.038-0.191-0.076-0.289-0.25-0.289
			c-0.174,0-0.23,0.098-0.271,0.289l-1.176,5.323h2.874L50.641,120.374z"/>
		<path fill="#FFFFFF" d="M68.965,131.851h-2.951c-0.212,0-0.289-0.192-0.386-0.387l-2.584-4.881l-0.212,0.021
			c-0.405,0-1.004-0.038-1.369-0.038v4.897c0,0.212-0.175,0.387-0.387,0.387h-2.507c-0.212,0-0.387-0.175-0.387-0.387v-12.94
			c0-0.656,0.271-0.83,0.868-0.926c0.889-0.137,2.527-0.252,3.916-0.252c3.279,0,5.806,1.101,5.806,4.514v0.251
			c0,2.045-1.08,3.298-2.488,3.856l2.913,5.438c0.038,0.077,0.059,0.154,0.059,0.212C69.254,131.754,69.176,131.851,68.965,131.851z
			 M65.493,121.858c0-1.176-0.906-1.716-2.526-1.716c-0.271,0-1.272,0.038-1.504,0.058v3.703c0.212,0.021,1.156,0.039,1.368,0.039
			c2.025,0,2.662-0.521,2.662-1.833V121.858L65.493,121.858z"/>
		<path fill="#FFFFFF" d="M82.427,118.001l-4.591,6.521l4.609,6.924c0.059,0.077,0.077,0.154,0.077,0.213
			c0,0.115-0.097,0.192-0.271,0.192h-3.317c-0.23,0-0.327-0.116-0.424-0.271l-3.916-6.363v6.249c0,0.212-0.173,0.387-0.386,0.387
			h-2.526c-0.212,0-0.386-0.175-0.386-0.387v-13.579c0-0.212,0.174-0.365,0.386-0.365h2.526c0.212,0,0.386,0.153,0.386,0.365v6.134
			l4.243-6.27c0.097-0.152,0.212-0.229,0.425-0.229h2.951c0.212,0,0.31,0.097,0.31,0.212
			C82.524,117.81,82.485,117.905,82.427,118.001z"/>
		<path fill="#FFFFFF" d="M91.932,131.773c-0.675,0.097-1.658,0.251-3.741,0.251c-2.488,0-4.688-0.638-4.688-4.147v-6.4
			c0-3.512,2.218-4.128,4.706-4.128c2.083,0,3.047,0.152,3.722,0.251c0.271,0.037,0.387,0.135,0.387,0.386v1.794
			c0,0.212-0.174,0.385-0.387,0.385h-3.916c-0.905,0-1.233,0.311-1.233,1.312v1.755h4.996c0.212,0,0.386,0.173,0.386,0.386v1.832
			c0,0.212-0.173,0.386-0.386,0.386h-4.996v2.045c0,1.004,0.328,1.312,1.233,1.312h3.916c0.213,0,0.387,0.173,0.387,0.385v1.794
			C92.318,131.618,92.202,131.733,91.932,131.773z"/>
		<path fill="#FFFFFF" d="M103.833,120.239h-3.125v11.226c0,0.212-0.174,0.387-0.388,0.387h-2.524c-0.212,0-0.387-0.175-0.387-0.387
			v-11.226h-3.145c-0.212,0-0.386-0.154-0.386-0.367v-1.985c0-0.212,0.173-0.365,0.386-0.365h9.566c0.212,0,0.404,0.153,0.404,0.365
			v1.985C104.236,120.085,104.045,120.239,103.833,120.239z"/>
		<path fill="#FFFFFF" d="M110.893,126.835c-0.463,0-1.08-0.038-1.562-0.058v4.688c0,0.212-0.173,0.387-0.388,0.387h-2.486
			c-0.212,0-0.387-0.154-0.387-0.366v-12.961c0-0.656,0.271-0.83,0.867-0.927c0.982-0.153,2.525-0.251,3.916-0.251
			c2.912,0,5.785,1.021,5.785,4.647v0.173C116.641,125.774,113.766,126.835,110.893,126.835z M113.361,121.994
			c0-1.37-0.85-1.909-2.471-1.909c-0.271,0-1.33,0.038-1.562,0.06v3.935c0.213,0.021,1.354,0.038,1.562,0.038
			c1.719,0,2.471-0.636,2.471-1.948V121.994z"/>
		<path fill="#FFFFFF" d="M126.479,131.773c-0.639,0.135-2.123,0.251-3.146,0.251c-2.487,0-4.706-0.638-4.706-4.147v-9.971
			c0-0.213,0.173-0.386,0.387-0.386h2.525c0.213,0,0.387,0.173,0.387,0.386v9.971c0,1.005,0.328,1.312,1.233,1.312h3.315
			c0.213,0,0.387,0.173,0.387,0.385v1.794C126.863,131.618,126.747,131.716,126.479,131.773z"/>
		<path fill="#FFFFFF" d="M139.497,131.851h-2.699c-0.192,0-0.349-0.154-0.387-0.349l-0.693-3.163h-3.954l-0.693,3.163
			c-0.036,0.192-0.189,0.349-0.385,0.349h-2.701c-0.19,0-0.325-0.116-0.325-0.311c0-0.02,0.021-0.058,0.021-0.097l2.875-11.958
			c0.44-1.853,1.869-2.142,3.198-2.142c1.331,0,2.739,0.289,3.187,2.142l2.873,11.958c0,0.039,0.021,0.077,0.021,0.097
			C139.824,131.733,139.689,131.851,139.497,131.851z M134,120.374c-0.039-0.191-0.077-0.289-0.251-0.289s-0.229,0.098-0.271,0.289
			l-1.181,5.323h2.874L134,120.374z"/>
		<path fill="#FFFFFF" d="M149.41,131.695c-0.404,0.135-1.523,0.328-2.874,0.328c-2.933,0-5.709-1.543-5.709-6.134v-2.432
			c0-4.591,2.776-6.113,5.709-6.113c1.351,0,2.47,0.191,2.874,0.328c0.271,0.076,0.425,0.153,0.425,0.425v1.87
			c0,0.23-0.116,0.387-0.366,0.387c-0.021,0-0.039,0-0.059,0c-0.732-0.06-1.793-0.154-2.854-0.154c-1.332,0-2.396,0.694-2.396,3.26
			v2.432c0,2.563,1.062,3.26,2.396,3.26c1.062,0,2.119-0.097,2.854-0.154c0.02,0,0.039,0,0.059,0c0.25,0,0.366,0.154,0.366,0.387
			v1.87C149.835,131.522,149.68,131.618,149.41,131.695z"/>
		<path fill="#FFFFFF" d="M160.346,131.773c-0.675,0.097-1.658,0.251-3.74,0.251c-2.486,0-4.688-0.638-4.688-4.147v-6.4
			c0-3.512,2.218-4.128,4.705-4.128c2.083,0,3.049,0.152,3.725,0.251c0.271,0.037,0.387,0.135,0.387,0.386v1.794
			c0,0.212-0.174,0.385-0.387,0.385h-3.914c-0.906,0-1.232,0.311-1.232,1.312v1.755h4.994c0.212,0,0.387,0.173,0.387,0.386v1.832
			c0,0.212-0.175,0.386-0.387,0.386H155.2v2.045c0,1.004,0.327,1.312,1.233,1.312h3.914c0.213,0,0.387,0.173,0.387,0.385v1.794
			C160.732,131.618,160.616,131.733,160.346,131.773z"/>
		<path fill="#002C5F" d="M27.041,138.606l-0.536,2.733c-0.043,0.201-0.146,0.273-0.289,0.273h-0.854
			c-0.102,0-0.159-0.058-0.159-0.158c0-0.028,0-0.072,0.016-0.115l0.882-2.733c0.059-0.202,0.131-0.274,0.275-0.274h0.549
			c0.103,0,0.13,0.06,0.13,0.146C27.055,138.521,27.055,138.563,27.041,138.606z"/>
		<path fill="#002C5F" d="M31.438,149.311c-0.955,0-1.809-0.043-2.358-0.131c-0.333-0.043-0.477-0.174-0.477-0.535v-9.633
			c0-0.332,0.158-0.508,0.463-0.535c0.478-0.06,1.359-0.115,2.3-0.115c2.301,0,4.238,0.607,4.238,2.791v0.23
			c0,1.07-0.563,1.896-1.549,2.271c0.999,0.346,1.605,1.229,1.605,2.344v0.244C35.662,148.674,33.695,149.311,31.438,149.311z
			 M34.287,141.151c0-1.389-1.156-1.678-2.922-1.678c-0.492,0-1.026,0.027-1.433,0.044v3.587h2.229c1.679,0,2.126-0.812,2.126-1.723
			V141.151z M34.345,145.998c0-0.955-0.479-1.838-2.186-1.838H29.93v3.98c0.479,0.014,0.998,0.057,1.504,0.057
			c1.795,0,2.908-0.391,2.908-1.953L34.345,145.998L34.345,145.998z"/>
		<path fill="#002C5F" d="M43.416,149.238c-0.551,0.06-1.968,0.072-2.821,0.072c-2.024,0-3.081-0.769-3.081-2.689v-5.568
			c0-1.926,1.057-2.69,3.081-2.69c0.854,0,2.213,0.028,2.821,0.086c0.087,0.016,0.146,0.116,0.146,0.203v0.723
			c0,0.104-0.059,0.175-0.159,0.175H40.61c-1.533,0-1.779,0.404-1.779,1.506v2.011h4.441c0.158,0,0.289,0.129,0.289,0.289v0.549
			c0,0.16-0.131,0.289-0.289,0.289h-4.441v2.432c0,1.101,0.246,1.505,1.779,1.505h2.792c0.103,0,0.159,0.071,0.159,0.174v0.735
			C43.56,149.123,43.503,149.225,43.416,149.238z"/>
		<path fill="#002C5F" d="M51.444,149.123c-0.606,0.115-1.171,0.188-2.4,0.188c-1.779,0-3.818-0.955-3.818-4.471v-2.011
			c0-3.544,2.04-4.47,3.818-4.47c0.911,0,1.794,0.13,2.431,0.23c0.131,0.015,0.23,0.059,0.23,0.188v0.738
			c0,0.087-0.028,0.158-0.174,0.158c-0.016,0-0.028,0-0.043,0c-0.521-0.044-1.591-0.132-2.431-0.132
			c-1.417,0-2.517,0.825-2.517,3.284v2.013c0,2.43,1.1,3.282,2.517,3.282c0.825,0,1.866-0.071,2.388-0.114c0.016,0,0.043,0,0.059,0
			c0.158,0,0.23,0.071,0.23,0.229v0.594C51.734,149.008,51.603,149.094,51.444,149.123z"/>
		<path fill="#002C5F" d="M56.622,149.311c-2.271,0-3.92-1.33-3.92-4.541v-1.867c0-3.211,1.648-4.542,3.92-4.542
			s3.906,1.33,3.906,4.542v1.867C60.528,147.98,58.894,149.311,56.622,149.311z M59.197,142.902c0-2.43-0.982-3.355-2.575-3.355
			c-1.576,0-2.589,0.927-2.589,3.355v1.867c0,2.43,0.998,3.354,2.589,3.354c1.577,0,2.575-0.926,2.575-3.354V142.902z"/>
		<path fill="#002C5F" d="M71.001,149.209h-0.709c-0.159,0-0.289-0.129-0.289-0.289v-8.577c0-0.028,0-0.044-0.016-0.044
			c-0.015,0-0.015,0-0.028,0.028l-2.068,4.282c-0.146,0.289-0.29,0.42-0.65,0.42h-0.665c-0.361,0-0.506-0.131-0.65-0.42
			l-2.068-4.282c-0.015-0.028-0.015-0.028-0.029-0.028c-0.014,0-0.015,0.016-0.015,0.044v8.577c0,0.16-0.131,0.289-0.289,0.289
			h-0.709c-0.159,0-0.289-0.129-0.289-0.289v-10.038c0-0.23,0.188-0.421,0.419-0.421h0.939c0.261,0,0.376,0.061,0.463,0.246
			l2.388,4.962c0.058,0.13,0.102,0.158,0.173,0.158c0.072,0,0.116-0.028,0.174-0.158l2.388-4.962
			c0.086-0.188,0.203-0.246,0.464-0.246h0.938c0.231,0,0.42,0.188,0.42,0.421v10.038C71.291,149.08,71.16,149.209,71.001,149.209z"
			/>
		<path fill="#002C5F" d="M74.734,149.209h-0.796c-0.146,0-0.261-0.129-0.261-0.289v-10.184c0-0.146,0.102-0.275,0.261-0.275h0.796
			c0.146,0,0.26,0.116,0.26,0.275v10.184C74.994,149.064,74.894,149.209,74.734,149.209z"/>
		<path fill="#002C5F" d="M84.556,149.209H83.66c-0.23,0-0.391-0.086-0.463-0.229l-4.471-8.491
			c-0.014-0.029-0.028-0.043-0.043-0.043c-0.014,0-0.014,0.014-0.014,0.043v8.448c0,0.145-0.116,0.272-0.262,0.272h-0.752
			c-0.146,0-0.26-0.026-0.26-0.174v-10.169c0-0.23,0.188-0.405,0.419-0.405h0.795c0.404,0,0.479,0.072,0.593,0.29l4.44,8.448
			l0.029,0.043c0.015,0,0.015-0.028,0.015-0.043v-8.462c0-0.146,0.116-0.274,0.261-0.274h0.768c0.159,0,0.26,0.131,0.26,0.274
			v10.052C84.975,149.021,84.787,149.209,84.556,149.209z"/>
		<path fill="#002C5F" d="M93.568,149.094c-0.708,0.114-1.52,0.219-2.878,0.219c-1.809,0-3.747-1.188-3.747-4.5v-1.938
			c0-3.515,2.024-4.513,3.877-4.513c1.346,0,2.198,0.115,2.748,0.202c0.13,0.015,0.246,0.072,0.246,0.217v0.725
			c0,0.103-0.059,0.146-0.188,0.146c-0.016,0-0.043,0-0.059,0c-0.854-0.072-1.52-0.103-2.748-0.103
			c-1.346,0-2.562,0.725-2.562,3.327v1.938c0,2.387,1.085,3.328,2.431,3.328c0.882,0,1.477-0.06,1.822-0.088v-4.138
			c0-0.159,0.102-0.291,0.261-0.291h0.78c0.146,0,0.274,0.132,0.274,0.291v4.859C93.829,148.936,93.728,149.064,93.568,149.094z"/>
		<path fill="#002C5F" d="M107.021,149.209h-0.854c-0.131,0-0.218-0.102-0.246-0.217l-0.938-3.326h-3.746l-0.928,3.326
			c-0.026,0.115-0.146,0.217-0.261,0.217h-0.854c-0.146,0-0.244-0.102-0.244-0.229c0-0.029,0-0.072,0.016-0.103l2.678-9.417
			c0.246-0.882,0.928-1.099,1.478-1.099c0.534,0,1.215,0.202,1.461,1.085l2.677,9.431c0.016,0.029,0.016,0.072,0.016,0.103
			C107.27,149.107,107.182,149.209,107.021,149.209z M103.391,139.764c-0.043-0.158-0.129-0.262-0.271-0.262
			c-0.158,0-0.246,0.104-0.289,0.262l-1.312,4.76h3.194L103.391,139.764z"/>
		<path fill="#002C5F" d="M120.866,149.209h-0.709c-0.159,0-0.289-0.129-0.289-0.289v-8.577c0-0.028,0-0.044-0.017-0.044
			c-0.016,0-0.016,0-0.027,0.028l-2.067,4.282c-0.146,0.289-0.29,0.42-0.649,0.42h-0.666c-0.359,0-0.506-0.131-0.648-0.42
			l-2.066-4.282c-0.017-0.028-0.017-0.028-0.027-0.028c-0.016,0-0.016,0.016-0.016,0.044v8.577c0,0.16-0.133,0.289-0.289,0.289
			h-0.709c-0.158,0-0.289-0.129-0.289-0.289v-10.038c0-0.23,0.188-0.421,0.418-0.421h0.938c0.262,0,0.376,0.061,0.464,0.246
			l2.39,4.962c0.059,0.13,0.102,0.158,0.174,0.158c0.07,0,0.115-0.028,0.174-0.158l2.387-4.962c0.087-0.188,0.203-0.246,0.465-0.246
			h0.938c0.23,0,0.421,0.188,0.421,0.421v10.038C121.156,149.08,121.025,149.209,120.866,149.209z"/>
		<path fill="#002C5F" d="M130.762,149.209h-0.854c-0.131,0-0.219-0.102-0.246-0.217l-0.938-3.326h-3.748l-0.928,3.326
			c-0.025,0.115-0.146,0.217-0.261,0.217h-0.854c-0.146,0-0.244-0.102-0.244-0.229c0-0.029,0-0.072,0.016-0.103l2.677-9.417
			c0.246-0.882,0.927-1.099,1.478-1.099c0.535,0,1.217,0.202,1.461,1.085l2.678,9.431c0.018,0.029,0.018,0.072,0.018,0.103
			C131.008,149.107,130.921,149.209,130.762,149.209z M127.131,139.764c-0.043-0.158-0.13-0.262-0.273-0.262
			c-0.157,0-0.246,0.104-0.289,0.262l-1.313,4.76h3.196L127.131,139.764z"/>
		<path fill="#002C5F" d="M139.716,149.209h-0.926c-0.174,0-0.261,0-0.377-0.188l-2.589-4.312c-0.043,0-0.088,0-0.131,0
			c-0.086,0-0.158,0-0.245,0c-0.479,0-0.824-0.014-1.591-0.043v4.253c0,0.146-0.104,0.288-0.262,0.288h-0.779
			c-0.146,0-0.262-0.129-0.262-0.288v-10.125c0-0.202,0.086-0.289,0.348-0.317c0.623-0.072,1.707-0.115,2.547-0.115
			c2.285,0,4.05,0.768,4.05,3.109v0.102c0,1.621-0.954,2.576-2.271,2.921l2.633,4.398c0.027,0.043,0.043,0.086,0.043,0.129
			C139.904,149.123,139.832,149.209,139.716,149.209z M138.197,141.471c0-1.445-0.939-1.924-2.748-1.924
			c-0.448,0-1.244,0-1.592,0.044v3.964c0.637,0.014,1.259,0.026,1.592,0.026c1.779,0,2.748-0.446,2.748-2.01V141.471z"/>
		<path fill="#002C5F" d="M148.439,149.209h-1.129c-0.131,0-0.23-0.043-0.317-0.145l-4.079-4.961v4.816
			c0,0.145-0.102,0.288-0.262,0.288h-0.795c-0.146,0-0.26-0.131-0.26-0.288v-10.184c0-0.146,0.113-0.275,0.271-0.275h0.77
			c0.146,0,0.272,0.116,0.272,0.275v4.671l4.166-4.815c0.087-0.088,0.146-0.132,0.289-0.132h1.042c0.146,0,0.201,0.072,0.201,0.159
			c0,0.044-0.016,0.104-0.059,0.146l-4.354,4.919l4.354,5.207c0.043,0.043,0.072,0.115,0.072,0.174
			C148.628,149.139,148.57,149.209,148.439,149.209z"/>
		<path fill="#002C5F" d="M155.743,149.238c-0.55,0.06-1.968,0.072-2.82,0.072c-2.024,0-3.081-0.769-3.081-2.689v-5.568
			c0-1.926,1.057-2.69,3.081-2.69c0.854,0,2.213,0.028,2.82,0.086c0.086,0.016,0.146,0.116,0.146,0.203v0.723
			c0,0.104-0.059,0.175-0.158,0.175h-2.791c-1.535,0-1.777,0.404-1.777,1.506v2.011h4.438c0.158,0,0.289,0.129,0.289,0.289v0.549
			c0,0.16-0.13,0.289-0.289,0.289h-4.438v2.432c0,1.101,0.246,1.505,1.777,1.505h2.791c0.104,0,0.158,0.071,0.158,0.174v0.735
			C155.889,149.123,155.83,149.225,155.743,149.238z"/>
		<path fill="#002C5F" d="M164.438,139.591h-2.818v9.329c0,0.146-0.104,0.289-0.262,0.289h-0.797c-0.146,0-0.261-0.129-0.261-0.289
			v-9.329h-2.819c-0.16,0-0.289-0.071-0.289-0.23v-0.638c0-0.146,0.129-0.262,0.289-0.262h6.957c0.158,0,0.274,0.104,0.274,0.262
			v0.638C164.712,139.504,164.596,139.591,164.438,139.591z"/>
		<path fill="#002C5F" d="M23.959,166.539c-0.376,0.062-1.462,0.131-2.821,0.131c-1.548,0-3.081-0.303-3.081-2.688v-7.869
			c0-0.158,0.131-0.289,0.289-0.289h0.738c0.158,0,0.29,0.131,0.29,0.289v7.869c0,1.1,0.245,1.504,1.778,1.504h2.792
			c0.102,0,0.158,0.072,0.158,0.174v0.681C24.104,166.424,24.046,166.525,23.959,166.539z"/>
		<path fill="#002C5F" d="M31.105,166.598c-0.551,0.059-1.968,0.071-2.821,0.071c-2.024,0-3.081-0.768-3.081-2.688v-5.57
			c0-1.924,1.057-2.688,3.081-2.688c0.854,0,2.213,0.026,2.821,0.086c0.087,0.016,0.146,0.115,0.146,0.203v0.723
			c0,0.102-0.059,0.174-0.159,0.174H28.3c-1.533,0-1.778,0.406-1.778,1.506v2.011h4.44c0.158,0,0.289,0.131,0.289,0.289v0.551
			c0,0.158-0.131,0.289-0.289,0.289h-4.44v2.432c0,1.098,0.245,1.504,1.778,1.504h2.792c0.103,0,0.159,0.072,0.159,0.174v0.736
			C31.25,166.482,31.192,166.584,31.105,166.598z"/>
		<path fill="#002C5F" d="M40.537,166.568h-0.854c-0.13,0-0.217-0.102-0.245-0.217l-0.94-3.326h-3.746l-0.927,3.326
			c-0.028,0.115-0.146,0.217-0.26,0.217H32.71c-0.146,0-0.246-0.102-0.246-0.229c0-0.029,0-0.072,0.016-0.103l2.676-9.418
			c0.246-0.881,0.926-1.098,1.477-1.098c0.535,0,1.215,0.201,1.461,1.084l2.677,9.432c0.015,0.029,0.015,0.072,0.015,0.103
			C40.783,166.467,40.696,166.568,40.537,166.568z M36.906,157.123c-0.043-0.157-0.13-0.26-0.274-0.26
			c-0.159,0-0.246,0.103-0.289,0.26l-1.315,4.761h3.196L36.906,157.123z"/>
		<path fill="#002C5F" d="M45.269,166.67c-1.101,0-2.214-0.069-2.634-0.145c-0.188-0.029-0.304-0.146-0.304-0.361v-9.938
			c0-0.203,0.115-0.334,0.304-0.361c0.419-0.072,1.533-0.146,2.634-0.146c2.676,0,4.383,1.375,4.383,4.498v1.953
			C49.651,165.268,47.944,166.67,45.269,166.67z M48.334,160.219c0-2.617-1.331-3.369-3.065-3.369c-0.681,0-1.129,0.014-1.606,0.043
			v8.621c0.464,0.026,0.927,0.026,1.606,0.026c1.735,0,3.065-0.766,3.065-3.368V160.219z"/>
		<path fill="#002C5F" d="M57.506,166.598c-0.551,0.059-1.968,0.071-2.821,0.071c-2.024,0-3.08-0.768-3.08-2.688v-5.57
			c0-1.924,1.056-2.688,3.08-2.688c0.854,0,2.214,0.026,2.821,0.086c0.086,0.016,0.146,0.115,0.146,0.203v0.723
			c0,0.102-0.059,0.174-0.159,0.174H54.7c-1.533,0-1.778,0.406-1.778,1.506v2.011h4.439c0.159,0,0.29,0.131,0.29,0.289v0.551
			c0,0.158-0.13,0.289-0.29,0.289h-4.439v2.432c0,1.098,0.246,1.504,1.778,1.504h2.792c0.102,0,0.159,0.072,0.159,0.174v0.736
			C57.651,166.482,57.592,166.584,57.506,166.598z"/>
		<path fill="#002C5F" d="M66.735,166.568h-0.927c-0.173,0-0.26,0-0.376-0.188l-2.589-4.312c-0.043,0-0.087,0-0.13,0
			c-0.086,0-0.159,0-0.246,0c-0.479,0-0.824-0.014-1.591-0.043v4.252c0,0.146-0.102,0.289-0.261,0.289h-0.78
			c-0.146,0-0.261-0.129-0.261-0.289v-10.125c0-0.203,0.087-0.289,0.348-0.317c0.622-0.072,1.707-0.115,2.546-0.115
			c2.286,0,4.051,0.768,4.051,3.108v0.103c0,1.621-0.955,2.574-2.271,2.922l2.633,4.396c0.028,0.046,0.043,0.089,0.043,0.132
			C66.923,166.482,66.851,166.568,66.735,166.568z M65.216,158.83c0-1.446-0.939-1.924-2.749-1.924c-0.448,0-1.244,0-1.591,0.043
			v3.963c0.637,0.017,1.258,0.029,1.591,0.029c1.778,0,2.749-0.447,2.749-2.01V158.83z"/>
		<path fill="#002C5F" d="M73.39,166.568h-0.796c-0.146,0-0.26-0.129-0.26-0.289v-10.184c0-0.146,0.101-0.275,0.26-0.275h0.796
			c0.146,0,0.261,0.117,0.261,0.275v10.184C73.651,166.424,73.55,166.568,73.39,166.568z"/>
		<path fill="#002C5F" d="M83.212,166.568h-0.896c-0.23,0-0.392-0.086-0.463-0.229l-4.471-8.49
			c-0.015-0.029-0.028-0.045-0.043-0.045c-0.015,0-0.015,0.016-0.015,0.045v8.446c0,0.146-0.115,0.273-0.261,0.273h-0.752
			c-0.146,0-0.261-0.029-0.261-0.174v-10.168c0-0.232,0.188-0.406,0.419-0.406h0.795c0.405,0,0.479,0.072,0.594,0.291l4.44,8.447
			l0.028,0.043c0.016,0,0.016-0.029,0.016-0.043v-8.463c0-0.146,0.116-0.275,0.26-0.275h0.768c0.159,0,0.261,0.131,0.261,0.275
			v10.053C83.632,166.381,83.444,166.568,83.212,166.568z"/>
		<path fill="#002C5F" d="M93.122,166.67c-2.271,0-3.92-1.329-3.92-4.54v-1.865c0-3.213,1.648-4.543,3.92-4.543
			s3.905,1.33,3.905,4.543v1.865C97.027,165.34,95.394,166.67,93.122,166.67z M95.695,160.264c0-2.433-0.981-3.357-2.574-3.357
			c-1.576,0-2.589,0.926-2.589,3.357v1.864c0,2.431,0.998,3.355,2.589,3.355c1.577,0,2.574-0.926,2.574-3.355V160.264z"/>
		<path fill="#002C5F" d="M102.686,166.67c-2.345,0-3.703-1.243-3.703-4.006v-6.565c0-0.146,0.115-0.275,0.273-0.275h0.78
			c0.146,0,0.274,0.115,0.274,0.275v6.565c0,1.865,0.578,2.877,2.371,2.877c1.795,0,2.373-0.998,2.373-2.877v-6.565
			c0-0.146,0.113-0.275,0.271-0.275h0.779c0.146,0,0.273,0.115,0.273,0.275v6.565C106.387,165.426,105.027,166.67,102.686,166.67z"
			/>
		<path fill="#002C5F" d="M115.762,166.568h-0.927c-0.174,0-0.261,0-0.376-0.188l-2.59-4.312c-0.043,0-0.087,0-0.13,0
			c-0.087,0-0.159,0-0.246,0c-0.479,0-0.824-0.014-1.591-0.043v4.252c0,0.146-0.104,0.289-0.262,0.289h-0.779
			c-0.146,0-0.262-0.129-0.262-0.289v-10.125c0-0.203,0.086-0.289,0.349-0.317c0.622-0.072,1.706-0.115,2.546-0.115
			c2.285,0,4.051,0.768,4.051,3.108v0.103c0,1.621-0.955,2.574-2.271,2.922l2.635,4.396c0.025,0.046,0.043,0.089,0.043,0.132
			C115.949,166.482,115.877,166.568,115.762,166.568z M114.242,158.83c0-1.446-0.939-1.924-2.748-1.924
			c-0.448,0-1.243,0-1.592,0.043v3.963c0.637,0.017,1.259,0.029,1.592,0.029c1.779,0,2.748-0.447,2.748-2.01V158.83z"/>
		<path fill="#002C5F" d="M123.747,166.67c-1.013,0-1.765-0.102-2.399-0.202c-0.246-0.043-0.271-0.101-0.271-0.261v-0.578
			c0-0.157,0.113-0.229,0.244-0.229c0.018,0,0.027,0,0.043,0c0.666,0.057,1.724,0.086,2.389,0.086c1.734,0,2.199-0.693,2.199-1.707
			c0-0.723-0.422-1.127-1.735-1.938l-1.401-0.854c-1.33-0.811-1.994-1.549-1.994-2.705c0-1.75,1.259-2.562,3.457-2.562
			c0.854,0,1.968,0.086,2.518,0.174c0.146,0.027,0.246,0.102,0.246,0.246v0.621c0,0.146-0.102,0.229-0.246,0.229
			c-0.014,0-0.014,0-0.027,0c-0.638-0.043-1.646-0.086-2.488-0.086c-1.487,0-2.125,0.318-2.125,1.373
			c0,0.682,0.479,1.086,1.576,1.752l1.332,0.795c1.679,0.998,2.271,1.793,2.271,2.951C127.32,165.166,126.596,166.67,123.747,166.67
			z"/>
		<path fill="#002C5F" d="M135.073,166.598c-0.55,0.059-1.968,0.071-2.82,0.071c-2.024,0-3.081-0.768-3.081-2.688v-5.57
			c0-1.924,1.057-2.688,3.081-2.688c0.854,0,2.213,0.026,2.82,0.086c0.086,0.016,0.146,0.115,0.146,0.203v0.723
			c0,0.102-0.059,0.174-0.158,0.174h-2.791c-1.535,0-1.777,0.406-1.777,1.506v2.011h4.438c0.158,0,0.289,0.131,0.289,0.289v0.551
			c0,0.158-0.13,0.289-0.289,0.289h-4.438v2.432c0,1.098,0.244,1.504,1.777,1.504h2.791c0.104,0,0.158,0.072,0.158,0.174v0.736
			C135.218,166.482,135.16,166.584,135.073,166.598z"/>
		<path fill="#002C5F" d="M143.104,166.482c-0.605,0.115-1.172,0.188-2.399,0.188c-1.778,0-3.817-0.954-3.817-4.471v-2.01
			c0-3.545,2.039-4.471,3.817-4.471c0.91,0,1.793,0.131,2.431,0.229c0.133,0.014,0.229,0.06,0.229,0.188v0.735
			c0,0.088-0.027,0.16-0.175,0.16c-0.016,0-0.026,0-0.043,0c-0.521-0.045-1.592-0.131-2.431-0.131c-1.417,0-2.519,0.824-2.519,3.283
			v2.012c0,2.43,1.102,3.283,2.519,3.283c0.825,0,1.865-0.072,2.388-0.115c0.018,0,0.043,0,0.061,0c0.156,0,0.229,0.072,0.229,0.229
			v0.594C143.391,166.367,143.262,166.453,143.104,166.482z"/>
		<path fill="#002C5F" d="M151.652,156.949h-2.821v9.33c0,0.146-0.101,0.289-0.261,0.289h-0.795c-0.146,0-0.262-0.129-0.262-0.289
			v-9.33h-2.82c-0.158,0-0.289-0.072-0.289-0.229v-0.638c0-0.145,0.131-0.262,0.289-0.262h6.959c0.158,0,0.271,0.103,0.271,0.262
			v0.638C151.926,156.863,151.812,156.949,151.652,156.949z"/>
		<path fill="#002C5F" d="M156.568,166.67c-2.271,0-3.92-1.329-3.92-4.54v-1.865c0-3.213,1.646-4.543,3.92-4.543
			c2.271,0,3.904,1.33,3.904,4.543v1.865C160.475,165.34,158.839,166.67,156.568,166.67z M159.145,160.264
			c0-2.433-0.981-3.357-2.576-3.357c-1.574,0-2.588,0.926-2.588,3.357v1.864c0,2.431,0.998,3.355,2.588,3.355
			c1.578,0,2.576-0.926,2.576-3.355V160.264z"/>
		<path fill="#002C5F" d="M169.631,166.568h-0.927c-0.173,0-0.261,0-0.376-0.188l-2.59-4.312c-0.043,0-0.086,0-0.129,0
			c-0.086,0-0.159,0-0.246,0c-0.479,0-0.825-0.014-1.592-0.043v4.252c0,0.146-0.104,0.289-0.263,0.289h-0.778
			c-0.146,0-0.263-0.129-0.263-0.289v-10.125c0-0.203,0.089-0.289,0.351-0.317c0.621-0.072,1.707-0.115,2.545-0.115
			c2.287,0,4.051,0.768,4.051,3.108v0.103c0,1.621-0.954,2.574-2.271,2.922l2.633,4.396c0.027,0.046,0.043,0.089,0.043,0.132
			C169.818,166.482,169.746,166.568,169.631,166.568z M168.111,158.83c0-1.446-0.938-1.924-2.748-1.924
			c-0.449,0-1.244,0-1.592,0.043v3.963c0.638,0.017,1.258,0.029,1.592,0.029c1.777,0,2.748-0.447,2.748-2.01V158.83z"/>
		<path fill="#002C5F" d="M172.641,155.965l-0.884,2.733c-0.059,0.203-0.13,0.275-0.272,0.275h-0.551
			c-0.103,0-0.131-0.06-0.131-0.146c0-0.043,0-0.086,0.016-0.129l0.535-2.733c0.043-0.203,0.146-0.273,0.289-0.273h0.854
			c0.104,0,0.159,0.057,0.159,0.158C172.654,155.879,172.654,155.922,172.641,155.965z"/>
	</g>
	
		<use xlink:href="#New_Symbol_101"  width="15" height="16" id="XMLID_13_" x="-7.5" y="-8" transform="matrix(4.7927 0 0 -4.7927 95 61.5312)" overflow="visible"/>
</g>
</svg>
