<?xml version="1.0" encoding="utf-8"?>
<!-- Generator: Adobe Illustrator 15.1.0, SVG Export Plug-In . SVG Version: 6.00 Build 0)  -->
<!DOCTYPE svg PUBLIC "-//W3C//DTD SVG 1.1//EN" "http://www.w3.org/Graphics/SVG/1.1/DTD/svg11.dtd">
<svg version="1.1" id="Our_story_-_responsible_-_screen_2"
	 xmlns="http://www.w3.org/2000/svg" xmlns:xlink="http://www.w3.org/1999/xlink" x="0px" y="0px" width="190px" height="392px"
	 viewBox="0 0 190 392" enable-background="new 0 0 190 392" xml:space="preserve">
<g>
	<g>
		<polyline fill="#FFE780" points="0.082,392 0.082,174.267 189.918,174.267 189.918,392 		"/>
	</g>
	<g>
		<path fill="#002C5F" d="M52.232,220.396c-0.841,0-1.464-0.084-1.991-0.168c-0.204-0.037-0.229-0.084-0.229-0.218v-0.479
			c0-0.134,0.098-0.19,0.204-0.19c0.014,0,0.024,0,0.036,0c0.551,0.049,1.427,0.071,1.979,0.071c1.438,0,1.821-0.576,1.821-1.416
			c0-0.601-0.348-0.937-1.438-1.604l-1.163-0.709c-1.104-0.672-1.655-1.283-1.655-2.242c0-1.45,1.043-2.123,2.867-2.123
			c0.708,0,1.631,0.072,2.086,0.146c0.12,0.021,0.204,0.084,0.204,0.202v0.519c0,0.119-0.084,0.19-0.204,0.19
			c-0.012,0-0.012,0-0.023,0c-0.526-0.036-1.366-0.071-2.062-0.071c-1.235,0-1.763,0.266-1.763,1.141
			c0,0.562,0.396,0.898,1.307,1.449l1.104,0.66c1.391,0.828,1.883,1.485,1.883,2.446C55.195,219.146,54.594,220.396,52.232,220.396z
			"/>
		<path fill="#002C5F" d="M61.433,220.312h-0.6c-0.132,0-0.228-0.107-0.228-0.238v-0.229c-0.66,0.373-1.2,0.554-1.907,0.554
			c-1.439,0-2.087-0.898-2.087-2.494v-3.945c0-0.131,0.106-0.239,0.239-0.239h0.574c0.133,0,0.24,0.108,0.24,0.239v3.945
			c0,1.213,0.408,1.584,1.319,1.584c0.503,0,1.065-0.191,1.619-0.469v-5.062c0-0.119,0.106-0.237,0.238-0.237h0.587
			c0.12,0,0.229,0.106,0.229,0.237v6.117C61.662,220.203,61.567,220.312,61.433,220.312z"/>
		<path fill="#002C5F" d="M65.755,220.396c-0.372,0-0.936-0.049-1.401-0.133v2.172c0,0.119-0.098,0.229-0.229,0.229h-0.612
			c-0.12,0-0.216-0.098-0.216-0.229v-8.252c0-0.154,0.036-0.229,0.252-0.273c0.637-0.156,1.477-0.276,2.207-0.276
			c1.787,0,2.614,1.164,2.614,2.964v0.861C68.37,219.338,67.506,220.396,65.755,220.396z M67.315,216.593
			c0-1.259-0.372-2.073-1.561-2.073c-0.504,0-1.066,0.061-1.401,0.119v4.75c0.396,0.07,1.02,0.118,1.401,0.118
			c1.175,0,1.561-0.769,1.561-2.052V216.593z"/>
		<path fill="#002C5F" d="M72.248,220.396c-0.372,0-0.936-0.049-1.403-0.133v2.172c0,0.119-0.096,0.229-0.228,0.229h-0.612
			c-0.12,0-0.216-0.098-0.216-0.229v-8.252c0-0.154,0.036-0.229,0.252-0.273c0.636-0.156,1.475-0.276,2.207-0.276
			c1.787,0,2.614,1.164,2.614,2.964v0.861C74.862,219.338,73.998,220.396,72.248,220.396z M73.806,216.593
			c0-1.259-0.372-2.073-1.559-2.073c-0.504,0-1.067,0.061-1.403,0.119v4.75c0.396,0.07,1.021,0.118,1.403,0.118
			c1.175,0,1.559-0.769,1.559-2.052V216.593z"/>
		<path fill="#002C5F" d="M77.24,220.312h-0.624c-0.12,0-0.216-0.107-0.216-0.238v-8.553c0-0.119,0.084-0.229,0.216-0.229h0.624
			c0.12,0,0.216,0.097,0.216,0.229v8.553C77.456,220.189,77.372,220.312,77.24,220.312z"/>
		<path fill="#002C5F" d="M80.179,212.658h-0.61c-0.132,0-0.24-0.106-0.24-0.24v-0.959c0-0.131,0.108-0.238,0.24-0.238h0.61
			c0.134,0,0.24,0.107,0.24,0.238v0.959C80.419,212.552,80.312,212.658,80.179,212.658z M80.156,220.312H79.58
			c-0.132,0-0.24-0.107-0.24-0.238v-6.117c0-0.131,0.108-0.239,0.24-0.239h0.576c0.132,0,0.24,0.108,0.24,0.239v6.117
			C80.396,220.203,80.288,220.312,80.156,220.312z"/>
		<path fill="#002C5F" d="M87.03,217.35h-4.02v0.168c0,1.43,0.563,1.955,1.667,1.955c0.695,0,1.583-0.05,2.137-0.134
			c0.022,0,0.034,0,0.06,0c0.096,0,0.192,0.05,0.192,0.168v0.407c0,0.156-0.05,0.24-0.24,0.275
			c-0.686,0.133-1.344,0.205-2.147,0.205c-1.379,0-2.723-0.648-2.723-2.879v-1.08c0-1.715,0.948-2.808,2.663-2.808
			c1.751,0,2.639,1.104,2.639,2.808v0.647C87.257,217.24,87.173,217.35,87.03,217.35z M86.19,216.438
			c0-1.354-0.518-1.883-1.571-1.883c-1.031,0-1.607,0.588-1.607,1.883v0.107h3.18L86.19,216.438L86.19,216.438z"/>
		<path fill="#002C5F" d="M91.41,214.541c-0.551,0-1.055,0.146-1.655,0.504v5.025c0,0.119-0.106,0.24-0.24,0.24h-0.587
			c-0.12,0-0.228-0.107-0.228-0.24v-6.117c0-0.131,0.096-0.237,0.228-0.237h0.563c0.132,0,0.228,0.106,0.228,0.237v0.252
			c0.602-0.42,1.151-0.573,1.691-0.573c0.168,0,0.252,0.069,0.252,0.216v0.491C91.662,214.471,91.578,214.541,91.41,214.541z"/>
		<path fill="#002C5F" d="M98.479,214.541c-0.554,0-1.057,0.146-1.654,0.504v5.025c0,0.119-0.108,0.24-0.24,0.24h-0.588
			c-0.12,0-0.229-0.107-0.229-0.24v-6.117c0-0.131,0.097-0.237,0.229-0.237h0.562c0.133,0,0.229,0.106,0.229,0.237v0.252
			c0.6-0.42,1.15-0.573,1.689-0.573c0.17,0,0.254,0.069,0.254,0.216v0.491C98.729,214.471,98.646,214.541,98.479,214.541z"/>
		<path fill="#002C5F" d="M104.438,217.35h-4.019v0.168c0,1.43,0.562,1.955,1.667,1.955c0.693,0,1.583-0.05,2.135-0.134
			c0.024,0,0.036,0,0.062,0c0.097,0,0.19,0.05,0.19,0.168v0.407c0,0.156-0.048,0.24-0.238,0.275
			c-0.686,0.133-1.344,0.205-2.146,0.205c-1.379,0-2.723-0.648-2.723-2.879v-1.08c0-1.715,0.946-2.808,2.661-2.808
			c1.752,0,2.641,1.104,2.641,2.808v0.647C104.666,217.24,104.582,217.35,104.438,217.35z M103.6,216.438
			c0-1.354-0.517-1.883-1.57-1.883c-1.031,0-1.606,0.588-1.606,1.883v0.107h3.179L103.6,216.438L103.6,216.438z"/>
		<path fill="#002C5F" d="M107.068,220.312h-0.625c-0.118,0-0.215-0.107-0.215-0.238v-8.553c0-0.119,0.084-0.229,0.215-0.229h0.625
			c0.119,0,0.216,0.097,0.216,0.229v8.553C107.284,220.189,107.2,220.312,107.068,220.312z"/>
		<path fill="#002C5F" d="M113.391,220.312h-0.552c-0.132,0-0.239-0.107-0.239-0.238v-0.266c-0.574,0.336-1.176,0.588-1.848,0.588
			c-1.02,0-1.955-0.443-1.955-1.941v-0.146c0-1.295,0.755-1.94,2.893-1.94h0.887v-0.479c0-1.008-0.348-1.354-1.282-1.354
			c-0.78,0-1.354,0.049-1.835,0.097c-0.023,0-0.036,0-0.061,0c-0.107,0-0.217-0.035-0.217-0.191v-0.42
			c0-0.131,0.084-0.203,0.254-0.229c0.489-0.084,1.043-0.152,1.856-0.152c1.667,0,2.339,0.838,2.339,2.254v4.188
			C113.63,220.203,113.521,220.312,113.391,220.312z M112.575,217.119h-0.888c-1.451,0-1.836,0.324-1.836,1.176v0.146
			c0,0.86,0.407,1.09,1.104,1.09c0.552,0,1.043-0.166,1.619-0.479V217.119z"/>
		<path fill="#002C5F" d="M118.26,220.334c-0.238,0.037-0.552,0.062-0.777,0.062c-1.104,0-1.631-0.289-1.631-1.605v-4.188
			l-1.162-0.133c-0.135-0.014-0.229-0.085-0.229-0.217v-0.322c0-0.132,0.097-0.216,0.229-0.216h1.162v-1.177
			c0-0.121,0.084-0.217,0.217-0.239l0.623-0.097c0.012,0,0.022,0,0.035,0c0.098,0,0.182,0.084,0.182,0.203v1.31h1.295
			c0.132,0,0.24,0.106,0.24,0.237v0.408c0,0.133-0.108,0.24-0.24,0.24h-1.295v4.186c0,0.66,0.168,0.756,0.646,0.756h0.672
			c0.168,0,0.25,0.047,0.25,0.168v0.42C118.477,220.238,118.417,220.312,118.26,220.334z"/>
		<path fill="#002C5F" d="M120.566,212.658h-0.612c-0.131,0-0.239-0.106-0.239-0.24v-0.959c0-0.131,0.108-0.238,0.239-0.238h0.612
			c0.132,0,0.238,0.107,0.238,0.238v0.959C120.807,212.552,120.698,212.658,120.566,212.658z M120.542,220.312h-0.576
			c-0.132,0-0.237-0.107-0.237-0.238v-6.117c0-0.131,0.105-0.239,0.237-0.239h0.576c0.132,0,0.239,0.108,0.239,0.239v6.117
			C120.782,220.203,120.674,220.312,120.542,220.312z"/>
		<path fill="#002C5F" d="M125.005,220.396c-1.763,0-2.663-1.164-2.663-2.926v-0.912c0-1.766,0.898-2.928,2.663-2.928
			c1.767,0,2.675,1.162,2.675,2.928v0.912C127.68,219.23,126.77,220.396,125.005,220.396z M126.624,216.559
			c0-1.225-0.492-2.004-1.619-2.004c-1.114,0-1.604,0.77-1.604,2.004v0.912c0,1.225,0.479,2.002,1.604,2.002
			c1.114,0,1.619-0.77,1.619-2.002V216.559z"/>
		<path fill="#002C5F" d="M133.909,220.312h-0.576c-0.133,0-0.24-0.107-0.24-0.238v-3.944c0-1.214-0.407-1.584-1.317-1.584
			c-0.504,0-1.066,0.19-1.618,0.468v5.062c0,0.118-0.108,0.239-0.24,0.239h-0.588c-0.119,0-0.229-0.106-0.229-0.239v-6.117
			c0-0.131,0.098-0.237,0.229-0.237h0.601c0.133,0,0.229,0.106,0.229,0.237v0.229c0.659-0.371,1.198-0.552,1.907-0.552
			c1.438,0,2.086,0.897,2.086,2.494v3.944C134.148,220.203,134.039,220.312,133.909,220.312z"/>
		<path fill="#002C5F" d="M137.714,220.396c-0.442,0-1.308-0.035-1.896-0.181c-0.156-0.036-0.252-0.108-0.252-0.239v-0.42
			c0-0.107,0.096-0.182,0.217-0.182c0.021,0,0.035,0,0.047,0c0.576,0.072,1.451,0.132,1.884,0.132c0.778,0,1.188-0.202,1.188-0.853
			c0-0.359-0.219-0.586-0.9-0.994l-1.211-0.721c-0.73-0.443-1.223-0.959-1.223-1.715c0-1.248,0.936-1.598,2.17-1.598
			c0.672,0,1.308,0.062,1.869,0.156c0.156,0.023,0.229,0.107,0.229,0.238v0.396c0,0.146-0.084,0.203-0.204,0.203
			c-0.013,0-0.023,0-0.035,0c-0.42-0.035-1.188-0.097-1.858-0.097c-0.673,0-1.115,0.084-1.115,0.695
			c0,0.358,0.276,0.588,0.828,0.912l1.188,0.706c0.996,0.589,1.317,1.104,1.317,1.812
			C139.956,219.879,139.057,220.396,137.714,220.396z"/>
		<path fill="#002C5F" d="M43.706,238.312h-0.66c-0.12,0-0.216-0.107-0.216-0.238v-8.442c0-0.121,0.083-0.229,0.216-0.229h0.66
			c0.12,0,0.216,0.097,0.216,0.229v8.442C43.922,238.189,43.838,238.312,43.706,238.312z"/>
		<path fill="#002C5F" d="M50.605,238.312h-0.576c-0.132,0-0.24-0.107-0.24-0.238v-3.944c0-1.214-0.408-1.584-1.319-1.584
			c-0.504,0-1.065,0.19-1.617,0.468v5.062c0,0.118-0.108,0.239-0.24,0.239h-0.587c-0.12,0-0.229-0.106-0.229-0.239v-6.117
			c0-0.131,0.098-0.237,0.229-0.237h0.6c0.132,0,0.229,0.106,0.229,0.237v0.229c0.658-0.371,1.197-0.552,1.905-0.552
			c1.439,0,2.087,0.897,2.087,2.494v3.944C50.844,238.203,50.737,238.312,50.605,238.312z"/>
		<path fill="#002C5F" d="M55.478,230.023h-0.575c-0.563,0-0.731,0.168-0.731,0.826v0.865h1.259c0.134,0,0.229,0.096,0.229,0.215
			v0.469c0,0.119-0.096,0.203-0.229,0.203h-1.259v5.472c0,0.118-0.106,0.237-0.228,0.237h-0.589c-0.133,0-0.239-0.119-0.239-0.237
			v-5.472l-1.163-0.133c-0.132-0.013-0.229-0.097-0.229-0.216v-0.323c0-0.119,0.098-0.215,0.229-0.215h1.163v-0.865
			c0-1.281,0.624-1.666,1.679-1.666c0.324,0,0.516,0.035,0.672,0.072c0.132,0.034,0.229,0.084,0.229,0.189v0.396
			C55.694,229.977,55.61,230.023,55.478,230.023z"/>
		<path fill="#002C5F" d="M58.991,238.396c-1.764,0-2.663-1.164-2.663-2.926v-0.912c0-1.766,0.897-2.928,2.663-2.928
			c1.764,0,2.674,1.162,2.674,2.928v0.912C61.665,237.23,60.754,238.396,58.991,238.396z M60.611,234.559
			c0-1.225-0.492-2.004-1.619-2.004c-1.115,0-1.607,0.77-1.607,2.004v0.912c0,1.225,0.479,2.002,1.607,2.002
			c1.115,0,1.619-0.77,1.619-2.002V234.559z"/>
		<path fill="#002C5F" d="M65.794,232.541c-0.551,0-1.055,0.146-1.655,0.504v5.025c0,0.119-0.106,0.24-0.238,0.24h-0.587
			c-0.12,0-0.229-0.107-0.229-0.24v-6.117c0-0.131,0.096-0.237,0.229-0.237h0.562c0.132,0,0.229,0.106,0.229,0.237v0.252
			c0.6-0.42,1.149-0.573,1.689-0.573c0.168,0,0.252,0.069,0.252,0.216v0.491C66.046,232.471,65.962,232.541,65.794,232.541z"/>
		<path fill="#002C5F" d="M74.887,238.312h-0.574c-0.134,0-0.24-0.107-0.24-0.238v-4.246c0-1.008-0.468-1.282-1.091-1.282
			c-0.434,0-0.938,0.146-1.403,0.323c0.072,0.265,0.108,0.576,0.108,0.938v4.27c0,0.119-0.086,0.24-0.218,0.24h-0.636
			c-0.12,0-0.204-0.107-0.204-0.24v-4.27c0-1.043-0.3-1.262-0.924-1.262c-0.432,0-0.959,0.219-1.463,0.469v5.062
			c0,0.118-0.084,0.239-0.216,0.239h-0.638c-0.118,0-0.202-0.106-0.202-0.239v-6.117c0-0.131,0.096-0.237,0.228-0.237h0.6
			c0.134,0,0.229,0.106,0.229,0.237v0.229c0.479-0.299,1.091-0.562,1.751-0.562c0.516,0,0.897,0.146,1.199,0.492
			c0.659-0.312,1.365-0.492,1.989-0.492c1.08,0,1.943,0.539,1.943,2.207v4.246C75.128,238.203,75.021,238.312,74.887,238.312z"/>
		<path fill="#002C5F" d="M81.118,238.312h-0.551c-0.133,0-0.24-0.107-0.24-0.238v-0.266c-0.576,0.336-1.175,0.588-1.847,0.588
			c-1.021,0-1.955-0.443-1.955-1.941v-0.146c0-1.295,0.755-1.94,2.891-1.94h0.887v-0.479c0-1.008-0.348-1.354-1.281-1.354
			c-0.78,0-1.355,0.049-1.835,0.097c-0.024,0-0.036,0-0.062,0c-0.106,0-0.216-0.035-0.216-0.191v-0.42
			c0-0.131,0.084-0.203,0.252-0.229c0.492-0.084,1.043-0.152,1.859-0.152c1.667,0,2.339,0.838,2.339,2.254v4.188
			C81.358,238.203,81.249,238.312,81.118,238.312z M80.301,235.119h-0.887c-1.452,0-1.835,0.324-1.835,1.176v0.146
			c0,0.86,0.408,1.09,1.104,1.09c0.554,0,1.044-0.166,1.619-0.479L80.301,235.119L80.301,235.119z"/>
		<path fill="#002C5F" d="M85.988,238.334c-0.24,0.037-0.552,0.062-0.779,0.062c-1.104,0-1.631-0.289-1.631-1.605v-4.188
			l-1.163-0.133c-0.132-0.014-0.229-0.085-0.229-0.217v-0.322c0-0.132,0.097-0.216,0.229-0.216h1.163v-1.177
			c0-0.121,0.084-0.217,0.216-0.239l0.624-0.097c0.012,0,0.024,0,0.036,0c0.096,0,0.18,0.084,0.18,0.203v1.31h1.295
			c0.134,0,0.24,0.106,0.24,0.237v0.408c0,0.133-0.106,0.24-0.24,0.24h-1.295v4.186c0,0.66,0.168,0.756,0.647,0.756h0.672
			c0.168,0,0.252,0.047,0.252,0.168v0.42C86.205,238.238,86.146,238.312,85.988,238.334z"/>
		<path fill="#002C5F" d="M88.293,230.658h-0.612c-0.132,0-0.238-0.106-0.238-0.24v-0.959c0-0.131,0.106-0.238,0.238-0.238h0.612
			c0.132,0,0.24,0.107,0.24,0.238v0.959C88.534,230.552,88.425,230.658,88.293,230.658z M88.271,238.312h-0.576
			c-0.132,0-0.24-0.107-0.24-0.238v-6.117c0-0.131,0.108-0.239,0.24-0.239h0.576c0.132,0,0.238,0.108,0.238,0.239v6.117
			C88.509,238.203,88.402,238.312,88.271,238.312z"/>
		<path fill="#002C5F" d="M92.733,238.396c-1.765,0-2.663-1.164-2.663-2.926v-0.912c0-1.766,0.897-2.928,2.663-2.928
			c1.764,0,2.674,1.162,2.674,2.928v0.912C95.407,237.23,94.496,238.396,92.733,238.396z M94.351,234.559
			c0-1.225-0.49-2.004-1.617-2.004c-1.115,0-1.607,0.77-1.607,2.004v0.912c0,1.225,0.479,2.002,1.607,2.002
			c1.113,0,1.617-0.77,1.617-2.002V234.559z"/>
		<path fill="#002C5F" d="M101.635,238.312h-0.574c-0.134,0-0.24-0.107-0.24-0.238v-3.944c0-1.214-0.408-1.584-1.318-1.584
			c-0.504,0-1.066,0.19-1.619,0.468v5.062c0,0.118-0.105,0.239-0.24,0.239h-0.588c-0.119,0-0.229-0.106-0.229-0.239v-6.117
			c0-0.131,0.097-0.237,0.229-0.237h0.602c0.133,0,0.229,0.106,0.229,0.237v0.229c0.66-0.371,1.199-0.552,1.906-0.552
			c1.439,0,2.088,0.897,2.088,2.494v3.944C101.875,238.203,101.768,238.312,101.635,238.312z"/>
		<path fill="#002C5F" d="M108.404,238.396c-0.443,0-1.309-0.035-1.896-0.181c-0.153-0.036-0.252-0.108-0.252-0.239v-0.42
			c0-0.107,0.099-0.182,0.216-0.182c0.023,0,0.036,0,0.051,0c0.574,0.072,1.449,0.132,1.883,0.132c0.777,0,1.187-0.202,1.187-0.853
			c0-0.359-0.216-0.586-0.897-0.994l-1.211-0.721c-0.731-0.443-1.226-0.959-1.226-1.715c0-1.248,0.938-1.598,2.171-1.598
			c0.672,0,1.309,0.062,1.871,0.156c0.156,0.023,0.229,0.107,0.229,0.238v0.396c0,0.146-0.084,0.203-0.204,0.203
			c-0.013,0-0.023,0-0.035,0c-0.42-0.035-1.188-0.097-1.858-0.097c-0.673,0-1.115,0.084-1.115,0.695
			c0,0.358,0.275,0.588,0.826,0.912l1.188,0.706c0.996,0.589,1.317,1.104,1.317,1.812
			C110.646,237.879,109.748,238.396,108.404,238.396z"/>
		<path fill="#002C5F" d="M116.923,235.35h-4.019v0.168c0,1.43,0.562,1.955,1.668,1.955c0.693,0,1.582-0.05,2.135-0.134
			c0.023,0,0.035,0,0.061,0c0.098,0,0.191,0.05,0.191,0.168v0.407c0,0.156-0.049,0.24-0.24,0.275
			c-0.684,0.133-1.343,0.205-2.146,0.205c-1.38,0-2.724-0.648-2.724-2.879v-1.08c0-1.715,0.947-2.808,2.662-2.808
			c1.752,0,2.641,1.104,2.641,2.808v0.647C117.15,235.24,117.066,235.35,116.923,235.35z M116.083,234.438
			c0-1.354-0.517-1.883-1.571-1.883c-1.029,0-1.605,0.588-1.605,1.883v0.107h3.179L116.083,234.438L116.083,234.438z"/>
		<path fill="#002C5F" d="M122.432,238.264c-0.396,0.07-0.938,0.133-1.5,0.133c-1.631,0-2.555-1.15-2.555-2.914v-0.938
			c0-1.764,0.912-2.913,2.555-2.913c0.555,0,1.104,0.062,1.5,0.132c0.191,0.036,0.239,0.098,0.239,0.266v0.432
			c0,0.119-0.097,0.182-0.204,0.182c-0.021,0-0.035,0-0.048,0c-0.528-0.062-0.897-0.084-1.487-0.084
			c-0.959,0-1.498,0.637-1.498,1.989v0.938c0,1.342,0.526,1.99,1.498,1.99c0.59,0,0.959-0.023,1.487-0.084c0.013,0,0.024,0,0.048,0
			c0.107,0,0.204,0.061,0.204,0.18v0.432C122.671,238.154,122.623,238.229,122.432,238.264z"/>
		<path fill="#002C5F" d="M128.838,238.312h-0.6c-0.133,0-0.229-0.107-0.229-0.238v-0.229c-0.659,0.373-1.198,0.554-1.905,0.554
			c-1.438,0-2.088-0.898-2.088-2.494v-3.945c0-0.131,0.106-0.239,0.239-0.239h0.576c0.132,0,0.239,0.108,0.239,0.239v3.945
			c0,1.213,0.408,1.584,1.318,1.584c0.502,0,1.065-0.191,1.618-0.469v-5.062c0-0.119,0.106-0.237,0.24-0.237h0.587
			c0.12,0,0.229,0.106,0.229,0.237v6.117C129.066,238.203,128.971,238.312,128.838,238.312z"/>
		<path fill="#002C5F" d="M133.411,232.541c-0.552,0-1.056,0.146-1.654,0.504v5.025c0,0.119-0.106,0.24-0.239,0.24h-0.588
			c-0.119,0-0.228-0.107-0.228-0.24v-6.117c0-0.131,0.096-0.237,0.228-0.237h0.563c0.131,0,0.228,0.106,0.228,0.237v0.252
			c0.602-0.42,1.151-0.573,1.69-0.573c0.168,0,0.252,0.069,0.252,0.216v0.491C133.663,232.471,133.579,232.541,133.411,232.541z"/>
		<path fill="#002C5F" d="M135.777,230.658h-0.612c-0.131,0-0.239-0.106-0.239-0.24v-0.959c0-0.131,0.108-0.238,0.239-0.238h0.612
			c0.132,0,0.238,0.107,0.238,0.238v0.959C136.016,230.552,135.909,230.658,135.777,230.658z M135.753,238.312h-0.576
			c-0.132,0-0.237-0.107-0.237-0.238v-6.117c0-0.131,0.105-0.239,0.237-0.239h0.576c0.132,0,0.239,0.108,0.239,0.239v6.117
			C135.993,238.203,135.884,238.312,135.753,238.312z"/>
		<path fill="#002C5F" d="M141.055,238.334c-0.238,0.037-0.551,0.062-0.777,0.062c-1.104,0-1.631-0.289-1.631-1.605v-4.188
			l-1.162-0.133c-0.133-0.014-0.229-0.085-0.229-0.217v-0.322c0-0.132,0.097-0.216,0.229-0.216h1.162v-1.177
			c0-0.121,0.084-0.217,0.217-0.239l0.623-0.097c0.012,0,0.022,0,0.037,0c0.096,0,0.18,0.084,0.18,0.203v1.31h1.295
			c0.132,0,0.24,0.106,0.24,0.237v0.408c0,0.133-0.108,0.24-0.24,0.24h-1.295v4.186c0,0.66,0.168,0.756,0.646,0.756h0.672
			c0.168,0,0.252,0.047,0.252,0.168v0.42C141.271,238.238,141.211,238.312,141.055,238.334z"/>
		<path fill="#002C5F" d="M147.498,232.002l-1.979,6.908c-0.373,1.295-0.815,1.773-2.194,1.773c-0.337,0-0.757-0.048-1.009-0.107
			c-0.145-0.035-0.252-0.069-0.252-0.19v-0.44c0-0.135,0.097-0.192,0.229-0.192c0.013,0,0.022,0,0.035,0
			c0.265,0.024,0.805,0.071,1.067,0.071c0.685,0,0.982-0.182,1.188-1.02l0.119-0.492h-0.168c-0.359,0-0.672-0.084-0.889-0.826
			l-1.596-5.479c-0.012-0.024-0.012-0.062-0.012-0.084c0-0.121,0.072-0.205,0.216-0.205h0.66c0.097,0,0.181,0.097,0.204,0.192
			l1.414,5.205c0.061,0.238,0.145,0.265,0.229,0.265h0.191l1.464-5.481c0.022-0.097,0.12-0.181,0.228-0.181h0.672
			c0.119,0,0.191,0.084,0.191,0.205C147.51,231.943,147.51,231.979,147.498,232.002z"/>
		<path fill="#002C5F" d="M65.957,255.218h-0.563c-0.119,0-0.181-0.013-0.275-0.134c-1.067-1.295-1.679-3.439-1.679-5.553v-0.154
			c0-2.109,0.609-4.258,1.679-5.555c0.096-0.119,0.156-0.131,0.275-0.131h0.563c0.084,0,0.12,0.047,0.12,0.096
			c0,0.035-0.012,0.084-0.036,0.119c-1.021,1.5-1.547,3.371-1.547,5.472v0.153c0,2.101,0.528,3.972,1.547,5.469
			c0.024,0.037,0.036,0.084,0.036,0.121C66.078,255.168,66.041,255.218,65.957,255.218z"/>
		<path fill="#002C5F" d="M68.312,252.711h-0.66c-0.12,0-0.217-0.107-0.217-0.238v-8.441c0-0.121,0.082-0.229,0.217-0.229h0.66
			c0.118,0,0.216,0.097,0.216,0.229v8.441C68.527,252.591,68.443,252.711,68.312,252.711z"/>
		<path fill="#002C5F" d="M72.618,252.795c-0.839,0-1.463-0.084-1.991-0.168c-0.204-0.036-0.228-0.084-0.228-0.217v-0.479
			c0-0.132,0.096-0.189,0.203-0.189c0.013,0,0.023,0,0.035,0c0.553,0.049,1.428,0.07,1.979,0.07c1.438,0,1.823-0.574,1.823-1.416
			c0-0.602-0.35-0.936-1.439-1.605l-1.163-0.707c-1.104-0.672-1.654-1.282-1.654-2.241c0-1.45,1.043-2.122,2.866-2.122
			c0.708,0,1.631,0.07,2.086,0.145c0.12,0.023,0.204,0.084,0.204,0.203v0.516c0,0.121-0.084,0.191-0.204,0.191
			c-0.012,0-0.012,0-0.022,0c-0.527-0.035-1.367-0.07-2.062-0.07c-1.233,0-1.763,0.266-1.763,1.141c0,0.562,0.396,0.898,1.307,1.449
			l1.104,0.66c1.391,0.828,1.883,1.486,1.883,2.445C75.58,251.548,74.981,252.795,72.618,252.795z"/>
		<path fill="#002C5F" d="M80.153,252.795c-1.883,0-3.25-1.104-3.25-3.768v-1.547c0-2.662,1.367-3.767,3.25-3.767
			c1.883,0,3.236,1.104,3.236,3.767v1.547C83.39,251.691,82.036,252.795,80.153,252.795z M82.288,247.48
			c0-2.014-0.815-2.78-2.135-2.78c-1.309,0-2.146,0.769-2.146,2.78v1.549c0,2.018,0.827,2.781,2.146,2.781
			c1.308,0,2.135-0.769,2.135-2.781V247.48z"/>
		<path fill="#002C5F" d="M91.829,248.177l-1.151,0.78c-1.332,0.898-1.679,1.511-1.679,2.557v0.252h4.042
			c0.132,0,0.24,0.068,0.24,0.202v0.526c0,0.133-0.108,0.217-0.24,0.217h-4.762c-0.132,0-0.24-0.096-0.24-0.229v-0.974
			c0-1.245,0.528-2.276,1.835-3.153l1.211-0.814c0.996-0.672,1.235-0.959,1.235-1.68c0-0.863-0.504-1.234-1.8-1.234
			c-0.623,0-1.45,0.084-2.122,0.182c-0.014,0-0.024,0-0.05,0c-0.119,0-0.19-0.084-0.19-0.219v-0.418c0-0.12,0.106-0.191,0.228-0.217
			c0.612-0.156,1.429-0.24,2.137-0.24c1.941,0,2.865,0.674,2.865,2.146C93.387,246.811,92.944,247.423,91.829,248.177z"/>
		<path fill="#002C5F" d="M100.575,245.18l-3.453,7.354c-0.062,0.121-0.146,0.181-0.265,0.181h-0.722c-0.12,0-0.18-0.084-0.18-0.181
			c0-0.047,0.012-0.084,0.035-0.131l3.622-7.533c0.013-0.012,0.013-0.021,0.013-0.047c0-0.037-0.022-0.084-0.084-0.084h-4.09
			c-0.132,0-0.24-0.072-0.24-0.205v-0.502c0-0.121,0.108-0.229,0.24-0.229h4.377c0.672,0,0.899,0.351,0.899,0.757
			C100.73,244.759,100.671,244.977,100.575,245.18z"/>
		<path fill="#002C5F" d="M105.232,252.795c-1.812,0-2.95-1.079-2.95-3.729v-1.617c0-2.649,1.14-3.729,2.95-3.729
			c1.812,0,2.938,1.08,2.938,3.729v1.617C108.17,251.716,107.043,252.795,105.232,252.795z M107.079,247.445
			c0-2.027-0.72-2.807-1.847-2.807s-1.849,0.777-1.849,2.807v1.619c0,2.024,0.722,2.807,1.849,2.807s1.847-0.778,1.847-2.807
			V247.445z"/>
		<path fill="#002C5F" d="M112.491,252.795c-1.812,0-2.949-1.079-2.949-3.729v-1.617c0-2.649,1.14-3.729,2.949-3.729
			c1.812,0,2.938,1.08,2.938,3.729v1.617C115.43,251.716,114.302,252.795,112.491,252.795z M114.339,247.445
			c0-2.027-0.72-2.807-1.847-2.807s-1.85,0.777-1.85,2.807v1.619c0,2.024,0.723,2.807,1.85,2.807s1.847-0.778,1.847-2.807V247.445z"
			/>
		<path fill="#002C5F" d="M120.375,252.711h-0.66c-0.132,0-0.216-0.107-0.216-0.238v-7.546l-1.548,0.673
			c-0.061,0.023-0.107,0.036-0.155,0.036c-0.071,0-0.106-0.036-0.106-0.134v-0.609c0-0.084,0.035-0.107,0.119-0.154l1.812-0.863
			c0.096-0.049,0.18-0.07,0.252-0.07h0.491c0.119,0,0.229,0.096,0.229,0.229v8.443C120.591,252.591,120.507,252.711,120.375,252.711
			z"/>
		<path fill="#002C5F" d="M124.805,255.084c-0.097,0.121-0.154,0.134-0.275,0.134h-0.562c-0.084,0-0.119-0.05-0.119-0.097
			c0-0.037,0.014-0.084,0.035-0.121c1.021-1.498,1.547-3.368,1.547-5.469v-0.154c0-2.1-0.525-3.971-1.547-5.471
			c-0.021-0.035-0.035-0.084-0.035-0.119c0-0.049,0.035-0.096,0.119-0.096h0.562c0.121,0,0.181,0.012,0.275,0.131
			c1.066,1.297,1.68,3.443,1.68,5.555v0.154C126.484,251.645,125.872,253.789,124.805,255.084z"/>
		<path fill="#002C5F" d="M46.71,270.795c-0.792,0-1.499-0.036-1.955-0.107c-0.273-0.033-0.396-0.145-0.396-0.441v-7.987
			c0-0.274,0.132-0.42,0.384-0.442c0.396-0.049,1.127-0.096,1.907-0.096c1.905,0,3.514,0.504,3.514,2.312v0.191
			c0,0.889-0.468,1.568-1.283,1.883c0.828,0.287,1.331,1.021,1.331,1.94v0.204C50.212,270.268,48.581,270.795,46.71,270.795z
			 M49.073,264.029c0-1.15-0.959-1.391-2.423-1.391c-0.408,0-0.854,0.021-1.188,0.034v2.976h1.848c1.393,0,1.764-0.672,1.764-1.428
			L49.073,264.029L49.073,264.029z M49.121,268.048c0-0.791-0.396-1.521-1.812-1.521h-1.847v3.299
			c0.396,0.013,0.827,0.049,1.247,0.049c1.487,0,2.411-0.322,2.411-1.618L49.121,268.048L49.121,268.048z"/>
		<path fill="#002C5F" d="M56.453,270.711h-0.6c-0.134,0-0.229-0.107-0.229-0.238v-0.229c-0.66,0.373-1.2,0.553-1.907,0.553
			c-1.438,0-2.087-0.899-2.087-2.495v-3.945c0-0.131,0.108-0.237,0.24-0.237h0.576c0.132,0,0.239,0.106,0.239,0.237v3.945
			c0,1.213,0.407,1.584,1.318,1.584c0.503,0,1.067-0.191,1.619-0.47v-5.062c0-0.119,0.108-0.239,0.24-0.239h0.587
			c0.12,0,0.228,0.106,0.228,0.239v6.117C56.68,270.604,56.585,270.711,56.453,270.711z"/>
		<path fill="#002C5F" d="M60.247,270.795c-0.444,0-1.307-0.036-1.895-0.18c-0.156-0.037-0.254-0.108-0.254-0.24v-0.42
			c0-0.105,0.098-0.182,0.218-0.182c0.022,0,0.036,0,0.048,0c0.576,0.072,1.452,0.133,1.883,0.133c0.779,0,1.187-0.203,1.187-0.852
			c0-0.359-0.216-0.589-0.897-0.996l-1.211-0.72c-0.732-0.442-1.226-0.959-1.226-1.716c0-1.247,0.938-1.596,2.173-1.596
			c0.671,0,1.307,0.062,1.869,0.154c0.156,0.021,0.229,0.105,0.229,0.239v0.396c0,0.146-0.084,0.203-0.204,0.203
			c-0.012,0-0.023,0-0.036,0c-0.42-0.035-1.188-0.096-1.857-0.096c-0.673,0-1.115,0.084-1.115,0.694
			c0,0.358,0.274,0.588,0.827,0.911l1.188,0.707c0.996,0.589,1.319,1.104,1.319,1.812C62.49,270.279,61.59,270.795,60.247,270.795z"
			/>
		<path fill="#002C5F" d="M64.879,263.061h-0.612c-0.132,0-0.238-0.107-0.238-0.238v-0.959c0-0.135,0.106-0.24,0.238-0.24h0.612
			c0.132,0,0.24,0.105,0.24,0.24v0.959C65.119,262.951,65.01,263.061,64.879,263.061z M64.856,270.711H64.28
			c-0.132,0-0.24-0.107-0.24-0.238v-6.117c0-0.131,0.108-0.238,0.24-0.238h0.576c0.132,0,0.238,0.107,0.238,0.238v6.117
			C65.094,270.604,64.988,270.711,64.856,270.711z"/>
		<path fill="#002C5F" d="M71.68,270.711h-0.574c-0.134,0-0.24-0.107-0.24-0.238v-3.945c0-1.213-0.408-1.582-1.319-1.582
			c-0.504,0-1.065,0.188-1.619,0.467v5.062c0,0.118-0.106,0.239-0.238,0.239H67.1c-0.118,0-0.228-0.108-0.228-0.239v-6.117
			c0-0.131,0.096-0.238,0.228-0.238h0.602c0.132,0,0.228,0.107,0.228,0.238v0.229c0.66-0.372,1.199-0.553,1.907-0.553
			c1.439,0,2.087,0.898,2.087,2.494v3.945C71.92,270.604,71.813,270.711,71.68,270.711z"/>
		<path fill="#002C5F" d="M78.413,267.748h-4.018v0.168c0,1.429,0.562,1.955,1.666,1.955c0.694,0,1.584-0.049,2.136-0.133
			c0.022,0,0.036,0,0.06,0c0.098,0,0.192,0.049,0.192,0.168v0.408c0,0.155-0.048,0.239-0.24,0.274
			c-0.684,0.134-1.344,0.203-2.146,0.203c-1.381,0-2.725-0.646-2.725-2.877v-1.08c0-1.716,0.948-2.808,2.663-2.808
			c1.751,0,2.639,1.104,2.639,2.808v0.647C78.64,267.643,78.556,267.748,78.413,267.748z M77.574,266.836
			c0-1.354-0.518-1.883-1.571-1.883c-1.031,0-1.605,0.588-1.605,1.883v0.107h3.178L77.574,266.836L77.574,266.836z"/>
		<path fill="#002C5F" d="M82.014,270.795c-0.442,0-1.307-0.036-1.895-0.18c-0.156-0.037-0.252-0.108-0.252-0.24v-0.42
			c0-0.105,0.096-0.182,0.216-0.182c0.024,0,0.036,0,0.048,0c0.576,0.072,1.452,0.133,1.883,0.133c0.779,0,1.188-0.203,1.188-0.852
			c0-0.359-0.216-0.589-0.899-0.996l-1.211-0.72c-0.73-0.442-1.224-0.959-1.224-1.716c0-1.247,0.936-1.596,2.171-1.596
			c0.671,0,1.307,0.062,1.871,0.154c0.156,0.021,0.228,0.105,0.228,0.239v0.396c0,0.146-0.084,0.203-0.204,0.203
			c-0.012,0-0.022,0-0.034,0c-0.422-0.035-1.188-0.096-1.859-0.096c-0.672,0-1.115,0.084-1.115,0.694
			c0,0.358,0.276,0.588,0.827,0.911l1.188,0.707c0.994,0.589,1.317,1.104,1.317,1.812C84.257,270.279,83.358,270.795,82.014,270.795
			z"/>
		<path fill="#002C5F" d="M87.607,270.795c-0.444,0-1.309-0.036-1.896-0.18c-0.156-0.037-0.252-0.108-0.252-0.24v-0.42
			c0-0.105,0.096-0.182,0.216-0.182c0.024,0,0.036,0,0.048,0c0.576,0.072,1.452,0.133,1.885,0.133c0.777,0,1.187-0.203,1.187-0.852
			c0-0.359-0.216-0.589-0.898-0.996l-1.212-0.72c-0.73-0.442-1.224-0.959-1.224-1.716c0-1.247,0.938-1.596,2.171-1.596
			c0.671,0,1.309,0.062,1.871,0.154c0.156,0.021,0.229,0.105,0.229,0.239v0.396c0,0.146-0.084,0.203-0.204,0.203
			c-0.014,0-0.024,0-0.036,0c-0.42-0.035-1.188-0.096-1.859-0.096c-0.672,0-1.115,0.084-1.115,0.694
			c0,0.358,0.276,0.588,0.827,0.911l1.188,0.707c0.996,0.589,1.317,1.104,1.317,1.812C89.848,270.279,88.95,270.795,87.607,270.795z
			"/>
		<path fill="#002C5F" d="M98.068,270.662c-0.396,0.072-0.938,0.133-1.5,0.133c-1.629,0-2.555-1.15-2.555-2.916v-0.936
			c0-1.762,0.912-2.914,2.555-2.914c0.554,0,1.104,0.062,1.5,0.133c0.19,0.035,0.238,0.097,0.238,0.265v0.435
			c0,0.117-0.096,0.18-0.203,0.18c-0.022,0-0.035,0-0.049,0c-0.527-0.062-0.897-0.084-1.486-0.084c-0.959,0-1.498,0.636-1.498,1.99
			v0.937c0,1.345,0.525,1.991,1.498,1.991c0.589,0,0.959-0.023,1.486-0.084c0.014,0,0.024,0,0.049,0
			c0.107,0,0.203,0.061,0.203,0.182v0.432C98.309,270.557,98.26,270.627,98.068,270.662z"/>
		<path fill="#002C5F" d="M101.667,270.795c-1.763,0-2.663-1.163-2.663-2.928v-0.91c0-1.764,0.898-2.928,2.663-2.928
			s2.674,1.164,2.674,2.928v0.91C104.342,269.632,103.43,270.795,101.667,270.795z M103.286,266.957
			c0-1.225-0.491-2.004-1.618-2.004c-1.115,0-1.605,0.77-1.605,2.004v0.91c0,1.226,0.479,2.004,1.605,2.004
			c1.114,0,1.618-0.768,1.618-2.004V266.957L103.286,266.957z"/>
		<path fill="#002C5F" d="M110.57,270.711h-0.575c-0.134,0-0.24-0.107-0.24-0.238v-3.945c0-1.213-0.407-1.582-1.317-1.582
			c-0.506,0-1.067,0.188-1.619,0.467v5.062c0,0.118-0.107,0.239-0.239,0.239h-0.588c-0.119,0-0.229-0.108-0.229-0.239v-6.117
			c0-0.131,0.098-0.238,0.229-0.238h0.601c0.133,0,0.229,0.107,0.229,0.238v0.229c0.66-0.372,1.199-0.553,1.906-0.553
			c1.438,0,2.088,0.898,2.088,2.494v3.945C110.812,270.604,110.702,270.711,110.57,270.711z"/>
		<path fill="#002C5F" d="M115.491,270.734c-0.24,0.035-0.552,0.061-0.779,0.061c-1.104,0-1.631-0.288-1.631-1.605v-4.188
			l-1.163-0.133c-0.132-0.012-0.229-0.084-0.229-0.215v-0.324c0-0.133,0.097-0.217,0.229-0.217h1.163v-1.176
			c0-0.119,0.084-0.215,0.216-0.238l0.624-0.098c0.013,0,0.022,0,0.035,0c0.097,0,0.181,0.084,0.181,0.205v1.307h1.295
			c0.133,0,0.24,0.107,0.24,0.24v0.407c0,0.132-0.107,0.237-0.24,0.237h-1.295v4.188c0,0.658,0.168,0.756,0.647,0.756h0.672
			c0.168,0,0.252,0.047,0.252,0.168v0.42C115.707,270.641,115.646,270.711,115.491,270.734z"/>
		<path fill="#002C5F" d="M117.796,263.061h-0.61c-0.134,0-0.24-0.107-0.24-0.238v-0.959c0-0.135,0.106-0.24,0.24-0.24h0.61
			c0.132,0,0.239,0.105,0.239,0.24v0.959C118.036,262.951,117.928,263.061,117.796,263.061z M117.771,270.711h-0.576
			c-0.131,0-0.238-0.107-0.238-0.238v-6.117c0-0.131,0.107-0.238,0.238-0.238h0.576c0.133,0,0.24,0.107,0.24,0.238v6.117
			C118.012,270.604,117.904,270.711,117.771,270.711z"/>
		<path fill="#002C5F" d="M124.598,270.711h-0.574c-0.133,0-0.24-0.107-0.24-0.238v-3.945c0-1.213-0.407-1.582-1.318-1.582
			c-0.504,0-1.064,0.188-1.619,0.467v5.062c0,0.118-0.105,0.239-0.238,0.239h-0.59c-0.117,0-0.229-0.108-0.229-0.239v-6.117
			c0-0.131,0.098-0.238,0.229-0.238h0.602c0.133,0,0.229,0.107,0.229,0.238v0.229c0.66-0.372,1.199-0.553,1.907-0.553
			c1.438,0,2.087,0.898,2.087,2.494v3.945C124.838,270.604,124.73,270.711,124.598,270.711z"/>
		<path fill="#002C5F" d="M131.294,270.711h-0.601c-0.131,0-0.229-0.107-0.229-0.238v-0.229c-0.659,0.373-1.2,0.553-1.907,0.553
			c-1.438,0-2.086-0.899-2.086-2.495v-3.945c0-0.131,0.107-0.237,0.239-0.237h0.575c0.132,0,0.24,0.106,0.24,0.237v3.945
			c0,1.213,0.406,1.584,1.316,1.584c0.504,0,1.066-0.191,1.619-0.47v-5.062c0-0.119,0.107-0.239,0.24-0.239h0.587
			c0.12,0,0.229,0.106,0.229,0.239v6.117C131.521,270.604,131.426,270.711,131.294,270.711z"/>
		<path fill="#002C5F" d="M134.128,263.061h-0.612c-0.132,0-0.238-0.107-0.238-0.238v-0.959c0-0.135,0.106-0.24,0.238-0.24h0.612
			c0.132,0,0.239,0.105,0.239,0.24v0.959C134.368,262.951,134.26,263.061,134.128,263.061z M134.104,270.711h-0.576
			c-0.131,0-0.239-0.107-0.239-0.238v-6.117c0-0.131,0.108-0.238,0.239-0.238h0.576c0.133,0,0.239,0.107,0.239,0.238v6.117
			C134.344,270.604,134.236,270.711,134.104,270.711z"/>
		<path fill="#002C5F" d="M139.407,270.734c-0.24,0.035-0.552,0.061-0.779,0.061c-1.104,0-1.631-0.288-1.631-1.605v-4.188
			l-1.163-0.133c-0.132-0.012-0.229-0.084-0.229-0.215v-0.324c0-0.133,0.097-0.217,0.229-0.217h1.163v-1.176
			c0-0.119,0.084-0.215,0.216-0.238l0.624-0.098c0.013,0,0.022,0,0.035,0c0.097,0,0.181,0.084,0.181,0.205v1.307h1.295
			c0.133,0,0.24,0.107,0.24,0.24v0.407c0,0.132-0.107,0.237-0.24,0.237h-1.295v4.188c0,0.658,0.168,0.756,0.647,0.756h0.672
			c0.168,0,0.252,0.047,0.252,0.168v0.42C139.623,270.641,139.562,270.711,139.407,270.734z"/>
		<path fill="#002C5F" d="M145.85,264.402l-1.979,6.906c-0.372,1.297-0.814,1.773-2.195,1.773c-0.336,0-0.755-0.047-1.007-0.105
			c-0.144-0.035-0.252-0.072-0.252-0.191v-0.442c0-0.134,0.097-0.19,0.229-0.19c0.012,0,0.022,0,0.035,0
			c0.266,0.022,0.805,0.07,1.066,0.07c0.684,0,0.984-0.182,1.188-1.021l0.119-0.489h-0.168c-0.359,0-0.672-0.084-0.888-0.828
			l-1.597-5.479c-0.012-0.022-0.012-0.062-0.012-0.084c0-0.119,0.071-0.203,0.217-0.203h0.66c0.097,0,0.181,0.097,0.203,0.191
			l1.414,5.205c0.061,0.236,0.145,0.264,0.229,0.264h0.19l1.465-5.479c0.022-0.097,0.119-0.181,0.229-0.181h0.671
			c0.119,0,0.19,0.084,0.19,0.203C145.861,264.343,145.861,264.377,145.85,264.402z"/>
		<path fill="#002C5F" d="M67.829,287.617h-0.564c-0.119,0-0.18-0.012-0.273-0.133c-1.068-1.295-1.68-3.441-1.68-5.553v-0.154
			c0-2.111,0.61-4.26,1.68-5.555c0.096-0.119,0.156-0.132,0.273-0.132h0.564c0.084,0,0.12,0.048,0.12,0.097
			c0,0.035-0.013,0.084-0.036,0.119c-1.021,1.5-1.547,3.37-1.547,5.471v0.154c0,2.1,0.527,3.971,1.547,5.469
			c0.023,0.037,0.036,0.084,0.036,0.121C67.949,287.568,67.913,287.617,67.829,287.617z"/>
		<path fill="#002C5F" d="M71.537,285.195c-0.792,0-1.499-0.037-1.955-0.109c-0.275-0.034-0.396-0.143-0.396-0.441v-7.986
			c0-0.274,0.132-0.42,0.384-0.442c0.396-0.05,1.127-0.097,1.906-0.097c1.906,0,3.515,0.504,3.515,2.312v0.191
			c0,0.889-0.469,1.57-1.283,1.884c0.828,0.286,1.331,1.021,1.331,1.94v0.205C75.039,284.666,73.408,285.195,71.537,285.195z
			 M73.9,278.432c0-1.148-0.959-1.393-2.425-1.393c-0.406,0-0.852,0.023-1.187,0.035v2.976h1.847c1.394,0,1.765-0.673,1.765-1.427
			V278.432L73.9,278.432z M73.947,282.447c0-0.791-0.396-1.521-1.812-1.521h-1.847v3.297c0.396,0.014,0.827,0.049,1.247,0.049
			c1.487,0,2.411-0.321,2.411-1.617L73.947,282.447L73.947,282.447z"/>
		<path fill="#002C5F" d="M78.676,285.195c-0.839,0-1.463-0.084-1.989-0.168c-0.204-0.037-0.229-0.084-0.229-0.217v-0.48
			c0-0.131,0.096-0.189,0.204-0.189c0.012,0,0.023,0,0.036,0c0.552,0.049,1.427,0.071,1.979,0.071c1.439,0,1.823-0.576,1.823-1.416
			c0-0.601-0.348-0.935-1.438-1.604l-1.163-0.709c-1.104-0.672-1.655-1.281-1.655-2.24c0-1.45,1.043-2.123,2.867-2.123
			c0.708,0,1.631,0.07,2.086,0.146c0.12,0.021,0.204,0.084,0.204,0.202v0.517c0,0.119-0.084,0.19-0.204,0.19
			c-0.013,0-0.013,0-0.024,0c-0.526-0.034-1.367-0.071-2.062-0.071c-1.235,0-1.765,0.266-1.765,1.141
			c0,0.562,0.396,0.898,1.309,1.451l1.104,0.66c1.393,0.826,1.883,1.485,1.883,2.444C81.638,283.947,81.039,285.195,78.676,285.195z
			"/>
		<path fill="#002C5F" d="M89.956,280.576l-1.151,0.781c-1.332,0.897-1.679,1.51-1.679,2.555v0.252h4.042
			c0.132,0,0.24,0.07,0.24,0.203v0.527c0,0.133-0.108,0.217-0.24,0.217h-4.762c-0.132,0-0.24-0.098-0.24-0.229v-0.974
			c0-1.246,0.528-2.276,1.835-3.153l1.211-0.813c0.996-0.672,1.235-0.959,1.235-1.68c0-0.863-0.504-1.234-1.799-1.234
			c-0.624,0-1.451,0.084-2.123,0.18c-0.014,0-0.024,0-0.05,0c-0.118,0-0.19-0.084-0.19-0.217v-0.418
			c0-0.121,0.106-0.193,0.228-0.217c0.612-0.156,1.429-0.24,2.137-0.24c1.941,0,2.865,0.672,2.865,2.146
			C91.514,279.209,91.072,279.822,89.956,280.576z"/>
		<path fill="#002C5F" d="M95.741,285.195c-0.78,0-1.511-0.072-2.111-0.217c-0.132-0.035-0.228-0.084-0.228-0.24v-0.442
			c0-0.118,0.07-0.181,0.18-0.181c0.024,0,0.036,0,0.06,0c0.758,0.133,1.499,0.168,2.101,0.168c1.354,0,1.955-0.66,1.955-1.883
			v-0.183c0-1.198-0.744-1.604-2.506-1.604h-1.439c-0.108,0-0.192-0.096-0.192-0.203v-0.014l0.337-3.992
			c0.013-0.121,0.119-0.205,0.239-0.205h4.126c0.131,0,0.239,0.072,0.239,0.205v0.525c0,0.133-0.108,0.192-0.239,0.192h-3.44
			l-0.192,2.59h0.564c2.229,0,3.608,0.588,3.608,2.506v0.183C98.798,284.177,97.684,285.195,95.741,285.195z"/>
		<path fill="#002C5F" d="M103.036,285.195c-0.947,0-1.571-0.098-2.063-0.205c-0.154-0.035-0.287-0.084-0.287-0.229v-0.468
			c0-0.146,0.097-0.218,0.217-0.218c0.022,0,0.048,0.013,0.07,0.013c0.612,0.121,1.297,0.192,2.053,0.192
			c1.857,0,2.062-1.092,2.062-2.664v-0.131c-0.503,0.104-1.079,0.238-1.812,0.238c-1.569,0-2.948-0.574-2.948-2.507v-0.071
			c0-1.896,0.972-3.033,2.926-3.033c1.799,0,2.915,1.056,2.915,3.404v2.1C106.166,284.188,105.086,285.195,103.036,285.195z
			 M105.086,279.521c0-1.953-0.66-2.519-1.822-2.519c-1.127,0-1.857,0.526-1.857,2.146v0.07c0,1.297,0.912,1.655,1.857,1.655
			c0.59,0,1.379-0.108,1.812-0.217L105.086,279.521z"/>
		<path fill="#002C5F" d="M110.295,285.195c-0.947,0-1.57-0.098-2.062-0.205c-0.155-0.035-0.289-0.084-0.289-0.229v-0.468
			c0-0.146,0.098-0.218,0.218-0.218c0.022,0,0.048,0.013,0.071,0.013c0.61,0.121,1.295,0.192,2.052,0.192
			c1.856,0,2.062-1.092,2.062-2.664v-0.131c-0.503,0.104-1.078,0.238-1.812,0.238c-1.57,0-2.949-0.574-2.949-2.507v-0.071
			c0-1.896,0.972-3.033,2.927-3.033c1.799,0,2.914,1.056,2.914,3.404v2.1C113.425,284.188,112.346,285.195,110.295,285.195z
			 M112.346,279.521c0-1.953-0.658-2.519-1.82-2.519c-1.127,0-1.859,0.526-1.859,2.146v0.07c0,1.297,0.912,1.655,1.859,1.655
			c0.588,0,1.379-0.108,1.811-0.217L112.346,279.521z"/>
		<path fill="#002C5F" d="M117.555,285.195c-0.945,0-1.568-0.098-2.062-0.205c-0.156-0.035-0.289-0.084-0.289-0.229v-0.468
			c0-0.146,0.097-0.218,0.217-0.218c0.022,0,0.048,0.013,0.072,0.013c0.61,0.121,1.295,0.192,2.051,0.192
			c1.858,0,2.062-1.092,2.062-2.664v-0.131c-0.504,0.104-1.08,0.238-1.812,0.238c-1.571,0-2.95-0.574-2.95-2.507v-0.071
			c0-1.896,0.975-3.033,2.928-3.033c1.799,0,2.916,1.056,2.916,3.404v2.1C120.688,284.188,119.605,285.195,117.555,285.195z
			 M119.605,279.521c0-1.953-0.66-2.519-1.821-2.519c-1.127,0-1.859,0.526-1.859,2.146v0.07c0,1.297,0.912,1.655,1.859,1.655
			c0.588,0,1.379-0.108,1.812-0.217L119.605,279.521z"/>
		<path fill="#002C5F" d="M122.932,287.484c-0.096,0.121-0.154,0.133-0.273,0.133h-0.562c-0.085,0-0.121-0.049-0.121-0.096
			c0-0.037,0.014-0.084,0.036-0.121c1.021-1.498,1.548-3.369,1.548-5.469v-0.154c0-2.101-0.527-3.971-1.548-5.471
			c-0.022-0.035-0.036-0.084-0.036-0.119c0-0.049,0.036-0.097,0.121-0.097h0.562c0.119,0,0.18,0.013,0.273,0.132
			c1.067,1.295,1.682,3.441,1.682,5.555v0.154C124.611,284.043,123.999,286.189,122.932,287.484z"/>
		<path fill="#002C5F" d="M47.544,303.195c-0.839,0-1.463-0.084-1.991-0.168c-0.204-0.037-0.228-0.084-0.228-0.218v-0.479
			c0-0.131,0.096-0.19,0.204-0.19c0.012,0,0.022,0,0.036,0c0.552,0.05,1.427,0.072,1.979,0.072c1.439,0,1.823-0.576,1.823-1.416
			c0-0.601-0.349-0.935-1.439-1.604l-1.163-0.709c-1.104-0.673-1.653-1.281-1.653-2.24c0-1.45,1.043-2.123,2.866-2.123
			c0.708,0,1.632,0.07,2.086,0.146c0.12,0.021,0.204,0.084,0.204,0.202v0.517c0,0.119-0.084,0.19-0.204,0.19
			c-0.013,0-0.013,0-0.023,0c-0.527-0.034-1.367-0.071-2.062-0.071c-1.234,0-1.764,0.266-1.764,1.141
			c0,0.562,0.396,0.898,1.309,1.451l1.104,0.66c1.392,0.825,1.883,1.485,1.883,2.444C50.507,301.947,49.908,303.195,47.544,303.195z
			"/>
		<path fill="#002C5F" d="M56.748,303.111h-0.6c-0.134,0-0.229-0.109-0.229-0.24v-0.229c-0.66,0.371-1.2,0.554-1.907,0.554
			c-1.438,0-2.087-0.9-2.087-2.496v-3.945c0-0.131,0.108-0.238,0.24-0.238h0.575c0.132,0,0.24,0.107,0.24,0.238v3.945
			c0,1.213,0.406,1.584,1.317,1.584c0.503,0,1.067-0.19,1.619-0.469v-5.062c0-0.121,0.108-0.239,0.24-0.239h0.587
			c0.12,0,0.228,0.105,0.228,0.239v6.116C56.975,303.002,56.879,303.111,56.748,303.111z"/>
		<path fill="#002C5F" d="M61.07,303.195c-0.372,0-0.938-0.049-1.403-0.133v2.172c0,0.118-0.096,0.227-0.228,0.227h-0.612
			c-0.12,0-0.216-0.096-0.216-0.227v-8.252c0-0.156,0.036-0.229,0.252-0.275c0.636-0.155,1.475-0.275,2.207-0.275
			c1.787,0,2.612,1.163,2.612,2.962v0.863C63.683,302.14,62.821,303.195,61.07,303.195z M62.628,299.394
			c0-1.26-0.372-2.073-1.559-2.073c-0.504,0-1.068,0.062-1.403,0.119v4.75c0.396,0.071,1.021,0.118,1.403,0.118
			c1.175,0,1.559-0.769,1.559-2.051V299.394z"/>
		<path fill="#002C5F" d="M67.562,303.195c-0.372,0-0.938-0.049-1.403-0.133v2.172c0,0.118-0.097,0.227-0.229,0.227h-0.61
			c-0.12,0-0.218-0.096-0.218-0.227v-8.252c0-0.156,0.036-0.229,0.254-0.275c0.636-0.155,1.475-0.275,2.206-0.275
			c1.786,0,2.613,1.163,2.613,2.962v0.863C70.175,302.14,69.312,303.195,67.562,303.195z M69.12,299.394
			c0-1.26-0.372-2.073-1.559-2.073c-0.506,0-1.067,0.062-1.403,0.119v4.75c0.396,0.071,1.02,0.118,1.403,0.118
			c1.175,0,1.559-0.769,1.559-2.051V299.394z"/>
		<path fill="#002C5F" d="M72.552,303.111h-0.624c-0.12,0-0.216-0.109-0.216-0.24v-8.551c0-0.121,0.084-0.229,0.216-0.229h0.624
			c0.12,0,0.217,0.097,0.217,0.229v8.551C72.769,302.99,72.685,303.111,72.552,303.111z"/>
		<path fill="#002C5F" d="M75.493,295.459h-0.612c-0.132,0-0.24-0.105-0.24-0.238v-0.96c0-0.134,0.108-0.239,0.24-0.239h0.612
			c0.132,0,0.24,0.105,0.24,0.239v0.96C75.733,295.354,75.624,295.459,75.493,295.459z M75.468,303.111h-0.576
			c-0.132,0-0.238-0.109-0.238-0.24v-6.117c0-0.131,0.106-0.238,0.238-0.238h0.576c0.133,0,0.24,0.107,0.24,0.238v6.117
			C75.708,303.002,75.6,303.111,75.468,303.111z"/>
		<path fill="#002C5F" d="M82.342,300.15h-4.018v0.168c0,1.426,0.562,1.955,1.667,1.955c0.695,0,1.583-0.052,2.135-0.136
			c0.024,0,0.036,0,0.061,0c0.097,0,0.191,0.052,0.191,0.168v0.408c0,0.155-0.048,0.239-0.24,0.274
			c-0.684,0.133-1.344,0.205-2.146,0.205c-1.379,0-2.725-0.647-2.725-2.88v-1.079c0-1.716,0.948-2.808,2.663-2.808
			c1.751,0,2.641,1.104,2.641,2.808v0.647C82.571,300.041,82.487,300.15,82.342,300.15z M81.503,299.236
			c0-1.354-0.516-1.883-1.571-1.883c-1.029,0-1.605,0.588-1.605,1.883v0.106h3.178L81.503,299.236L81.503,299.236z"/>
		<path fill="#002C5F" d="M86.723,297.343c-0.551,0-1.055,0.146-1.653,0.504v5.024c0,0.119-0.108,0.24-0.24,0.24h-0.587
			c-0.12,0-0.229-0.109-0.229-0.24v-6.116c0-0.132,0.098-0.239,0.229-0.239h0.562c0.134,0,0.229,0.107,0.229,0.239v0.252
			c0.6-0.42,1.15-0.575,1.69-0.575c0.168,0,0.252,0.071,0.252,0.219v0.49C86.975,297.271,86.891,297.343,86.723,297.343z"/>
		<path fill="#002C5F" d="M95.938,300.15H91.92v0.168c0,1.426,0.563,1.955,1.667,1.955c0.695,0,1.583-0.052,2.136-0.136
			c0.023,0,0.035,0,0.061,0c0.097,0,0.191,0.052,0.191,0.168v0.408c0,0.155-0.049,0.239-0.238,0.274
			c-0.687,0.133-1.346,0.205-2.147,0.205c-1.379,0-2.723-0.647-2.723-2.88v-1.079c0-1.716,0.948-2.808,2.663-2.808
			c1.751,0,2.639,1.104,2.639,2.808v0.647C96.166,300.041,96.082,300.15,95.938,300.15z M95.098,299.236
			c0-1.354-0.516-1.883-1.569-1.883c-1.031,0-1.607,0.588-1.607,1.883v0.106H95.1L95.098,299.236L95.098,299.236z"/>
		<path fill="#002C5F" d="M102.43,296.805l-1.617,5.708c-0.156,0.539-0.564,0.685-1.08,0.685c-0.519,0-0.926-0.146-1.08-0.685
			l-1.619-5.708c-0.012-0.037-0.012-0.062-0.012-0.085c0-0.12,0.069-0.204,0.189-0.204h0.66c0.096,0,0.18,0.07,0.229,0.229
			l1.381,5.229c0.069,0.287,0.131,0.349,0.252,0.349c0.105,0,0.18-0.062,0.252-0.349l1.379-5.229
			c0.047-0.156,0.131-0.229,0.228-0.229h0.66c0.12,0,0.192,0.084,0.192,0.204C102.441,296.742,102.441,296.768,102.43,296.805z"/>
		<path fill="#002C5F" d="M107.829,303.111h-0.552c-0.131,0-0.239-0.109-0.239-0.24v-0.266c-0.575,0.338-1.175,0.59-1.847,0.59
			c-1.021,0-1.955-0.445-1.955-1.943v-0.145c0-1.295,0.755-1.943,2.892-1.943h0.888v-0.479c0-1.008-0.349-1.354-1.283-1.354
			c-0.778,0-1.354,0.048-1.834,0.097c-0.023,0-0.037,0-0.062,0c-0.106,0-0.217-0.037-0.217-0.191v-0.42
			c0-0.133,0.084-0.205,0.253-0.229c0.49-0.084,1.043-0.156,1.857-0.156c1.668,0,2.34,0.84,2.34,2.254v4.188
			C108.07,303.002,107.962,303.111,107.829,303.111z M107.014,299.92h-0.887c-1.451,0-1.835,0.324-1.835,1.177v0.146
			c0,0.863,0.407,1.092,1.104,1.092c0.553,0,1.043-0.168,1.617-0.479V299.92L107.014,299.92z"/>
		<path fill="#002C5F" d="M110.663,303.111h-0.623c-0.12,0-0.217-0.109-0.217-0.24v-8.551c0-0.121,0.084-0.229,0.217-0.229h0.623
			c0.121,0,0.217,0.097,0.217,0.229v8.551C110.879,302.99,110.795,303.111,110.663,303.111z"/>
		<path fill="#002C5F" d="M117.454,303.111h-0.601c-0.133,0-0.229-0.109-0.229-0.24v-0.229c-0.66,0.371-1.2,0.554-1.907,0.554
			c-1.438,0-2.087-0.9-2.087-2.496v-3.945c0-0.131,0.107-0.238,0.24-0.238h0.574c0.133,0,0.238,0.107,0.238,0.238v3.945
			c0,1.213,0.408,1.584,1.319,1.584c0.503,0,1.067-0.19,1.618-0.469v-5.062c0-0.121,0.109-0.239,0.24-0.239h0.588
			c0.119,0,0.228,0.105,0.228,0.239v6.116C117.682,303.002,117.585,303.111,117.454,303.111z"/>
		<path fill="#002C5F" d="M123.669,303.111h-0.552c-0.131,0-0.239-0.109-0.239-0.24v-0.266c-0.576,0.338-1.175,0.59-1.847,0.59
			c-1.021,0-1.955-0.445-1.955-1.943v-0.145c0-1.295,0.755-1.943,2.891-1.943h0.889v-0.479c0-1.008-0.35-1.354-1.283-1.354
			c-0.779,0-1.354,0.048-1.834,0.097c-0.024,0-0.037,0-0.062,0c-0.105,0-0.216-0.037-0.216-0.191v-0.42
			c0-0.133,0.084-0.205,0.252-0.229c0.492-0.084,1.043-0.156,1.858-0.156c1.668,0,2.34,0.84,2.34,2.254v4.188
			C123.909,303.002,123.801,303.111,123.669,303.111z M122.854,299.92h-0.888c-1.45,0-1.835,0.324-1.835,1.177v0.146
			c0,0.863,0.408,1.092,1.104,1.092c0.554,0,1.043-0.168,1.619-0.479V299.92z"/>
		<path fill="#002C5F" d="M128.539,303.136c-0.239,0.034-0.551,0.062-0.777,0.062c-1.104,0-1.632-0.287-1.632-1.604v-4.188
			l-1.163-0.133c-0.132-0.012-0.229-0.084-0.229-0.215v-0.324c0-0.133,0.097-0.217,0.229-0.217h1.163v-1.174
			c0-0.121,0.084-0.218,0.216-0.24l0.625-0.097c0.014,0,0.023,0,0.035,0c0.098,0,0.182,0.084,0.182,0.203v1.308h1.295
			c0.133,0,0.238,0.108,0.238,0.239v0.408c0,0.131-0.105,0.239-0.238,0.239h-1.295v4.187c0,0.66,0.168,0.757,0.646,0.757h0.672
			c0.168,0,0.251,0.047,0.251,0.168v0.42C128.756,303.039,128.695,303.111,128.539,303.136z"/>
		<path fill="#002C5F" d="M130.846,295.459h-0.611c-0.131,0-0.24-0.105-0.24-0.238v-0.96c0-0.134,0.109-0.239,0.24-0.239h0.611
			c0.133,0,0.239,0.105,0.239,0.239v0.96C131.085,295.354,130.979,295.459,130.846,295.459z M130.82,303.111h-0.575
			c-0.132,0-0.239-0.109-0.239-0.24v-6.117c0-0.131,0.107-0.238,0.239-0.238h0.575c0.134,0,0.24,0.107,0.24,0.238v6.117
			C131.062,303.002,130.954,303.111,130.82,303.111z"/>
		<path fill="#002C5F" d="M135.284,303.195c-1.763,0-2.662-1.164-2.662-2.929v-0.911c0-1.763,0.897-2.926,2.662-2.926
			s2.675,1.163,2.675,2.926v0.911C137.959,302.031,137.048,303.195,135.284,303.195z M136.904,299.358
			c0-1.226-0.491-2.005-1.618-2.005c-1.115,0-1.606,0.771-1.606,2.005v0.909c0,1.226,0.479,2.005,1.606,2.005
			c1.114,0,1.618-0.77,1.618-2.005V299.358z"/>
		<path fill="#002C5F" d="M144.188,303.111h-0.576c-0.133,0-0.239-0.109-0.239-0.24v-3.944c0-1.214-0.408-1.584-1.319-1.584
			c-0.504,0-1.066,0.19-1.617,0.467v5.062c0,0.119-0.108,0.24-0.24,0.24h-0.588c-0.119,0-0.229-0.109-0.229-0.24v-6.117
			c0-0.131,0.096-0.239,0.229-0.239h0.602c0.132,0,0.229,0.108,0.229,0.239v0.229c0.66-0.373,1.199-0.555,1.906-0.555
			c1.438,0,2.088,0.899,2.088,2.496v3.944C144.427,303.002,144.318,303.111,144.188,303.111z"/>
		<path fill="#002C5F" d="M66.245,320.019h-0.564c-0.119,0-0.18-0.012-0.273-0.133c-1.068-1.295-1.68-3.438-1.68-5.554v-0.155
			c0-2.108,0.61-4.259,1.68-5.554c0.096-0.118,0.156-0.131,0.273-0.131h0.564c0.084,0,0.12,0.047,0.12,0.097
			c0,0.034-0.013,0.084-0.036,0.118c-1.021,1.5-1.547,3.371-1.547,5.47v0.155c0,2.101,0.526,3.972,1.547,5.47
			c0.023,0.037,0.036,0.084,0.036,0.121C66.365,319.97,66.329,320.019,66.245,320.019z"/>
		<path fill="#002C5F" d="M69.701,317.595c-0.839,0-1.463-0.084-1.991-0.168c-0.204-0.035-0.228-0.084-0.228-0.216v-0.479
			c0-0.132,0.096-0.189,0.203-0.189c0.013,0,0.023,0,0.035,0c0.552,0.048,1.429,0.072,1.979,0.072c1.438,0,1.822-0.576,1.822-1.416
			c0-0.603-0.349-0.938-1.438-1.606l-1.163-0.707c-1.104-0.672-1.655-1.282-1.655-2.242c0-1.45,1.044-2.122,2.867-2.122
			c0.708,0,1.631,0.069,2.086,0.145c0.12,0.023,0.204,0.084,0.204,0.203v0.517c0,0.118-0.084,0.19-0.204,0.19
			c-0.012,0-0.012,0-0.022,0c-0.527-0.035-1.367-0.072-2.062-0.072c-1.234,0-1.763,0.268-1.763,1.143
			c0,0.562,0.396,0.896,1.307,1.45l1.104,0.659c1.391,0.826,1.883,1.486,1.883,2.445C72.663,316.349,72.064,317.595,69.701,317.595z
			"/>
		<path fill="#002C5F" d="M79.094,317.535c-0.456,0.047-1.631,0.06-2.338,0.06c-1.679,0-2.555-0.636-2.555-2.229v-4.617
			c0-1.596,0.875-2.229,2.555-2.229c0.708,0,1.835,0.022,2.338,0.07c0.072,0.014,0.12,0.098,0.12,0.168v0.601
			c0,0.084-0.048,0.146-0.132,0.146h-2.315c-1.271,0-1.475,0.336-1.475,1.247v1.669h3.682c0.134,0,0.24,0.106,0.24,0.237v0.457
			c0,0.131-0.106,0.237-0.24,0.237h-3.682v2.017c0,0.912,0.204,1.248,1.475,1.248h2.315c0.084,0,0.132,0.062,0.132,0.146v0.61
			C79.214,317.44,79.166,317.524,79.094,317.535z"/>
		<path fill="#002C5F" d="M83.248,317.595c-0.912,0-1.835-0.06-2.183-0.119c-0.156-0.022-0.252-0.118-0.252-0.301v-8.237
			c0-0.169,0.096-0.275,0.252-0.302c0.348-0.06,1.271-0.119,2.183-0.119c2.219,0,3.634,1.142,3.634,3.729v1.619
			C86.882,316.433,85.466,317.595,83.248,317.595z M85.79,312.246c0-2.172-1.104-2.795-2.542-2.795
			c-0.562,0-0.936,0.013-1.331,0.035v7.147c0.384,0.022,0.77,0.022,1.331,0.022c1.439,0,2.542-0.638,2.542-2.795V312.246z"/>
		<path fill="#002C5F" d="M93.399,317.535c-0.456,0.047-1.633,0.06-2.34,0.06c-1.679,0-2.555-0.636-2.555-2.229v-4.617
			c0-1.596,0.875-2.229,2.555-2.229c0.709,0,1.837,0.022,2.34,0.07c0.07,0.014,0.119,0.098,0.119,0.168v0.601
			c0,0.084-0.049,0.146-0.133,0.146h-2.313c-1.271,0-1.477,0.336-1.477,1.247v1.669h3.684c0.132,0,0.238,0.106,0.238,0.237v0.457
			c0,0.131-0.106,0.237-0.238,0.237h-3.684v2.017c0,0.912,0.204,1.248,1.477,1.248h2.313c0.084,0,0.133,0.062,0.133,0.146v0.61
			C93.519,317.44,93.47,317.524,93.399,317.535z"/>
		<path fill="#002C5F" d="M101.232,317.511h-0.756c-0.119,0-0.168-0.048-0.252-0.181l-2.192-3.489l-2.147,3.489
			c-0.084,0.133-0.154,0.181-0.252,0.181h-0.708c-0.132,0-0.19-0.084-0.19-0.181c0-0.035,0.012-0.084,0.034-0.119l2.663-4.233
			l-2.639-4.09c-0.024-0.035-0.036-0.084-0.036-0.119c0-0.097,0.062-0.168,0.18-0.168h0.78c0.12,0,0.168,0.034,0.217,0.119
			l2.158,3.418l2.088-3.418c0.071-0.104,0.133-0.119,0.229-0.119h0.707c0.121,0,0.191,0.084,0.191,0.183
			c0,0.033-0.013,0.07-0.037,0.104l-2.576,4.114l2.697,4.209c0.023,0.035,0.035,0.084,0.035,0.131
			C101.425,317.427,101.366,317.511,101.232,317.511z"/>
		<path fill="#002C5F" d="M105.914,308.841l-2.709,8.433c-0.036,0.118-0.096,0.237-0.217,0.237h-0.61
			c-0.106,0-0.168-0.084-0.168-0.168c0-0.021,0-0.048,0.013-0.069l2.725-8.434c0.035-0.12,0.084-0.239,0.203-0.239h0.609
			c0.107,0,0.168,0.084,0.168,0.168C105.926,308.791,105.926,308.815,105.914,308.841z"/>
		<path fill="#002C5F" d="M112.021,317.535c-0.457,0.047-1.633,0.06-2.34,0.06c-1.679,0-2.555-0.636-2.555-2.229v-4.617
			c0-1.596,0.875-2.229,2.555-2.229c0.709,0,1.836,0.022,2.34,0.07c0.07,0.014,0.119,0.098,0.119,0.168v0.601
			c0,0.084-0.049,0.146-0.133,0.146h-2.314c-1.271,0-1.476,0.336-1.476,1.247v1.669h3.683c0.134,0,0.24,0.106,0.24,0.237v0.457
			c0,0.131-0.106,0.237-0.24,0.237h-3.683v2.017c0,0.912,0.204,1.248,1.476,1.248h2.314c0.084,0,0.133,0.062,0.133,0.146v0.61
			C112.141,317.44,112.093,317.524,112.021,317.535z"/>
		<path fill="#002C5F" d="M119.232,309.535h-2.338v7.733c0,0.121-0.084,0.24-0.218,0.24h-0.659c-0.119,0-0.217-0.106-0.217-0.24
			v-7.733h-2.339c-0.132,0-0.239-0.062-0.239-0.19v-0.528c0-0.117,0.107-0.216,0.239-0.216h5.771c0.131,0,0.229,0.084,0.229,0.216
			v0.528C119.461,309.463,119.366,309.535,119.232,309.535z"/>
		<path fill="#002C5F" d="M121.816,317.511h-0.659c-0.121,0-0.218-0.104-0.218-0.237v-8.443c0-0.119,0.084-0.229,0.218-0.229h0.659
			c0.119,0,0.216,0.099,0.216,0.229v8.443C122.032,317.392,121.948,317.511,121.816,317.511z"/>
		<path fill="#002C5F" d="M124.516,319.886c-0.096,0.12-0.154,0.133-0.273,0.133h-0.562c-0.084,0-0.121-0.049-0.121-0.097
			c0-0.036,0.014-0.084,0.037-0.12c1.02-1.498,1.547-3.369,1.547-5.47v-0.155c0-2.099-0.527-3.97-1.547-5.47
			c-0.023-0.034-0.037-0.084-0.037-0.119c0-0.049,0.037-0.096,0.121-0.096h0.562c0.119,0,0.18,0.012,0.273,0.131
			c1.067,1.295,1.682,3.443,1.682,5.554v0.155C126.195,316.443,125.583,318.591,124.516,319.886z"/>
		<path fill="#002C5F" d="M51.22,335.44c-0.504,0.096-0.972,0.153-1.989,0.153c-1.477,0-3.166-0.791-3.166-3.705v-1.668
			c0-2.938,1.689-3.705,3.166-3.705c0.756,0,1.485,0.106,2.015,0.19c0.107,0.013,0.192,0.049,0.192,0.156v0.61
			c0,0.072-0.024,0.132-0.146,0.132c-0.012,0-0.023,0-0.036,0c-0.432-0.035-1.317-0.107-2.015-0.107
			c-1.175,0-2.087,0.685-2.087,2.724v1.668c0,2.017,0.912,2.726,2.087,2.726c0.684,0,1.547-0.062,1.979-0.099
			c0.014,0,0.036,0,0.048,0c0.134,0,0.192,0.062,0.192,0.19v0.492C51.46,335.343,51.353,335.414,51.22,335.44z"/>
		<path fill="#002C5F" d="M53.659,335.511h-0.624c-0.12,0-0.216-0.104-0.216-0.237v-8.554c0-0.119,0.084-0.228,0.216-0.228h0.624
			c0.12,0,0.216,0.097,0.216,0.228v8.554C53.874,335.392,53.79,335.511,53.659,335.511z"/>
		<path fill="#002C5F" d="M56.598,327.859h-0.61c-0.132,0-0.24-0.109-0.24-0.24v-0.959c0-0.133,0.108-0.239,0.24-0.239h0.61
			c0.134,0,0.24,0.106,0.24,0.239v0.959C56.838,327.75,56.731,327.859,56.598,327.859z M56.575,335.511h-0.576
			c-0.132,0-0.24-0.104-0.24-0.237v-6.115c0-0.135,0.108-0.24,0.24-0.24h0.576c0.132,0,0.24,0.105,0.24,0.24v6.115
			C56.815,335.402,56.706,335.511,56.575,335.511z"/>
		<path fill="#002C5F" d="M63.448,332.55h-4.02v0.168c0,1.426,0.563,1.955,1.667,1.955c0.695,0,1.583-0.05,2.137-0.134
			c0.022,0,0.034,0,0.06,0c0.096,0,0.192,0.05,0.192,0.168v0.408c0,0.153-0.05,0.237-0.24,0.274
			c-0.685,0.134-1.344,0.203-2.147,0.203c-1.379,0-2.723-0.646-2.723-2.879v-1.078c0-1.715,0.948-2.808,2.663-2.808
			c1.751,0,2.639,1.104,2.639,2.808v0.646C63.675,332.44,63.592,332.55,63.448,332.55z M62.609,331.638
			c0-1.354-0.518-1.884-1.571-1.884c-1.031,0-1.607,0.589-1.607,1.884v0.106h3.18L62.609,331.638L62.609,331.638z"/>
		<path fill="#002C5F" d="M69.927,335.511h-0.574c-0.134,0-0.24-0.104-0.24-0.237v-3.945c0-1.211-0.408-1.584-1.319-1.584
			c-0.504,0-1.065,0.19-1.619,0.47v5.062c0,0.12-0.106,0.239-0.239,0.239h-0.588c-0.119,0-0.228-0.106-0.228-0.239v-6.115
			c0-0.133,0.096-0.24,0.228-0.24h0.602c0.132,0,0.228,0.107,0.228,0.24v0.229c0.66-0.373,1.199-0.554,1.907-0.554
			c1.439,0,2.087,0.898,2.087,2.494v3.945C70.167,335.402,70.06,335.511,69.927,335.511z"/>
		<path fill="#002C5F" d="M74.848,335.535c-0.238,0.035-0.551,0.06-0.777,0.06c-1.104,0-1.631-0.287-1.631-1.604v-4.188
			l-1.163-0.131c-0.133-0.013-0.229-0.084-0.229-0.218v-0.321c0-0.134,0.097-0.218,0.229-0.218h1.163v-1.176
			c0-0.119,0.084-0.217,0.216-0.24l0.624-0.096c0.012,0,0.022,0,0.036,0c0.096,0,0.18,0.084,0.18,0.203v1.309h1.295
			c0.132,0,0.24,0.107,0.24,0.24v0.405c0,0.134-0.108,0.24-0.24,0.24h-1.295v4.188c0,0.657,0.168,0.754,0.646,0.754h0.673
			c0.168,0,0.252,0.049,0.252,0.168v0.42C75.065,335.44,75.004,335.511,74.848,335.535z"/>
		<path fill="#002C5F" d="M81.606,335.595c-0.372,0-0.938-0.047-1.403-0.131v2.17c0,0.12-0.096,0.229-0.229,0.229h-0.61
			c-0.12,0-0.216-0.099-0.216-0.229v-8.25c0-0.156,0.034-0.229,0.252-0.276c0.636-0.154,1.475-0.273,2.207-0.273
			c1.785,0,2.612,1.162,2.612,2.964v0.862C84.219,334.539,83.357,335.595,81.606,335.595z M83.164,331.793
			c0-1.26-0.372-2.075-1.559-2.075c-0.505,0-1.068,0.062-1.403,0.12v4.75c0.396,0.07,1.02,0.119,1.403,0.119
			c1.175,0,1.559-0.768,1.559-2.051V331.793z"/>
		<path fill="#002C5F" d="M89.992,335.511h-0.551c-0.134,0-0.24-0.104-0.24-0.237v-0.267c-0.576,0.336-1.175,0.588-1.847,0.588
			c-1.021,0-1.955-0.44-1.955-1.94v-0.146c0-1.295,0.755-1.942,2.891-1.942h0.887v-0.479c0-1.008-0.348-1.354-1.281-1.354
			c-0.78,0-1.355,0.049-1.836,0.098c-0.023,0-0.035,0-0.061,0c-0.107,0-0.216-0.036-0.216-0.192v-0.418
			c0-0.133,0.084-0.205,0.252-0.229c0.492-0.084,1.043-0.156,1.859-0.156c1.667,0,2.339,0.841,2.339,2.255v4.188
			C90.232,335.402,90.123,335.511,89.992,335.511z M89.175,332.32h-0.887c-1.452,0-1.835,0.323-1.835,1.176v0.144
			c0,0.865,0.408,1.093,1.104,1.093c0.554,0,1.043-0.168,1.619-0.479L89.175,332.32L89.175,332.32z"/>
		<path fill="#002C5F" d="M94.577,329.742c-0.552,0-1.055,0.144-1.655,0.504v5.022c0,0.121-0.106,0.24-0.24,0.24h-0.588
			c-0.12,0-0.228-0.106-0.228-0.24v-6.114c0-0.133,0.096-0.24,0.228-0.24h0.563c0.132,0,0.228,0.107,0.228,0.24v0.252
			c0.602-0.42,1.151-0.576,1.691-0.576c0.168,0,0.252,0.072,0.252,0.218v0.489C94.829,329.67,94.745,329.742,94.577,329.742z"/>
		<path fill="#002C5F" d="M99.256,335.535c-0.24,0.035-0.553,0.06-0.777,0.06c-1.104,0-1.633-0.287-1.633-1.604v-4.188l-1.162-0.131
			c-0.133-0.013-0.229-0.084-0.229-0.218v-0.321c0-0.134,0.096-0.218,0.229-0.218h1.162v-1.176c0-0.119,0.084-0.217,0.219-0.24
			l0.623-0.096c0.012,0,0.022,0,0.035,0c0.098,0,0.182,0.084,0.182,0.203v1.309h1.295c0.131,0,0.24,0.107,0.24,0.24v0.405
			c0,0.134-0.109,0.24-0.24,0.24h-1.295v4.188c0,0.657,0.168,0.754,0.646,0.754h0.673c0.168,0,0.25,0.049,0.25,0.168v0.42
			C99.471,335.44,99.413,335.511,99.256,335.535z"/>
		<path fill="#002C5F" d="M105.398,335.511h-0.575c-0.132,0-0.239-0.104-0.239-0.237v-3.945c0-1.211-0.408-1.584-1.318-1.584
			c-0.504,0-1.065,0.19-1.619,0.47v5.062c0,0.12-0.106,0.239-0.239,0.239h-0.587c-0.12,0-0.229-0.106-0.229-0.239v-6.115
			c0-0.133,0.098-0.24,0.229-0.24h0.601c0.132,0,0.229,0.107,0.229,0.24v0.229c0.658-0.373,1.197-0.554,1.904-0.554
			c1.439,0,2.088,0.898,2.088,2.494v3.945C105.639,335.402,105.532,335.511,105.398,335.511z"/>
		<path fill="#002C5F" d="M112.131,332.55h-4.018v0.168c0,1.426,0.562,1.955,1.666,1.955c0.693,0,1.584-0.05,2.135-0.134
			c0.025,0,0.037,0,0.061,0c0.098,0,0.192,0.05,0.192,0.168v0.408c0,0.153-0.048,0.237-0.24,0.274
			c-0.685,0.134-1.344,0.203-2.146,0.203c-1.379,0-2.725-0.646-2.725-2.879v-1.078c0-1.715,0.948-2.808,2.664-2.808
			c1.75,0,2.641,1.104,2.641,2.808v0.646C112.359,332.44,112.275,332.55,112.131,332.55z M111.292,331.638
			c0-1.354-0.517-1.884-1.571-1.884c-1.029,0-1.605,0.589-1.605,1.884v0.106h3.179L111.292,331.638L111.292,331.638z"/>
		<path fill="#002C5F" d="M116.512,329.742c-0.551,0-1.055,0.144-1.652,0.504v5.022c0,0.121-0.108,0.24-0.24,0.24h-0.588
			c-0.119,0-0.229-0.106-0.229-0.24v-6.114c0-0.133,0.099-0.24,0.229-0.24h0.562c0.134,0,0.229,0.107,0.229,0.24v0.252
			c0.601-0.42,1.15-0.576,1.689-0.576c0.168,0,0.252,0.072,0.252,0.218v0.489C116.764,329.67,116.68,329.742,116.512,329.742z"/>
		<path fill="#002C5F" d="M119.837,335.595c-0.442,0-1.308-0.035-1.896-0.181c-0.156-0.034-0.252-0.106-0.252-0.239v-0.418
			c0-0.108,0.096-0.183,0.217-0.183c0.021,0,0.035,0,0.047,0c0.576,0.071,1.451,0.133,1.884,0.133c0.778,0,1.188-0.203,1.188-0.852
			c0-0.359-0.219-0.589-0.9-0.996l-1.211-0.72c-0.73-0.442-1.225-0.961-1.225-1.717c0-1.246,0.938-1.595,2.172-1.595
			c0.672,0,1.308,0.06,1.869,0.156c0.156,0.021,0.229,0.104,0.229,0.237v0.396c0,0.146-0.084,0.203-0.204,0.203
			c-0.013,0-0.023,0-0.035,0c-0.421-0.035-1.188-0.097-1.859-0.097c-0.672,0-1.114,0.084-1.114,0.695
			c0,0.358,0.276,0.588,0.828,0.909l1.188,0.709c0.995,0.589,1.317,1.104,1.317,1.812
			C122.079,335.078,121.18,335.595,119.837,335.595z"/>
		<path fill="#002C5F" d="M128.307,335.511h-0.574c-0.133,0-0.24-0.104-0.24-0.237v-3.945c0-1.198-0.504-1.569-1.283-1.569
			c-0.372,0-1.127,0.097-1.654,0.336v5.181c0,0.12-0.107,0.239-0.238,0.239h-0.59c-0.119,0-0.229-0.106-0.229-0.239v-8.539
			c0-0.132,0.096-0.238,0.229-0.238h0.602c0.132,0,0.229,0.106,0.229,0.238v2.471c0.575-0.252,1.318-0.371,1.834-0.371
			c1.271,0,2.159,0.732,2.159,2.494v3.947C128.547,335.402,128.439,335.511,128.307,335.511z"/>
		<path fill="#002C5F" d="M131.152,327.859h-0.61c-0.133,0-0.24-0.109-0.24-0.24v-0.959c0-0.133,0.107-0.239,0.24-0.239h0.61
			c0.134,0,0.24,0.106,0.24,0.239v0.959C131.395,327.75,131.286,327.859,131.152,327.859z M131.129,335.511h-0.576
			c-0.132,0-0.238-0.104-0.238-0.237v-6.115c0-0.135,0.106-0.24,0.238-0.24h0.576c0.133,0,0.24,0.105,0.24,0.24v6.115
			C131.37,335.402,131.262,335.511,131.129,335.511z"/>
		<path fill="#002C5F" d="M135.604,335.595c-0.371,0-0.937-0.047-1.401-0.131v2.17c0,0.12-0.097,0.229-0.229,0.229h-0.609
			c-0.121,0-0.217-0.099-0.217-0.229v-8.25c0-0.156,0.035-0.229,0.252-0.276c0.637-0.154,1.475-0.273,2.207-0.273
			c1.785,0,2.612,1.162,2.612,2.964v0.862C138.218,334.539,137.355,335.595,135.604,335.595z M137.163,331.793
			c0-1.26-0.371-2.075-1.56-2.075c-0.504,0-1.065,0.062-1.401,0.12v4.75c0.396,0.07,1.021,0.119,1.401,0.119
			c1.176,0,1.56-0.768,1.56-2.051V331.793z"/>
		<path fill="#002C5F" d="M141.568,335.595c-0.443,0-1.31-0.035-1.896-0.181c-0.155-0.034-0.252-0.106-0.252-0.239v-0.418
			c0-0.108,0.097-0.183,0.216-0.183c0.023,0,0.036,0,0.051,0c0.572,0.071,1.449,0.133,1.883,0.133c0.777,0,1.188-0.203,1.188-0.852
			c0-0.359-0.217-0.589-0.898-0.996l-1.213-0.72c-0.729-0.442-1.223-0.961-1.223-1.717c0-1.246,0.938-1.595,2.172-1.595
			c0.67,0,1.309,0.06,1.87,0.156c0.155,0.021,0.229,0.104,0.229,0.237v0.396c0,0.146-0.084,0.203-0.203,0.203
			c-0.014,0-0.024,0-0.037,0c-0.42-0.035-1.188-0.097-1.857-0.097c-0.673,0-1.113,0.084-1.113,0.695
			c0,0.358,0.273,0.588,0.824,0.909l1.188,0.709c0.996,0.589,1.319,1.104,1.319,1.812
			C143.812,335.078,142.911,335.595,141.568,335.595z"/>
		<path fill="#002C5F" d="M80.483,353.57v0.516c0,0.602,0.132,0.695,0.742,0.695h0.708c0.146,0,0.266,0.062,0.266,0.19v0.408
			c0,0.202-0.36,0.286-0.972,0.286c-1.177,0-1.801-0.312-1.801-1.569v-0.539c-1.595-0.204-2.71-1.332-2.71-3.729v-1.547
			c0-2.662,1.367-3.767,3.25-3.767c1.883,0,3.238,1.104,3.238,3.767v1.547C83.205,352.238,82.089,353.379,80.483,353.57z
			 M82.101,348.281c0-2.017-0.813-2.783-2.135-2.783c-1.307,0-2.146,0.769-2.146,2.783v1.547c0,2.017,0.828,2.783,2.146,2.783
			c1.309,0,2.135-0.769,2.135-2.783V348.281L82.101,348.281z"/>
		<path fill="#002C5F" d="M89.566,353.511h-0.602c-0.132,0-0.228-0.104-0.228-0.237v-0.229c-0.66,0.371-1.2,0.552-1.907,0.552
			c-1.439,0-2.087-0.896-2.087-2.494v-3.942c0-0.135,0.106-0.24,0.24-0.24h0.573c0.134,0,0.24,0.105,0.24,0.24v3.942
			c0,1.211,0.408,1.584,1.319,1.584c0.503,0,1.065-0.19,1.619-0.469v-5.062c0-0.121,0.106-0.24,0.238-0.24h0.588
			c0.119,0,0.229,0.107,0.229,0.24v6.114C89.793,353.402,89.698,353.511,89.566,353.511z"/>
		<path fill="#002C5F" d="M95.782,353.511h-0.551c-0.134,0-0.24-0.104-0.24-0.237v-0.267c-0.576,0.336-1.175,0.588-1.848,0.588
			c-1.021,0-1.954-0.44-1.954-1.94v-0.146c0-1.295,0.755-1.942,2.891-1.942h0.887v-0.479c0-1.008-0.348-1.354-1.282-1.354
			c-0.779,0-1.354,0.049-1.836,0.098c-0.022,0-0.034,0-0.06,0c-0.108,0-0.216-0.036-0.216-0.192v-0.418
			c0-0.133,0.084-0.205,0.252-0.229c0.492-0.084,1.043-0.156,1.859-0.156c1.666,0,2.337,0.841,2.337,2.255v4.188
			C96.021,353.402,95.914,353.511,95.782,353.511z M94.966,350.32h-0.887c-1.451,0-1.835,0.323-1.835,1.176v0.144
			c0,0.865,0.408,1.093,1.103,1.093c0.554,0,1.043-0.168,1.619-0.479V350.32z"/>
		<path fill="#002C5F" d="M98.616,353.511h-0.625c-0.119,0-0.216-0.104-0.216-0.237v-8.554c0-0.119,0.084-0.228,0.216-0.228h0.625
			c0.118,0,0.215,0.097,0.215,0.228v8.554C98.831,353.392,98.747,353.511,98.616,353.511z"/>
		<path fill="#002C5F" d="M101.555,345.859h-0.609c-0.133,0-0.24-0.109-0.24-0.24v-0.959c0-0.133,0.107-0.239,0.24-0.239h0.609
			c0.135,0,0.24,0.106,0.24,0.239v0.959C101.795,345.75,101.688,345.859,101.555,345.859z M101.532,353.511h-0.576
			c-0.133,0-0.24-0.104-0.24-0.237v-6.115c0-0.135,0.107-0.24,0.24-0.24h0.576c0.131,0,0.239,0.105,0.239,0.24v6.115
			C101.771,353.402,101.663,353.511,101.532,353.511z"/>
		<path fill="#002C5F" d="M106.834,353.535c-0.24,0.035-0.553,0.06-0.779,0.06c-1.104,0-1.631-0.287-1.631-1.604v-4.188
			l-1.162-0.131c-0.133-0.013-0.229-0.084-0.229-0.218v-0.321c0-0.134,0.096-0.218,0.229-0.218h1.162v-1.176
			c0-0.119,0.084-0.217,0.217-0.24l0.623-0.096c0.014,0,0.023,0,0.036,0c0.099,0,0.183,0.084,0.183,0.203v1.309h1.295
			c0.131,0,0.238,0.107,0.238,0.24v0.405c0,0.134-0.107,0.24-0.238,0.24h-1.295v4.188c0,0.657,0.168,0.754,0.646,0.754h0.672
			c0.168,0,0.251,0.049,0.251,0.168v0.42C107.05,353.44,106.991,353.511,106.834,353.535z"/>
		<path fill="#002C5F" d="M113.277,347.201l-1.979,6.908c-0.372,1.297-0.814,1.774-2.193,1.774c-0.336,0-0.756-0.049-1.008-0.106
			c-0.146-0.035-0.252-0.072-0.252-0.19v-0.443c0-0.133,0.096-0.19,0.229-0.19c0.012,0,0.021,0,0.035,0
			c0.264,0.022,0.805,0.072,1.066,0.072c0.686,0,0.982-0.183,1.188-1.021l0.118-0.492h-0.168c-0.358,0-0.672-0.084-0.889-0.826
			l-1.595-5.479c-0.013-0.022-0.013-0.062-0.013-0.084c0-0.118,0.07-0.202,0.216-0.202h0.659c0.098,0,0.182,0.096,0.205,0.188
			l1.414,5.204c0.062,0.24,0.146,0.267,0.229,0.267h0.19l1.463-5.479c0.023-0.096,0.121-0.18,0.229-0.18h0.671
			c0.12,0,0.192,0.084,0.192,0.203C113.289,347.144,113.289,347.179,113.277,347.201z"/>
		<path fill="#002C5F" d="M69.587,370.418h-0.562c-0.12,0-0.182-0.014-0.276-0.133c-1.067-1.295-1.679-3.44-1.679-5.553v-0.156
			c0-2.11,0.609-4.258,1.679-5.553c0.096-0.119,0.156-0.134,0.276-0.134h0.562c0.084,0,0.12,0.05,0.12,0.099
			c0,0.035-0.012,0.082-0.036,0.119c-1.02,1.497-1.547,3.368-1.547,5.469v0.156c0,2.098,0.528,3.969,1.547,5.469
			c0.024,0.035,0.036,0.084,0.036,0.119C69.707,370.369,69.671,370.418,69.587,370.418z"/>
		<path fill="#002C5F" d="M71.941,367.91h-0.66c-0.12,0-0.216-0.106-0.216-0.24v-8.441c0-0.117,0.083-0.229,0.216-0.229h0.66
			c0.12,0,0.216,0.097,0.216,0.229v8.441C72.156,367.791,72.072,367.91,71.941,367.91z"/>
		<path fill="#002C5F" d="M76.248,367.994c-0.839,0-1.463-0.084-1.991-0.168c-0.204-0.035-0.228-0.084-0.228-0.215v-0.48
			c0-0.133,0.096-0.189,0.204-0.189c0.012,0,0.022,0,0.035,0c0.552,0.049,1.428,0.071,1.979,0.071c1.438,0,1.823-0.576,1.823-1.416
			c0-0.601-0.35-0.937-1.439-1.604l-1.163-0.707c-1.104-0.672-1.653-1.283-1.653-2.244c0-1.45,1.043-2.123,2.865-2.123
			c0.708,0,1.633,0.072,2.086,0.146c0.12,0.022,0.204,0.084,0.204,0.202v0.519c0,0.119-0.084,0.19-0.204,0.19
			c-0.012,0-0.012,0-0.022,0c-0.527-0.036-1.367-0.071-2.062-0.071c-1.233,0-1.763,0.264-1.763,1.141
			c0,0.562,0.396,0.898,1.307,1.451l1.104,0.658c1.391,0.828,1.883,1.485,1.883,2.446C79.209,366.746,78.611,367.994,76.248,367.994
			z"/>
		<path fill="#002C5F" d="M83.783,367.994c-1.883,0-3.25-1.104-3.25-3.767v-1.547c0-2.664,1.367-3.769,3.25-3.769
			c1.883,0,3.238,1.104,3.238,3.769v1.547C87.021,366.892,85.665,367.994,83.783,367.994z M85.917,362.683
			c0-2.017-0.814-2.782-2.135-2.782c-1.309,0-2.146,0.771-2.146,2.782v1.548c0,2.016,0.827,2.782,2.146,2.782
			c1.308,0,2.135-0.769,2.135-2.782V362.683z"/>
		<path fill="#002C5F" d="M94.019,367.994c-0.946,0-1.57-0.096-2.062-0.203c-0.156-0.037-0.288-0.084-0.288-0.229v-0.469
			c0-0.144,0.096-0.216,0.216-0.216c0.024,0,0.048,0.013,0.072,0.013c0.611,0.119,1.295,0.19,2.051,0.19
			c1.858,0,2.062-1.092,2.062-2.662v-0.133c-0.502,0.106-1.078,0.24-1.812,0.24c-1.569,0-2.951-0.576-2.951-2.509v-0.069
			c0-1.896,0.974-3.035,2.928-3.035c1.798,0,2.916,1.058,2.916,3.406v2.1C97.148,366.986,96.068,367.994,94.019,367.994z
			 M96.068,362.322c0-1.955-0.657-2.521-1.821-2.521c-1.127,0-1.859,0.526-1.859,2.146v0.069c0,1.298,0.911,1.653,1.859,1.653
			c0.587,0,1.379-0.104,1.812-0.215L96.068,362.322z"/>
		<path fill="#002C5F" d="M101.604,367.994c-1.812,0-2.949-1.08-2.949-3.729v-1.618c0-2.648,1.139-3.729,2.949-3.729
			c1.81,0,2.938,1.08,2.938,3.729v1.618C104.539,366.914,103.413,367.994,101.604,367.994z M103.45,362.646
			c0-2.025-0.722-2.809-1.849-2.809s-1.848,0.781-1.848,2.809v1.618c0,2.026,0.721,2.81,1.848,2.81s1.849-0.778,1.849-2.81V362.646z
			"/>
		<path fill="#002C5F" d="M108.861,367.994c-1.812,0-2.948-1.08-2.948-3.729v-1.618c0-2.648,1.139-3.729,2.948-3.729
			c1.812,0,2.938,1.08,2.938,3.729v1.618C111.8,366.914,110.673,367.994,108.861,367.994z M110.709,362.646
			c0-2.025-0.721-2.809-1.848-2.809s-1.848,0.781-1.848,2.809v1.618c0,2.026,0.721,2.81,1.848,2.81s1.848-0.778,1.848-2.81V362.646z
			"/>
		<path fill="#002C5F" d="M116.745,367.91h-0.659c-0.132,0-0.216-0.106-0.216-0.24v-7.543l-1.547,0.673
			c-0.062,0.022-0.108,0.034-0.156,0.034c-0.071,0-0.106-0.034-0.106-0.131v-0.612c0-0.084,0.035-0.104,0.119-0.153l1.812-0.863
			c0.097-0.049,0.181-0.072,0.252-0.072h0.491c0.121,0,0.229,0.099,0.229,0.229v8.442
			C116.961,367.791,116.877,367.91,116.745,367.91z"/>
		<path fill="#002C5F" d="M121.175,370.285c-0.097,0.119-0.153,0.133-0.274,0.133h-0.562c-0.084,0-0.12-0.049-0.12-0.098
			c0-0.035,0.015-0.084,0.036-0.119c1.021-1.5,1.547-3.371,1.547-5.469v-0.156c0-2.101-0.525-3.971-1.547-5.469
			c-0.021-0.037-0.036-0.084-0.036-0.119c0-0.049,0.036-0.099,0.12-0.099h0.562c0.121,0,0.18,0.015,0.274,0.134
			c1.067,1.295,1.681,3.439,1.681,5.553v0.156C122.854,366.845,122.243,368.99,121.175,370.285z"/>
	</g>
</g>
</svg>
