<?xml version="1.0" encoding="utf-8"?>
<!-- Generator: Adobe Illustrator 15.1.0, SVG Export Plug-In . SVG Version: 6.00 Build 0)  -->
<!DOCTYPE svg PUBLIC "-//W3C//DTD SVG 1.1//EN" "http://www.w3.org/Graphics/SVG/1.1/DTD/svg11.dtd">
<svg version="1.1" id="Our_story_-_responsible_-_screen_2"
	 xmlns="http://www.w3.org/2000/svg" xmlns:xlink="http://www.w3.org/1999/xlink" x="0px" y="0px" width="190px" height="392px"
	 viewBox="0 0 190 392" enable-background="new 0 0 190 392" xml:space="preserve">
<g>
	<g>
		<g>
			<rect x="0.083" y="174.267" fill="#E0EB97" width="189.834" height="217.733"/>
		</g>
	</g>
	<g>
		<path fill="#002C5F" d="M42.105,227.257c-0.841,0-1.464-0.084-1.992-0.169c-0.203-0.036-0.228-0.084-0.228-0.217v-0.479
			c0-0.133,0.097-0.191,0.203-0.191c0.012,0,0.023,0,0.037,0c0.551,0.049,1.426,0.07,1.979,0.07c1.438,0,1.821-0.574,1.821-1.414
			c0-0.6-0.348-0.936-1.438-1.605l-1.162-0.709c-1.104-0.672-1.656-1.282-1.656-2.241c0-1.451,1.045-2.123,2.867-2.123
			c0.707,0,1.631,0.071,2.086,0.145c0.121,0.023,0.205,0.084,0.205,0.203v0.519c0,0.118-0.084,0.19-0.205,0.19
			c-0.012,0-0.012,0-0.023,0c-0.526-0.037-1.366-0.072-2.061-0.072c-1.236,0-1.766,0.265-1.766,1.14
			c0,0.563,0.396,0.899,1.309,1.451l1.104,0.659c1.393,0.828,1.883,1.486,1.883,2.447C45.066,226.009,44.466,227.257,42.105,227.257
			z"/>
		<path fill="#002C5F" d="M48.931,227.257c-1.762,0-2.662-1.164-2.662-2.927v-0.912c0-1.764,0.9-2.926,2.662-2.926
			c1.765,0,2.677,1.162,2.677,2.926v0.912C51.607,226.093,50.695,227.257,48.931,227.257z M50.55,223.418
			c0-1.223-0.49-2.004-1.619-2.004c-1.114,0-1.604,0.769-1.604,2.004v0.912c0,1.224,0.479,2.002,1.604,2.002
			c1.115,0,1.619-0.768,1.619-2.002V223.418z"/>
		<path fill="#002C5F" d="M53.984,227.173h-0.623c-0.119,0-0.215-0.107-0.215-0.24v-8.551c0-0.121,0.084-0.229,0.215-0.229h0.623
			c0.121,0,0.217,0.096,0.217,0.229v8.551C54.201,227.052,54.117,227.173,53.984,227.173z"/>
		<path fill="#002C5F" d="M61.015,220.863l-1.618,5.709c-0.156,0.539-0.564,0.685-1.08,0.685c-0.517,0-0.925-0.146-1.08-0.685
			l-1.619-5.709c-0.013-0.037-0.013-0.061-0.013-0.084c0-0.119,0.072-0.203,0.191-0.203h0.66c0.096,0,0.18,0.07,0.229,0.228
			l1.379,5.229c0.072,0.287,0.132,0.349,0.253,0.349c0.106,0,0.18-0.062,0.252-0.349l1.379-5.229
			c0.049-0.154,0.133-0.228,0.229-0.228h0.66c0.119,0,0.191,0.084,0.191,0.203C61.027,220.804,61.027,220.826,61.015,220.863z"/>
		<path fill="#002C5F" d="M66.929,224.209h-4.018v0.168c0,1.429,0.562,1.955,1.668,1.955c0.693,0,1.582-0.049,2.135-0.133
			c0.021,0,0.035,0,0.062,0c0.096,0,0.19,0.049,0.19,0.168v0.408c0,0.156-0.049,0.24-0.24,0.275
			c-0.684,0.133-1.344,0.205-2.146,0.205c-1.379,0-2.723-0.648-2.723-2.879v-1.08c0-1.716,0.946-2.808,2.661-2.808
			c1.753,0,2.64,1.104,2.64,2.808v0.647C67.158,224.103,67.074,224.209,66.929,224.209z M66.091,223.298
			c0-1.354-0.516-1.884-1.572-1.884c-1.03,0-1.604,0.588-1.604,1.884v0.108h3.178L66.091,223.298L66.091,223.298z"/>
		<path fill="#002C5F" d="M73.41,227.173h-0.576c-0.131,0-0.238-0.107-0.238-0.24v-3.943c0-1.213-0.407-1.584-1.319-1.584
			c-0.504,0-1.066,0.189-1.619,0.467v5.062c0,0.119-0.107,0.24-0.24,0.24h-0.586c-0.121,0-0.229-0.107-0.229-0.24v-6.117
			c0-0.131,0.096-0.238,0.229-0.238h0.6c0.131,0,0.229,0.107,0.229,0.238v0.229c0.658-0.371,1.197-0.552,1.906-0.552
			c1.438,0,2.086,0.898,2.086,2.494v3.945C73.65,227.065,73.542,227.173,73.41,227.173z"/>
		<path fill="#002C5F" d="M78.33,227.195c-0.238,0.035-0.553,0.062-0.779,0.062c-1.104,0-1.631-0.289-1.631-1.607v-4.186
			l-1.162-0.134c-0.133-0.012-0.229-0.084-0.229-0.215v-0.324c0-0.131,0.098-0.215,0.229-0.215h1.162v-1.178
			c0-0.119,0.084-0.215,0.217-0.238l0.623-0.096c0.013,0,0.023,0,0.035,0c0.099,0,0.183,0.084,0.183,0.203v1.309h1.295
			c0.131,0,0.239,0.107,0.239,0.238v0.408c0,0.131-0.108,0.24-0.239,0.24h-1.295v4.186c0,0.658,0.168,0.756,0.646,0.756h0.672
			c0.168,0,0.252,0.047,0.252,0.168v0.42C78.546,227.101,78.486,227.173,78.33,227.195z"/>
		<path fill="#002C5F" d="M90.328,227.173h-0.576c-0.131,0-0.238-0.107-0.238-0.24v-4.246c0-1.008-0.469-1.281-1.092-1.281
			c-0.434,0-0.938,0.146-1.403,0.322c0.071,0.266,0.108,0.576,0.108,0.938v4.271c0,0.119-0.084,0.24-0.219,0.24h-0.635
			c-0.119,0-0.203-0.109-0.203-0.24v-4.271c0-1.043-0.301-1.26-0.924-1.26c-0.433,0-0.961,0.217-1.464,0.467v5.062
			c0,0.119-0.084,0.24-0.217,0.24h-0.635c-0.121,0-0.205-0.109-0.205-0.24v-6.117c0-0.131,0.096-0.238,0.229-0.238h0.602
			c0.131,0,0.228,0.107,0.228,0.238v0.229c0.479-0.3,1.092-0.564,1.752-0.564c0.516,0,0.897,0.146,1.198,0.492
			c0.66-0.312,1.367-0.492,1.99-0.492c1.08,0,1.941,0.541,1.941,2.207v4.246C90.568,227.065,90.46,227.173,90.328,227.173z"/>
		<path fill="#002C5F" d="M96.558,227.173h-0.553c-0.131,0-0.24-0.107-0.24-0.24v-0.265c-0.573,0.337-1.174,0.589-1.846,0.589
			c-1.021,0-1.955-0.443-1.955-1.943v-0.146c0-1.295,0.756-1.94,2.892-1.94h0.887v-0.479c0-1.008-0.349-1.354-1.283-1.354
			c-0.779,0-1.354,0.047-1.834,0.096c-0.022,0-0.037,0-0.061,0c-0.107,0-0.218-0.035-0.218-0.19v-0.42
			c0-0.131,0.084-0.203,0.252-0.229c0.492-0.084,1.046-0.154,1.859-0.154c1.668,0,2.34,0.839,2.34,2.255v4.186
			C96.798,227.065,96.689,227.173,96.558,227.173z M95.74,223.981h-0.888c-1.45,0-1.836,0.324-1.836,1.178v0.146
			c0,0.862,0.408,1.09,1.105,1.09c0.553,0,1.043-0.166,1.617-0.479L95.74,223.981L95.74,223.981z"/>
		<path fill="#002C5F" d="M103.24,227.173h-0.574c-0.131,0-0.24-0.107-0.24-0.24v-3.943c0-1.213-0.407-1.584-1.317-1.584
			c-0.504,0-1.066,0.189-1.619,0.467v5.062c0,0.119-0.107,0.24-0.24,0.24h-0.588c-0.119,0-0.229-0.107-0.229-0.24v-6.117
			c0-0.131,0.099-0.238,0.229-0.238h0.6c0.133,0,0.229,0.107,0.229,0.238v0.229c0.66-0.371,1.199-0.552,1.906-0.552
			c1.438,0,2.088,0.898,2.088,2.494v3.945C103.482,227.065,103.373,227.173,103.24,227.173z"/>
		<path fill="#002C5F" d="M109.47,227.173h-0.553c-0.131,0-0.24-0.107-0.24-0.24v-0.265c-0.573,0.337-1.174,0.589-1.846,0.589
			c-1.021,0-1.955-0.443-1.955-1.943v-0.146c0-1.295,0.756-1.94,2.891-1.94h0.888v-0.479c0-1.008-0.349-1.354-1.283-1.354
			c-0.779,0-1.355,0.047-1.834,0.096c-0.023,0-0.037,0-0.062,0c-0.106,0-0.217-0.035-0.217-0.19v-0.42
			c0-0.131,0.084-0.203,0.252-0.229c0.492-0.084,1.045-0.154,1.859-0.154c1.668,0,2.34,0.839,2.34,2.255v4.186
			C109.71,227.065,109.601,227.173,109.47,227.173z M108.654,223.981h-0.888c-1.45,0-1.836,0.324-1.836,1.178v0.146
			c0,0.862,0.408,1.09,1.104,1.09c0.553,0,1.045-0.166,1.619-0.479V223.981z"/>
		<path fill="#002C5F" d="M116.585,221.379l-0.434,0.084c0.217,0.229,0.408,0.589,0.408,1.234v0.098
			c0,1.318-0.814,2.052-2.662,2.052c-0.638,0-1.045-0.099-1.394-0.24c-0.203,0.098-0.299,0.229-0.299,0.408
			c0,0.203,0.096,0.312,0.371,0.383l1.787,0.455c1.176,0.303,2.303,0.639,2.303,1.766v0.097c0,1.149-0.768,1.858-2.734,1.858
			c-1.895,0-2.758-0.731-2.758-1.908v-0.106c0-0.672,0.359-1.223,0.756-1.521L111.846,226c-0.385-0.168-0.553-0.563-0.553-0.936
			v-0.012c0-0.324,0.156-0.672,0.492-0.863c-0.371-0.348-0.553-0.779-0.553-1.393V222.7c0-1.065,0.6-2.123,2.661-2.123h2.628
			c0.145,0,0.274,0.121,0.274,0.265v0.312C116.8,221.308,116.716,221.356,116.585,221.379z M115.613,227.615
			c0-0.469-0.386-0.66-1.463-0.936l-1.355-0.349c-0.348,0.3-0.586,0.601-0.586,1.224v0.106c0,0.672,0.396,1.093,1.728,1.093
			c1.366,0,1.68-0.384,1.68-1.044v-0.096L115.613,227.615L115.613,227.615z M115.517,222.697c0-0.719-0.321-1.283-1.618-1.283
			c-1.343,0-1.619,0.613-1.619,1.283v0.098c0,0.527,0.239,1.224,1.619,1.224c1.297,0,1.618-0.504,1.618-1.224V222.697z"/>
		<path fill="#002C5F" d="M122.91,224.209h-4.021v0.168c0,1.429,0.564,1.955,1.668,1.955c0.695,0,1.582-0.049,2.136-0.133
			c0.022,0,0.034,0,0.061,0c0.096,0,0.191,0.049,0.191,0.168v0.408c0,0.156-0.05,0.24-0.238,0.275
			c-0.686,0.133-1.346,0.205-2.148,0.205c-1.379,0-2.723-0.648-2.723-2.879v-1.08c0-1.716,0.949-2.808,2.664-2.808
			c1.75,0,2.639,1.104,2.639,2.808v0.647C123.138,224.103,123.054,224.209,122.91,224.209z M122.07,223.298
			c0-1.354-0.517-1.884-1.57-1.884c-1.031,0-1.606,0.588-1.606,1.884v0.108h3.178L122.07,223.298L122.07,223.298z"/>
		<path fill="#002C5F" d="M132.279,227.173h-0.574c-0.135,0-0.24-0.107-0.24-0.24v-4.246c0-1.008-0.469-1.281-1.092-1.281
			c-0.434,0-0.938,0.146-1.402,0.322c0.072,0.266,0.107,0.576,0.107,0.938v4.271c0,0.119-0.084,0.24-0.217,0.24h-0.638
			c-0.118,0-0.202-0.109-0.202-0.24v-4.271c0-1.043-0.302-1.26-0.925-1.26c-0.432,0-0.959,0.217-1.463,0.467v5.062
			c0,0.119-0.084,0.24-0.217,0.24h-0.635c-0.121,0-0.205-0.109-0.205-0.24v-6.117c0-0.131,0.098-0.238,0.229-0.238h0.601
			c0.133,0,0.229,0.107,0.229,0.238v0.229c0.479-0.3,1.09-0.564,1.75-0.564c0.517,0,0.9,0.146,1.199,0.492
			c0.66-0.312,1.367-0.492,1.992-0.492c1.076,0,1.94,0.541,1.94,2.207v4.246C132.519,227.065,132.412,227.173,132.279,227.173z"/>
		<path fill="#002C5F" d="M139.013,224.209h-4.018v0.168c0,1.429,0.562,1.955,1.666,1.955c0.695,0,1.584-0.049,2.135-0.133
			c0.023,0,0.037,0,0.062,0c0.096,0,0.19,0.049,0.19,0.168v0.408c0,0.156-0.047,0.24-0.238,0.275
			c-0.686,0.133-1.344,0.205-2.146,0.205c-1.381,0-2.725-0.648-2.725-2.879v-1.08c0-1.716,0.948-2.808,2.664-2.808
			c1.75,0,2.639,1.104,2.639,2.808v0.647C139.24,224.103,139.156,224.209,139.013,224.209z M138.173,223.298
			c0-1.354-0.518-1.884-1.57-1.884c-1.03,0-1.606,0.588-1.606,1.884v0.108h3.178L138.173,223.298L138.173,223.298z"/>
		<path fill="#002C5F" d="M145.494,227.173h-0.576c-0.133,0-0.24-0.107-0.24-0.24v-3.943c0-1.213-0.407-1.584-1.317-1.584
			c-0.504,0-1.068,0.189-1.619,0.467v5.062c0,0.119-0.107,0.24-0.24,0.24h-0.588c-0.119,0-0.229-0.107-0.229-0.24v-6.117
			c0-0.131,0.096-0.238,0.229-0.238h0.6c0.134,0,0.229,0.107,0.229,0.238v0.229c0.66-0.371,1.199-0.552,1.906-0.552
			c1.438,0,2.088,0.898,2.088,2.494v3.945C145.732,227.065,145.624,227.173,145.494,227.173z"/>
		<path fill="#002C5F" d="M150.414,227.195c-0.24,0.035-0.553,0.062-0.779,0.062c-1.104,0-1.631-0.289-1.631-1.607v-4.186
			l-1.164-0.134c-0.131-0.012-0.229-0.084-0.229-0.215v-0.324c0-0.131,0.098-0.215,0.229-0.215h1.164v-1.178
			c0-0.119,0.084-0.215,0.215-0.238l0.625-0.096c0.013,0,0.023,0,0.035,0c0.097,0,0.181,0.084,0.181,0.203v1.309h1.295
			c0.133,0,0.239,0.107,0.239,0.238v0.408c0,0.131-0.106,0.24-0.239,0.24h-1.295v4.186c0,0.658,0.168,0.756,0.647,0.756h0.672
			c0.168,0,0.252,0.047,0.252,0.168v0.42C150.63,227.101,150.57,227.173,150.414,227.195z"/>
		<path fill="#002C5F" d="M19.535,245.195c-0.455,0.049-1.631,0.062-2.34,0.062c-1.679,0-2.556-0.638-2.556-2.23v-4.617
			c0-1.596,0.877-2.229,2.556-2.229c0.709,0,1.838,0.022,2.34,0.072c0.072,0.012,0.119,0.096,0.119,0.168v0.6
			c0,0.084-0.047,0.145-0.131,0.145h-2.314c-1.271,0-1.477,0.336-1.477,1.248v1.666h3.684c0.133,0,0.24,0.107,0.24,0.24v0.455
			c0,0.133-0.107,0.24-0.24,0.24h-3.684v2.016c0,0.91,0.205,1.246,1.477,1.246h2.314c0.084,0,0.133,0.061,0.133,0.146v0.61
			C19.654,245.101,19.607,245.185,19.535,245.195z"/>
		<path fill="#002C5F" d="M25.943,245.173h-0.574c-0.133,0-0.24-0.107-0.24-0.24v-3.943c0-1.213-0.408-1.584-1.317-1.584
			c-0.505,0-1.066,0.189-1.619,0.467v5.062c0,0.119-0.107,0.24-0.238,0.24h-0.59c-0.119,0-0.229-0.107-0.229-0.24v-6.117
			c0-0.131,0.097-0.238,0.229-0.238h0.602c0.131,0,0.228,0.107,0.228,0.238v0.229c0.659-0.371,1.198-0.552,1.907-0.552
			c1.439,0,2.087,0.898,2.087,2.494v3.945C26.183,245.065,26.076,245.173,25.943,245.173z"/>
		<path fill="#002C5F" d="M32.675,242.209h-4.018v0.168c0,1.429,0.562,1.955,1.668,1.955c0.693,0,1.582-0.049,2.135-0.133
			c0.021,0,0.035,0,0.06,0c0.098,0,0.192,0.049,0.192,0.168v0.408c0,0.156-0.049,0.24-0.24,0.275
			c-0.684,0.133-1.344,0.205-2.146,0.205c-1.379,0-2.723-0.648-2.723-2.879v-1.08c0-1.716,0.946-2.808,2.661-2.808
			c1.75,0,2.64,1.104,2.64,2.808v0.647C32.904,242.103,32.82,242.209,32.675,242.209z M31.835,241.298
			c0-1.354-0.518-1.884-1.57-1.884c-1.03,0-1.606,0.588-1.606,1.884v0.108h3.18v-0.108H31.835z"/>
		<path fill="#002C5F" d="M37.056,239.402c-0.551,0-1.055,0.146-1.653,0.504v5.025c0,0.119-0.107,0.24-0.24,0.24h-0.588
			c-0.119,0-0.229-0.107-0.229-0.24v-6.117c0-0.131,0.099-0.238,0.229-0.238h0.563c0.131,0,0.229,0.107,0.229,0.238v0.252
			c0.6-0.42,1.149-0.574,1.688-0.574c0.168,0,0.252,0.07,0.252,0.215v0.492C37.308,239.33,37.224,239.402,37.056,239.402z"/>
		<path fill="#002C5F" d="M43.402,239.379l-0.433,0.084c0.215,0.229,0.406,0.589,0.406,1.234v0.098c0,1.318-0.814,2.052-2.662,2.052
			c-0.635,0-1.043-0.099-1.393-0.24c-0.203,0.098-0.299,0.229-0.299,0.408c0,0.203,0.096,0.312,0.37,0.383l1.787,0.455
			c1.177,0.303,2.304,0.639,2.304,1.766v0.097c0,1.149-0.769,1.858-2.732,1.858c-1.896,0-2.762-0.731-2.762-1.908v-0.106
			c0-0.672,0.36-1.223,0.758-1.521L38.663,244c-0.385-0.168-0.553-0.563-0.553-0.936v-0.012c0-0.324,0.155-0.672,0.491-0.863
			c-0.372-0.348-0.553-0.779-0.553-1.393V240.7c0-1.065,0.601-2.123,2.662-2.123h2.627c0.146,0,0.275,0.121,0.275,0.265v0.312
			C43.617,239.308,43.533,239.356,43.402,239.379z M42.429,245.615c0-0.469-0.383-0.66-1.463-0.936l-1.354-0.349
			c-0.349,0.3-0.588,0.601-0.588,1.224v0.106c0,0.672,0.396,1.093,1.729,1.093c1.367,0,1.678-0.384,1.678-1.044L42.429,245.615
			L42.429,245.615z M42.333,240.697c0-0.719-0.324-1.283-1.619-1.283c-1.344,0-1.619,0.613-1.619,1.283v0.098
			c0,0.527,0.24,1.224,1.619,1.224c1.295,0,1.619-0.504,1.619-1.224V240.697z"/>
		<path fill="#002C5F" d="M49.978,238.863l-1.979,6.908c-0.373,1.295-0.816,1.773-2.195,1.773c-0.336,0-0.756-0.048-1.008-0.107
			c-0.145-0.035-0.252-0.07-0.252-0.191v-0.442c0-0.133,0.096-0.191,0.229-0.191c0.014,0,0.022,0,0.034,0
			c0.265,0.023,0.806,0.072,1.068,0.072c0.684,0,0.982-0.182,1.188-1.021l0.119-0.491h-0.168c-0.358,0-0.672-0.084-0.887-0.828
			l-1.596-5.479c-0.013-0.024-0.013-0.062-0.013-0.084c0-0.121,0.07-0.205,0.216-0.205h0.659c0.097,0,0.181,0.097,0.203,0.191
			l1.416,5.205c0.062,0.24,0.146,0.266,0.229,0.266h0.19l1.463-5.481c0.023-0.097,0.119-0.181,0.229-0.181h0.672
			c0.119,0,0.191,0.084,0.191,0.205C49.99,238.804,49.99,238.841,49.978,238.863z"/>
		<path fill="#002C5F" d="M52.019,243.853l-0.899,2.27c-0.062,0.156-0.096,0.228-0.229,0.228H50.4c-0.097,0-0.146-0.06-0.146-0.144
			c0-0.024,0-0.062,0.012-0.084l0.685-2.27c0.049-0.154,0.106-0.228,0.24-0.228h0.694c0.097,0,0.156,0.048,0.156,0.132
			C52.042,243.781,52.029,243.818,52.019,243.853z"/>
		<path fill="#002C5F" d="M64.519,238.863l-1.163,5.564c-0.156,0.756-0.287,0.828-1.009,0.828c-0.623,0-0.791-0.107-0.981-0.865
			l-1.045-4.076c-0.023-0.084-0.023-0.084-0.06-0.084c-0.037,0-0.037,0-0.061,0.084l-1.043,4.076
			c-0.183,0.697-0.361,0.865-0.984,0.865c-0.719,0-0.854-0.084-1.008-0.828l-1.162-5.564c0-0.012,0-0.037,0-0.049
			c0-0.119,0.096-0.238,0.228-0.238h0.647c0.105,0,0.189,0.097,0.203,0.191l0.996,5.469c0.022,0.146,0.061,0.146,0.096,0.146
			c0.037,0,0.072-0.037,0.096-0.146l1.177-4.604c0.071-0.265,0.229-0.359,0.479-0.359h0.672c0.252,0,0.406,0.098,0.479,0.359
			l1.176,4.604c0.023,0.107,0.062,0.146,0.096,0.146c0.037,0,0.072,0,0.097-0.146l0.996-5.469c0.014-0.099,0.098-0.191,0.205-0.191
			h0.646c0.133,0,0.229,0.119,0.229,0.238C64.519,238.826,64.519,238.853,64.519,238.863z"/>
		<path fill="#002C5F" d="M70.148,245.173h-0.552c-0.133,0-0.239-0.107-0.239-0.24v-0.265c-0.576,0.337-1.177,0.589-1.849,0.589
			c-1.02,0-1.955-0.443-1.955-1.943v-0.146c0-1.295,0.756-1.94,2.892-1.94h0.889v-0.479c0-1.008-0.348-1.354-1.283-1.354
			c-0.778,0-1.354,0.047-1.836,0.096c-0.022,0-0.035,0-0.061,0c-0.107,0-0.216-0.035-0.216-0.19v-0.42
			c0-0.131,0.084-0.203,0.253-0.229c0.491-0.084,1.043-0.154,1.858-0.154c1.666,0,2.338,0.839,2.338,2.255v4.186
			C70.388,245.065,70.279,245.173,70.148,245.173z M69.333,241.981h-0.889c-1.451,0-1.836,0.324-1.836,1.178v0.146
			c0,0.862,0.408,1.09,1.104,1.09c0.551,0,1.043-0.166,1.619-0.479L69.333,241.981L69.333,241.981z"/>
		<path fill="#002C5F" d="M75.019,245.195c-0.239,0.035-0.551,0.062-0.778,0.062c-1.104,0-1.631-0.289-1.631-1.607v-4.186
			l-1.164-0.134c-0.131-0.012-0.229-0.084-0.229-0.215v-0.324c0-0.131,0.099-0.215,0.229-0.215h1.164v-1.178
			c0-0.119,0.084-0.215,0.215-0.238l0.625-0.096c0.012,0,0.022,0,0.035,0c0.096,0,0.18,0.084,0.18,0.203v1.309h1.297
			c0.131,0,0.238,0.107,0.238,0.238v0.408c0,0.131-0.107,0.24-0.238,0.24h-1.297v4.186c0,0.658,0.168,0.756,0.648,0.756h0.672
			c0.168,0,0.252,0.047,0.252,0.168v0.42C75.236,245.101,75.175,245.173,75.019,245.195z"/>
		<path fill="#002C5F" d="M81.21,242.209h-4.02v0.168c0,1.429,0.563,1.955,1.668,1.955c0.694,0,1.582-0.049,2.135-0.133
			c0.023,0,0.035,0,0.061,0c0.097,0,0.191,0.049,0.191,0.168v0.408c0,0.156-0.047,0.24-0.238,0.275
			c-0.686,0.133-1.344,0.205-2.147,0.205c-1.379,0-2.724-0.648-2.724-2.879v-1.08c0-1.716,0.949-2.808,2.664-2.808
			c1.75,0,2.64,1.104,2.64,2.808v0.647C81.439,242.103,81.355,242.209,81.21,242.209z M80.371,241.298
			c0-1.354-0.519-1.884-1.57-1.884c-1.03,0-1.606,0.588-1.606,1.884v0.108h3.178L80.371,241.298L80.371,241.298z"/>
		<path fill="#002C5F" d="M85.591,239.402c-0.551,0-1.055,0.146-1.653,0.504v5.025c0,0.119-0.107,0.24-0.24,0.24h-0.588
			c-0.121,0-0.229-0.107-0.229-0.24v-6.117c0-0.131,0.096-0.238,0.229-0.238h0.562c0.133,0,0.229,0.107,0.229,0.238v0.252
			c0.6-0.42,1.151-0.574,1.69-0.574c0.168,0,0.252,0.07,0.252,0.215v0.492C85.843,239.33,85.759,239.402,85.591,239.402z"/>
		<path fill="#002C5F" d="M87.812,243.853l-0.898,2.27c-0.061,0.156-0.098,0.228-0.229,0.228h-0.491
			c-0.097,0-0.146-0.06-0.146-0.144c0-0.024,0-0.062,0.012-0.084l0.687-2.27c0.047-0.154,0.106-0.228,0.238-0.228h0.694
			c0.097,0,0.156,0.048,0.156,0.132C87.835,243.781,87.822,243.818,87.812,243.853z"/>
		<path fill="#002C5F" d="M100.312,238.863l-1.164,5.564c-0.154,0.756-0.287,0.828-1.009,0.828c-0.623,0-0.791-0.107-0.981-0.865
			l-1.043-4.076c-0.023-0.084-0.023-0.084-0.062-0.084c-0.037,0-0.037,0-0.061,0.084l-1.043,4.076
			c-0.182,0.697-0.359,0.865-0.984,0.865c-0.719,0-0.852-0.084-1.006-0.828l-1.164-5.564c0-0.012,0-0.037,0-0.049
			c0-0.119,0.096-0.238,0.229-0.238h0.646c0.107,0,0.191,0.097,0.205,0.191l0.994,5.469c0.023,0.146,0.061,0.146,0.096,0.146
			c0.037,0,0.072-0.037,0.099-0.146l1.174-4.604c0.072-0.265,0.229-0.359,0.479-0.359h0.672c0.253,0,0.408,0.098,0.479,0.359
			l1.176,4.604c0.023,0.107,0.062,0.146,0.097,0.146c0.036,0,0.071,0,0.096-0.146l0.996-5.469c0.014-0.099,0.098-0.191,0.205-0.191
			h0.646c0.133,0,0.229,0.119,0.229,0.238C100.312,238.826,100.312,238.853,100.312,238.863z"/>
		<path fill="#002C5F" d="M105.941,245.173h-0.552c-0.133,0-0.239-0.107-0.239-0.24v-0.265c-0.574,0.337-1.177,0.589-1.847,0.589
			c-1.02,0-1.955-0.443-1.955-1.943v-0.146c0-1.295,0.754-1.94,2.892-1.94h0.887v-0.479c0-1.008-0.348-1.354-1.283-1.354
			c-0.778,0-1.354,0.047-1.834,0.096c-0.024,0-0.037,0-0.061,0c-0.107,0-0.217-0.035-0.217-0.19v-0.42
			c0-0.131,0.084-0.203,0.252-0.229c0.491-0.084,1.043-0.154,1.858-0.154c1.666,0,2.338,0.839,2.338,2.255v4.186
			C106.181,245.065,106.072,245.173,105.941,245.173z M105.126,241.981h-0.889c-1.449,0-1.836,0.324-1.836,1.178v0.146
			c0,0.862,0.408,1.09,1.104,1.09c0.551,0,1.043-0.166,1.619-0.479L105.126,241.981L105.126,241.981z"/>
		<path fill="#002C5F" d="M109.748,245.257c-0.443,0-1.309-0.037-1.896-0.181c-0.156-0.037-0.253-0.108-0.253-0.24v-0.42
			c0-0.106,0.097-0.18,0.216-0.18c0.024,0,0.037,0,0.049,0c0.576,0.07,1.451,0.131,1.885,0.131c0.777,0,1.188-0.203,1.188-0.852
			c0-0.359-0.218-0.588-0.9-0.994l-1.211-0.721c-0.73-0.443-1.224-0.959-1.224-1.716c0-1.247,0.937-1.596,2.171-1.596
			c0.672,0,1.309,0.062,1.87,0.154c0.156,0.024,0.229,0.108,0.229,0.24v0.396c0,0.146-0.084,0.203-0.203,0.203
			c-0.014,0-0.025,0-0.037,0c-0.42-0.035-1.188-0.096-1.858-0.096c-0.67,0-1.115,0.084-1.115,0.694c0,0.359,0.276,0.588,0.828,0.912
			l1.188,0.707c0.994,0.588,1.316,1.104,1.316,1.812C111.988,244.74,111.091,245.257,109.748,245.257z"/>
		<path fill="#002C5F" d="M116.537,245.195c-0.24,0.035-0.555,0.062-0.779,0.062c-1.104,0-1.633-0.289-1.633-1.607v-4.186
			l-1.162-0.134c-0.133-0.012-0.229-0.084-0.229-0.215v-0.324c0-0.131,0.098-0.215,0.229-0.215h1.162v-1.178
			c0-0.119,0.084-0.215,0.217-0.238l0.623-0.096c0.013,0,0.023,0,0.037,0c0.096,0,0.18,0.084,0.18,0.203v1.309h1.295
			c0.134,0,0.24,0.107,0.24,0.238v0.408c0,0.131-0.106,0.24-0.24,0.24h-1.296v4.186c0,0.658,0.168,0.756,0.646,0.756h0.672
			c0.168,0,0.252,0.047,0.252,0.168v0.42C116.751,245.101,116.693,245.173,116.537,245.195z"/>
		<path fill="#002C5F" d="M122.728,242.209h-4.018v0.168c0,1.429,0.561,1.955,1.666,1.955c0.693,0,1.584-0.049,2.135-0.133
			c0.023,0,0.037,0,0.062,0c0.096,0,0.19,0.049,0.19,0.168v0.408c0,0.156-0.047,0.24-0.239,0.275
			c-0.685,0.133-1.343,0.205-2.146,0.205c-1.379,0-2.723-0.648-2.723-2.879v-1.08c0-1.716,0.946-2.808,2.662-2.808
			c1.752,0,2.641,1.104,2.641,2.808v0.647C122.955,242.103,122.871,242.209,122.728,242.209z M121.888,241.298
			c0-1.354-0.516-1.884-1.571-1.884c-1.029,0-1.605,0.588-1.605,1.884v0.108h3.178L121.888,241.298L121.888,241.298z"/>
		<path fill="#002C5F" d="M130.07,239.402c-0.552,0-1.056,0.146-1.652,0.504v5.025c0,0.119-0.106,0.24-0.24,0.24h-0.588
			c-0.119,0-0.229-0.107-0.229-0.24v-6.117c0-0.131,0.098-0.238,0.229-0.238h0.562c0.133,0,0.229,0.107,0.229,0.238v0.252
			c0.601-0.42,1.152-0.574,1.689-0.574c0.17,0,0.254,0.07,0.254,0.215v0.492C130.322,239.33,130.238,239.402,130.07,239.402z"/>
		<path fill="#002C5F" d="M136.031,242.209h-4.019v0.168c0,1.429,0.564,1.955,1.668,1.955c0.695,0,1.582-0.049,2.136-0.133
			c0.022,0,0.034,0,0.061,0c0.096,0,0.191,0.049,0.191,0.168v0.408c0,0.156-0.05,0.24-0.238,0.275
			c-0.686,0.133-1.346,0.205-2.146,0.205c-1.382,0-2.724-0.648-2.724-2.879v-1.08c0-1.716,0.947-2.808,2.662-2.808
			c1.75,0,2.639,1.104,2.639,2.808v0.647C136.261,242.103,136.177,242.209,136.031,242.209z M135.193,241.298
			c0-1.354-0.517-1.884-1.57-1.884c-1.031,0-1.607,0.588-1.607,1.884v0.108h3.181v-0.108H135.193z"/>
		<path fill="#002C5F" d="M142.308,245.052c-0.741,0.146-1.475,0.205-2.205,0.205c-1.786,0-2.614-1.164-2.614-2.964v-0.862
			c0-1.883,0.862-2.938,2.614-2.938c0.371,0,0.937,0.037,1.402,0.121v-2.229c0-0.121,0.096-0.229,0.229-0.229h0.61
			c0.119,0,0.215,0.096,0.215,0.229v8.395C142.56,244.933,142.525,245.017,142.308,245.052z M141.505,239.498
			c-0.396-0.069-1.021-0.084-1.401-0.084c-1.177,0-1.562,0.732-1.562,2.017v0.862c0,1.308,0.373,2.039,1.562,2.039
			c0.405,0,0.993-0.034,1.401-0.071V239.498z"/>
		<path fill="#002C5F" d="M149.017,245.173h-0.6c-0.133,0-0.229-0.107-0.229-0.24v-0.229c-0.658,0.373-1.199,0.554-1.906,0.554
			c-1.438,0-2.088-0.9-2.088-2.494v-3.947c0-0.131,0.108-0.238,0.239-0.238h0.576c0.133,0,0.24,0.107,0.24,0.238v3.947
			c0,1.211,0.406,1.582,1.318,1.582c0.504,0,1.067-0.189,1.619-0.468v-5.062c0-0.119,0.106-0.238,0.239-0.238h0.588
			c0.119,0,0.229,0.107,0.229,0.238v6.117C149.244,245.065,149.148,245.173,149.017,245.173z"/>
		<path fill="#002C5F" d="M154.716,245.123c-0.396,0.072-0.936,0.134-1.498,0.134c-1.631,0-2.555-1.152-2.555-2.914v-0.937
			c0-1.764,0.91-2.914,2.555-2.914c0.552,0,1.104,0.06,1.498,0.131c0.193,0.037,0.24,0.097,0.24,0.265v0.434
			c0,0.119-0.098,0.18-0.203,0.18c-0.022,0-0.037,0-0.049,0c-0.527-0.061-0.898-0.084-1.486-0.084c-0.959,0-1.5,0.638-1.5,1.99
			v0.937c0,1.344,0.527,1.991,1.5,1.991c0.588,0,0.959-0.024,1.486-0.084c0.012,0,0.023,0,0.049,0c0.105,0,0.203,0.06,0.203,0.181
			v0.432C154.956,245.017,154.91,245.088,154.716,245.123z"/>
		<path fill="#002C5F" d="M159.589,245.195c-0.24,0.035-0.551,0.062-0.779,0.062c-1.104,0-1.631-0.289-1.631-1.607v-4.186
			l-1.164-0.134c-0.131-0.012-0.229-0.084-0.229-0.215v-0.324c0-0.131,0.098-0.215,0.229-0.215h1.164v-1.178
			c0-0.119,0.084-0.215,0.216-0.238l0.625-0.096c0.012,0,0.022,0,0.034,0c0.097,0,0.181,0.084,0.181,0.203v1.309h1.295
			c0.133,0,0.239,0.107,0.239,0.238v0.408c0,0.131-0.106,0.24-0.239,0.24h-1.295v4.186c0,0.658,0.168,0.756,0.647,0.756h0.672
			c0.168,0,0.252,0.047,0.252,0.168v0.42C159.806,245.101,159.746,245.173,159.589,245.195z"/>
		<path fill="#002C5F" d="M161.894,237.521h-0.61c-0.131,0-0.238-0.105-0.238-0.238v-0.959c0-0.133,0.107-0.24,0.238-0.24h0.61
			c0.134,0,0.24,0.107,0.24,0.24v0.959C162.134,237.412,162.027,237.521,161.894,237.521z M161.871,245.173h-0.576
			c-0.131,0-0.24-0.107-0.24-0.24v-6.117c0-0.131,0.109-0.238,0.24-0.238h0.576c0.133,0,0.238,0.107,0.238,0.238v6.117
			C162.111,245.065,162.003,245.173,161.871,245.173z"/>
		<path fill="#002C5F" d="M166.333,245.257c-1.764,0-2.662-1.164-2.662-2.927v-0.912c0-1.764,0.898-2.926,2.662-2.926
			s2.674,1.162,2.674,2.926v0.912C169.007,244.093,168.097,245.257,166.333,245.257z M167.953,241.418
			c0-1.223-0.492-2.004-1.619-2.004c-1.115,0-1.606,0.769-1.606,2.004v0.912c0,1.224,0.479,2.002,1.606,2.002
			c1.113,0,1.619-0.768,1.619-2.002V241.418z"/>
		<path fill="#002C5F" d="M175.236,245.173h-0.574c-0.133,0-0.24-0.107-0.24-0.24v-3.943c0-1.213-0.408-1.584-1.317-1.584
			c-0.504,0-1.066,0.189-1.619,0.467v5.062c0,0.119-0.107,0.24-0.238,0.24h-0.588c-0.121,0-0.23-0.107-0.23-0.24v-6.117
			c0-0.131,0.097-0.238,0.23-0.238h0.6c0.131,0,0.228,0.107,0.228,0.238v0.229c0.66-0.371,1.198-0.552,1.908-0.552
			c1.438,0,2.086,0.898,2.086,2.494v3.945C175.476,245.065,175.369,245.173,175.236,245.173z"/>
		<path fill="#002C5F" d="M44.88,263.173h-0.77c-0.144,0-0.215,0-0.312-0.156l-2.146-3.572c-0.035,0-0.07,0-0.107,0
			c-0.072,0-0.131,0-0.203,0c-0.396,0-0.684-0.014-1.319-0.037v3.525c0,0.119-0.084,0.24-0.216,0.24H39.16
			c-0.119,0-0.215-0.107-0.215-0.24v-8.396c0-0.168,0.069-0.239,0.287-0.266c0.516-0.059,1.416-0.096,2.11-0.096
			c1.896,0,3.357,0.637,3.357,2.578v0.084c0,1.344-0.791,2.135-1.885,2.424l2.186,3.646c0.021,0.033,0.035,0.07,0.035,0.105
			C45.037,263.101,44.976,263.173,44.88,263.173z M43.621,256.757c0-1.199-0.779-1.597-2.277-1.597c-0.373,0-1.03,0-1.319,0.035
			v3.287c0.526,0.012,1.043,0.023,1.319,0.023c1.476,0,2.277-0.371,2.277-1.669V256.757z"/>
		<path fill="#002C5F" d="M50.929,260.209h-4.018v0.168c0,1.429,0.562,1.955,1.668,1.955c0.693,0,1.582-0.049,2.135-0.133
			c0.023,0,0.035,0,0.06,0c0.098,0,0.192,0.049,0.192,0.168v0.408c0,0.156-0.049,0.24-0.239,0.275
			c-0.685,0.133-1.345,0.205-2.146,0.205c-1.379,0-2.723-0.648-2.723-2.879v-1.08c0-1.716,0.946-2.808,2.662-2.808
			c1.75,0,2.639,1.104,2.639,2.808v0.647C51.158,260.103,51.074,260.209,50.929,260.209z M50.089,259.298
			c0-1.354-0.518-1.884-1.57-1.884c-1.03,0-1.606,0.588-1.606,1.884v0.108h3.18v-0.108H50.089z"/>
		<path fill="#002C5F" d="M57.205,263.052c-0.742,0.146-1.477,0.205-2.205,0.205c-1.787,0-2.615-1.164-2.615-2.964v-0.862
			c0-1.883,0.863-2.938,2.615-2.938c0.371,0,0.937,0.037,1.4,0.121v-2.229c0-0.121,0.098-0.229,0.229-0.229h0.611
			c0.119,0,0.215,0.096,0.215,0.229v8.395C57.456,262.933,57.421,263.017,57.205,263.052z M56.402,257.498
			c-0.396-0.069-1.021-0.084-1.402-0.084c-1.176,0-1.561,0.732-1.561,2.017v0.862c0,1.308,0.373,2.039,1.561,2.039
			c0.408,0,0.994-0.034,1.402-0.071V257.498z"/>
		<path fill="#002C5F" d="M63.914,263.173h-0.602c-0.134,0-0.229-0.107-0.229-0.24v-0.229c-0.658,0.373-1.199,0.554-1.906,0.554
			c-1.438,0-2.088-0.9-2.088-2.494v-3.947c0-0.131,0.109-0.238,0.24-0.238h0.576c0.133,0,0.24,0.107,0.24,0.238v3.947
			c0,1.211,0.405,1.582,1.317,1.582c0.504,0,1.068-0.189,1.619-0.468v-5.062c0-0.119,0.107-0.238,0.24-0.238h0.588
			c0.119,0,0.227,0.107,0.227,0.238v6.117C64.14,263.065,64.044,263.173,63.914,263.173z"/>
		<path fill="#002C5F" d="M69.613,263.123c-0.396,0.072-0.937,0.134-1.5,0.134c-1.631,0-2.556-1.152-2.556-2.914v-0.937
			c0-1.764,0.912-2.914,2.556-2.914c0.553,0,1.104,0.06,1.5,0.131c0.19,0.037,0.237,0.097,0.237,0.265v0.434
			c0,0.119-0.096,0.18-0.202,0.18c-0.021,0-0.035,0-0.048,0c-0.526-0.061-0.897-0.084-1.485-0.084c-0.959,0-1.5,0.638-1.5,1.99
			v0.937c0,1.344,0.526,1.991,1.5,1.991c0.588,0,0.959-0.024,1.485-0.084c0.013,0,0.023,0,0.048,0c0.106,0,0.202,0.06,0.202,0.181
			v0.432C69.853,263.017,69.806,263.088,69.613,263.123z"/>
		<path fill="#002C5F" d="M72.171,255.521H71.56c-0.133,0-0.239-0.105-0.239-0.238v-0.959c0-0.133,0.106-0.24,0.239-0.24h0.611
			c0.131,0,0.24,0.107,0.24,0.24v0.959C72.412,255.412,72.302,255.521,72.171,255.521z M72.148,263.173h-0.576
			c-0.133,0-0.24-0.107-0.24-0.24v-6.117c0-0.131,0.107-0.238,0.24-0.238h0.576c0.131,0,0.237,0.107,0.237,0.238v6.117
			C72.386,263.065,72.279,263.173,72.148,263.173z"/>
		<path fill="#002C5F" d="M78.972,263.173h-0.573c-0.134,0-0.24-0.107-0.24-0.24v-3.943c0-1.213-0.408-1.584-1.318-1.584
			c-0.504,0-1.067,0.189-1.619,0.467v5.062c0,0.119-0.108,0.24-0.239,0.24h-0.588c-0.121,0-0.229-0.107-0.229-0.24v-6.117
			c0-0.131,0.096-0.238,0.229-0.238h0.602c0.131,0,0.227,0.107,0.227,0.238v0.229c0.66-0.371,1.199-0.552,1.908-0.552
			c1.438,0,2.086,0.898,2.086,2.494v3.945C79.212,263.065,79.105,263.173,78.972,263.173z"/>
		<path fill="#002C5F" d="M86.089,257.379l-0.434,0.084c0.217,0.229,0.408,0.589,0.408,1.234v0.098c0,1.318-0.814,2.052-2.664,2.052
			c-0.636,0-1.043-0.099-1.392-0.24c-0.203,0.098-0.299,0.229-0.299,0.408c0,0.203,0.096,0.312,0.371,0.383l1.787,0.455
			c1.176,0.303,2.303,0.639,2.303,1.766v0.097c0,1.149-0.768,1.858-2.734,1.858c-1.895,0-2.76-0.731-2.76-1.908v-0.106
			c0-0.672,0.361-1.223,0.756-1.521L81.348,262c-0.383-0.168-0.551-0.563-0.551-0.936v-0.012c0-0.324,0.156-0.672,0.492-0.863
			c-0.373-0.348-0.553-0.779-0.553-1.393V258.7c0-1.065,0.6-2.123,2.661-2.123h2.628c0.145,0,0.274,0.121,0.274,0.265v0.312
			C86.304,257.308,86.22,257.356,86.089,257.379z M85.115,263.615c0-0.469-0.383-0.66-1.463-0.936l-1.354-0.349
			c-0.35,0.3-0.588,0.601-0.588,1.224v0.106c0,0.672,0.396,1.093,1.729,1.093c1.366,0,1.678-0.384,1.678-1.044v-0.096
			L85.115,263.615L85.115,263.615z M85.021,258.697c0-0.719-0.324-1.283-1.619-1.283c-1.345,0-1.619,0.613-1.619,1.283v0.098
			c0,0.527,0.24,1.224,1.619,1.224c1.295,0,1.619-0.504,1.619-1.224V258.697z"/>
		<path fill="#002C5F" d="M95.761,257.379l-0.432,0.084c0.215,0.229,0.406,0.589,0.406,1.234v0.098c0,1.318-0.814,2.052-2.664,2.052
			c-0.635,0-1.043-0.099-1.392-0.24c-0.202,0.098-0.299,0.229-0.299,0.408c0,0.203,0.097,0.312,0.371,0.383l1.787,0.455
			c1.176,0.303,2.303,0.639,2.303,1.766v0.097c0,1.149-0.768,1.858-2.733,1.858c-1.896,0-2.761-0.731-2.761-1.908v-0.106
			c0-0.672,0.361-1.223,0.756-1.521L91.02,262c-0.383-0.168-0.551-0.563-0.551-0.936v-0.012c0-0.324,0.156-0.672,0.492-0.863
			c-0.373-0.348-0.553-0.779-0.553-1.393V258.7c0-1.065,0.6-2.123,2.662-2.123h2.627c0.145,0,0.274,0.121,0.274,0.265v0.312
			C95.976,257.308,95.892,257.356,95.761,257.379z M94.789,263.615c0-0.469-0.385-0.66-1.463-0.936l-1.355-0.349
			c-0.348,0.3-0.588,0.601-0.588,1.224v0.106c0,0.672,0.396,1.093,1.729,1.093c1.367,0,1.678-0.384,1.678-1.044L94.789,263.615
			L94.789,263.615z M94.693,258.697c0-0.719-0.322-1.283-1.619-1.283c-1.344,0-1.619,0.613-1.619,1.283v0.098
			c0,0.527,0.24,1.224,1.619,1.224c1.297,0,1.619-0.504,1.619-1.224V258.697z"/>
		<path fill="#002C5F" d="M99.938,257.402c-0.552,0-1.056,0.146-1.654,0.504v5.025c0,0.119-0.107,0.24-0.24,0.24h-0.586
			c-0.121,0-0.229-0.107-0.229-0.24v-6.117c0-0.131,0.096-0.238,0.229-0.238h0.562c0.133,0,0.229,0.107,0.229,0.238v0.252
			c0.6-0.42,1.15-0.574,1.689-0.574c0.168,0,0.252,0.07,0.252,0.215v0.492C100.189,257.33,100.105,257.402,99.938,257.402z"/>
		<path fill="#002C5F" d="M105.898,260.209h-4.019v0.168c0,1.429,0.562,1.955,1.668,1.955c0.695,0,1.582-0.049,2.135-0.133
			c0.023,0,0.035,0,0.062,0c0.096,0,0.19,0.049,0.19,0.168v0.408c0,0.156-0.049,0.24-0.239,0.275
			c-0.685,0.133-1.345,0.205-2.146,0.205c-1.379,0-2.723-0.648-2.723-2.879v-1.08c0-1.716,0.947-2.808,2.662-2.808
			c1.752,0,2.639,1.104,2.639,2.808v0.647C106.126,260.103,106.042,260.209,105.898,260.209z M105.06,259.298
			c0-1.354-0.516-1.884-1.571-1.884c-1.031,0-1.605,0.588-1.605,1.884v0.108h3.179v-0.108H105.06z"/>
		<path fill="#002C5F" d="M112.427,260.209h-4.018v0.168c0,1.429,0.561,1.955,1.666,1.955c0.693,0,1.584-0.049,2.135-0.133
			c0.023,0,0.037,0,0.062,0c0.096,0,0.19,0.049,0.19,0.168v0.408c0,0.156-0.047,0.24-0.24,0.275
			c-0.684,0.133-1.342,0.205-2.146,0.205c-1.379,0-2.724-0.648-2.724-2.879v-1.08c0-1.716,0.947-2.808,2.662-2.808
			c1.752,0,2.64,1.104,2.64,2.808v0.647C112.654,260.103,112.57,260.209,112.427,260.209z M111.587,259.298
			c0-1.354-0.518-1.884-1.572-1.884c-1.03,0-1.604,0.588-1.604,1.884v0.108h3.178L111.587,259.298L111.587,259.298z"/>
		<path fill="#002C5F" d="M118.906,263.173h-0.574c-0.135,0-0.24-0.107-0.24-0.24v-3.943c0-1.213-0.407-1.584-1.319-1.584
			c-0.504,0-1.066,0.189-1.619,0.467v5.062c0,0.119-0.107,0.24-0.238,0.24h-0.588c-0.121,0-0.229-0.107-0.229-0.24v-6.117
			c0-0.131,0.097-0.238,0.229-0.238h0.6c0.131,0,0.229,0.107,0.229,0.238v0.229c0.658-0.371,1.199-0.552,1.906-0.552
			c1.438,0,2.086,0.898,2.086,2.494v3.945C119.146,263.065,119.039,263.173,118.906,263.173z"/>
		<path fill="#002C5F" d="M125.591,263.173h-0.576c-0.133,0-0.239-0.107-0.239-0.24v-3.943c0-1.201-0.504-1.572-1.283-1.572
			c-0.371,0-1.127,0.097-1.654,0.337v5.182c0,0.119-0.106,0.24-0.24,0.24h-0.588c-0.119,0-0.229-0.109-0.229-0.24v-8.539
			c0-0.133,0.098-0.24,0.229-0.24h0.601c0.133,0,0.229,0.107,0.229,0.24v2.471c0.574-0.252,1.316-0.371,1.834-0.371
			c1.271,0,2.158,0.73,2.158,2.494v3.945C125.83,263.065,125.722,263.173,125.591,263.173z"/>
		<path fill="#002C5F" d="M129.912,263.257c-1.764,0-2.662-1.164-2.662-2.927v-0.912c0-1.764,0.898-2.926,2.662-2.926
			s2.674,1.162,2.674,2.926v0.912C132.585,262.093,131.675,263.257,129.912,263.257z M131.529,259.418
			c0-1.223-0.49-2.004-1.617-2.004c-1.115,0-1.607,0.769-1.607,2.004v0.912c0,1.224,0.479,2.002,1.607,2.002
			c1.113,0,1.617-0.768,1.617-2.002V259.418z"/>
		<path fill="#002C5F" d="M138.826,263.173h-0.601c-0.133,0-0.229-0.107-0.229-0.24v-0.229c-0.66,0.373-1.199,0.554-1.906,0.554
			c-1.438,0-2.088-0.9-2.088-2.494v-3.947c0-0.131,0.107-0.238,0.24-0.238h0.576c0.131,0,0.237,0.107,0.237,0.238v3.947
			c0,1.211,0.408,1.582,1.32,1.582c0.504,0,1.066-0.189,1.619-0.468v-5.062c0-0.119,0.104-0.238,0.238-0.238h0.588
			c0.119,0,0.229,0.107,0.229,0.238v6.117C139.054,263.065,138.958,263.173,138.826,263.173z"/>
		<path fill="#002C5F" d="M142.621,263.257c-0.443,0-1.31-0.037-1.896-0.181c-0.155-0.037-0.252-0.108-0.252-0.24v-0.42
			c0-0.106,0.097-0.18,0.216-0.18c0.024,0,0.036,0,0.049,0c0.576,0.07,1.451,0.131,1.885,0.131c0.777,0,1.188-0.203,1.188-0.852
			c0-0.359-0.217-0.588-0.899-0.994l-1.211-0.721c-0.73-0.443-1.224-0.959-1.224-1.716c0-1.247,0.937-1.596,2.17-1.596
			c0.673,0,1.308,0.062,1.871,0.154c0.156,0.024,0.229,0.108,0.229,0.24v0.396c0,0.146-0.084,0.203-0.203,0.203
			c-0.014,0-0.025,0-0.037,0c-0.42-0.035-1.188-0.096-1.858-0.096s-1.115,0.084-1.115,0.694c0,0.359,0.276,0.588,0.828,0.912
			l1.188,0.707c0.994,0.588,1.316,1.104,1.316,1.812C144.861,262.74,143.964,263.257,142.621,263.257z"/>
		<path fill="#002C5F" d="M151.138,260.209h-4.018v0.168c0,1.429,0.562,1.955,1.668,1.955c0.693,0,1.582-0.049,2.135-0.133
			c0.021,0,0.035,0,0.06,0c0.098,0,0.192,0.049,0.192,0.168v0.408c0,0.156-0.049,0.24-0.239,0.275
			c-0.685,0.133-1.345,0.205-2.146,0.205c-1.379,0-2.723-0.648-2.723-2.879v-1.08c0-1.716,0.946-2.808,2.662-2.808
			c1.75,0,2.639,1.104,2.639,2.808v0.647C151.365,260.103,151.281,260.209,151.138,260.209z M150.298,259.298
			c0-1.354-0.518-1.884-1.57-1.884c-1.03,0-1.606,0.588-1.606,1.884v0.108h3.18v-0.108H150.298z"/>
		<path fill="#002C5F" d="M64.296,271.779l-0.432,0.084c0.215,0.228,0.406,0.588,0.406,1.234v0.096c0,1.32-0.814,2.051-2.662,2.051
			c-0.638,0-1.045-0.096-1.394-0.237c-0.203,0.096-0.299,0.229-0.299,0.405c0,0.205,0.096,0.312,0.371,0.386l1.787,0.455
			c1.176,0.301,2.303,0.637,2.303,1.764v0.098c0,1.148-0.768,1.857-2.734,1.857c-1.895,0-2.758-0.73-2.758-1.908v-0.104
			c0-0.673,0.359-1.226,0.756-1.523l-0.084-0.035c-0.385-0.168-0.553-0.563-0.553-0.936v-0.015c0-0.321,0.156-0.67,0.492-0.862
			c-0.371-0.349-0.553-0.779-0.553-1.392v-0.098c0-1.066,0.6-2.123,2.662-2.123h2.627c0.145,0,0.274,0.121,0.274,0.266v0.312
			C64.511,271.707,64.427,271.754,64.296,271.779z M63.326,278.017c0-0.469-0.387-0.66-1.465-0.937l-1.355-0.348
			c-0.348,0.299-0.586,0.6-0.586,1.223v0.107c0,0.672,0.396,1.092,1.728,1.092c1.366,0,1.68-0.385,1.68-1.043L63.326,278.017
			L63.326,278.017z M63.228,273.099c0-0.72-0.321-1.283-1.618-1.283c-1.343,0-1.617,0.611-1.617,1.283v0.098
			c0,0.525,0.237,1.224,1.617,1.224c1.297,0,1.618-0.505,1.618-1.224V273.099z"/>
		<path fill="#002C5F" d="M70.117,277.572h-0.553c-0.134,0-0.238-0.109-0.238-0.24v-0.264c-0.576,0.336-1.178,0.588-1.85,0.588
			c-1.021,0-1.955-0.445-1.955-1.942v-0.146c0-1.295,0.756-1.943,2.893-1.943h0.887v-0.479c0-1.008-0.348-1.354-1.282-1.354
			c-0.779,0-1.354,0.048-1.834,0.097c-0.023,0-0.037,0-0.062,0c-0.106,0-0.217-0.037-0.217-0.191v-0.42
			c0-0.133,0.084-0.205,0.252-0.229c0.492-0.084,1.045-0.156,1.859-0.156c1.666,0,2.338,0.84,2.338,2.254v4.188
			C70.357,277.463,70.249,277.572,70.117,277.572z M69.3,274.382h-0.887c-1.451,0-1.834,0.323-1.834,1.176v0.145
			c0,0.865,0.406,1.093,1.102,1.093c0.554,0,1.045-0.169,1.619-0.48V274.382L69.3,274.382z"/>
		<path fill="#002C5F" d="M73.921,277.656c-0.442,0-1.307-0.037-1.896-0.182c-0.154-0.035-0.252-0.107-0.252-0.238v-0.42
			c0-0.107,0.098-0.182,0.219-0.182c0.021,0,0.033,0,0.047,0c0.574,0.071,1.451,0.133,1.883,0.133c0.779,0,1.188-0.203,1.188-0.853
			c0-0.358-0.215-0.588-0.898-0.995l-1.211-0.72c-0.732-0.442-1.225-0.959-1.225-1.715c0-1.248,0.936-1.598,2.172-1.598
			c0.672,0,1.307,0.062,1.871,0.155c0.153,0.023,0.227,0.107,0.227,0.24v0.396c0,0.145-0.084,0.203-0.203,0.203
			c-0.012,0-0.022,0-0.035,0c-0.42-0.035-1.188-0.097-1.858-0.097c-0.672,0-1.113,0.084-1.113,0.695c0,0.359,0.273,0.588,0.826,0.91
			l1.188,0.709c0.996,0.588,1.32,1.104,1.32,1.811C76.165,277.142,75.265,277.656,73.921,277.656z"/>
		<path fill="#002C5F" d="M85.404,274.609h-4.019v0.168c0,1.428,0.564,1.955,1.668,1.955c0.695,0,1.582-0.049,2.136-0.133
			c0.022,0,0.034,0,0.061,0c0.096,0,0.191,0.049,0.191,0.168v0.408c0,0.156-0.05,0.24-0.24,0.274
			c-0.685,0.134-1.344,0.203-2.146,0.203c-1.379,0-2.723-0.646-2.723-2.877v-1.08c0-1.715,0.947-2.809,2.662-2.809
			c1.752,0,2.639,1.104,2.639,2.809v0.646C85.632,274.502,85.548,274.609,85.404,274.609z M84.564,273.697
			c0-1.354-0.517-1.883-1.57-1.883c-1.031,0-1.607,0.588-1.607,1.883v0.107h3.181v-0.107H84.564z"/>
		<path fill="#002C5F" d="M94.775,277.572h-0.576c-0.133,0-0.24-0.109-0.24-0.24v-4.246c0-1.008-0.467-1.282-1.09-1.282
			c-0.435,0-0.938,0.145-1.404,0.323c0.072,0.265,0.107,0.576,0.107,0.937v4.271c0,0.119-0.084,0.238-0.215,0.238H90.72
			c-0.119,0-0.203-0.107-0.203-0.238v-4.271c0-1.043-0.301-1.26-0.924-1.26c-0.432,0-0.959,0.217-1.463,0.467v5.062
			c0,0.119-0.084,0.24-0.217,0.24h-0.637c-0.119,0-0.203-0.109-0.203-0.24v-6.117c0-0.131,0.098-0.239,0.229-0.239h0.601
			c0.133,0,0.229,0.108,0.229,0.239v0.23c0.479-0.303,1.092-0.564,1.752-0.564c0.517,0,0.898,0.146,1.199,0.492
			c0.658-0.312,1.365-0.492,1.99-0.492c1.077,0,1.942,0.539,1.942,2.207v4.246C95.015,277.463,94.906,277.572,94.775,277.572z"/>
		<path fill="#002C5F" d="M97.623,269.92H97.01c-0.131,0-0.237-0.106-0.237-0.239v-0.959c0-0.133,0.106-0.238,0.237-0.238h0.613
			c0.131,0,0.238,0.105,0.238,0.238v0.959C97.861,269.813,97.753,269.92,97.623,269.92z M97.597,277.572h-0.573
			c-0.134,0-0.24-0.109-0.24-0.24v-6.116c0-0.132,0.106-0.24,0.24-0.24h0.573c0.134,0,0.24,0.108,0.24,0.24v6.116
			C97.837,277.463,97.73,277.572,97.597,277.572z"/>
		<path fill="#002C5F" d="M101.544,277.656c-0.443,0-1.309-0.037-1.896-0.182c-0.154-0.035-0.252-0.107-0.252-0.238v-0.42
			c0-0.107,0.098-0.182,0.217-0.182c0.022,0,0.035,0,0.049,0c0.574,0.071,1.451,0.133,1.883,0.133c0.779,0,1.188-0.203,1.188-0.853
			c0-0.358-0.216-0.588-0.898-0.995l-1.211-0.72c-0.732-0.442-1.225-0.959-1.225-1.715c0-1.248,0.936-1.598,2.172-1.598
			c0.67,0,1.307,0.062,1.871,0.155c0.153,0.023,0.227,0.107,0.227,0.24v0.396c0,0.145-0.084,0.203-0.203,0.203
			c-0.012,0-0.022,0-0.035,0c-0.42-0.035-1.188-0.097-1.858-0.097c-0.672,0-1.113,0.084-1.113,0.695c0,0.359,0.273,0.588,0.824,0.91
			l1.188,0.709c0.996,0.588,1.32,1.104,1.32,1.811C103.789,277.142,102.888,277.656,101.544,277.656z"/>
		<path fill="#002C5F" d="M107.136,277.656c-0.442,0-1.307-0.037-1.895-0.182c-0.156-0.035-0.254-0.107-0.254-0.238v-0.42
			c0-0.107,0.098-0.182,0.219-0.182c0.021,0,0.033,0,0.047,0c0.576,0.071,1.451,0.133,1.883,0.133c0.779,0,1.188-0.203,1.188-0.853
			c0-0.358-0.215-0.588-0.898-0.995l-1.211-0.72c-0.731-0.442-1.225-0.959-1.225-1.715c0-1.248,0.936-1.598,2.172-1.598
			c0.672,0,1.307,0.062,1.871,0.155c0.153,0.023,0.227,0.107,0.227,0.24v0.396c0,0.145-0.084,0.203-0.203,0.203
			c-0.012,0-0.022,0-0.034,0c-0.421-0.035-1.188-0.097-1.857-0.097c-0.674,0-1.115,0.084-1.115,0.695
			c0,0.359,0.273,0.588,0.826,0.91l1.188,0.709c0.996,0.588,1.32,1.104,1.32,1.811C109.38,277.142,108.48,277.656,107.136,277.656z"
			/>
		<path fill="#002C5F" d="M111.769,269.92h-0.61c-0.133,0-0.24-0.106-0.24-0.239v-0.959c0-0.133,0.107-0.238,0.24-0.238h0.61
			c0.134,0,0.24,0.105,0.24,0.238v0.959C112.009,269.813,111.902,269.92,111.769,269.92z M111.746,277.572h-0.576
			c-0.131,0-0.24-0.109-0.24-0.24v-6.116c0-0.132,0.109-0.24,0.24-0.24h0.576c0.131,0,0.238,0.108,0.238,0.24v6.116
			C111.986,277.463,111.876,277.572,111.746,277.572z"/>
		<path fill="#002C5F" d="M116.208,277.656c-1.766,0-2.662-1.164-2.662-2.928v-0.91c0-1.764,0.896-2.928,2.662-2.928
			c1.764,0,2.674,1.164,2.674,2.928v0.91C118.882,276.492,117.972,277.656,116.208,277.656z M117.828,273.818
			c0-1.225-0.492-2.004-1.619-2.004c-1.115,0-1.606,0.768-1.606,2.004v0.91c0,1.225,0.479,2.004,1.606,2.004
			c1.113,0,1.619-0.768,1.619-2.004V273.818z"/>
		<path fill="#002C5F" d="M125.111,277.572h-0.574c-0.133,0-0.24-0.109-0.24-0.24v-3.944c0-1.213-0.408-1.584-1.319-1.584
			c-0.505,0-1.064,0.19-1.619,0.467v5.062c0,0.119-0.105,0.24-0.238,0.24h-0.588c-0.119,0-0.229-0.109-0.229-0.24v-6.116
			c0-0.132,0.097-0.24,0.229-0.24h0.6c0.133,0,0.229,0.108,0.229,0.24v0.229c0.66-0.373,1.198-0.555,1.905-0.555
			c1.439,0,2.089,0.899,2.089,2.496v3.944C125.351,277.463,125.244,277.572,125.111,277.572z"/>
		<path fill="#002C5F" d="M128.917,277.656c-0.445,0-1.311-0.037-1.896-0.182c-0.156-0.035-0.253-0.107-0.253-0.238v-0.42
			c0-0.107,0.097-0.182,0.216-0.182c0.022,0,0.037,0,0.051,0c0.572,0.071,1.449,0.133,1.883,0.133c0.777,0,1.188-0.203,1.188-0.853
			c0-0.358-0.218-0.588-0.9-0.995l-1.211-0.72c-0.732-0.442-1.225-0.959-1.225-1.715c0-1.248,0.938-1.598,2.172-1.598
			c0.672,0,1.307,0.062,1.871,0.155c0.155,0.023,0.229,0.107,0.229,0.24v0.396c0,0.145-0.084,0.203-0.205,0.203
			c-0.012,0-0.022,0-0.035,0c-0.42-0.035-1.188-0.097-1.858-0.097c-0.67,0-1.113,0.084-1.113,0.695c0,0.359,0.273,0.588,0.826,0.91
			l1.188,0.709c0.996,0.588,1.32,1.104,1.32,1.811C131.16,277.142,130.259,277.656,128.917,277.656z"/>
		<path fill="#002C5F" d="M26.938,295.597c-0.455,0.047-1.632,0.061-2.339,0.061c-1.68,0-2.555-0.637-2.555-2.229v-4.617
			c0-1.596,0.875-2.23,2.555-2.23c0.707,0,1.834,0.023,2.339,0.072c0.071,0.012,0.118,0.096,0.118,0.168v0.601
			c0,0.084-0.047,0.145-0.131,0.145h-2.313c-1.271,0-1.478,0.336-1.478,1.246v1.668h3.685c0.131,0,0.237,0.107,0.237,0.24v0.455
			c0,0.133-0.106,0.239-0.237,0.239h-3.685v2.015c0,0.912,0.205,1.248,1.478,1.248h2.313c0.084,0,0.131,0.062,0.131,0.146v0.609
			C27.056,295.5,27.009,295.584,26.938,295.597z"/>
		<path fill="#002C5F" d="M33.345,295.572h-0.576c-0.131,0-0.239-0.109-0.239-0.24v-3.944c0-1.213-0.406-1.584-1.318-1.584
			c-0.504,0-1.065,0.19-1.619,0.467v5.062c0,0.119-0.106,0.24-0.239,0.24h-0.589c-0.118,0-0.227-0.109-0.227-0.24v-6.116
			c0-0.132,0.096-0.24,0.227-0.24h0.601c0.135,0,0.229,0.108,0.229,0.24v0.229c0.66-0.373,1.199-0.555,1.906-0.555
			c1.438,0,2.088,0.899,2.088,2.496v3.944C33.585,295.463,33.476,295.572,33.345,295.572z"/>
		<path fill="#002C5F" d="M40.015,289.265l-1.618,5.709c-0.156,0.539-0.564,0.684-1.08,0.684c-0.517,0-0.925-0.145-1.08-0.684
			l-1.619-5.709c-0.013-0.037-0.013-0.062-0.013-0.084c0-0.121,0.072-0.205,0.191-0.205h0.66c0.096,0,0.18,0.072,0.229,0.229
			l1.379,5.229c0.072,0.287,0.132,0.348,0.253,0.348c0.106,0,0.18-0.061,0.252-0.348l1.379-5.229
			c0.049-0.155,0.133-0.229,0.229-0.229h0.66c0.119,0,0.191,0.084,0.191,0.205C40.027,289.203,40.027,289.228,40.015,289.265z"/>
		<path fill="#002C5F" d="M42.285,287.92h-0.611c-0.133,0-0.24-0.106-0.24-0.239v-0.959c0-0.133,0.107-0.238,0.24-0.238h0.611
			c0.131,0,0.238,0.105,0.238,0.238v0.959C42.525,287.813,42.415,287.92,42.285,287.92z M42.261,295.572h-0.576
			c-0.133,0-0.239-0.109-0.239-0.24v-6.116c0-0.132,0.106-0.24,0.239-0.24h0.576c0.131,0,0.238,0.108,0.238,0.24v6.116
			C42.499,295.463,42.392,295.572,42.261,295.572z"/>
		<path fill="#002C5F" d="M46.986,289.804c-0.554,0-1.056,0.145-1.654,0.504v5.024c0,0.119-0.106,0.24-0.238,0.24h-0.588
			c-0.121,0-0.229-0.108-0.229-0.24v-6.116c0-0.132,0.098-0.24,0.229-0.24h0.562c0.135,0,0.229,0.108,0.229,0.24v0.252
			c0.601-0.42,1.15-0.576,1.689-0.576c0.168,0,0.252,0.072,0.252,0.219v0.49C47.24,289.731,47.154,289.804,46.986,289.804z"/>
		<path fill="#002C5F" d="M50.525,295.656c-1.763,0-2.662-1.164-2.662-2.928v-0.91c0-1.764,0.899-2.928,2.662-2.928
			c1.764,0,2.676,1.164,2.676,2.928v0.91C53.201,294.492,52.289,295.656,50.525,295.656z M52.144,291.818
			c0-1.225-0.489-2.004-1.618-2.004c-1.113,0-1.605,0.768-1.605,2.004v0.91c0,1.225,0.479,2.004,1.605,2.004
			c1.114,0,1.618-0.768,1.618-2.004V291.818z"/>
		<path fill="#002C5F" d="M59.429,295.572h-0.575c-0.134,0-0.24-0.109-0.24-0.24v-3.944c0-1.213-0.408-1.584-1.318-1.584
			c-0.504,0-1.067,0.19-1.619,0.467v5.062c0,0.119-0.106,0.24-0.239,0.24h-0.589c-0.118,0-0.229-0.109-0.229-0.24v-6.116
			c0-0.132,0.098-0.24,0.229-0.24h0.603c0.131,0,0.229,0.108,0.229,0.24v0.229c0.658-0.373,1.199-0.555,1.906-0.555
			c1.438,0,2.086,0.899,2.086,2.496v3.944C59.667,295.463,59.56,295.572,59.429,295.572z"/>
		<path fill="#002C5F" d="M69.003,295.572h-0.576c-0.133,0-0.239-0.109-0.239-0.24v-4.246c0-1.008-0.468-1.282-1.093-1.282
			c-0.432,0-0.936,0.145-1.401,0.323c0.071,0.265,0.106,0.576,0.106,0.937v4.271c0,0.119-0.084,0.238-0.215,0.238h-0.639
			c-0.117,0-0.201-0.107-0.201-0.238v-4.271c0-1.043-0.301-1.26-0.926-1.26c-0.433,0-0.959,0.217-1.463,0.467v5.062
			c0,0.119-0.084,0.24-0.216,0.24h-0.637c-0.119,0-0.203-0.109-0.203-0.24v-6.117c0-0.131,0.097-0.239,0.228-0.239h0.602
			c0.133,0,0.229,0.108,0.229,0.239v0.23c0.479-0.303,1.092-0.564,1.75-0.564c0.518,0,0.899,0.146,1.198,0.492
			c0.66-0.312,1.367-0.492,1.992-0.492c1.078,0,1.943,0.539,1.943,2.207v4.246C69.244,295.463,69.134,295.572,69.003,295.572z"/>
		<path fill="#002C5F" d="M75.736,292.609h-4.019v0.168c0,1.428,0.564,1.955,1.668,1.955c0.695,0,1.582-0.049,2.136-0.133
			c0.022,0,0.034,0,0.061,0c0.096,0,0.191,0.049,0.191,0.168v0.408c0,0.156-0.05,0.24-0.24,0.274
			c-0.685,0.134-1.344,0.203-2.146,0.203c-1.379,0-2.723-0.646-2.723-2.877v-1.08c0-1.715,0.947-2.809,2.662-2.809
			c1.752,0,2.639,1.104,2.639,2.809v0.646C75.964,292.502,75.88,292.609,75.736,292.609z M74.896,291.697
			c0-1.354-0.517-1.883-1.57-1.883c-1.031,0-1.607,0.588-1.607,1.883v0.107h3.181v-0.107H74.896z"/>
		<path fill="#002C5F" d="M82.216,295.572H81.64c-0.131,0-0.239-0.109-0.239-0.24v-3.944c0-1.213-0.406-1.584-1.318-1.584
			c-0.504,0-1.065,0.19-1.619,0.467v5.062c0,0.119-0.106,0.24-0.24,0.24h-0.588c-0.119,0-0.229-0.109-0.229-0.24v-6.116
			c0-0.132,0.098-0.24,0.229-0.24h0.601c0.135,0,0.229,0.108,0.229,0.24v0.229c0.66-0.373,1.199-0.555,1.906-0.555
			c1.438,0,2.088,0.899,2.088,2.496v3.944C82.456,295.463,82.347,295.572,82.216,295.572z"/>
		<path fill="#002C5F" d="M87.136,295.597c-0.239,0.035-0.551,0.061-0.778,0.061c-1.104,0-1.632-0.287-1.632-1.604v-4.188
			l-1.163-0.133c-0.132-0.012-0.228-0.084-0.228-0.215v-0.324c0-0.133,0.096-0.217,0.228-0.217h1.163v-1.174
			c0-0.121,0.084-0.218,0.216-0.24l0.625-0.096c0.012,0,0.022,0,0.034,0c0.097,0,0.183,0.084,0.183,0.202v1.308h1.295
			c0.131,0,0.238,0.108,0.238,0.24v0.407c0,0.132-0.107,0.24-0.238,0.24h-1.295v4.187c0,0.659,0.168,0.756,0.646,0.756h0.672
			c0.169,0,0.253,0.047,0.253,0.168v0.42C87.353,295.5,87.292,295.572,87.136,295.597z"/>
		<path fill="#002C5F" d="M92.822,295.572h-0.551c-0.134,0-0.24-0.109-0.24-0.24v-0.264c-0.574,0.336-1.176,0.588-1.847,0.588
			c-1.02,0-1.954-0.445-1.954-1.942v-0.146c0-1.295,0.754-1.943,2.891-1.943h0.889v-0.479c0-1.008-0.348-1.354-1.283-1.354
			c-0.78,0-1.354,0.048-1.836,0.097c-0.022,0-0.034,0-0.061,0c-0.107,0-0.217-0.037-0.217-0.191v-0.42
			c0-0.133,0.084-0.205,0.252-0.229c0.492-0.084,1.045-0.156,1.858-0.156c1.666,0,2.339,0.84,2.339,2.254v4.188
			C93.064,295.463,92.956,295.572,92.822,295.572z M92.009,292.382H91.12c-1.451,0-1.834,0.323-1.834,1.176v0.145
			c0,0.865,0.406,1.093,1.104,1.093c0.552,0,1.043-0.169,1.619-0.48V292.382L92.009,292.382z"/>
		<path fill="#002C5F" d="M95.656,295.572h-0.621c-0.121,0-0.217-0.109-0.217-0.24v-8.551c0-0.121,0.084-0.229,0.217-0.229h0.621
			c0.121,0,0.219,0.096,0.219,0.229v8.551C95.874,295.451,95.79,295.572,95.656,295.572z"/>
		<path fill="#002C5F" d="M108.29,295.572h-0.576c-0.133,0-0.24-0.109-0.24-0.24v-4.246c0-1.008-0.467-1.282-1.092-1.282
			c-0.432,0-0.936,0.145-1.401,0.323c0.071,0.265,0.106,0.576,0.106,0.937v4.271c0,0.119-0.084,0.238-0.215,0.238h-0.639
			c-0.119,0-0.203-0.107-0.203-0.238v-4.271c0-1.043-0.299-1.26-0.924-1.26c-0.433,0-0.959,0.217-1.463,0.467v5.062
			c0,0.119-0.084,0.24-0.216,0.24h-0.637c-0.119,0-0.203-0.109-0.203-0.24v-6.117c0-0.131,0.096-0.239,0.228-0.239h0.602
			c0.133,0,0.229,0.108,0.229,0.239v0.23c0.479-0.303,1.093-0.564,1.75-0.564c0.519,0,0.9,0.146,1.199,0.492
			c0.66-0.312,1.367-0.492,1.992-0.492c1.078,0,1.941,0.539,1.941,2.207v4.246C108.529,295.463,108.421,295.572,108.29,295.572z"/>
		<path fill="#002C5F" d="M114.519,295.572h-0.551c-0.133,0-0.24-0.109-0.24-0.24v-0.264c-0.575,0.336-1.176,0.588-1.848,0.588
			c-1.02,0-1.955-0.445-1.955-1.942v-0.146c0-1.295,0.756-1.943,2.892-1.943h0.889v-0.479c0-1.008-0.349-1.354-1.283-1.354
			c-0.779,0-1.354,0.048-1.836,0.097c-0.023,0-0.035,0-0.061,0c-0.107,0-0.216-0.037-0.216-0.191v-0.42
			c0-0.133,0.084-0.205,0.252-0.229c0.492-0.084,1.043-0.156,1.859-0.156c1.666,0,2.338,0.84,2.338,2.254v4.188
			C114.759,295.463,114.652,295.572,114.519,295.572z M113.705,292.382h-0.889c-1.453,0-1.836,0.323-1.836,1.176v0.145
			c0,0.865,0.407,1.093,1.104,1.093c0.551,0,1.043-0.169,1.619-0.48L113.705,292.382L113.705,292.382z"/>
		<path fill="#002C5F" d="M121.203,295.572h-0.574c-0.133,0-0.24-0.109-0.24-0.24v-3.944c0-1.213-0.407-1.584-1.319-1.584
			c-0.504,0-1.066,0.19-1.617,0.467v5.062c0,0.119-0.109,0.24-0.24,0.24h-0.588c-0.121,0-0.229-0.109-0.229-0.24v-6.116
			c0-0.132,0.096-0.24,0.229-0.24h0.6c0.132,0,0.229,0.108,0.229,0.24v0.229c0.658-0.373,1.199-0.555,1.906-0.555
			c1.438,0,2.086,0.899,2.086,2.496v3.944C121.443,295.463,121.335,295.572,121.203,295.572z"/>
		<path fill="#002C5F" d="M127.431,295.572h-0.551c-0.133,0-0.24-0.109-0.24-0.24v-0.264c-0.575,0.336-1.176,0.588-1.848,0.588
			c-1.02,0-1.955-0.445-1.955-1.942v-0.146c0-1.295,0.756-1.943,2.891-1.943h0.89v-0.479c0-1.008-0.349-1.354-1.283-1.354
			c-0.779,0-1.355,0.048-1.836,0.097c-0.023,0-0.035,0-0.062,0c-0.106,0-0.215-0.037-0.215-0.191v-0.42
			c0-0.133,0.084-0.205,0.252-0.229c0.492-0.084,1.043-0.156,1.859-0.156c1.666,0,2.338,0.84,2.338,2.254v4.188
			C127.671,295.463,127.564,295.572,127.431,295.572z M126.615,292.382h-0.888c-1.452,0-1.836,0.323-1.836,1.176v0.145
			c0,0.865,0.408,1.093,1.105,1.093c0.551,0,1.043-0.169,1.617-0.48L126.615,292.382L126.615,292.382z"/>
		<path fill="#002C5F" d="M134.546,289.779l-0.432,0.084c0.217,0.228,0.406,0.588,0.406,1.234v0.096c0,1.32-0.812,2.051-2.662,2.051
			c-0.636,0-1.043-0.096-1.392-0.237c-0.205,0.096-0.301,0.229-0.301,0.405c0,0.205,0.096,0.312,0.373,0.386l1.787,0.455
			c1.174,0.301,2.303,0.637,2.303,1.764v0.098c0,1.148-0.77,1.857-2.733,1.857c-1.896,0-2.761-0.73-2.761-1.908v-0.104
			c0-0.673,0.359-1.226,0.756-1.523l-0.084-0.035c-0.383-0.168-0.551-0.563-0.551-0.936v-0.015c0-0.321,0.154-0.67,0.49-0.862
			c-0.371-0.349-0.551-0.779-0.551-1.392v-0.098c0-1.066,0.6-2.123,2.661-2.123h2.628c0.145,0,0.274,0.121,0.274,0.266v0.312
			C134.763,289.707,134.679,289.754,134.546,289.779z M133.576,296.017c0-0.469-0.385-0.66-1.465-0.937l-1.354-0.348
			c-0.348,0.299-0.588,0.6-0.588,1.223v0.107c0,0.672,0.396,1.092,1.727,1.092c1.367,0,1.681-0.385,1.681-1.043V296.017
			L133.576,296.017z M133.48,291.099c0-0.72-0.324-1.283-1.619-1.283c-1.345,0-1.619,0.611-1.619,1.283v0.098
			c0,0.525,0.24,1.224,1.619,1.224c1.295,0,1.619-0.505,1.619-1.224V291.099z"/>
		<path fill="#002C5F" d="M140.871,292.609h-4.019v0.168c0,1.428,0.562,1.955,1.666,1.955c0.695,0,1.584-0.049,2.136-0.133
			c0.022,0,0.037,0,0.062,0c0.097,0,0.189,0.049,0.189,0.168v0.408c0,0.156-0.049,0.24-0.238,0.274
			c-0.686,0.134-1.346,0.203-2.146,0.203c-1.38,0-2.724-0.646-2.724-2.877v-1.08c0-1.715,0.947-2.809,2.662-2.809
			c1.752,0,2.639,1.104,2.639,2.809v0.646C141.099,292.502,141.015,292.609,140.871,292.609z M140.031,291.697
			c0-1.354-0.517-1.883-1.57-1.883c-1.031,0-1.606,0.588-1.606,1.883v0.107h3.18v-0.107H140.031z"/>
		<path fill="#002C5F" d="M150.24,295.572h-0.574c-0.131,0-0.24-0.109-0.24-0.24v-4.246c0-1.008-0.467-1.282-1.09-1.282
			c-0.434,0-0.938,0.145-1.404,0.323c0.072,0.265,0.107,0.576,0.107,0.937v4.271c0,0.119-0.084,0.238-0.217,0.238h-0.635
			c-0.121,0-0.205-0.107-0.205-0.238v-4.271c0-1.043-0.3-1.26-0.925-1.26c-0.432,0-0.959,0.217-1.463,0.467v5.062
			c0,0.119-0.084,0.24-0.215,0.24h-0.637c-0.119,0-0.203-0.109-0.203-0.24v-6.117c0-0.131,0.096-0.239,0.229-0.239h0.601
			c0.133,0,0.229,0.108,0.229,0.239v0.23c0.479-0.303,1.093-0.564,1.752-0.564c0.517,0,0.898,0.146,1.199,0.492
			c0.658-0.312,1.367-0.492,1.99-0.492c1.078,0,1.94,0.539,1.94,2.207v4.246C150.482,295.463,150.374,295.572,150.24,295.572z"/>
		<path fill="#002C5F" d="M156.974,292.609h-4.018v0.168c0,1.428,0.562,1.955,1.668,1.955c0.693,0,1.582-0.049,2.135-0.133
			c0.021,0,0.035,0,0.062,0c0.096,0,0.19,0.049,0.19,0.168v0.408c0,0.156-0.049,0.24-0.239,0.274
			c-0.685,0.134-1.345,0.203-2.146,0.203c-1.379,0-2.723-0.646-2.723-2.877v-1.08c0-1.715,0.946-2.809,2.662-2.809
			c1.752,0,2.639,1.104,2.639,2.809v0.646C157.203,292.502,157.119,292.609,156.974,292.609z M156.136,291.697
			c0-1.354-0.516-1.883-1.571-1.883c-1.031,0-1.605,0.588-1.605,1.883v0.107h3.178L156.136,291.697L156.136,291.697z"/>
		<path fill="#002C5F" d="M163.455,295.572h-0.576c-0.131,0-0.237-0.109-0.237-0.24v-3.944c0-1.213-0.408-1.584-1.32-1.584
			c-0.504,0-1.066,0.19-1.619,0.467v5.062c0,0.119-0.107,0.24-0.24,0.24h-0.586c-0.121,0-0.229-0.109-0.229-0.24v-6.116
			c0-0.132,0.096-0.24,0.229-0.24h0.6c0.132,0,0.229,0.108,0.229,0.24v0.229c0.658-0.373,1.197-0.555,1.906-0.555
			c1.438,0,2.086,0.899,2.086,2.496v3.944C163.695,295.463,163.587,295.572,163.455,295.572z"/>
		<path fill="#002C5F" d="M168.374,295.597c-0.238,0.035-0.553,0.061-0.779,0.061c-1.104,0-1.631-0.287-1.631-1.604v-4.188
			l-1.162-0.133c-0.133-0.012-0.229-0.084-0.229-0.215v-0.324c0-0.133,0.098-0.217,0.229-0.217h1.162v-1.174
			c0-0.121,0.084-0.218,0.217-0.24l0.623-0.096c0.013,0,0.023,0,0.035,0c0.099,0,0.183,0.084,0.183,0.202v1.308h1.295
			c0.133,0,0.239,0.108,0.239,0.24v0.407c0,0.132-0.106,0.24-0.239,0.24h-1.295v4.187c0,0.659,0.168,0.756,0.646,0.756h0.672
			c0.168,0,0.252,0.047,0.252,0.168v0.42C168.591,295.5,168.531,295.572,168.374,295.597z"/>
		<path fill="#002C5F" d="M66.08,312.479h-0.564c-0.118,0-0.18-0.012-0.274-0.133c-1.066-1.295-1.68-3.439-1.68-5.554v-0.153
			c0-2.109,0.61-4.258,1.68-5.556c0.096-0.118,0.156-0.131,0.274-0.131h0.564c0.084,0,0.119,0.047,0.119,0.097
			c0,0.034-0.014,0.084-0.035,0.119c-1.021,1.5-1.547,3.37-1.547,5.471v0.154c0,2.1,0.525,3.971,1.547,5.469
			c0.021,0.037,0.035,0.084,0.035,0.121C66.199,312.431,66.164,312.479,66.08,312.479z"/>
		<path fill="#002C5F" d="M68.431,309.974h-0.657c-0.121,0-0.218-0.107-0.218-0.238v-8.443c0-0.12,0.084-0.229,0.218-0.229h0.657
			c0.121,0,0.218,0.098,0.218,0.229v8.443C68.648,309.853,68.564,309.974,68.431,309.974z"/>
		<path fill="#002C5F" d="M72.74,310.058c-0.842,0-1.465-0.084-1.992-0.168c-0.203-0.037-0.229-0.084-0.229-0.217v-0.479
			c0-0.133,0.099-0.191,0.203-0.191c0.013,0,0.025,0,0.037,0c0.551,0.05,1.426,0.072,1.979,0.072c1.438,0,1.821-0.576,1.821-1.416
			c0-0.602-0.348-0.936-1.438-1.606l-1.162-0.707c-1.104-0.672-1.656-1.283-1.656-2.242c0-1.451,1.043-2.123,2.867-2.123
			c0.707,0,1.631,0.072,2.086,0.146c0.121,0.022,0.205,0.084,0.205,0.202v0.517c0,0.121-0.084,0.192-0.205,0.192
			c-0.012,0-0.012,0-0.022,0c-0.527-0.036-1.367-0.071-2.062-0.071c-1.233,0-1.764,0.264-1.764,1.139c0,0.564,0.396,0.9,1.309,1.451
			l1.104,0.66c1.393,0.827,1.883,1.485,1.883,2.444C75.701,308.81,75.101,310.058,72.74,310.058z"/>
		<path fill="#002C5F" d="M80.275,310.058c-1.884,0-3.25-1.104-3.25-3.769v-1.547c0-2.662,1.366-3.766,3.25-3.766
			c1.883,0,3.237,1.104,3.237,3.766v1.547C83.513,308.953,82.156,310.058,80.275,310.058z M82.41,304.742
			c0-2.016-0.816-2.781-2.137-2.781c-1.308,0-2.146,0.769-2.146,2.781v1.547c0,2.017,0.826,2.783,2.146,2.783
			c1.309,0,2.137-0.768,2.137-2.783V304.742z"/>
		<path fill="#002C5F" d="M91.458,309.974h-0.66c-0.131,0-0.215-0.107-0.215-0.238v-7.547l-1.549,0.674
			c-0.062,0.023-0.107,0.035-0.154,0.035c-0.072,0-0.108-0.035-0.108-0.133v-0.609c0-0.084,0.036-0.108,0.12-0.156l1.812-0.862
			c0.096-0.049,0.18-0.072,0.252-0.072h0.492c0.119,0,0.229,0.096,0.229,0.229v8.443C91.673,309.853,91.589,309.974,91.458,309.974z
			"/>
		<path fill="#002C5F" d="M101.031,307.599h-1.043v2.137c0,0.117-0.07,0.238-0.203,0.238H99.09c-0.131,0-0.203-0.107-0.203-0.238
			v-2.137H95.42c-0.358,0-0.492-0.121-0.492-0.47v-0.454c0-0.156,0.037-0.302,0.146-0.443l3.551-4.979
			c0.061-0.096,0.146-0.19,0.348-0.19h0.707c0.193,0,0.312,0.084,0.312,0.266v5.359h1.043c0.119,0,0.229,0.084,0.229,0.217v0.479
			C101.261,307.515,101.164,307.599,101.031,307.599z M98.898,302.584c0-0.049-0.013-0.071-0.05-0.071c-0.012,0-0.012,0-0.012,0
			c-0.035,0-0.072,0.037-0.096,0.071l-2.771,3.935c-0.022,0.037-0.037,0.072-0.037,0.098c0,0.049,0.037,0.07,0.099,0.07h2.865
			v-4.103H98.898L98.898,302.584z"/>
		<path fill="#002C5F" d="M105.353,310.058c-1.811,0-2.948-1.08-2.948-3.729v-1.619c0-2.649,1.139-3.729,2.948-3.729
			c1.812,0,2.939,1.08,2.939,3.729v1.619C108.292,308.978,107.165,310.058,105.353,310.058z M107.201,304.707
			c0-2.026-0.721-2.807-1.849-2.807c-1.127,0-1.848,0.779-1.848,2.807v1.619c0,2.025,0.721,2.808,1.848,2.808
			c1.128,0,1.849-0.779,1.849-2.808V304.707z"/>
		<path fill="#002C5F" d="M112.613,310.058c-1.812,0-2.949-1.08-2.949-3.729v-1.619c0-2.649,1.139-3.729,2.949-3.729
			c1.81,0,2.938,1.08,2.938,3.729v1.619C115.552,308.978,114.425,310.058,112.613,310.058z M114.46,304.707
			c0-2.026-0.719-2.807-1.848-2.807c-1.127,0-1.849,0.779-1.849,2.807v1.619c0,2.025,0.722,2.808,1.849,2.808
			c1.129,0,1.848-0.779,1.848-2.808V304.707z"/>
		<path fill="#002C5F" d="M120.498,309.974h-0.66c-0.131,0-0.215-0.107-0.215-0.238v-7.547l-1.549,0.674
			c-0.062,0.023-0.107,0.035-0.154,0.035c-0.072,0-0.108-0.035-0.108-0.133v-0.609c0-0.084,0.036-0.108,0.12-0.156l1.812-0.862
			c0.096-0.049,0.18-0.072,0.252-0.072h0.492c0.119,0,0.229,0.096,0.229,0.229v8.443
			C120.712,309.853,120.628,309.974,120.498,309.974z"/>
		<path fill="#002C5F" d="M124.927,312.347c-0.098,0.121-0.155,0.133-0.276,0.133h-0.562c-0.084,0-0.119-0.049-0.119-0.096
			c0-0.037,0.013-0.084,0.035-0.121c1.021-1.498,1.547-3.369,1.547-5.47v-0.153c0-2.101-0.526-3.972-1.547-5.472
			c-0.022-0.034-0.035-0.084-0.035-0.118c0-0.05,0.035-0.097,0.119-0.097h0.562c0.121,0,0.182,0.013,0.276,0.131
			c1.066,1.298,1.679,3.443,1.679,5.556v0.153C126.605,308.904,125.994,311.052,124.927,312.347z"/>
		<path fill="#002C5F" d="M32.933,328.058c-0.84,0-1.463-0.084-1.989-0.168c-0.205-0.037-0.229-0.084-0.229-0.217v-0.479
			c0-0.133,0.096-0.191,0.203-0.191c0.012,0,0.023,0,0.037,0c0.551,0.05,1.426,0.072,1.979,0.072c1.439,0,1.822-0.576,1.822-1.416
			c0-0.602-0.348-0.936-1.438-1.606l-1.162-0.707c-1.104-0.672-1.654-1.283-1.654-2.242c0-1.451,1.043-2.123,2.865-2.123
			c0.707,0,1.631,0.072,2.088,0.146c0.119,0.022,0.203,0.084,0.203,0.202v0.517c0,0.121-0.084,0.192-0.203,0.192
			c-0.014,0-0.014,0-0.025,0c-0.526-0.036-1.366-0.071-2.062-0.071c-1.232,0-1.762,0.264-1.762,1.139c0,0.564,0.396,0.9,1.309,1.451
			l1.104,0.66c1.392,0.827,1.884,1.485,1.884,2.444C35.896,326.81,35.296,328.058,32.933,328.058z"/>
		<path fill="#002C5F" d="M40.132,327.996c-0.24,0.035-0.553,0.062-0.778,0.062c-1.104,0-1.634-0.289-1.634-1.605v-4.188
			l-1.162-0.133c-0.133-0.013-0.229-0.084-0.229-0.216v-0.323c0-0.134,0.096-0.218,0.229-0.218h1.162v-1.174
			c0-0.121,0.084-0.217,0.218-0.24l0.622-0.096c0.015,0,0.025,0,0.037,0c0.097,0,0.181,0.084,0.181,0.203v1.307h1.295
			c0.133,0,0.239,0.107,0.239,0.24v0.408c0,0.131-0.106,0.238-0.239,0.238h-1.295v4.188c0,0.66,0.168,0.756,0.646,0.756h0.672
			c0.168,0,0.252,0.047,0.252,0.168v0.42C40.347,327.9,40.289,327.974,40.132,327.996z"/>
		<path fill="#002C5F" d="M46.324,325.011h-4.021v0.168c0,1.428,0.562,1.955,1.666,1.955c0.695,0,1.584-0.05,2.136-0.134
			c0.024,0,0.036,0,0.062,0c0.096,0,0.189,0.05,0.189,0.168v0.408c0,0.156-0.047,0.24-0.238,0.275
			c-0.686,0.133-1.344,0.203-2.146,0.203c-1.379,0-2.723-0.646-2.723-2.877v-1.08c0-1.715,0.947-2.808,2.662-2.808
			c1.752,0,2.639,1.104,2.639,2.808v0.647C46.55,324.902,46.466,325.011,46.324,325.011z M45.484,324.099
			c0-1.354-0.517-1.883-1.57-1.883c-1.031,0-1.607,0.588-1.607,1.883v0.106h3.179L45.484,324.099L45.484,324.099z"/>
		<path fill="#002C5F" d="M56.087,321.664l-1.164,5.564c-0.154,0.756-0.287,0.826-1.006,0.826c-0.625,0-0.793-0.107-0.984-0.863
			l-1.043-4.076c-0.022-0.084-0.022-0.084-0.061-0.084c-0.035,0-0.035,0-0.061,0.084l-1.046,4.076
			c-0.18,0.695-0.358,0.863-0.979,0.863c-0.723,0-0.854-0.084-1.01-0.826l-1.164-5.564c0-0.012,0-0.037,0-0.049
			c0-0.119,0.098-0.24,0.229-0.24h0.646c0.106,0,0.19,0.097,0.203,0.193l0.995,5.469c0.023,0.144,0.062,0.144,0.097,0.144
			s0.072-0.035,0.098-0.144l1.176-4.604c0.07-0.265,0.228-0.359,0.479-0.359h0.672c0.252,0,0.408,0.097,0.48,0.359l1.174,4.604
			c0.024,0.107,0.061,0.144,0.098,0.144c0.035,0,0.07,0,0.096-0.144l0.996-5.469c0.013-0.098,0.097-0.193,0.203-0.193h0.646
			c0.133,0,0.229,0.121,0.229,0.24C56.087,321.627,56.087,321.652,56.087,321.664z"/>
		<path fill="#002C5F" d="M61.718,327.974h-0.553c-0.131,0-0.24-0.107-0.24-0.238v-0.266c-0.573,0.336-1.174,0.588-1.846,0.588
			c-1.021,0-1.955-0.443-1.955-1.941v-0.146c0-1.295,0.756-1.941,2.891-1.941h0.888v-0.479c0-1.006-0.349-1.354-1.283-1.354
			c-0.779,0-1.355,0.047-1.834,0.096c-0.023,0-0.037,0-0.062,0c-0.106,0-0.217-0.034-0.217-0.19v-0.42
			c0-0.133,0.084-0.205,0.252-0.229c0.492-0.084,1.045-0.155,1.859-0.155c1.668,0,2.34,0.84,2.34,2.256v4.188
			C61.958,327.863,61.849,327.974,61.718,327.974z M60.902,324.781h-0.888c-1.45,0-1.836,0.324-1.836,1.176v0.146
			c0,0.863,0.408,1.092,1.104,1.092c0.553,0,1.045-0.168,1.619-0.479V324.781z"/>
		<path fill="#002C5F" d="M66.302,322.203c-0.551,0-1.055,0.146-1.653,0.504v5.025c0,0.119-0.107,0.238-0.24,0.238H63.82
			c-0.119,0-0.229-0.107-0.229-0.238v-6.117c0-0.131,0.099-0.24,0.229-0.24h0.563c0.131,0,0.229,0.109,0.229,0.24v0.252
			c0.6-0.42,1.149-0.576,1.688-0.576c0.168,0,0.252,0.072,0.252,0.218V322C66.554,322.132,66.47,322.203,66.302,322.203z"/>
		<path fill="#002C5F" d="M71.953,327.853c-0.744,0.146-1.478,0.205-2.207,0.205c-1.787,0-2.613-1.164-2.613-2.963v-0.863
			c0-1.883,0.863-2.938,2.613-2.938c0.373,0,0.936,0.035,1.402,0.119v-2.229c0-0.119,0.098-0.228,0.229-0.228h0.613
			c0.117,0,0.215,0.097,0.215,0.228v8.396C72.205,327.734,72.169,327.818,71.953,327.853z M71.15,322.3
			c-0.396-0.072-1.021-0.084-1.402-0.084c-1.176,0-1.561,0.731-1.561,2.016v0.863c0,1.309,0.37,2.039,1.561,2.039
			c0.406,0,0.994-0.037,1.402-0.072V322.3z"/>
		<path fill="#002C5F" d="M75.771,328.058c-0.443,0-1.31-0.037-1.896-0.181c-0.154-0.036-0.252-0.108-0.252-0.239v-0.42
			c0-0.107,0.098-0.181,0.217-0.181c0.021,0,0.035,0,0.049,0c0.574,0.072,1.451,0.131,1.884,0.131c0.778,0,1.188-0.202,1.188-0.852
			c0-0.359-0.217-0.588-0.9-0.994l-1.211-0.721c-0.731-0.443-1.223-0.959-1.223-1.715c0-1.248,0.936-1.597,2.17-1.597
			c0.672,0,1.307,0.062,1.871,0.156c0.156,0.021,0.229,0.105,0.229,0.238v0.396c0,0.146-0.084,0.205-0.205,0.205
			c-0.012,0-0.021,0-0.034,0c-0.42-0.037-1.188-0.098-1.857-0.098c-0.672,0-1.115,0.084-1.115,0.695
			c0,0.358,0.275,0.588,0.826,0.911l1.188,0.707c0.996,0.589,1.319,1.105,1.319,1.812C78.013,327.541,77.113,328.058,75.771,328.058
			z"/>
		<path fill="#002C5F" d="M84.24,327.974h-0.574c-0.135,0-0.24-0.107-0.24-0.238v-3.947c0-1.198-0.504-1.569-1.282-1.569
			c-0.373,0-1.128,0.096-1.656,0.336v5.182c0,0.119-0.107,0.238-0.238,0.238h-0.588c-0.121,0-0.229-0.107-0.229-0.238v-8.539
			c0-0.133,0.097-0.24,0.229-0.24h0.6c0.131,0,0.229,0.107,0.229,0.24v2.471c0.574-0.252,1.317-0.373,1.834-0.373
			c1.271,0,2.158,0.732,2.158,2.496v3.945C84.48,327.863,84.373,327.974,84.24,327.974z"/>
		<path fill="#002C5F" d="M87.087,320.32h-0.613c-0.131,0-0.237-0.106-0.237-0.24v-0.959c0-0.133,0.106-0.239,0.237-0.239h0.613
			c0.131,0,0.238,0.106,0.238,0.239v0.959C87.326,320.213,87.218,320.32,87.087,320.32z M87.062,327.974h-0.574
			c-0.133,0-0.24-0.107-0.24-0.238v-6.117c0-0.133,0.107-0.239,0.24-0.239h0.574c0.133,0,0.239,0.106,0.239,0.239v6.117
			C87.302,327.863,87.195,327.974,87.062,327.974z"/>
		<path fill="#002C5F" d="M91.539,328.058c-0.373,0-0.938-0.049-1.404-0.133v2.172c0,0.119-0.096,0.229-0.229,0.229h-0.611
			c-0.119,0-0.215-0.098-0.215-0.229v-8.252c0-0.156,0.033-0.229,0.252-0.275c0.635-0.156,1.475-0.275,2.207-0.275
			c1.785,0,2.611,1.164,2.611,2.964v0.862C94.152,327,93.289,328.058,91.539,328.058z M93.097,324.254
			c0-1.26-0.373-2.073-1.559-2.073c-0.506,0-1.068,0.061-1.404,0.119v4.75c0.396,0.071,1.021,0.118,1.404,0.118
			c1.174,0,1.559-0.768,1.559-2.051V324.254z"/>
		<path fill="#002C5F" d="M98.736,319.302l-2.711,8.434c-0.035,0.117-0.097,0.238-0.218,0.238h-0.61
			c-0.105,0-0.168-0.084-0.168-0.168c0-0.023,0-0.05,0.014-0.07l2.723-8.434c0.037-0.119,0.084-0.24,0.205-0.24h0.611
			c0.105,0,0.168,0.084,0.168,0.168C98.749,319.252,98.749,319.277,98.736,319.302z"/>
		<path fill="#002C5F" d="M105.443,319.996h-2.338v7.736c0,0.119-0.084,0.238-0.218,0.238h-0.657c-0.121,0-0.218-0.107-0.218-0.238
			v-7.736h-2.338c-0.133,0-0.24-0.061-0.24-0.19v-0.527c0-0.119,0.107-0.217,0.24-0.217h5.769c0.133,0,0.229,0.084,0.229,0.217
			v0.527C105.671,319.925,105.576,319.996,105.443,319.996z"/>
		<path fill="#002C5F" d="M109.068,322.203c-0.554,0-1.058,0.146-1.654,0.504v5.025c0,0.119-0.109,0.238-0.24,0.238h-0.588
			c-0.121,0-0.229-0.107-0.229-0.238v-6.117c0-0.131,0.096-0.24,0.229-0.24h0.562c0.133,0,0.229,0.109,0.229,0.24v0.252
			c0.601-0.42,1.15-0.576,1.691-0.576c0.168,0,0.252,0.072,0.252,0.218V322C109.32,322.132,109.236,322.203,109.068,322.203z"/>
		<path fill="#002C5F" d="M114.488,327.974h-0.552c-0.133,0-0.239-0.107-0.239-0.238v-0.266c-0.574,0.336-1.177,0.588-1.849,0.588
			c-1.02,0-1.955-0.443-1.955-1.941v-0.146c0-1.295,0.757-1.941,2.894-1.941h0.887v-0.479c0-1.006-0.348-1.354-1.283-1.354
			c-0.778,0-1.354,0.047-1.834,0.096c-0.022,0-0.036,0-0.061,0c-0.107,0-0.217-0.034-0.217-0.19v-0.42
			c0-0.133,0.084-0.205,0.252-0.229c0.49-0.084,1.045-0.155,1.856-0.155c1.668,0,2.341,0.84,2.341,2.256v4.188
			C114.73,327.863,114.621,327.974,114.488,327.974z M113.673,324.781h-0.887c-1.451,0-1.838,0.324-1.838,1.176v0.146
			c0,0.863,0.408,1.092,1.104,1.092c0.554,0,1.043-0.168,1.619-0.479L113.673,324.781L113.673,324.781z"/>
		<path fill="#002C5F" d="M120.201,327.925c-0.396,0.071-0.937,0.133-1.498,0.133c-1.633,0-2.557-1.15-2.557-2.916v-0.937
			c0-1.762,0.911-2.914,2.557-2.914c0.551,0,1.104,0.062,1.498,0.134c0.19,0.034,0.238,0.096,0.238,0.264v0.434
			c0,0.119-0.097,0.181-0.203,0.181c-0.021,0-0.035,0-0.047,0c-0.527-0.062-0.898-0.084-1.486-0.084c-0.959,0-1.5,0.635-1.5,1.989
			v0.937c0,1.344,0.526,1.992,1.5,1.992c0.588,0,0.959-0.023,1.486-0.084c0.012,0,0.022,0,0.047,0c0.106,0,0.203,0.061,0.203,0.18
			v0.432C120.441,327.818,120.394,327.89,120.201,327.925z"/>
		<path fill="#002C5F" d="M126.644,325.011h-4.018v0.168c0,1.428,0.562,1.955,1.668,1.955c0.693,0,1.582-0.05,2.135-0.134
			c0.023,0,0.035,0,0.062,0c0.096,0,0.19,0.05,0.19,0.168v0.408c0,0.156-0.049,0.24-0.239,0.275
			c-0.685,0.133-1.345,0.203-2.146,0.203c-1.379,0-2.723-0.646-2.723-2.877v-1.08c0-1.715,0.946-2.808,2.662-2.808
			c1.752,0,2.639,1.104,2.639,2.808v0.647C126.873,324.902,126.789,325.011,126.644,325.011z M125.806,324.099
			c0-1.354-0.516-1.883-1.571-1.883c-1.031,0-1.605,0.588-1.605,1.883v0.106h3.178L125.806,324.099L125.806,324.099z"/>
		<path fill="#002C5F" d="M132.669,327.974h-0.553c-0.133,0-0.24-0.107-0.24-0.238v-0.266c-0.574,0.336-1.174,0.588-1.848,0.588
			c-1.021,0-1.953-0.443-1.953-1.941v-0.146c0-1.295,0.756-1.941,2.891-1.941h0.888v-0.479c0-1.006-0.349-1.354-1.283-1.354
			c-0.779,0-1.355,0.047-1.834,0.096c-0.023,0-0.037,0-0.062,0c-0.106,0-0.217-0.034-0.217-0.19v-0.42
			c0-0.133,0.084-0.205,0.252-0.229c0.492-0.084,1.045-0.155,1.857-0.155c1.668,0,2.342,0.84,2.342,2.256v4.188
			C132.91,327.863,132.8,327.974,132.669,327.974z M131.853,324.781h-0.887c-1.451,0-1.836,0.324-1.836,1.176v0.146
			c0,0.863,0.408,1.092,1.104,1.092c0.553,0,1.043-0.168,1.618-0.479V324.781z"/>
		<path fill="#002C5F" d="M137.001,328.058c-0.719,0-1.463-0.062-2.207-0.205c-0.215-0.033-0.252-0.105-0.252-0.273v-8.396
			c0-0.121,0.084-0.229,0.217-0.229h0.611c0.121,0,0.229,0.097,0.229,0.229v2.229c0.455-0.084,1.021-0.121,1.402-0.121
			c1.74,0,2.615,1.058,2.615,2.938v0.865C139.615,326.894,138.8,328.058,137.001,328.058z M138.562,324.231
			c0-1.283-0.386-2.016-1.562-2.016c-0.371,0-1.008,0.012-1.402,0.084v4.762c0.408,0.035,0.994,0.072,1.402,0.072
			c1.188,0,1.562-0.73,1.562-2.039V324.231z"/>
		<path fill="#002C5F" d="M142.007,320.32h-0.612c-0.132,0-0.238-0.106-0.238-0.24v-0.959c0-0.133,0.106-0.239,0.238-0.239h0.612
			c0.131,0,0.238,0.106,0.238,0.239v0.959C142.246,320.213,142.138,320.32,142.007,320.32z M141.982,327.974h-0.574
			c-0.133,0-0.24-0.107-0.24-0.238v-6.117c0-0.133,0.107-0.239,0.24-0.239h0.574c0.133,0,0.239,0.106,0.239,0.239v6.117
			C142.222,327.863,142.113,327.974,141.982,327.974z"/>
		<path fill="#002C5F" d="M144.958,327.974h-0.623c-0.121,0-0.217-0.107-0.217-0.238v-8.553c0-0.121,0.084-0.229,0.217-0.229h0.623
			c0.119,0,0.215,0.097,0.215,0.229v8.553C145.173,327.853,145.089,327.974,144.958,327.974z"/>
		<path fill="#002C5F" d="M147.898,320.32h-0.611c-0.133,0-0.24-0.106-0.24-0.24v-0.959c0-0.133,0.107-0.239,0.24-0.239h0.611
			c0.133,0,0.239,0.106,0.239,0.239v0.959C148.138,320.213,148.029,320.32,147.898,320.32z M147.874,327.974h-0.576
			c-0.131,0-0.24-0.107-0.24-0.238v-6.117c0-0.133,0.109-0.239,0.24-0.239h0.576c0.131,0,0.238,0.106,0.238,0.239v6.117
			C148.113,327.863,148.005,327.974,147.874,327.974z"/>
		<path fill="#002C5F" d="M153.177,327.996c-0.239,0.035-0.553,0.062-0.778,0.062c-1.104,0-1.634-0.289-1.634-1.605v-4.188
			l-1.161-0.133c-0.134-0.013-0.229-0.084-0.229-0.216v-0.323c0-0.134,0.096-0.218,0.229-0.218h1.161v-1.174
			c0-0.121,0.084-0.217,0.218-0.24l0.623-0.096c0.014,0,0.024,0,0.036,0c0.097,0,0.181,0.084,0.181,0.203v1.307h1.295
			c0.133,0,0.24,0.107,0.24,0.24v0.408c0,0.131-0.107,0.238-0.24,0.238h-1.295v4.188c0,0.66,0.168,0.756,0.646,0.756h0.672
			c0.168,0,0.252,0.047,0.252,0.168v0.42C153.392,327.9,153.333,327.974,153.177,327.996z"/>
		<path fill="#002C5F" d="M159.621,321.664l-1.98,6.908c-0.37,1.295-0.813,1.773-2.192,1.773c-0.336,0-0.756-0.047-1.008-0.107
			c-0.146-0.035-0.252-0.072-0.252-0.19v-0.443c0-0.133,0.096-0.191,0.229-0.191c0.012,0,0.023,0,0.035,0
			c0.264,0.023,0.805,0.072,1.068,0.072c0.684,0,0.981-0.182,1.188-1.021l0.119-0.49h-0.168c-0.359,0-0.672-0.084-0.889-0.828
			l-1.595-5.479c-0.012-0.023-0.012-0.062-0.012-0.084c0-0.119,0.07-0.203,0.215-0.203h0.66c0.096,0,0.18,0.096,0.203,0.19
			l1.414,5.205c0.062,0.238,0.146,0.264,0.229,0.264h0.189l1.465-5.479c0.021-0.096,0.119-0.18,0.229-0.18h0.671
			c0.12,0,0.192,0.084,0.192,0.203C159.632,321.604,159.632,321.64,159.621,321.664z"/>
		<path fill="#002C5F" d="M66.302,344.879h-0.563c-0.119,0-0.181-0.012-0.275-0.133c-1.067-1.295-1.68-3.44-1.68-5.553v-0.156
			c0-2.108,0.61-4.258,1.68-5.553c0.096-0.119,0.156-0.133,0.275-0.133h0.563c0.084,0,0.119,0.049,0.119,0.098
			c0,0.035-0.012,0.084-0.035,0.119c-1.02,1.5-1.549,3.369-1.549,5.469v0.156c0,2.1,0.529,3.971,1.549,5.469
			c0.023,0.037,0.035,0.084,0.035,0.121C66.421,344.83,66.386,344.879,66.302,344.879z"/>
		<path fill="#002C5F" d="M72.433,338.211h-3.684v3.923c0,0.131-0.107,0.237-0.238,0.237h-0.612c-0.132,0-0.238-0.106-0.238-0.237
			v-6.523c0-1.598,0.875-2.229,2.555-2.229c0.707,0,1.834,0.022,2.338,0.069c0.072,0.015,0.121,0.099,0.121,0.168v0.601
			c0,0.084-0.049,0.145-0.133,0.145h-2.313c-1.271,0-1.476,0.336-1.476,1.248v1.668h3.683c0.131,0,0.239,0.107,0.239,0.238v0.457
			C72.671,338.103,72.564,338.211,72.433,338.211z"/>
		<path fill="#002C5F" d="M76.369,342.455c-0.84,0-1.463-0.084-1.99-0.168c-0.203-0.035-0.229-0.084-0.229-0.215v-0.479
			c0-0.132,0.098-0.189,0.203-0.189c0.012,0,0.022,0,0.034,0c0.554,0.047,1.429,0.07,1.979,0.07c1.438,0,1.824-0.576,1.824-1.416
			c0-0.601-0.349-0.937-1.439-1.605l-1.162-0.707c-1.104-0.672-1.656-1.283-1.656-2.242c0-1.45,1.044-2.122,2.867-2.122
			c0.707,0,1.631,0.069,2.086,0.143c0.121,0.025,0.205,0.084,0.205,0.205v0.516c0,0.119-0.084,0.191-0.205,0.191
			c-0.012,0-0.012,0-0.022,0c-0.525-0.035-1.367-0.072-2.062-0.072c-1.235,0-1.766,0.266-1.766,1.141
			c0,0.562,0.396,0.898,1.309,1.451l1.104,0.66c1.393,0.826,1.883,1.486,1.883,2.445C79.331,341.209,78.732,342.455,76.369,342.455z
			"/>
		<path fill="#002C5F" d="M85.812,342.302c-0.505,0.096-0.972,0.153-1.99,0.153c-1.478,0-3.166-0.791-3.166-3.705v-1.668
			c0-2.938,1.688-3.705,3.166-3.705c0.756,0,1.485,0.107,2.016,0.191c0.107,0.012,0.191,0.049,0.191,0.156v0.61
			c0,0.072-0.023,0.132-0.146,0.132c-0.012,0-0.022,0-0.037,0c-0.432-0.035-1.317-0.107-2.014-0.107
			c-1.178,0-2.088,0.684-2.088,2.723v1.668c0,2.017,0.912,2.724,2.088,2.724c0.684,0,1.547-0.062,1.979-0.097
			c0.012,0,0.034,0,0.049,0c0.131,0,0.19,0.062,0.19,0.191v0.492C86.052,342.203,85.945,342.275,85.812,342.302z"/>
		<path fill="#002C5F" d="M92.63,339.302h-2.387c-0.135,0-0.23-0.07-0.23-0.203v-0.467c0-0.121,0.097-0.218,0.23-0.218h2.387
			c0.131,0,0.228,0.084,0.228,0.218v0.467C92.857,339.218,92.761,339.302,92.63,339.302z"/>
		<path fill="#002C5F" d="M99.613,338.822c-0.386,0-0.89-0.037-1.199-0.061v3.369c0,0.12-0.084,0.239-0.217,0.239h-0.646
			c-0.119,0-0.215-0.106-0.215-0.239v-8.359c0-0.168,0.105-0.275,0.287-0.299c0.516-0.062,1.295-0.097,1.99-0.097
			c1.94,0,3.356,0.673,3.356,2.603v0.156C102.972,338.14,101.556,338.822,99.613,338.822z M101.88,335.979
			c0-1.211-0.721-1.678-2.268-1.678c-0.373,0-0.91,0.022-1.199,0.047v3.516c0.275,0.013,0.889,0.049,1.199,0.049
			c1.645,0,2.268-0.526,2.268-1.774V335.979z"/>
		<path fill="#002C5F" d="M109.343,342.397c-0.455,0.049-1.631,0.061-2.338,0.061c-1.68,0-2.555-0.635-2.555-2.229v-4.617
			c0-1.596,0.875-2.229,2.555-2.229c0.707,0,1.834,0.022,2.338,0.071c0.072,0.013,0.121,0.097,0.121,0.168v0.601
			c0,0.084-0.049,0.145-0.133,0.145h-2.314c-1.271,0-1.475,0.336-1.475,1.248v1.666h3.682c0.132,0,0.24,0.107,0.24,0.238v0.457
			c0,0.131-0.108,0.24-0.24,0.24h-3.682v2.014c0,0.912,0.203,1.248,1.475,1.248h2.314c0.084,0,0.133,0.061,0.133,0.145v0.611
			C109.464,342.302,109.415,342.386,109.343,342.397z"/>
		<path fill="#002C5F" d="M115.835,338.211h-3.684v3.923c0,0.131-0.105,0.237-0.238,0.237h-0.611c-0.133,0-0.239-0.106-0.239-0.237
			v-6.523c0-1.598,0.875-2.229,2.555-2.229c0.709,0,1.836,0.022,2.34,0.069c0.07,0.015,0.119,0.099,0.119,0.168v0.601
			c0,0.084-0.049,0.145-0.133,0.145h-2.314c-1.271,0-1.475,0.336-1.475,1.248v1.668h3.682c0.133,0,0.24,0.107,0.24,0.238v0.457
			C116.076,338.103,115.968,338.211,115.835,338.211z"/>
		<path fill="#002C5F" d="M122.615,342.302c-0.504,0.096-0.974,0.153-1.99,0.153c-1.477,0-3.166-0.791-3.166-3.705v-1.668
			c0-2.938,1.689-3.705,3.166-3.705c0.756,0,1.486,0.107,2.016,0.191c0.107,0.012,0.191,0.049,0.191,0.156v0.61
			c0,0.072-0.023,0.132-0.146,0.132c-0.013,0-0.021,0-0.035,0c-0.433-0.035-1.318-0.107-2.017-0.107
			c-1.174,0-2.086,0.684-2.086,2.723v1.668c0,2.017,0.912,2.724,2.086,2.724c0.685,0,1.547-0.062,1.979-0.097
			c0.014,0,0.037,0,0.049,0c0.133,0,0.191,0.062,0.191,0.191v0.492C122.855,342.203,122.748,342.275,122.615,342.302z"/>
		<path fill="#002C5F" d="M124.706,344.746c-0.098,0.121-0.156,0.133-0.277,0.133h-0.562c-0.084,0-0.119-0.049-0.119-0.096
			c0-0.037,0.012-0.084,0.035-0.121c1.02-1.498,1.547-3.369,1.547-5.469v-0.156c0-2.1-0.527-3.969-1.547-5.469
			c-0.023-0.035-0.035-0.084-0.035-0.119c0-0.049,0.035-0.098,0.119-0.098h0.562c0.121,0,0.181,0.014,0.277,0.133
			c1.064,1.295,1.678,3.441,1.678,5.553v0.156C126.384,341.306,125.773,343.451,124.706,344.746z"/>
		<path fill="#002C5F" d="M53.007,356.822c-0.383,0-0.887-0.037-1.199-0.061v3.369c0,0.12-0.084,0.239-0.215,0.239h-0.647
			c-0.119,0-0.215-0.106-0.215-0.239v-8.359c0-0.168,0.106-0.275,0.286-0.299c0.517-0.062,1.295-0.097,1.99-0.097
			c1.943,0,3.357,0.673,3.357,2.603v0.156C56.367,356.14,54.951,356.822,53.007,356.822z M55.275,353.979
			c0-1.211-0.722-1.678-2.269-1.678c-0.371,0-0.91,0.022-1.199,0.047v3.516c0.275,0.013,0.89,0.049,1.199,0.049
			c1.646,0,2.269-0.526,2.269-1.774V353.979z"/>
		<path fill="#002C5F" d="M61.8,360.371h-0.551c-0.133,0-0.24-0.106-0.24-0.237v-0.267c-0.576,0.336-1.176,0.588-1.848,0.588
			c-1.021,0-1.955-0.442-1.955-1.94v-0.146c0-1.295,0.756-1.942,2.891-1.942h0.888v-0.479c0-1.008-0.349-1.354-1.281-1.354
			c-0.781,0-1.355,0.049-1.836,0.096c-0.023,0-0.035,0-0.062,0c-0.106,0-0.215-0.035-0.215-0.191v-0.418
			c0-0.133,0.084-0.205,0.252-0.229c0.49-0.084,1.043-0.156,1.857-0.156c1.666,0,2.34,0.84,2.34,2.254v4.188
			C62.04,360.265,61.933,360.371,61.8,360.371z M60.984,357.183h-0.888c-1.45,0-1.834,0.324-1.834,1.176v0.146
			c0,0.862,0.406,1.092,1.104,1.092c0.551,0,1.043-0.168,1.617-0.479V357.183L60.984,357.183z"/>
		<path fill="#002C5F" d="M66.134,360.455c-0.373,0-0.936-0.047-1.403-0.131v2.17c0,0.121-0.097,0.229-0.229,0.229H63.89
			c-0.119,0-0.215-0.097-0.215-0.229v-8.25c0-0.156,0.035-0.229,0.252-0.276c0.635-0.156,1.476-0.273,2.207-0.273
			c1.785,0,2.613,1.162,2.613,2.963v0.861C68.748,359.4,67.884,360.455,66.134,360.455z M67.693,356.654
			c0-1.26-0.373-2.076-1.56-2.076c-0.504,0-1.067,0.062-1.403,0.121v4.75c0.396,0.07,1.02,0.119,1.403,0.119
			c1.174,0,1.56-0.768,1.56-2.051V356.654z"/>
		<path fill="#002C5F" d="M75.023,357.41h-4.019v0.168c0,1.427,0.562,1.955,1.668,1.955c0.695,0,1.582-0.049,2.135-0.133
			c0.023,0,0.035,0,0.062,0c0.096,0,0.19,0.049,0.19,0.168v0.406c0,0.156-0.049,0.24-0.239,0.277
			c-0.685,0.131-1.345,0.202-2.146,0.202c-1.379,0-2.723-0.646-2.723-2.879v-1.078c0-1.715,0.947-2.807,2.662-2.807
			c1.752,0,2.639,1.104,2.639,2.807v0.646C75.251,357.302,75.167,357.41,75.023,357.41z M74.185,356.498
			c0-1.354-0.516-1.883-1.571-1.883c-1.031,0-1.605,0.588-1.605,1.883v0.107h3.179v-0.107H74.185z"/>
		<path fill="#002C5F" d="M79.404,354.604c-0.554,0-1.058,0.145-1.654,0.504v5.025c0,0.119-0.106,0.237-0.24,0.237h-0.588
			c-0.119,0-0.229-0.106-0.229-0.237v-6.117c0-0.133,0.098-0.238,0.229-0.238h0.562c0.135,0,0.229,0.105,0.229,0.238v0.252
			c0.601-0.42,1.148-0.574,1.689-0.574c0.168,0,0.252,0.07,0.252,0.215v0.492C79.656,354.531,79.572,354.604,79.404,354.604z"/>
		<path fill="#002C5F" d="M86.22,360.455c-0.371,0-0.936-0.047-1.401-0.131v2.17c0,0.121-0.097,0.229-0.229,0.229h-0.611
			c-0.118,0-0.217-0.097-0.217-0.229v-8.25c0-0.156,0.037-0.229,0.252-0.276c0.638-0.156,1.478-0.273,2.207-0.273
			c1.787,0,2.615,1.162,2.615,2.963v0.861C88.835,359.4,87.972,360.455,86.22,360.455z M87.779,356.654
			c0-1.26-0.373-2.076-1.56-2.076c-0.504,0-1.067,0.062-1.403,0.121v4.75c0.396,0.07,1.021,0.119,1.403,0.119
			c1.174,0,1.56-0.768,1.56-2.051V356.654z"/>
		<path fill="#002C5F" d="M95.076,360.371h-0.603c-0.133,0-0.229-0.106-0.229-0.237v-0.229c-0.658,0.371-1.199,0.551-1.906,0.551
			c-1.438,0-2.088-0.897-2.088-2.494v-3.944c0-0.133,0.107-0.238,0.24-0.238h0.576c0.133,0,0.239,0.105,0.239,0.238v3.944
			c0,1.212,0.406,1.584,1.318,1.584c0.504,0,1.066-0.192,1.619-0.469v-5.061c0-0.121,0.106-0.24,0.238-0.24h0.588
			c0.119,0,0.229,0.107,0.229,0.24v6.115C95.302,360.265,95.206,360.371,95.076,360.371z"/>
		<path fill="#002C5F" d="M99.648,354.604c-0.552,0-1.056,0.145-1.654,0.504v5.025c0,0.119-0.107,0.237-0.24,0.237h-0.588
			c-0.119,0-0.229-0.106-0.229-0.237v-6.117c0-0.133,0.098-0.238,0.229-0.238h0.564c0.131,0,0.229,0.105,0.229,0.238v0.252
			c0.601-0.42,1.15-0.574,1.689-0.574c0.168,0,0.252,0.07,0.252,0.215v0.492C99.9,354.531,99.816,354.604,99.648,354.604z"/>
		<path fill="#002C5F" d="M104.578,360.324c-0.396,0.07-0.938,0.131-1.498,0.131c-1.633,0-2.557-1.149-2.557-2.914v-0.936
			c0-1.764,0.911-2.914,2.557-2.914c0.551,0,1.104,0.061,1.498,0.133c0.19,0.035,0.238,0.096,0.238,0.264v0.433
			c0,0.119-0.097,0.182-0.203,0.182c-0.023,0-0.035,0-0.049,0c-0.525-0.062-0.896-0.084-1.484-0.084c-0.961,0-1.5,0.636-1.5,1.99
			v0.936c0,1.345,0.525,1.99,1.5,1.99c0.588,0,0.959-0.022,1.484-0.084c0.014,0,0.024,0,0.049,0c0.106,0,0.203,0.062,0.203,0.181
			v0.432C104.818,360.218,104.769,360.287,104.578,360.324z"/>
		<path fill="#002C5F" d="M110.974,360.371h-0.575c-0.134,0-0.24-0.106-0.24-0.237v-3.947c0-1.197-0.504-1.568-1.283-1.568
			c-0.371,0-1.127,0.097-1.654,0.336v5.181c0,0.121-0.106,0.239-0.239,0.239h-0.588c-0.119,0-0.229-0.106-0.229-0.239v-8.539
			c0-0.131,0.098-0.24,0.229-0.24h0.602c0.131,0,0.229,0.109,0.229,0.24v2.471c0.574-0.252,1.318-0.371,1.834-0.371
			c1.271,0,2.158,0.73,2.158,2.494v3.945C111.212,360.265,111.105,360.371,110.974,360.371z"/>
		<path fill="#002C5F" d="M117.201,360.371h-0.553c-0.132,0-0.238-0.106-0.238-0.237v-0.267c-0.576,0.336-1.176,0.588-1.848,0.588
			c-1.021,0-1.955-0.442-1.955-1.94v-0.146c0-1.295,0.756-1.942,2.893-1.942h0.887v-0.479c0-1.008-0.348-1.354-1.282-1.354
			c-0.779,0-1.355,0.049-1.836,0.096c-0.023,0-0.035,0-0.06,0c-0.109,0-0.219-0.035-0.219-0.191v-0.418
			c0-0.133,0.084-0.205,0.254-0.229c0.49-0.084,1.043-0.156,1.856-0.156c1.669,0,2.341,0.84,2.341,2.254v4.188
			C117.441,360.265,117.333,360.371,117.201,360.371z M116.386,357.183h-0.887c-1.451,0-1.836,0.324-1.836,1.176v0.146
			c0,0.862,0.406,1.092,1.104,1.092c0.552,0,1.043-0.168,1.619-0.479V357.183z"/>
		<path fill="#002C5F" d="M121.007,360.455c-0.442,0-1.307-0.035-1.896-0.18c-0.154-0.035-0.252-0.107-0.252-0.24v-0.418
			c0-0.108,0.098-0.182,0.217-0.182c0.022,0,0.035,0,0.049,0c0.576,0.072,1.451,0.133,1.883,0.133c0.779,0,1.188-0.203,1.188-0.852
			c0-0.361-0.217-0.589-0.9-0.996l-1.211-0.72c-0.729-0.444-1.223-0.961-1.223-1.717c0-1.246,0.936-1.594,2.17-1.594
			c0.672,0,1.309,0.059,1.871,0.154c0.155,0.022,0.229,0.106,0.229,0.239v0.396c0,0.145-0.084,0.203-0.203,0.203
			c-0.014,0-0.024,0-0.037,0c-0.42-0.035-1.188-0.096-1.858-0.096c-0.67,0-1.113,0.084-1.113,0.694c0,0.359,0.275,0.588,0.828,0.91
			l1.188,0.709c0.994,0.588,1.318,1.104,1.318,1.811C123.249,359.94,122.351,360.455,121.007,360.455z"/>
		<path fill="#002C5F" d="M125.64,352.722h-0.612c-0.131,0-0.238-0.107-0.238-0.24v-0.959c0-0.133,0.107-0.238,0.238-0.238h0.612
			c0.132,0,0.238,0.105,0.238,0.238v0.959C125.878,352.611,125.771,352.722,125.64,352.722z M125.615,360.371h-0.574
			c-0.135,0-0.24-0.106-0.24-0.237v-6.117c0-0.133,0.105-0.238,0.24-0.238h0.574c0.133,0,0.237,0.105,0.237,0.238v6.117
			C125.855,360.265,125.748,360.371,125.615,360.371z"/>
		<path fill="#002C5F" d="M132.441,360.371h-0.576c-0.131,0-0.238-0.106-0.238-0.237v-3.947c0-1.211-0.408-1.582-1.32-1.582
			c-0.504,0-1.065,0.19-1.618,0.469v5.062c0,0.121-0.105,0.239-0.24,0.239h-0.586c-0.121,0-0.229-0.106-0.229-0.239v-6.115
			c0-0.133,0.097-0.24,0.229-0.24h0.6c0.133,0,0.229,0.107,0.229,0.24v0.229c0.659-0.373,1.198-0.553,1.905-0.553
			c1.439,0,2.088,0.898,2.088,2.494v3.945C132.681,360.265,132.572,360.371,132.441,360.371z"/>
		<path fill="#002C5F" d="M139.556,354.578l-0.432,0.084c0.217,0.229,0.406,0.588,0.406,1.236v0.096c0,1.318-0.812,2.052-2.66,2.052
			c-0.637,0-1.043-0.097-1.393-0.24c-0.205,0.098-0.302,0.229-0.302,0.408c0,0.202,0.097,0.312,0.373,0.385l1.787,0.455
			c1.174,0.299,2.303,0.635,2.303,1.764v0.096c0,1.15-0.768,1.859-2.733,1.859c-1.896,0-2.761-0.729-2.761-1.906v-0.106
			c0-0.672,0.359-1.226,0.757-1.523l-0.084-0.035c-0.384-0.168-0.552-0.563-0.552-0.938v-0.012c0-0.324,0.154-0.673,0.49-0.863
			c-0.371-0.348-0.551-0.779-0.551-1.391v-0.097c0-1.067,0.6-2.123,2.662-2.123h2.627c0.145,0,0.274,0.119,0.274,0.265v0.311
			C139.773,354.509,139.689,354.556,139.556,354.578z M138.585,360.816c0-0.469-0.383-0.658-1.463-0.936l-1.355-0.349
			c-0.348,0.299-0.588,0.601-0.588,1.224v0.106c0,0.672,0.396,1.092,1.729,1.092c1.365,0,1.678-0.385,1.678-1.043L138.585,360.816
			L138.585,360.816z M138.488,355.9c0-0.723-0.322-1.283-1.617-1.283c-1.346,0-1.619,0.609-1.619,1.283v0.096
			c0,0.525,0.238,1.224,1.619,1.224c1.295,0,1.617-0.504,1.617-1.224V355.9z"/>
	</g>
</g>
</svg>
