<?xml version="1.0" encoding="utf-8"?>
<!-- Generator: Adobe Illustrator 15.1.0, SVG Export Plug-In . SVG Version: 6.00 Build 0)  -->
<!DOCTYPE svg PUBLIC "-//W3C//DTD SVG 1.1//EN" "http://www.w3.org/Graphics/SVG/1.1/DTD/svg11.dtd">
<svg version="1.1" id="Our_story_-_responsible_-_screen_2"
	 xmlns="http://www.w3.org/2000/svg" xmlns:xlink="http://www.w3.org/1999/xlink" x="0px" y="0px" width="190px" height="392px"
	 viewBox="0 0 190 392" enable-background="new 0 0 190 392" xml:space="preserve">
<symbol  id="New_Symbol_61" viewBox="-7.5 -7.5 15 15">
	<path fill="#FFFFFF" d="M0,7.5c-4.141,0-7.5-3.359-7.5-7.5S-4.141-7.5,0-7.5S7.5-4.141,7.5,0S4.141,7.5,0,7.5z M2.049-3.906
		L2.049-3.906C2.095-3.902,2.104-3.909,2.14-3.851c0-0.093,0.02-0.18,0.057-0.263C2.092-3.699,2.511-3.686,2.7-3.441
		c0.072,0.096,0.19,0.355,0.281,0.396C3.03-3.12,3.041-3.199,3.015-3.283c0.021,0.062,0.003,0.004-0.004-0.016
		C3.009-3.382,2.995-3.461,2.958-3.535C2.944-3.52,2.936-3.505,2.933-3.486C2.601-3.756,2.604-4.52,2.153-4.71
		C1.911-4.812,1.941-4.484,2.032-4.369c0.134,0.172-0.05,0.285,0.034,0.453C2.06-3.916,2.055-3.909,2.049-3.906
		c0.001-0.002,0-0.002,0-0.002C2.049-3.907,2.049-3.906,2.049-3.906c-0.082,0.021-0.161,0.226-0.161,0.34
		C1.984-3.549,2.034-3.49,2.042-3.525C2.066-3.496,2.179-3.297,2.18-3.267C2.21-3.438,1.962-3.771,2.049-3.906z M5.422,0.887
		C5.297,1.126,5.187,1.407,5.096,1.549c-0.16,0.254-0.262,0.66-0.494,0.854C4.657,2.337,4.664,2.264,4.62,2.19
		C4.498,2.226,4.4,2.295,4.329,2.402c-0.012,0.05,0.124-0.065,0.048,0.08C4.185,2.457,4.047,2.654,3.89,2.766
		C3.613,2.801,3.312,2.568,3.03,2.733C2.965,2.772,2.902,3,2.8,2.867C2.746,2.799,2.688,2.799,2.608,2.822
		C2.292,2.918,2.156,3.188,1.871,3.195c0.002-0.12,0.206-0.299,0.303-0.354C2.301,2.768,2.39,2.449,2.405,2.733
		c0.182-0.104,0.052-0.337,0.311-0.252C2.912,2.406,2.859,2.721,2.9,2.814c0.062-0.037,0.096-0.189,0.146-0.238
		C3.148,2.48,3.295,2.518,3.39,2.419c0.12-0.126,0.188-0.305,0.159-0.455C3.437,1.972,3.525,1.828,3.455,1.719
		C3.379,1.604,3.386,1.578,3.338,1.453c-0.133-0.034-0.29-0.094-0.266-0.27c-0.093-0.109-0.921-0.71-1.03-0.546
		c-0.134,0.203-0.168,0.486-0.277,0.7c-0.162,0.053-0.5,0.466-0.566,0.625c0.049,0.28-0.69,0.831-0.811,0.835
		c0.088-0.381,0.416-0.582,0.567-0.876c0.127-0.252,0.363-0.844,0.56-0.925C1.842,1.028,2.043,0.435,2.218,0.31
		c0.228-0.156,0.694,0.354,0.894,0.307c0.022-0.27,0.018-0.352-0.064-0.647C2.881-0.641,2.601-0.904,2.24-1.398
		C2.032-1.683,1.897-1.883,1.741-2.196C1.619-2.442,1.977-2.959,1.879-3.098C1.932-3.5,1.833-3.736,1.484-3.938
		C1.229-4.086,1.01-4.227,1.096-4.506c0.087-0.279-0.261-0.323-0.302-0.48C0.688-5.246,0.54-5.385,0.36-5.482
		C0.241-5.49,0.122-5.5,0-5.5c-0.219,0-0.434,0.017-0.647,0.041C-0.929-5.104-1.223-4.73-1.525-4.378
		C-1.71-4.166-1.959-3.781-1.689-3.511c0.03,0.177-0.181,0.583-0.274,0.735c-0.157,0.266-0.883,0.832-0.6,1.139
		c0.039,0.201-0.138,0.399-0.138,0.56C-2.855-0.953-3.013-1.243-3.163-0.98c-0.16,0.281-0.451,0.204-0.692,0.031
		c-0.054-0.038-0.724-0.137-0.783-0.084c-0.51,0.455-0.672,1.169-0.495,1.781c0.072,0.254,0.081,0.705,0.283,0.875
		c0.066,0.264,0.371,0.523,0.533,0.74C-4.231,2.478-4.09,2.489-3.99,2.609c0.151,0.177,0.225,0.389,0.42,0.545
		c0.197,0.154,0.62,0.424,0.261,0.479c0.142,0.209,0.37,0.438,0.454,0.688c0.124,0.1,0.354,0.059,0.492,0.127
		c0.119,0.244,0.168,0.233,0.123,0.393c0.024,0.102,0.341,0.176,0.408,0.201c0.125,0.049,0.237,0.163,0.35,0.248
		C-1.01,5.424-0.514,5.5,0,5.5C2.73,5.5,4.996,3.498,5.422,0.887z"/>
	<path fill="#FFFFFF" d="M0.176,4.551c-0.001-0.1,0.353-0.084,0.405-0.098c-0.095,0.021,0.032,0.02,0,0
		C0.902,4.652-0.08,4.843-0.092,4.85c0.026,0.014,0.044,0.03,0.049,0.059c-0.175-0.064-0.061,0.127-0.226-0.064
		C-0.226,4.695-0.417,4.6-0.334,4.445C-0.163,4.301,0.008,4.523,0.176,4.551z"/>
	<path fill="#FFFFFF" d="M-1.12,4.168c-0.174,0.1-0.049-0.039-0.154-0.155c-0.153-0.175-0.14-0.231-0.374-0.144
		c-0.01,0.191,0.44,0.021,0.234,0.377C-1.517,4.422-1.615,4.631-1.81,4.502c-0.184-0.121-0.515-0.191-0.657-0.455
		C-2.551,3.959-3.142,3.503-3.14,3.463c0.229-0.187,1.128,0.549,1.354,0.333c-0.015-0.153-0.19-0.269-0.194-0.422
		c0.067-0.028,0.084-0.093,0.162-0.104C-1.52,3.334-1.6,3.128-1.38,3.076c0.367-0.091,0.087-0.022,0.318,0.207
		c0.076,0.074,0.481,0.063,0.5-0.062c-0.012,0.079,0.17,0.03,0,0c0.181,0.033,0.354-0.146,0.488-0.014
		C0.021,3.3,0.1,3.282,0.171,3.229c0.327-0.234,0.217,0.687,0.226,0.729C0.283,3.885-0.372,3.816-0.367,3.885
		c0.012,0.08-0.084,0.086-0.121,0.188C-0.36,4.224-0.6,4.148-0.472,4.314c-0.064,0.031-0.13,0.031-0.195,0
		c-0.027-0.109,0.054-0.07-0.09-0.04c-0.048-0.118,0.112-0.198,0.09-0.31C-0.686,3.982-0.708,3.991-0.731,3.99
		C-0.752,3.911-0.737,3.93-0.739,3.804c-0.223,0.041-0.102,0.21-0.292,0.454c0.173,0.137-0.358,0.408-0.283,0.494
		C-1.689,4.65-1.017,4.259-1.12,4.168z M-1.81,4.021C-1.847,4.006-1.885,4-1.924,4c0.03,0.094,0.168,0.432,0.252,0.445
		C-1.678,4.322-1.789,4.148-1.81,4.021z"/>
	<path fill="#FFFFFF" d="M-1.81,4.021C-1.794,4.117-1.868,4.033-1.81,4.021L-1.81,4.021z"/>
	<path fill="#FFFFFF" d="M1.385,4.437C1.296,4.403,1.407,4.133,1.547,4.147c0.099-0.087,0.21-0.103,0.332-0.052
		C1.847,4.322,1.277,4.77,1.092,4.866C1.119,4.893,1.13,4.974,1.19,4.965C1.135,5.209,0.882,5.012,0.882,4.857
		C0.977,4.743,1.36,4.543,1.385,4.437z"/>
	<path fill="#FFFFFF" d="M1.547,4.146C1.439,4.136,1.614,4.07,1.547,4.146L1.547,4.146z"/>
	<path fill="#FFFFFF" d="M1.83,4.834c-0.091,0.02-0.188,0.223-0.283,0.252C1.536,5.034,1.54,5.04,1.531,5.003
		c0.007,0.028,0.042-0.066,0,0C1.566,4.945,1.725,4.721,1.83,4.834z"/>
	<path fill="#FFFFFF" d="M-2.281,4.51C-2.3,4.479-2.333,4.464-2.363,4.449C-2.366,4.443-2.367,4.441-2.37,4.437
		C-2.34,4.424-2.307,4.52-2.281,4.51z"/>
</symbol>
<g>
	
		<linearGradient id="SVGID_1_" gradientUnits="userSpaceOnUse" x1="-86.9995" y1="-267.0322" x2="-86.9995" y2="-456.8682" gradientTransform="matrix(1 0 0 1 182 456.8682)">
		<stop  offset="0" style="stop-color:#7D9B2C"/>
		<stop  offset="0.0239" style="stop-color:#84A12C"/>
		<stop  offset="0.1181" style="stop-color:#9AB52D"/>
		<stop  offset="0.2281" style="stop-color:#ACC52E"/>
		<stop  offset="0.362" style="stop-color:#B8D02F"/>
		<stop  offset="0.5447" style="stop-color:#BFD62F"/>
		<stop  offset="1" style="stop-color:#C1D82F"/>
	</linearGradient>
	<path fill="url(#SVGID_1_)" d="M189.919,172.83c0,9.394-7.615,17.006-17.01,17.006H17.089c-9.393,0-17.008-7.612-17.008-17.006
		V17.009C0.081,7.615,7.696,0,17.089,0h155.82c9.395,0,17.01,7.615,17.01,17.009V172.83L189.919,172.83z"/>
	<g>
		<path fill="#FFFFFF" d="M35.882,132.273c-0.674,0.097-1.658,0.251-3.742,0.251c-2.485,0-4.688-0.638-4.688-4.147v-6.4
			c0-3.512,2.219-4.128,4.707-4.128c2.082,0,3.049,0.152,3.723,0.251c0.271,0.037,0.388,0.135,0.388,0.386v1.794
			c0,0.212-0.175,0.385-0.388,0.385h-3.914c-0.908,0-1.233,0.311-1.233,1.312v1.755h4.994c0.213,0,0.387,0.173,0.387,0.386v1.832
			c0,0.212-0.174,0.386-0.387,0.386h-4.994v2.045c0,1.004,0.325,1.312,1.233,1.312h3.914c0.213,0,0.388,0.173,0.388,0.385v1.794
			C36.269,132.118,36.152,132.233,35.882,132.273z"/>
		<path fill="#FFFFFF" d="M49.306,132.351h-1.891c-0.404,0-0.693-0.077-1.002-0.6l-4.398-7.6c-0.075-0.115-0.114-0.154-0.172-0.154
			c-0.059,0-0.098,0.039-0.098,0.154v7.812c0,0.212-0.174,0.386-0.387,0.386h-2.275c-0.211,0-0.385-0.174-0.385-0.386v-13.213
			c0-0.404,0.326-0.73,0.731-0.73h1.947c0.387,0,0.578,0.19,0.811,0.598l4.57,7.946c0.078,0.114,0.099,0.153,0.154,0.153
			c0.037,0,0.098-0.039,0.098-0.175v-8.157c0-0.212,0.174-0.365,0.385-0.365h2.275c0.213,0,0.387,0.153,0.387,0.365v13.229
			C50.058,132.022,49.712,132.351,49.306,132.351z"/>
		<path fill="#FFFFFF" d="M63.675,118.426l-2.873,11.957c-0.442,1.853-1.854,2.143-3.184,2.143s-2.758-0.29-3.201-2.143
			l-2.873-11.957c0-0.039-0.021-0.06-0.021-0.098c0-0.174,0.153-0.309,0.348-0.309h2.682c0.193,0,0.349,0.153,0.388,0.347
			l2.41,11.129c0.038,0.212,0.096,0.289,0.27,0.289c0.176,0,0.232-0.077,0.271-0.289l2.409-11.129
			c0.039-0.191,0.175-0.347,0.367-0.347h2.699c0.19,0,0.328,0.114,0.328,0.309C63.695,118.348,63.675,118.387,63.675,118.426z"/>
		<path fill="#FFFFFF" d="M68.517,132.351h-2.584c-0.213,0-0.348-0.175-0.348-0.387v-13.577c0-0.212,0.135-0.365,0.348-0.365h2.584
			c0.214,0,0.367,0.153,0.367,0.365v13.578C68.884,132.177,68.73,132.351,68.517,132.351z"/>
		<path fill="#FFFFFF" d="M82.365,132.351h-2.951c-0.211,0-0.287-0.192-0.385-0.387l-2.586-4.881l-0.211,0.021
			c-0.406,0-1.005-0.038-1.369-0.038v4.897c0,0.212-0.174,0.387-0.388,0.387h-2.508c-0.211,0-0.385-0.175-0.385-0.387v-12.94
			c0-0.656,0.27-0.83,0.867-0.926c0.889-0.137,2.526-0.252,3.916-0.252c3.276,0,5.805,1.101,5.805,4.514v0.251
			c0,2.045-1.08,3.298-2.488,3.856l2.914,5.438c0.037,0.077,0.058,0.154,0.058,0.212C82.654,132.254,82.578,132.351,82.365,132.351z
			 M78.894,122.358c0-1.176-0.907-1.716-2.526-1.716c-0.271,0-1.271,0.038-1.504,0.058v3.703c0.211,0.021,1.155,0.039,1.369,0.039
			c2.024,0,2.661-0.521,2.661-1.833V122.358z"/>
		<path fill="#FFFFFF" d="M89.677,132.524c-3.184,0-5.709-1.717-5.709-6.191v-2.295c0-4.475,2.525-6.19,5.709-6.19
			c3.183,0,5.709,1.718,5.709,6.19v2.295C95.386,130.808,92.859,132.524,89.677,132.524z M92.068,124.037
			c0-2.312-0.771-3.298-2.392-3.298s-2.373,0.983-2.373,3.298v2.295c0,2.314,0.752,3.299,2.373,3.299
			c1.619,0,2.392-0.982,2.392-3.299V124.037z"/>
		<path fill="#FFFFFF" d="M108.367,132.351h-1.892c-0.403,0-0.694-0.077-1.004-0.6l-4.396-7.6c-0.078-0.115-0.115-0.154-0.174-0.154
			c-0.06,0-0.097,0.039-0.097,0.154v7.812c0,0.212-0.174,0.386-0.387,0.386h-2.275c-0.213,0-0.387-0.174-0.387-0.386v-13.213
			c0-0.404,0.328-0.73,0.732-0.73h1.948c0.386,0,0.578,0.19,0.81,0.598l4.572,7.946c0.075,0.114,0.096,0.153,0.153,0.153
			c0.039,0,0.097-0.039,0.097-0.175v-8.157c0-0.212,0.174-0.365,0.387-0.365h2.275c0.213,0,0.385,0.153,0.385,0.365v13.229
			C109.119,132.022,108.771,132.351,108.367,132.351z"/>
		<path fill="#FFFFFF" d="M124.529,132.351h-2.545c-0.175,0-0.31-0.175-0.31-0.387v-8.044c0-0.135-0.059-0.152-0.098-0.152
			c-0.06,0-0.098,0.039-0.154,0.135l-1.736,3.183c-0.135,0.231-0.325,0.328-0.577,0.328h-1.543c-0.25,0-0.443-0.097-0.578-0.328
			l-1.736-3.183c-0.057-0.096-0.096-0.135-0.152-0.135c-0.039,0-0.098,0.02-0.098,0.152v8.044c0,0.212-0.135,0.387-0.309,0.387
			h-2.548c-0.153,0-0.327-0.06-0.327-0.271v-13.403c0-0.403,0.291-0.654,0.694-0.654h1.812c0.403,0,0.674,0.191,0.85,0.521
			l2.949,5.497c0.078,0.154,0.137,0.251,0.213,0.251s0.135-0.097,0.213-0.251l2.949-5.497c0.176-0.327,0.443-0.521,0.85-0.521h1.812
			c0.403,0,0.694,0.27,0.694,0.675v13.385C124.857,132.292,124.683,132.351,124.529,132.351z"/>
		<path fill="#FFFFFF" d="M135.929,132.273c-0.676,0.097-1.659,0.251-3.741,0.251c-2.488,0-4.688-0.638-4.688-4.147v-6.4
			c0-3.512,2.219-4.128,4.705-4.128c2.084,0,3.049,0.152,3.725,0.251c0.271,0.037,0.386,0.135,0.386,0.386v1.794
			c0,0.212-0.175,0.385-0.386,0.385h-3.916c-0.905,0-1.233,0.311-1.233,1.312v1.755h4.996c0.211,0,0.385,0.173,0.385,0.386v1.832
			c0,0.212-0.174,0.386-0.385,0.386h-4.996v2.045c0,1.004,0.328,1.312,1.233,1.312h3.916c0.211,0,0.386,0.173,0.386,0.385v1.794
			C136.314,132.118,136.199,132.233,135.929,132.273z"/>
		<path fill="#FFFFFF" d="M149.353,132.351h-1.891c-0.404,0-0.695-0.077-1.004-0.6l-4.396-7.6c-0.077-0.115-0.114-0.154-0.174-0.154
			c-0.059,0-0.098,0.039-0.098,0.154v7.812c0,0.212-0.174,0.386-0.385,0.386h-2.275c-0.213,0-0.387-0.174-0.387-0.386v-13.213
			c0-0.404,0.328-0.73,0.731-0.73h1.949c0.385,0,0.576,0.19,0.81,0.598l4.571,7.946c0.076,0.114,0.097,0.153,0.152,0.153
			c0.039,0,0.098-0.039,0.098-0.175v-8.157c0-0.212,0.174-0.365,0.388-0.365h2.274c0.213,0,0.385,0.153,0.385,0.365v13.229
			C150.105,132.022,149.757,132.351,149.353,132.351z"/>
		<path fill="#FFFFFF" d="M161.386,120.739h-3.125v11.226c0,0.212-0.174,0.387-0.387,0.387h-2.525c-0.213,0-0.387-0.175-0.387-0.387
			v-11.226h-3.145c-0.211,0-0.386-0.154-0.386-0.367v-1.985c0-0.212,0.175-0.365,0.386-0.365h9.565c0.213,0,0.406,0.153,0.406,0.365
			v1.985C161.79,120.585,161.597,120.739,161.386,120.739z"/>
		<path fill="#002C5F" d="M58.154,139.106l-0.535,2.733c-0.043,0.201-0.146,0.273-0.289,0.273h-0.854
			c-0.102,0-0.157-0.058-0.157-0.158c0-0.028,0-0.072,0.014-0.115l0.883-2.733c0.06-0.202,0.131-0.274,0.273-0.274h0.551
			c0.102,0,0.131,0.06,0.131,0.146C58.169,139.021,58.169,139.063,58.154,139.106z"/>
		<path fill="#002C5F" d="M68.193,149.709h-0.709c-0.158,0-0.289-0.129-0.289-0.289v-8.577c0-0.028,0-0.044-0.015-0.044
			c-0.016,0-0.016,0-0.028,0.028l-2.068,4.282c-0.145,0.289-0.289,0.42-0.649,0.42h-0.666c-0.361,0-0.507-0.131-0.65-0.42
			l-2.068-4.282c-0.016-0.028-0.016-0.028-0.028-0.028c-0.014,0-0.015,0.016-0.015,0.044v8.577c0,0.16-0.131,0.289-0.289,0.289
			h-0.709c-0.158,0-0.289-0.129-0.289-0.289v-10.038c0-0.23,0.188-0.421,0.42-0.421h0.939c0.26,0,0.377,0.061,0.463,0.246
			l2.387,4.962c0.06,0.13,0.103,0.158,0.175,0.158c0.071,0,0.114-0.028,0.174-0.158l2.387-4.962
			c0.088-0.188,0.203-0.246,0.463-0.246h0.939c0.231,0,0.42,0.188,0.42,0.421v10.038C68.482,149.58,68.351,149.709,68.193,149.709z"
			/>
		<path fill="#002C5F" d="M71.925,149.709H71.13c-0.146,0-0.262-0.129-0.262-0.289v-10.184c0-0.146,0.102-0.275,0.262-0.275h0.795
			c0.146,0,0.26,0.116,0.26,0.275v10.184C72.185,149.564,72.085,149.709,71.925,149.709z"/>
		<path fill="#002C5F" d="M81.748,149.709h-0.896c-0.232,0-0.392-0.086-0.464-0.229l-4.471-8.491
			c-0.016-0.029-0.029-0.043-0.043-0.043c-0.016,0-0.016,0.014-0.016,0.043v8.448c0,0.145-0.115,0.272-0.261,0.272h-0.752
			c-0.146,0-0.262-0.026-0.262-0.174v-10.169c0-0.23,0.188-0.405,0.42-0.405h0.797c0.402,0,0.478,0.072,0.592,0.29l4.441,8.448
			l0.027,0.043c0.016,0,0.016-0.028,0.016-0.043v-8.462c0-0.146,0.115-0.274,0.26-0.274h0.769c0.157,0,0.262,0.131,0.262,0.274
			v10.052C82.167,149.521,81.98,149.709,81.748,149.709z"/>
		<path fill="#002C5F" d="M85.624,149.709h-0.797c-0.146,0-0.26-0.129-0.26-0.289v-10.184c0-0.146,0.102-0.275,0.26-0.275h0.797
			c0.146,0,0.26,0.116,0.26,0.275v10.184C85.884,149.564,85.785,149.709,85.624,149.709z"/>
		<path fill="#002C5F" d="M96.763,149.709h-0.709c-0.157,0-0.289-0.129-0.289-0.289v-8.577c0-0.028,0-0.044-0.014-0.044
			c-0.016,0-0.016,0-0.029,0.028l-2.067,4.282c-0.146,0.289-0.289,0.42-0.65,0.42h-0.666c-0.36,0-0.506-0.131-0.649-0.42
			l-2.068-4.282c-0.016-0.028-0.016-0.028-0.029-0.028c-0.013,0-0.014,0.016-0.014,0.044v8.577c0,0.16-0.131,0.289-0.289,0.289
			h-0.709c-0.158,0-0.289-0.129-0.289-0.289v-10.038c0-0.23,0.188-0.421,0.42-0.421h0.939c0.26,0,0.375,0.061,0.463,0.246
			l2.387,4.962c0.06,0.13,0.103,0.158,0.174,0.158c0.072,0,0.115-0.028,0.174-0.158l2.388-4.962
			c0.086-0.188,0.203-0.246,0.463-0.246h0.938c0.232,0,0.421,0.188,0.421,0.421v10.038C97.052,149.58,96.921,149.709,96.763,149.709
			z"/>
		<path fill="#002C5F" d="M100.496,149.709h-0.797c-0.146,0-0.26-0.129-0.26-0.289v-10.184c0-0.146,0.102-0.275,0.26-0.275h0.797
			c0.145,0,0.26,0.116,0.26,0.275v10.184C100.755,149.564,100.656,149.709,100.496,149.709z"/>
		<path fill="#002C5F" d="M105.689,149.811c-1.013,0-1.767-0.103-2.4-0.203c-0.246-0.043-0.275-0.102-0.275-0.26v-0.578
			c0-0.16,0.117-0.232,0.246-0.232c0.017,0,0.029,0,0.045,0c0.664,0.06,1.722,0.088,2.388,0.088c1.733,0,2.196-0.692,2.196-1.707
			c0-0.723-0.418-1.129-1.733-1.938l-1.402-0.855c-1.332-0.809-1.996-1.547-1.996-2.705c0-1.75,1.258-2.56,3.457-2.56
			c0.854,0,1.967,0.086,2.516,0.173c0.146,0.029,0.246,0.103,0.246,0.246v0.622c0,0.146-0.102,0.23-0.246,0.23
			c-0.014,0-0.014,0-0.026,0c-0.637-0.043-1.648-0.087-2.488-0.087c-1.49,0-2.127,0.317-2.127,1.373c0,0.683,0.479,1.084,1.576,1.75
			l1.332,0.796c1.678,0.997,2.271,1.795,2.271,2.95C109.261,148.307,108.539,149.811,105.689,149.811z"/>
		<path fill="#002C5F" d="M112.314,149.709h-0.796c-0.146,0-0.262-0.129-0.262-0.289v-10.184c0-0.146,0.103-0.275,0.262-0.275h0.796
			c0.146,0,0.26,0.116,0.26,0.275v10.184C112.574,149.564,112.474,149.709,112.314,149.709z"/>
		<path fill="#002C5F" d="M122.136,149.709h-0.896c-0.23,0-0.392-0.086-0.463-0.229l-4.472-8.491
			c-0.014-0.029-0.028-0.043-0.043-0.043c-0.016,0-0.016,0.014-0.016,0.043v8.448c0,0.145-0.115,0.272-0.26,0.272h-0.752
			c-0.146,0-0.263-0.026-0.263-0.174v-10.169c0-0.23,0.188-0.405,0.42-0.405h0.798c0.403,0,0.477,0.072,0.592,0.29l4.44,8.448
			l0.029,0.043c0.014,0,0.014-0.028,0.014-0.043v-8.462c0-0.146,0.115-0.274,0.261-0.274h0.768c0.158,0,0.262,0.131,0.262,0.274
			v10.052C122.556,149.521,122.369,149.709,122.136,149.709z"/>
		<path fill="#002C5F" d="M131.148,149.594c-0.709,0.114-1.519,0.219-2.877,0.219c-1.81,0-3.748-1.188-3.748-4.5v-1.938
			c0-3.515,2.024-4.513,3.877-4.513c1.346,0,2.198,0.115,2.748,0.202c0.131,0.015,0.245,0.072,0.245,0.217v0.725
			c0,0.103-0.057,0.146-0.188,0.146c-0.016,0-0.045,0-0.059,0c-0.854-0.072-1.521-0.103-2.748-0.103
			c-1.347,0-2.562,0.725-2.562,3.327v1.938c0,2.387,1.084,3.328,2.431,3.328c0.883,0,1.475-0.06,1.821-0.088v-4.138
			c0-0.159,0.103-0.291,0.263-0.291h0.778c0.146,0,0.275,0.132,0.275,0.291v4.859C131.41,149.436,131.308,149.564,131.148,149.594z"
			/>
		<path fill="#002C5F" d="M22.412,167.098c-0.549,0.059-1.967,0.071-2.82,0.071c-2.022,0-3.08-0.768-3.08-2.688v-5.57
			c0-1.924,1.058-2.688,3.08-2.688c0.854,0,2.215,0.026,2.82,0.086c0.088,0.016,0.146,0.115,0.146,0.203v0.723
			c0,0.102-0.059,0.174-0.159,0.174h-2.791c-1.533,0-1.779,0.406-1.779,1.506v2.011h4.44c0.158,0,0.289,0.131,0.289,0.289v0.551
			c0,0.158-0.131,0.289-0.289,0.289h-4.44v2.432c0,1.098,0.246,1.504,1.779,1.504h2.791c0.104,0,0.159,0.072,0.159,0.174v0.736
			C22.558,166.982,22.499,167.084,22.412,167.098z"/>
		<path fill="#002C5F" d="M31.642,167.068h-0.896c-0.23,0-0.391-0.086-0.463-0.229l-4.472-8.49
			c-0.014-0.029-0.028-0.045-0.043-0.045c-0.014,0-0.014,0.016-0.014,0.045v8.446c0,0.146-0.117,0.273-0.262,0.273h-0.752
			c-0.146,0-0.263-0.029-0.263-0.174v-10.168c0-0.232,0.189-0.406,0.421-0.406h0.797c0.403,0,0.477,0.072,0.594,0.291l4.438,8.447
			l0.029,0.043c0.014,0,0.014-0.029,0.014-0.043v-8.463c0-0.146,0.115-0.275,0.261-0.275H31.8c0.16,0,0.262,0.131,0.262,0.275
			v10.053C32.062,166.881,31.874,167.068,31.642,167.068z"/>
		<path fill="#002C5F" d="M41.65,156.654l-2.662,9.416c-0.261,0.912-0.927,1.101-1.476,1.101c-0.534,0-1.217-0.188-1.477-1.101
			l-2.678-9.416c-0.015-0.029-0.015-0.059-0.015-0.088c0-0.145,0.115-0.246,0.261-0.246h0.84c0.115,0,0.229,0.103,0.26,0.219
			l2.518,9.213c0.06,0.203,0.132,0.306,0.291,0.306c0.146,0,0.218-0.103,0.273-0.306l2.531-9.213
			c0.029-0.116,0.131-0.219,0.246-0.219h0.854c0.146,0,0.246,0.103,0.246,0.246C41.664,156.596,41.664,156.625,41.65,156.654z"/>
		<path fill="#002C5F" d="M44.486,167.068h-0.797c-0.146,0-0.261-0.129-0.261-0.289v-10.184c0-0.146,0.103-0.275,0.261-0.275h0.797
			c0.145,0,0.26,0.117,0.26,0.275v10.184C44.746,166.924,44.644,167.068,44.486,167.068z"/>
		<path fill="#002C5F" d="M54.308,167.068h-0.926c-0.174,0-0.262,0-0.377-0.188l-2.59-4.312c-0.043,0-0.088,0-0.131,0
			c-0.086,0-0.158,0-0.244,0c-0.479,0-0.824-0.014-1.592-0.043v4.252c0,0.146-0.103,0.289-0.263,0.289h-0.78
			c-0.146,0-0.261-0.129-0.261-0.289v-10.125c0-0.203,0.087-0.289,0.349-0.317c0.621-0.072,1.707-0.115,2.547-0.115
			c2.283,0,4.049,0.768,4.049,3.108v0.103c0,1.621-0.953,2.574-2.271,2.922l2.633,4.396c0.028,0.046,0.045,0.089,0.045,0.132
			C54.496,166.982,54.423,167.068,54.308,167.068z M52.787,159.33c0-1.446-0.939-1.924-2.746-1.924c-0.449,0-1.244,0-1.592,0.043
			v3.963c0.637,0.017,1.258,0.029,1.592,0.029c1.777,0,2.746-0.447,2.746-2.01V159.33z"/>
		<path fill="#002C5F" d="M59.558,167.17c-2.271,0-3.92-1.329-3.92-4.54v-1.865c0-3.213,1.648-4.543,3.92-4.543
			c2.272,0,3.906,1.33,3.906,4.543v1.865C63.464,165.84,61.83,167.17,59.558,167.17z M62.134,160.764
			c0-2.433-0.983-3.357-2.576-3.357c-1.575,0-2.59,0.926-2.59,3.357v1.864c0,2.431,1,3.355,2.59,3.355
			c1.576,0,2.576-0.926,2.576-3.355V160.764z"/>
		<path fill="#002C5F" d="M72.621,167.068h-0.896c-0.229,0-0.391-0.086-0.463-0.229l-4.469-8.49
			c-0.016-0.029-0.029-0.045-0.043-0.045c-0.016,0-0.016,0.016-0.016,0.045v8.446c0,0.146-0.117,0.273-0.263,0.273H65.72
			c-0.145,0-0.26-0.029-0.26-0.174v-10.168c0-0.232,0.188-0.406,0.42-0.406h0.795c0.404,0,0.478,0.072,0.594,0.291l4.439,8.447
			l0.029,0.043c0.016,0,0.016-0.029,0.016-0.043v-8.463c0-0.146,0.113-0.275,0.26-0.275h0.769c0.157,0,0.26,0.131,0.26,0.275v10.053
			C73.04,166.881,72.853,167.068,72.621,167.068z"/>
		<path fill="#002C5F" d="M83.775,167.068h-0.709c-0.158,0-0.289-0.129-0.289-0.289v-8.578c0-0.028,0-0.043-0.015-0.043
			c-0.016,0-0.016,0-0.028,0.029l-2.068,4.281c-0.145,0.289-0.289,0.42-0.65,0.42H79.35c-0.36,0-0.506-0.131-0.649-0.42
			l-2.068-4.281c-0.016-0.029-0.016-0.029-0.029-0.029c-0.013,0-0.014,0.015-0.014,0.043v8.578c0,0.16-0.131,0.289-0.289,0.289
			h-0.709c-0.158,0-0.289-0.129-0.289-0.289V156.74c0-0.229,0.188-0.42,0.42-0.42h0.939c0.26,0,0.377,0.059,0.463,0.246l2.387,4.963
			c0.06,0.129,0.103,0.158,0.175,0.158c0.071,0,0.114-0.029,0.174-0.158l2.387-4.963c0.088-0.188,0.203-0.246,0.463-0.246h0.939
			c0.231,0,0.42,0.188,0.42,0.42v10.039C84.064,166.939,83.933,167.068,83.775,167.068z"/>
		<path fill="#002C5F" d="M92.208,167.098c-0.551,0.059-1.969,0.071-2.82,0.071c-2.024,0-3.082-0.768-3.082-2.688v-5.57
			c0-1.924,1.058-2.688,3.082-2.688c0.854,0,2.213,0.026,2.82,0.086c0.088,0.016,0.146,0.115,0.146,0.203v0.723
			c0,0.102-0.058,0.174-0.158,0.174h-2.793c-1.533,0-1.777,0.406-1.777,1.506v2.011h4.439c0.159,0,0.289,0.131,0.289,0.289v0.551
			c0,0.158-0.13,0.289-0.289,0.289h-4.439v2.432c0,1.098,0.244,1.504,1.777,1.504h2.793c0.102,0,0.158,0.072,0.158,0.174v0.736
			C92.353,166.982,92.296,167.084,92.208,167.098z"/>
		<path fill="#002C5F" d="M101.439,167.068h-0.896c-0.231,0-0.393-0.086-0.465-0.229l-4.469-8.49
			c-0.017-0.029-0.029-0.045-0.043-0.045c-0.017,0-0.017,0.016-0.017,0.045v8.446c0,0.146-0.115,0.273-0.262,0.273h-0.752
			c-0.146,0-0.26-0.029-0.26-0.174v-10.168c0-0.232,0.188-0.406,0.42-0.406h0.795c0.403,0,0.479,0.072,0.594,0.291l4.439,8.447
			l0.028,0.043c0.017,0,0.017-0.029,0.017-0.043v-8.463c0-0.146,0.114-0.275,0.26-0.275h0.768c0.158,0,0.26,0.131,0.26,0.275v10.053
			C101.857,166.881,101.669,167.068,101.439,167.068z"/>
		<path fill="#002C5F" d="M110.246,157.449h-2.82v9.33c0,0.146-0.104,0.289-0.262,0.289h-0.795c-0.146,0-0.262-0.129-0.262-0.289
			v-9.33h-2.82c-0.158,0-0.289-0.072-0.289-0.229v-0.638c0-0.145,0.131-0.262,0.289-0.262h6.959c0.158,0,0.272,0.103,0.272,0.262
			v0.638C110.521,157.363,110.404,157.449,110.246,157.449z"/>
		<path fill="#002C5F" d="M116.929,167.068h-0.795c-0.146,0-0.262-0.129-0.262-0.289v-10.184c0-0.146,0.102-0.275,0.262-0.275h0.795
			c0.146,0,0.261,0.117,0.261,0.275v10.184C117.189,166.924,117.089,167.068,116.929,167.068z"/>
		<path fill="#002C5F" d="M128.068,167.068h-0.709c-0.158,0-0.289-0.129-0.289-0.289v-8.578c0-0.028,0-0.043-0.015-0.043
			c-0.016,0-0.016,0-0.028,0.029l-2.068,4.281c-0.145,0.289-0.289,0.42-0.649,0.42h-0.666c-0.361,0-0.507-0.131-0.65-0.42
			l-2.068-4.281c-0.016-0.029-0.016-0.029-0.028-0.029c-0.014,0-0.015,0.015-0.015,0.043v8.578c0,0.16-0.131,0.289-0.289,0.289
			h-0.709c-0.158,0-0.289-0.129-0.289-0.289V156.74c0-0.229,0.188-0.42,0.42-0.42h0.939c0.26,0,0.377,0.059,0.463,0.246l2.387,4.963
			c0.06,0.129,0.103,0.158,0.175,0.158c0.071,0,0.114-0.029,0.174-0.158l2.387-4.963c0.088-0.188,0.203-0.246,0.463-0.246h0.939
			c0.231,0,0.42,0.188,0.42,0.42v10.039C128.357,166.939,128.226,167.068,128.068,167.068z"/>
		<path fill="#002C5F" d="M133.349,162.787c-0.463,0-1.069-0.043-1.446-0.071v4.063c0,0.146-0.103,0.289-0.261,0.289h-0.78
			c-0.146,0-0.263-0.129-0.263-0.289v-10.082c0-0.203,0.131-0.332,0.349-0.361c0.623-0.071,1.562-0.114,2.401-0.114
			c2.343,0,4.05,0.811,4.05,3.139v0.188C137.398,161.963,135.691,162.787,133.349,162.787z M136.081,159.359
			c0-1.461-0.867-2.025-2.732-2.025c-0.448,0-1.1,0.029-1.446,0.06v4.238c0.332,0.014,1.069,0.059,1.446,0.059
			c1.98,0,2.732-0.639,2.732-2.143V159.359z"/>
		<path fill="#002C5F" d="M145.644,167.068h-0.854c-0.129,0-0.217-0.102-0.244-0.217l-0.94-3.326h-3.746l-0.927,3.326
			c-0.028,0.115-0.145,0.217-0.26,0.217h-0.854c-0.146,0-0.244-0.102-0.244-0.229c0-0.029,0-0.072,0.014-0.103l2.678-9.418
			c0.244-0.881,0.927-1.098,1.476-1.098c0.535,0,1.215,0.201,1.461,1.084l2.678,9.432c0.014,0.029,0.014,0.072,0.014,0.103
			C145.89,166.967,145.802,167.068,145.644,167.068z M142.013,157.623c-0.043-0.157-0.131-0.26-0.274-0.26
			c-0.158,0-0.246,0.103-0.289,0.26l-1.316,4.761h3.197L142.013,157.623z"/>
		<path fill="#002C5F" d="M153.076,166.982c-0.605,0.115-1.172,0.188-2.4,0.188c-1.778,0-3.817-0.954-3.817-4.471v-2.01
			c0-3.545,2.039-4.471,3.817-4.471c0.912,0,1.795,0.131,2.433,0.229c0.129,0.014,0.229,0.06,0.229,0.189v0.735
			c0,0.088-0.029,0.16-0.174,0.16c-0.016,0-0.029,0-0.043,0c-0.521-0.045-1.592-0.131-2.433-0.131c-1.418,0-2.516,0.824-2.516,3.283
			v2.012c0,2.43,1.098,3.283,2.516,3.283c0.824,0,1.867-0.072,2.388-0.115c0.016,0,0.045,0,0.059,0c0.16,0,0.23,0.072,0.23,0.23
			v0.594C153.365,166.867,153.236,166.953,153.076,166.982z"/>
		<path fill="#002C5F" d="M161.624,157.449h-2.82v9.33c0,0.146-0.102,0.289-0.26,0.289h-0.795c-0.146,0-0.262-0.129-0.262-0.289
			v-9.33h-2.82c-0.158,0-0.289-0.072-0.289-0.229v-0.638c0-0.145,0.131-0.262,0.289-0.262h6.957c0.158,0,0.275,0.103,0.275,0.262
			v0.638C161.9,157.363,161.785,157.449,161.624,157.449z"/>
		<path fill="#002C5F" d="M166.068,167.17c-1.015,0-1.767-0.102-2.4-0.202c-0.246-0.043-0.275-0.101-0.275-0.261v-0.578
			c0-0.157,0.115-0.229,0.246-0.229c0.015,0,0.027,0,0.043,0c0.666,0.057,1.722,0.086,2.388,0.086c1.735,0,2.198-0.693,2.198-1.707
			c0-0.723-0.42-1.127-1.735-1.938l-1.402-0.854c-1.33-0.811-1.996-1.549-1.996-2.705c0-1.75,1.258-2.561,3.457-2.561
			c0.854,0,1.967,0.086,2.519,0.174c0.145,0.027,0.245,0.102,0.245,0.246v0.621c0,0.145-0.102,0.229-0.245,0.229
			c-0.017,0-0.017,0-0.027,0c-0.639-0.043-1.65-0.086-2.488-0.086c-1.489,0-2.127,0.318-2.127,1.373
			c0,0.682,0.478,1.086,1.576,1.752l1.332,0.795c1.678,0.998,2.271,1.793,2.271,2.951C169.64,165.666,168.917,167.17,166.068,167.17
			z"/>
		<path fill="#002C5F" d="M172.621,156.465l-0.883,2.733c-0.06,0.203-0.131,0.275-0.273,0.275h-0.551
			c-0.103,0-0.131-0.06-0.131-0.146c0-0.043,0-0.086,0.016-0.129l0.533-2.733c0.045-0.203,0.146-0.273,0.291-0.273h0.854
			c0.102,0,0.159,0.057,0.159,0.158C172.634,156.379,172.634,156.422,172.621,156.465z"/>
	</g>
	
		<use xlink:href="#New_Symbol_61"  width="15" height="15" id="XMLID_15_" x="-7.5" y="-7.5" transform="matrix(5.4045 0 0 -5.4045 94.2168 62.3018)" overflow="visible"/>
</g>
</svg>
