<?xml version="1.0" encoding="utf-8"?>
<!-- Generator: Adobe Illustrator 15.1.0, SVG Export Plug-In . SVG Version: 6.00 Build 0)  -->
<!DOCTYPE svg PUBLIC "-//W3C//DTD SVG 1.1//EN" "http://www.w3.org/Graphics/SVG/1.1/DTD/svg11.dtd">
<svg version="1.1" id="Layer_1" xmlns="http://www.w3.org/2000/svg" xmlns:xlink="http://www.w3.org/1999/xlink" x="0px" y="0px"
	 width="45px" height="45px" viewBox="0 0 45 45" enable-background="new 0 0 45 45" xml:space="preserve">
<g>
	<path fill="#9397CB" d="M22.5,37C30.508,37,37,30.508,37,22.5S30.508,8,22.5,8S8,14.492,8,22.5C8,30.507,14.492,37,22.5,37L22.5,37
		z"/>
	<path fill="#FFFFFF" d="M21.081,21.059h-5.985c-0.385,0-0.699,0.174-0.699,0.56v1.399c0,0.385,0.314,0.561,0.699,0.561h5.985h2.521
		h6.02c0.385,0,0.699-0.176,0.699-0.561l0,0v-1.399c0-0.386-0.314-0.56-0.699-0.56h-6.02"/>
</g>
</svg>
